<?xml version="1.0" encoding="UTF-8" standalone="no"?>
<!DOCTYPE svg PUBLIC "-//W3C//DTD SVG 1.1//EN"
 "http://www.w3.org/Graphics/SVG/1.1/DTD/svg11.dtd">
<!-- Generated by graphviz version 12.1.2 (20240928.0832)
 -->
<!-- Title: public.tenants Pages: 1 -->
<svg width="2000pt" height="1099pt"
 viewBox="0.00 0.00 2000.11 1098.80" xmlns="http://www.w3.org/2000/svg" xmlns:xlink="http://www.w3.org/1999/xlink">
<g id="graph0" class="graph" transform="scale(1 1) rotate(0) translate(4 1094.8)">
<title>public.tenants</title>
<polygon fill="white" stroke="none" points="-4,4 -4,-1094.8 1996.11,-1094.8 1996.11,4 -4,4"/>
<!-- public.tenants -->
<g id="node1" class="node">
<title>public.tenants</title>
<polygon fill="#efefef" stroke="none" points="710.84,-231 710.84,-266.6 964.52,-266.6 964.52,-231 710.84,-231"/>
<polygon fill="none" stroke="black" points="710.84,-231 710.84,-266.6 964.52,-266.6 964.52,-231 710.84,-231"/>
<text text-anchor="start" x="725.2" y="-244.4" font-family="Arial Bold" font-size="18.00">public.tenants</text>
<text text-anchor="start" x="825.67" y="-244.4" font-family="Arial" font-size="14.00">    </text>
<text text-anchor="start" x="856.79" y="-244.4" font-family="Arial" font-size="14.00" fill="#666666">[BASE TABLE]</text>
<polygon fill="none" stroke="black" points="710.84,-200.2 710.84,-231 964.52,-231 964.52,-200.2 710.84,-200.2"/>
<text text-anchor="start" x="717.84" y="-212.4" font-family="Arial" font-size="14.00">id </text>
<text text-anchor="start" x="732.63" y="-212.4" font-family="Arial" font-size="14.00" fill="#666666">[uuid]</text>
<polygon fill="none" stroke="black" points="710.84,-169.4 710.84,-200.2 964.52,-200.2 964.52,-169.4 710.84,-169.4"/>
<text text-anchor="start" x="717.84" y="-181.6" font-family="Arial" font-size="14.00">name </text>
<text text-anchor="start" x="756.75" y="-181.6" font-family="Arial" font-size="14.00" fill="#666666">[text]</text>
<polygon fill="none" stroke="black" points="710.84,-138.6 710.84,-169.4 964.52,-169.4 964.52,-138.6 710.84,-138.6"/>
<text text-anchor="start" x="717.84" y="-150.8" font-family="Arial" font-size="14.00">slug </text>
<text text-anchor="start" x="747.41" y="-150.8" font-family="Arial" font-size="14.00" fill="#666666">[text]</text>
<polygon fill="none" stroke="black" points="710.84,-107.8 710.84,-138.6 964.52,-138.6 964.52,-107.8 710.84,-107.8"/>
<text text-anchor="start" x="717.84" y="-120" font-family="Arial" font-size="14.00">password_hash </text>
<text text-anchor="start" x="819.79" y="-120" font-family="Arial" font-size="14.00" fill="#666666">[text]</text>
<polygon fill="none" stroke="black" points="710.84,-77 710.84,-107.8 964.52,-107.8 964.52,-77 710.84,-77"/>
<text text-anchor="start" x="717.84" y="-89.2" font-family="Arial" font-size="14.00">created_at </text>
<text text-anchor="start" x="787.89" y="-89.2" font-family="Arial" font-size="14.00" fill="#666666">[timestamp with time zone]</text>
<polygon fill="none" stroke="black" points="710.84,-46.2 710.84,-77 964.52,-77 964.52,-46.2 710.84,-46.2"/>
<text text-anchor="start" x="717.84" y="-58.4" font-family="Arial" font-size="14.00">updated_at </text>
<text text-anchor="start" x="791.8" y="-58.4" font-family="Arial" font-size="14.00" fill="#666666">[timestamp with time zone]</text>
<polygon fill="none" stroke="black" stroke-width="3" points="709.34,-44.7 709.34,-268.1 966.02,-268.1 966.02,-44.7 709.34,-44.7"/>
</g>
<!-- public.tenant_domains -->
<g id="node2" class="node">
<title>public.tenant_domains</title>
<polygon fill="#efefef" stroke="none" points="61.7,-576.8 61.7,-612.4 363.66,-612.4 363.66,-576.8 61.7,-576.8"/>
<polygon fill="none" stroke="black" points="61.7,-576.8 61.7,-612.4 363.66,-612.4 363.66,-576.8 61.7,-576.8"/>
<text text-anchor="start" x="68.7" y="-590.2" font-family="Arial Bold" font-size="18.00">public.tenant_domains</text>
<text text-anchor="start" x="232.17" y="-590.2" font-family="Arial" font-size="14.00">    </text>
<text text-anchor="start" x="263.29" y="-590.2" font-family="Arial" font-size="14.00" fill="#666666">[BASE TABLE]</text>
<polygon fill="none" stroke="black" points="61.7,-546 61.7,-576.8 363.66,-576.8 363.66,-546 61.7,-546"/>
<text text-anchor="start" x="68.7" y="-558.2" font-family="Arial" font-size="14.00">id </text>
<text text-anchor="start" x="83.49" y="-558.2" font-family="Arial" font-size="14.00" fill="#666666">[uuid]</text>
<polygon fill="none" stroke="black" points="61.7,-515.2 61.7,-546 363.66,-546 363.66,-515.2 61.7,-515.2"/>
<text text-anchor="start" x="68.7" y="-527.4" font-family="Arial" font-size="14.00">tenant_id </text>
<text text-anchor="start" x="130.2" y="-527.4" font-family="Arial" font-size="14.00" fill="#666666">[uuid]</text>
<polygon fill="none" stroke="black" points="61.7,-484.4 61.7,-515.2 363.66,-515.2 363.66,-484.4 61.7,-484.4"/>
<text text-anchor="start" x="68.7" y="-496.6" font-family="Arial" font-size="14.00">domain </text>
<text text-anchor="start" x="118.51" y="-496.6" font-family="Arial" font-size="14.00" fill="#666666">[text]</text>
<polygon fill="none" stroke="black" points="61.7,-453.6 61.7,-484.4 363.66,-484.4 363.66,-453.6 61.7,-453.6"/>
<text text-anchor="start" x="68.7" y="-465.8" font-family="Arial" font-size="14.00">created_at </text>
<text text-anchor="start" x="138.75" y="-465.8" font-family="Arial" font-size="14.00" fill="#666666">[timestamp with time zone]</text>
</g>
<!-- public.tenant_domains&#45;&gt;public.tenants -->
<g id="edge1" class="edge">
<title>public.tenant_domains:tenant_id&#45;&gt;public.tenants:id</title>
<path fill="none" stroke="black" d="M374.96,-529.9C441,-520.1 363.46,-409.6 415.68,-348.8 509.19,-239.93 566.32,-215.6 709.84,-215.6"/>
<polygon fill="black" stroke="black" points="374.97,-529.9 364.69,-526.09 369.65,-530.26 365.33,-530.55 365.33,-530.55 365.33,-530.55 369.65,-530.26 365.3,-535.07 374.97,-529.9"/>
<text text-anchor="start" x="7" y="-540.6" font-family="Arial" font-size="10.00">FOREIGN KEY (tenant_id) REFERENCES tenants(id) ON DELETE CASCADE</text>
</g>
<!-- public.tenant_join_codes -->
<g id="node3" class="node">
<title>public.tenant_join_codes</title>
<polygon fill="#efefef" stroke="none" points="468.21,-623 468.21,-658.6 787.15,-658.6 787.15,-623 468.21,-623"/>
<polygon fill="none" stroke="black" points="468.21,-623 468.21,-658.6 787.15,-658.6 787.15,-623 468.21,-623"/>
<text text-anchor="start" x="475.21" y="-636.4" font-family="Arial Bold" font-size="18.00">public.tenant_join_codes</text>
<text text-anchor="start" x="655.66" y="-636.4" font-family="Arial" font-size="14.00">    </text>
<text text-anchor="start" x="686.78" y="-636.4" font-family="Arial" font-size="14.00" fill="#666666">[BASE TABLE]</text>
<polygon fill="none" stroke="black" points="468.21,-592.2 468.21,-623 787.15,-623 787.15,-592.2 468.21,-592.2"/>
<text text-anchor="start" x="475.21" y="-604.4" font-family="Arial" font-size="14.00">id </text>
<text text-anchor="start" x="489.99" y="-604.4" font-family="Arial" font-size="14.00" fill="#666666">[uuid]</text>
<polygon fill="none" stroke="black" points="468.21,-561.4 468.21,-592.2 787.15,-592.2 787.15,-561.4 468.21,-561.4"/>
<text text-anchor="start" x="475.21" y="-573.6" font-family="Arial" font-size="14.00">tenant_id </text>
<text text-anchor="start" x="536.7" y="-573.6" font-family="Arial" font-size="14.00" fill="#666666">[uuid]</text>
<polygon fill="none" stroke="black" points="468.21,-530.6 468.21,-561.4 787.15,-561.4 787.15,-530.6 468.21,-530.6"/>
<text text-anchor="start" x="475.21" y="-542.8" font-family="Arial" font-size="14.00">code </text>
<text text-anchor="start" x="509.46" y="-542.8" font-family="Arial" font-size="14.00" fill="#666666">[text]</text>
<polygon fill="none" stroke="black" points="468.21,-499.8 468.21,-530.6 787.15,-530.6 787.15,-499.8 468.21,-499.8"/>
<text text-anchor="start" x="475.21" y="-512" font-family="Arial" font-size="14.00">expires_at </text>
<text text-anchor="start" x="543.69" y="-512" font-family="Arial" font-size="14.00" fill="#666666">[timestamp with time zone]</text>
<polygon fill="none" stroke="black" points="468.21,-469 468.21,-499.8 787.15,-499.8 787.15,-469 468.21,-469"/>
<text text-anchor="start" x="475.21" y="-481.2" font-family="Arial" font-size="14.00">max_uses </text>
<text text-anchor="start" x="542.9" y="-481.2" font-family="Arial" font-size="14.00" fill="#666666">[integer]</text>
<polygon fill="none" stroke="black" points="468.21,-438.2 468.21,-469 787.15,-469 787.15,-438.2 468.21,-438.2"/>
<text text-anchor="start" x="475.21" y="-450.4" font-family="Arial" font-size="14.00">used_count </text>
<text text-anchor="start" x="551.49" y="-450.4" font-family="Arial" font-size="14.00" fill="#666666">[integer]</text>
<polygon fill="none" stroke="black" points="468.21,-407.4 468.21,-438.2 787.15,-438.2 787.15,-407.4 468.21,-407.4"/>
<text text-anchor="start" x="475.21" y="-419.6" font-family="Arial" font-size="14.00">created_at </text>
<text text-anchor="start" x="545.26" y="-419.6" font-family="Arial" font-size="14.00" fill="#666666">[timestamp with time zone]</text>
</g>
<!-- public.tenant_join_codes&#45;&gt;public.tenants -->
<g id="edge2" class="edge">
<title>public.tenant_join_codes:tenant_id&#45;&gt;public.tenants:id</title>
<path fill="none" stroke="black" d="M797.92,-573.81C831.37,-550.88 807.7,-402.6 787.15,-364.2 767.86,-328.15 730.24,-348.8 710.84,-312.8 690.35,-274.77 666.64,-215.6 709.84,-215.6"/>
<polygon fill="black" stroke="black" points="798.04,-573.78 787.16,-572.4 792.94,-575.34 788.79,-576.6 788.79,-576.6 788.79,-576.6 792.94,-575.34 789.79,-581.01 798.04,-573.78"/>
<text text-anchor="start" x="795.15" y="-586.8" font-family="Arial" font-size="10.00">FOREIGN KEY (tenant_id) REFERENCES tenants(id) ON DELETE CASCADE</text>
</g>
<!-- public.tenant_memberships -->
<g id="node4" class="node">
<title>public.tenant_memberships</title>
<polygon fill="#efefef" stroke="none" points="1306.21,-638.4 1306.21,-674 1643.15,-674 1643.15,-638.4 1306.21,-638.4"/>
<polygon fill="none" stroke="black" points="1306.21,-638.4 1306.21,-674 1643.15,-674 1643.15,-638.4 1306.21,-638.4"/>
<text text-anchor="start" x="1313.21" y="-651.8" font-family="Arial Bold" font-size="18.00">public.tenant_memberships</text>
<text text-anchor="start" x="1511.66" y="-651.8" font-family="Arial" font-size="14.00">    </text>
<text text-anchor="start" x="1542.78" y="-651.8" font-family="Arial" font-size="14.00" fill="#666666">[BASE TABLE]</text>
<polygon fill="none" stroke="black" points="1306.21,-607.6 1306.21,-638.4 1643.15,-638.4 1643.15,-607.6 1306.21,-607.6"/>
<text text-anchor="start" x="1313.21" y="-619.8" font-family="Arial" font-size="14.00">id </text>
<text text-anchor="start" x="1327.99" y="-619.8" font-family="Arial" font-size="14.00" fill="#666666">[uuid]</text>
<polygon fill="none" stroke="black" points="1306.21,-576.8 1306.21,-607.6 1643.15,-607.6 1643.15,-576.8 1306.21,-576.8"/>
<text text-anchor="start" x="1313.21" y="-589" font-family="Arial" font-size="14.00">tenant_id </text>
<text text-anchor="start" x="1374.7" y="-589" font-family="Arial" font-size="14.00" fill="#666666">[uuid]</text>
<polygon fill="none" stroke="black" points="1306.21,-546 1306.21,-576.8 1643.15,-576.8 1643.15,-546 1306.21,-546"/>
<text text-anchor="start" x="1313.21" y="-558.2" font-family="Arial" font-size="14.00">user_id </text>
<text text-anchor="start" x="1363.01" y="-558.2" font-family="Arial" font-size="14.00" fill="#666666">[uuid]</text>
<polygon fill="none" stroke="black" points="1306.21,-515.2 1306.21,-546 1643.15,-546 1643.15,-515.2 1306.21,-515.2"/>
<text text-anchor="start" x="1313.21" y="-527.4" font-family="Arial" font-size="14.00">role </text>
<text text-anchor="start" x="1340.44" y="-527.4" font-family="Arial" font-size="14.00" fill="#666666">[text]</text>
<polygon fill="none" stroke="black" points="1306.21,-484.4 1306.21,-515.2 1643.15,-515.2 1643.15,-484.4 1306.21,-484.4"/>
<text text-anchor="start" x="1313.21" y="-496.6" font-family="Arial" font-size="14.00">status </text>
<text text-anchor="start" x="1354.45" y="-496.6" font-family="Arial" font-size="14.00" fill="#666666">[text]</text>
<polygon fill="none" stroke="black" points="1306.21,-453.6 1306.21,-484.4 1643.15,-484.4 1643.15,-453.6 1306.21,-453.6"/>
<text text-anchor="start" x="1313.21" y="-465.8" font-family="Arial" font-size="14.00">joined_via </text>
<text text-anchor="start" x="1380.15" y="-465.8" font-family="Arial" font-size="14.00" fill="#666666">[text]</text>
<polygon fill="none" stroke="black" points="1306.21,-422.8 1306.21,-453.6 1643.15,-453.6 1643.15,-422.8 1306.21,-422.8"/>
<text text-anchor="start" x="1313.21" y="-435" font-family="Arial" font-size="14.00">created_at </text>
<text text-anchor="start" x="1383.26" y="-435" font-family="Arial" font-size="14.00" fill="#666666">[timestamp with time zone]</text>
<polygon fill="none" stroke="black" points="1306.21,-392 1306.21,-422.8 1643.15,-422.8 1643.15,-392 1306.21,-392"/>
<text text-anchor="start" x="1313.21" y="-404.2" font-family="Arial" font-size="14.00">left_at </text>
<text text-anchor="start" x="1355.23" y="-404.2" font-family="Arial" font-size="14.00" fill="#666666">[timestamp with time zone]</text>
</g>
<!-- public.tenant_memberships&#45;&gt;public.tenants -->
<g id="edge3" class="edge">
<title>public.tenant_memberships:tenant_id&#45;&gt;public.tenants:id</title>
<path fill="none" stroke="black" d="M1294.98,-591.69C1203.05,-581.86 1321.17,-432.4 1254.68,-348.8 1166.6,-238.06 1107.02,-215.6 965.52,-215.6"/>
<polygon fill="black" stroke="black" points="1294.89,-591.68 1304.65,-596.68 1300.21,-591.95 1304.54,-592.17 1304.54,-592.17 1304.54,-592.17 1300.21,-591.95 1305.1,-587.69 1294.89,-591.68"/>
<text text-anchor="start" x="1312.21" y="-602.2" font-family="Arial" font-size="10.00">FOREIGN KEY (tenant_id) REFERENCES tenants(id) ON DELETE CASCADE</text>
</g>
<!-- public.users -->
<g id="node6" class="node">
<title>public.users</title>
<polygon fill="#efefef" stroke="none" points="1338.11,-231 1338.11,-266.6 1611.25,-266.6 1611.25,-231 1338.11,-231"/>
<polygon fill="none" stroke="black" points="1338.11,-231 1338.11,-266.6 1611.25,-266.6 1611.25,-231 1338.11,-231"/>
<text text-anchor="start" x="1369.19" y="-244.4" font-family="Arial Bold" font-size="18.00">public.users</text>
<text text-anchor="start" x="1455.68" y="-244.4" font-family="Arial" font-size="14.00">    </text>
<text text-anchor="start" x="1486.8" y="-244.4" font-family="Arial" font-size="14.00" fill="#666666">[BASE TABLE]</text>
<polygon fill="none" stroke="black" points="1338.11,-200.2 1338.11,-231 1611.25,-231 1611.25,-200.2 1338.11,-200.2"/>
<text text-anchor="start" x="1345.11" y="-212.4" font-family="Arial" font-size="14.00">id </text>
<text text-anchor="start" x="1359.9" y="-212.4" font-family="Arial" font-size="14.00" fill="#666666">[uuid]</text>
<polygon fill="none" stroke="black" points="1338.11,-169.4 1338.11,-200.2 1611.25,-200.2 1611.25,-169.4 1338.11,-169.4"/>
<text text-anchor="start" x="1345.11" y="-181.6" font-family="Arial" font-size="14.00">email </text>
<text text-anchor="start" x="1382.45" y="-181.6" font-family="Arial" font-size="14.00" fill="#666666">[text]</text>
<polygon fill="none" stroke="black" points="1338.11,-138.6 1338.11,-169.4 1611.25,-169.4 1611.25,-138.6 1338.11,-138.6"/>
<text text-anchor="start" x="1345.11" y="-150.8" font-family="Arial" font-size="14.00">name </text>
<text text-anchor="start" x="1384.02" y="-150.8" font-family="Arial" font-size="14.00" fill="#666666">[text]</text>
<polygon fill="none" stroke="black" points="1338.11,-107.8 1338.11,-138.6 1611.25,-138.6 1611.25,-107.8 1338.11,-107.8"/>
<text text-anchor="start" x="1345.11" y="-120" font-family="Arial" font-size="14.00">icon </text>
<text text-anchor="start" x="1374.68" y="-120" font-family="Arial" font-size="14.00" fill="#666666">[text]</text>
<polygon fill="none" stroke="black" points="1338.11,-77 1338.11,-107.8 1611.25,-107.8 1611.25,-77 1338.11,-77"/>
<text text-anchor="start" x="1345.11" y="-89.2" font-family="Arial" font-size="14.00">created_at </text>
<text text-anchor="start" x="1415.16" y="-89.2" font-family="Arial" font-size="14.00" fill="#666666">[timestamp without time zone]</text>
<polygon fill="none" stroke="black" points="1338.11,-46.2 1338.11,-77 1611.25,-77 1611.25,-46.2 1338.11,-46.2"/>
<text text-anchor="start" x="1345.11" y="-58.4" font-family="Arial" font-size="14.00">updated_at </text>
<text text-anchor="start" x="1419.07" y="-58.4" font-family="Arial" font-size="14.00" fill="#666666">[timestamp without time zone]</text>
</g>
<!-- public.tenant_memberships&#45;&gt;public.users -->
<g id="edge5" class="edge">
<title>public.tenant_memberships:user_id&#45;&gt;public.users:id</title>
<path fill="none" stroke="black" d="M1654.29,-559.19C1718.23,-529.74 1685.81,-215.6 1612.25,-215.6"/>
<polygon fill="black" stroke="black" points="1654.25,-559.2 1643.52,-556.93 1649.04,-560.34 1644.81,-561.26 1644.81,-561.26 1644.81,-561.26 1649.04,-560.34 1645.44,-565.73 1654.25,-559.2"/>
<text text-anchor="start" x="1651.15" y="-571.4" font-family="Arial" font-size="10.00">FOREIGN KEY (user_id) REFERENCES users(id) ON DELETE CASCADE</text>
</g>
<!-- public.sessions -->
<g id="node5" class="node">
<title>public.sessions</title>
<polygon fill="#efefef" stroke="none" points="1349.79,-1012 1349.79,-1047.6 1599.57,-1047.6 1599.57,-1012 1349.79,-1012"/>
<polygon fill="none" stroke="black" points="1349.79,-1012 1349.79,-1047.6 1599.57,-1047.6 1599.57,-1012 1349.79,-1012"/>
<text text-anchor="start" x="1358.19" y="-1025.4" font-family="Arial Bold" font-size="18.00">public.sessions</text>
<text text-anchor="start" x="1466.69" y="-1025.4" font-family="Arial" font-size="14.00">    </text>
<text text-anchor="start" x="1497.8" y="-1025.4" font-family="Arial" font-size="14.00" fill="#666666">[BASE TABLE]</text>
<polygon fill="none" stroke="black" points="1349.79,-981.2 1349.79,-1012 1599.57,-1012 1599.57,-981.2 1349.79,-981.2"/>
<text text-anchor="start" x="1356.79" y="-993.4" font-family="Arial" font-size="14.00">session_id </text>
<text text-anchor="start" x="1426.84" y="-993.4" font-family="Arial" font-size="14.00" fill="#666666">[text]</text>
<polygon fill="none" stroke="black" points="1349.79,-950.4 1349.79,-981.2 1599.57,-981.2 1599.57,-950.4 1349.79,-950.4"/>
<text text-anchor="start" x="1356.79" y="-962.6" font-family="Arial" font-size="14.00">user_id </text>
<text text-anchor="start" x="1406.6" y="-962.6" font-family="Arial" font-size="14.00" fill="#666666">[uuid]</text>
<polygon fill="none" stroke="black" points="1349.79,-919.6 1349.79,-950.4 1599.57,-950.4 1599.57,-919.6 1349.79,-919.6"/>
<text text-anchor="start" x="1356.79" y="-931.8" font-family="Arial" font-size="14.00">active_membership_id </text>
<text text-anchor="start" x="1500.75" y="-931.8" font-family="Arial" font-size="14.00" fill="#666666">[uuid]</text>
<polygon fill="none" stroke="black" points="1349.79,-888.8 1349.79,-919.6 1599.57,-919.6 1599.57,-888.8 1349.79,-888.8"/>
<text text-anchor="start" x="1356.79" y="-901" font-family="Arial" font-size="14.00">created_at </text>
<text text-anchor="start" x="1426.84" y="-901" font-family="Arial" font-size="14.00" fill="#666666">[timestamp with time zone]</text>
<polygon fill="none" stroke="black" points="1349.79,-858 1349.79,-888.8 1599.57,-888.8 1599.57,-858 1349.79,-858"/>
<text text-anchor="start" x="1356.79" y="-870.2" font-family="Arial" font-size="14.00">expires_at </text>
<text text-anchor="start" x="1425.28" y="-870.2" font-family="Arial" font-size="14.00" fill="#666666">[timestamp with time zone]</text>
<polygon fill="none" stroke="black" points="1349.79,-827.2 1349.79,-858 1599.57,-858 1599.57,-827.2 1349.79,-827.2"/>
<text text-anchor="start" x="1356.79" y="-839.4" font-family="Arial" font-size="14.00">csrf_token </text>
<text text-anchor="start" x="1425.27" y="-839.4" font-family="Arial" font-size="14.00" fill="#666666">[text]</text>
<polygon fill="none" stroke="black" points="1349.79,-796.4 1349.79,-827.2 1599.57,-827.2 1599.57,-796.4 1349.79,-796.4"/>
<text text-anchor="start" x="1356.79" y="-808.6" font-family="Arial" font-size="14.00">revoked </text>
<text text-anchor="start" x="1410.49" y="-808.6" font-family="Arial" font-size="14.00" fill="#666666">[boolean]</text>
</g>
<!-- public.sessions&#45;&gt;public.tenant_memberships -->
<g id="edge4" class="edge">
<title>public.sessions:active_membership_id&#45;&gt;public.tenant_memberships:id</title>
<path fill="none" stroke="black" d="M1610.62,-932.84C1674.56,-905.28 1710.74,-623 1644.15,-623"/>
<polygon fill="black" stroke="black" points="1610.67,-932.83 1599.95,-930.53 1605.46,-933.95 1601.22,-934.86 1601.22,-934.86 1601.22,-934.86 1605.46,-933.95 1601.84,-939.33 1610.67,-932.83"/>
<text text-anchor="start" x="1607.57" y="-945" font-family="Arial" font-size="10.00">FOREIGN KEY (active_membership_id) REFERENCES tenant_memberships(id)</text>
</g>
<!-- public.console_sessions -->
<g id="node7" class="node">
<title>public.console_sessions</title>
<polygon fill="#efefef" stroke="none" points="891.19,-576.8 891.19,-612.4 1202.17,-612.4 1202.17,-576.8 891.19,-576.8"/>
<polygon fill="none" stroke="black" points="891.19,-576.8 891.19,-612.4 1202.17,-612.4 1202.17,-576.8 891.19,-576.8"/>
<text text-anchor="start" x="898.19" y="-590.2" font-family="Arial Bold" font-size="18.00">public.console_sessions</text>
<text text-anchor="start" x="1070.68" y="-590.2" font-family="Arial" font-size="14.00">    </text>
<text text-anchor="start" x="1101.8" y="-590.2" font-family="Arial" font-size="14.00" fill="#666666">[BASE TABLE]</text>
<polygon fill="none" stroke="black" points="891.19,-546 891.19,-576.8 1202.17,-576.8 1202.17,-546 891.19,-546"/>
<text text-anchor="start" x="898.19" y="-558.2" font-family="Arial" font-size="14.00">session_id </text>
<text text-anchor="start" x="968.23" y="-558.2" font-family="Arial" font-size="14.00" fill="#666666">[text]</text>
<polygon fill="none" stroke="black" points="891.19,-515.2 891.19,-546 1202.17,-546 1202.17,-515.2 891.19,-515.2"/>
<text text-anchor="start" x="898.19" y="-527.4" font-family="Arial" font-size="14.00">tenant_id </text>
<text text-anchor="start" x="959.69" y="-527.4" font-family="Arial" font-size="14.00" fill="#666666">[uuid]</text>
<polygon fill="none" stroke="black" points="891.19,-484.4 891.19,-515.2 1202.17,-515.2 1202.17,-484.4 891.19,-484.4"/>
<text text-anchor="start" x="898.19" y="-496.6" font-family="Arial" font-size="14.00">created_at </text>
<text text-anchor="start" x="968.24" y="-496.6" font-family="Arial" font-size="14.00" fill="#666666">[timestamp with time zone]</text>
<polygon fill="none" stroke="black" points="891.19,-453.6 891.19,-484.4 1202.17,-484.4 1202.17,-453.6 891.19,-453.6"/>
<text text-anchor="start" x="898.19" y="-465.8" font-family="Arial" font-size="14.00">expires_at </text>
<text text-anchor="start" x="966.68" y="-465.8" font-family="Arial" font-size="14.00" fill="#666666">[timestamp with time zone]</text>
</g>
<!-- public.console_sessions&#45;&gt;public.tenants -->
<g id="edge6" class="edge">
<title>public.console_sessions:tenant_id&#45;&gt;public.tenants:id</title>
<path fill="none" stroke="black" d="M880.09,-530.27C759.1,-521.91 949.62,-356.67 964.52,-312.8 978.41,-271.89 1008.72,-215.6 965.52,-215.6"/>
<polygon fill="black" stroke="black" points="879.86,-530.26 889.71,-535.09 885.2,-530.44 889.52,-530.58 889.52,-530.58 889.52,-530.58 885.2,-530.44 890.01,-526.09 879.86,-530.26"/>
<text text-anchor="start" x="897.19" y="-540.6" font-family="Arial" font-size="10.00">FOREIGN KEY (tenant_id) REFERENCES tenants(id) ON DELETE CASCADE</text>
</g>
</g>
</svg>
