<?xml version="1.0" encoding="UTF-8" standalone="no"?>
<!DOCTYPE svg PUBLIC "-//W3C//DTD SVG 1.1//EN"
 "http://www.w3.org/Graphics/SVG/1.1/DTD/svg11.dtd">
<!-- Generated by graphviz version 12.1.2 (20240928.0832)
 -->
<!-- Title: public.tenant_join_codes Pages: 1 -->
<svg width="860pt" height="725pt"
 viewBox="0.00 0.00 860.35 725.20" xmlns="http://www.w3.org/2000/svg" xmlns:xlink="http://www.w3.org/1999/xlink">
<g id="graph0" class="graph" transform="scale(1 1) rotate(0) translate(4 721.2)">
<title>public.tenant_join_codes</title>
<polygon fill="white" stroke="none" points="-4,4 -4,-721.2 856.35,-721.2 856.35,4 -4,4"/>
<!-- public.tenant_join_codes -->
<g id="node1" class="node">
<title>public.tenant_join_codes</title>
<polygon fill="#efefef" stroke="none" points="46.2,-635.4 46.2,-671 365.15,-671 365.15,-635.4 46.2,-635.4"/>
<polygon fill="none" stroke="black" points="46.2,-635.4 46.2,-671 365.15,-671 365.15,-635.4 46.2,-635.4"/>
<text text-anchor="start" x="53.2" y="-648.8" font-family="Arial Bold" font-size="18.00">public.tenant_join_codes</text>
<text text-anchor="start" x="233.66" y="-648.8" font-family="Arial" font-size="14.00">    </text>
<text text-anchor="start" x="264.77" y="-648.8" font-family="Arial" font-size="14.00" fill="#666666">[BASE TABLE]</text>
<polygon fill="none" stroke="black" points="46.2,-604.6 46.2,-635.4 365.15,-635.4 365.15,-604.6 46.2,-604.6"/>
<text text-anchor="start" x="53.2" y="-616.8" font-family="Arial" font-size="14.00">id </text>
<text text-anchor="start" x="67.99" y="-616.8" font-family="Arial" font-size="14.00" fill="#666666">[uuid]</text>
<polygon fill="none" stroke="black" points="46.2,-573.8 46.2,-604.6 365.15,-604.6 365.15,-573.8 46.2,-573.8"/>
<text text-anchor="start" x="53.2" y="-586" font-family="Arial" font-size="14.00">tenant_id </text>
<text text-anchor="start" x="114.7" y="-586" font-family="Arial" font-size="14.00" fill="#666666">[uuid]</text>
<polygon fill="none" stroke="black" points="46.2,-543 46.2,-573.8 365.15,-573.8 365.15,-543 46.2,-543"/>
<text text-anchor="start" x="53.2" y="-555.2" font-family="Arial" font-size="14.00">code </text>
<text text-anchor="start" x="87.45" y="-555.2" font-family="Arial" font-size="14.00" fill="#666666">[text]</text>
<polygon fill="none" stroke="black" points="46.2,-512.2 46.2,-543 365.15,-543 365.15,-512.2 46.2,-512.2"/>
<text text-anchor="start" x="53.2" y="-524.4" font-family="Arial" font-size="14.00">expires_at </text>
<text text-anchor="start" x="121.68" y="-524.4" font-family="Arial" font-size="14.00" fill="#666666">[timestamp with time zone]</text>
<polygon fill="none" stroke="black" points="46.2,-481.4 46.2,-512.2 365.15,-512.2 365.15,-481.4 46.2,-481.4"/>
<text text-anchor="start" x="53.2" y="-493.6" font-family="Arial" font-size="14.00">max_uses </text>
<text text-anchor="start" x="120.9" y="-493.6" font-family="Arial" font-size="14.00" fill="#666666">[integer]</text>
<polygon fill="none" stroke="black" points="46.2,-450.6 46.2,-481.4 365.15,-481.4 365.15,-450.6 46.2,-450.6"/>
<text text-anchor="start" x="53.2" y="-462.8" font-family="Arial" font-size="14.00">used_count </text>
<text text-anchor="start" x="129.48" y="-462.8" font-family="Arial" font-size="14.00" fill="#666666">[integer]</text>
<polygon fill="none" stroke="black" points="46.2,-419.8 46.2,-450.6 365.15,-450.6 365.15,-419.8 46.2,-419.8"/>
<text text-anchor="start" x="53.2" y="-432" font-family="Arial" font-size="14.00">created_at </text>
<text text-anchor="start" x="123.25" y="-432" font-family="Arial" font-size="14.00" fill="#666666">[timestamp with time zone]</text>
<polygon fill="none" stroke="black" stroke-width="3" points="44.7,-418.3 44.7,-672.5 366.65,-672.5 366.65,-418.3 44.7,-418.3"/>
</g>
<!-- public.tenants -->
<g id="node2" class="node">
<title>public.tenants</title>
<polygon fill="#efefef" stroke="none" points="295.83,-258.8 295.83,-294.4 549.51,-294.4 549.51,-258.8 295.83,-258.8"/>
<polygon fill="none" stroke="black" points="295.83,-258.8 295.83,-294.4 549.51,-294.4 549.51,-258.8 295.83,-258.8"/>
<text text-anchor="start" x="310.19" y="-272.2" font-family="Arial Bold" font-size="18.00">public.tenants</text>
<text text-anchor="start" x="410.67" y="-272.2" font-family="Arial" font-size="14.00">    </text>
<text text-anchor="start" x="441.78" y="-272.2" font-family="Arial" font-size="14.00" fill="#666666">[BASE TABLE]</text>
<polygon fill="none" stroke="black" points="295.83,-228 295.83,-258.8 549.51,-258.8 549.51,-228 295.83,-228"/>
<text text-anchor="start" x="302.83" y="-240.2" font-family="Arial" font-size="14.00">id </text>
<text text-anchor="start" x="317.62" y="-240.2" font-family="Arial" font-size="14.00" fill="#666666">[uuid]</text>
<polygon fill="none" stroke="black" points="295.83,-197.2 295.83,-228 549.51,-228 549.51,-197.2 295.83,-197.2"/>
<text text-anchor="start" x="302.83" y="-209.4" font-family="Arial" font-size="14.00">organization_id </text>
<text text-anchor="start" x="401.68" y="-209.4" font-family="Arial" font-size="14.00" fill="#666666">[uuid]</text>
<polygon fill="none" stroke="black" points="295.83,-166.4 295.83,-197.2 549.51,-197.2 549.51,-166.4 295.83,-166.4"/>
<text text-anchor="start" x="302.83" y="-178.6" font-family="Arial" font-size="14.00">name </text>
<text text-anchor="start" x="341.74" y="-178.6" font-family="Arial" font-size="14.00" fill="#666666">[text]</text>
<polygon fill="none" stroke="black" points="295.83,-135.6 295.83,-166.4 549.51,-166.4 549.51,-135.6 295.83,-135.6"/>
<text text-anchor="start" x="302.83" y="-147.8" font-family="Arial" font-size="14.00">description </text>
<text text-anchor="start" x="374.43" y="-147.8" font-family="Arial" font-size="14.00" fill="#666666">[text]</text>
<polygon fill="none" stroke="black" points="295.83,-104.8 295.83,-135.6 549.51,-135.6 549.51,-104.8 295.83,-104.8"/>
<text text-anchor="start" x="302.83" y="-117" font-family="Arial" font-size="14.00">tenant_type </text>
<text text-anchor="start" x="379.89" y="-117" font-family="Arial" font-size="14.00" fill="#666666">[text]</text>
<polygon fill="none" stroke="black" points="295.83,-74 295.83,-104.8 549.51,-104.8 549.51,-74 295.83,-74"/>
<text text-anchor="start" x="302.83" y="-86.2" font-family="Arial" font-size="14.00">created_at </text>
<text text-anchor="start" x="372.88" y="-86.2" font-family="Arial" font-size="14.00" fill="#666666">[timestamp with time zone]</text>
<polygon fill="none" stroke="black" points="295.83,-43.2 295.83,-74 549.51,-74 549.51,-43.2 295.83,-43.2"/>
<text text-anchor="start" x="302.83" y="-55.4" font-family="Arial" font-size="14.00">updated_at </text>
<text text-anchor="start" x="376.79" y="-55.4" font-family="Arial" font-size="14.00" fill="#666666">[timestamp with time zone]</text>
</g>
<!-- public.tenant_join_codes&#45;&gt;public.tenants -->
<g id="edge1" class="edge">
<title>public.tenant_join_codes:tenant_id&#45;&gt;public.tenants:id</title>
<path fill="none" stroke="black" d="M376.09,-586.15C410.31,-562.72 388.16,-411.3 365.15,-373.6 347.06,-343.97 314.01,-367.17 295.83,-337.6 273.91,-301.93 252.96,-243.4 294.83,-243.4"/>
<polygon fill="black" stroke="black" points="376.03,-586.17 365.15,-584.8 370.93,-587.73 366.79,-589 366.79,-589 366.79,-589 370.93,-587.73 367.79,-593.4 376.03,-586.17"/>
<text text-anchor="start" x="373.15" y="-599.2" font-family="Arial" font-size="10.00">FOREIGN KEY (tenant_id) REFERENCES tenants(id) ON DELETE CASCADE</text>
</g>
<!-- public.tenant_memberships -->
<g id="node3" class="node">
<title>public.tenant_memberships</title>
<polygon fill="#efefef" stroke="none" points="472.2,-620 472.2,-655.6 809.15,-655.6 809.15,-620 472.2,-620"/>
<polygon fill="none" stroke="black" points="472.2,-620 472.2,-655.6 809.15,-655.6 809.15,-620 472.2,-620"/>
<text text-anchor="start" x="479.2" y="-633.4" font-family="Arial Bold" font-size="18.00">public.tenant_memberships</text>
<text text-anchor="start" x="677.66" y="-633.4" font-family="Arial" font-size="14.00">    </text>
<text text-anchor="start" x="708.77" y="-633.4" font-family="Arial" font-size="14.00" fill="#666666">[BASE TABLE]</text>
<polygon fill="none" stroke="black" points="472.2,-589.2 472.2,-620 809.15,-620 809.15,-589.2 472.2,-589.2"/>
<text text-anchor="start" x="479.2" y="-601.4" font-family="Arial" font-size="14.00">id </text>
<text text-anchor="start" x="493.99" y="-601.4" font-family="Arial" font-size="14.00" fill="#666666">[uuid]</text>
<polygon fill="none" stroke="black" points="472.2,-558.4 472.2,-589.2 809.15,-589.2 809.15,-558.4 472.2,-558.4"/>
<text text-anchor="start" x="479.2" y="-570.6" font-family="Arial" font-size="14.00">tenant_id </text>
<text text-anchor="start" x="540.7" y="-570.6" font-family="Arial" font-size="14.00" fill="#666666">[uuid]</text>
<polygon fill="none" stroke="black" points="472.2,-527.6 472.2,-558.4 809.15,-558.4 809.15,-527.6 472.2,-527.6"/>
<text text-anchor="start" x="479.2" y="-539.8" font-family="Arial" font-size="14.00">user_id </text>
<text text-anchor="start" x="529.01" y="-539.8" font-family="Arial" font-size="14.00" fill="#666666">[uuid]</text>
<polygon fill="none" stroke="black" points="472.2,-496.8 472.2,-527.6 809.15,-527.6 809.15,-496.8 472.2,-496.8"/>
<text text-anchor="start" x="479.2" y="-509" font-family="Arial" font-size="14.00">role </text>
<text text-anchor="start" x="506.43" y="-509" font-family="Arial" font-size="14.00" fill="#666666">[text]</text>
<polygon fill="none" stroke="black" points="472.2,-466 472.2,-496.8 809.15,-496.8 809.15,-466 472.2,-466"/>
<text text-anchor="start" x="479.2" y="-478.2" font-family="Arial" font-size="14.00">created_at </text>
<text text-anchor="start" x="549.25" y="-478.2" font-family="Arial" font-size="14.00" fill="#666666">[timestamp with time zone]</text>
<polygon fill="none" stroke="black" points="472.2,-435.2 472.2,-466 809.15,-466 809.15,-435.2 472.2,-435.2"/>
<text text-anchor="start" x="479.2" y="-447.4" font-family="Arial" font-size="14.00">left_at </text>
<text text-anchor="start" x="521.23" y="-447.4" font-family="Arial" font-size="14.00" fill="#666666">[timestamp with time zone]</text>
</g>
<!-- public.tenant_memberships&#45;&gt;public.tenants -->
<g id="edge2" class="edge">
<title>public.tenant_memberships:tenant_id&#45;&gt;public.tenants:id</title>
<path fill="none" stroke="black" d="M461.06,-573.15C394.37,-563.98 436.46,-460.39 472.2,-392 491.66,-354.76 529.96,-374.79 549.51,-337.6 569,-300.54 592.38,-243.4 550.51,-243.4"/>
<polygon fill="black" stroke="black" points="460.89,-573.14 470.58,-578.27 466.21,-573.48 470.53,-573.76 470.53,-573.76 470.53,-573.76 466.21,-573.48 471.16,-569.29 460.89,-573.14"/>
<text text-anchor="start" x="478.2" y="-557.8" font-family="Arial" font-size="10.00">FOREIGN KEY (tenant_id) REFERENCES tenants(id) ON DELETE CASCADE</text>
</g>
</g>
</svg>
