<?xml version="1.0" encoding="UTF-8" standalone="no"?>
<!DOCTYPE svg PUBLIC "-//W3C//DTD SVG 1.1//EN"
 "http://www.w3.org/Graphics/SVG/1.1/DTD/svg11.dtd">
<!-- Generated by graphviz version 12.1.2 (20240928.0832)
 -->
<!-- Title: public.user_identities Pages: 1 -->
<svg width="1189pt" height="719pt"
 viewBox="0.00 0.00 1189.35 719.20" xmlns="http://www.w3.org/2000/svg" xmlns:xlink="http://www.w3.org/1999/xlink">
<g id="graph0" class="graph" transform="scale(1 1) rotate(0) translate(4 715.2)">
<title>public.user_identities</title>
<polygon fill="white" stroke="none" points="-4,4 -4,-715.2 1185.35,-715.2 1185.35,4 -4,4"/>
<!-- public.user_identities -->
<g id="node1" class="node">
<title>public.user_identities</title>
<polygon fill="#efefef" stroke="none" points="46.2,-601.6 46.2,-637.2 339.16,-637.2 339.16,-601.6 46.2,-601.6"/>
<polygon fill="none" stroke="black" points="46.2,-601.6 46.2,-637.2 339.16,-637.2 339.16,-601.6 46.2,-601.6"/>
<text text-anchor="start" x="53.2" y="-615" font-family="Arial Bold" font-size="18.00">public.user_identities</text>
<text text-anchor="start" x="207.67" y="-615" font-family="Arial" font-size="14.00">    </text>
<text text-anchor="start" x="238.78" y="-615" font-family="Arial" font-size="14.00" fill="#666666">[BASE TABLE]</text>
<polygon fill="none" stroke="black" points="46.2,-570.8 46.2,-601.6 339.16,-601.6 339.16,-570.8 46.2,-570.8"/>
<text text-anchor="start" x="53.2" y="-583" font-family="Arial" font-size="14.00">id </text>
<text text-anchor="start" x="67.99" y="-583" font-family="Arial" font-size="14.00" fill="#666666">[uuid]</text>
<polygon fill="none" stroke="black" points="46.2,-540 46.2,-570.8 339.16,-570.8 339.16,-540 46.2,-540"/>
<text text-anchor="start" x="53.2" y="-552.2" font-family="Arial" font-size="14.00">user_id </text>
<text text-anchor="start" x="103.01" y="-552.2" font-family="Arial" font-size="14.00" fill="#666666">[uuid]</text>
<polygon fill="none" stroke="black" points="46.2,-509.2 46.2,-540 339.16,-540 339.16,-509.2 46.2,-509.2"/>
<text text-anchor="start" x="53.2" y="-521.4" font-family="Arial" font-size="14.00">provider </text>
<text text-anchor="start" x="107.67" y="-521.4" font-family="Arial" font-size="14.00" fill="#666666">[text]</text>
<polygon fill="none" stroke="black" points="46.2,-478.4 46.2,-509.2 339.16,-509.2 339.16,-478.4 46.2,-478.4"/>
<text text-anchor="start" x="53.2" y="-490.6" font-family="Arial" font-size="14.00">provider_sub </text>
<text text-anchor="start" x="138.03" y="-490.6" font-family="Arial" font-size="14.00" fill="#666666">[text]</text>
<polygon fill="none" stroke="black" points="46.2,-447.6 46.2,-478.4 339.16,-478.4 339.16,-447.6 46.2,-447.6"/>
<text text-anchor="start" x="53.2" y="-459.8" font-family="Arial" font-size="14.00">created_at </text>
<text text-anchor="start" x="123.25" y="-459.8" font-family="Arial" font-size="14.00" fill="#666666">[timestamp with time zone]</text>
<polygon fill="none" stroke="black" points="46.2,-416.8 46.2,-447.6 339.16,-447.6 339.16,-416.8 46.2,-416.8"/>
<text text-anchor="start" x="53.2" y="-429" font-family="Arial" font-size="14.00">updated_at </text>
<text text-anchor="start" x="127.16" y="-429" font-family="Arial" font-size="14.00" fill="#666666">[timestamp with time zone]</text>
<polygon fill="none" stroke="black" stroke-width="3" points="44.7,-415.3 44.7,-638.7 340.66,-638.7 340.66,-415.3 44.7,-415.3"/>
</g>
<!-- public.users -->
<g id="node2" class="node">
<title>public.users</title>
<polygon fill="#efefef" stroke="none" points="435.11,-228 435.11,-263.6 708.25,-263.6 708.25,-228 435.11,-228"/>
<polygon fill="none" stroke="black" points="435.11,-228 435.11,-263.6 708.25,-263.6 708.25,-228 435.11,-228"/>
<text text-anchor="start" x="466.19" y="-241.4" font-family="Arial Bold" font-size="18.00">public.users</text>
<text text-anchor="start" x="552.68" y="-241.4" font-family="Arial" font-size="14.00">    </text>
<text text-anchor="start" x="583.79" y="-241.4" font-family="Arial" font-size="14.00" fill="#666666">[BASE TABLE]</text>
<polygon fill="none" stroke="black" points="435.11,-197.2 435.11,-228 708.25,-228 708.25,-197.2 435.11,-197.2"/>
<text text-anchor="start" x="442.11" y="-209.4" font-family="Arial" font-size="14.00">id </text>
<text text-anchor="start" x="456.89" y="-209.4" font-family="Arial" font-size="14.00" fill="#666666">[uuid]</text>
<polygon fill="none" stroke="black" points="435.11,-166.4 435.11,-197.2 708.25,-197.2 708.25,-166.4 435.11,-166.4"/>
<text text-anchor="start" x="442.11" y="-178.6" font-family="Arial" font-size="14.00">email </text>
<text text-anchor="start" x="479.45" y="-178.6" font-family="Arial" font-size="14.00" fill="#666666">[text]</text>
<polygon fill="none" stroke="black" points="435.11,-135.6 435.11,-166.4 708.25,-166.4 708.25,-135.6 435.11,-135.6"/>
<text text-anchor="start" x="442.11" y="-147.8" font-family="Arial" font-size="14.00">name </text>
<text text-anchor="start" x="481.02" y="-147.8" font-family="Arial" font-size="14.00" fill="#666666">[text]</text>
<polygon fill="none" stroke="black" points="435.11,-104.8 435.11,-135.6 708.25,-135.6 708.25,-104.8 435.11,-104.8"/>
<text text-anchor="start" x="442.11" y="-117" font-family="Arial" font-size="14.00">icon </text>
<text text-anchor="start" x="471.68" y="-117" font-family="Arial" font-size="14.00" fill="#666666">[text]</text>
<polygon fill="none" stroke="black" points="435.11,-74 435.11,-104.8 708.25,-104.8 708.25,-74 435.11,-74"/>
<text text-anchor="start" x="442.11" y="-86.2" font-family="Arial" font-size="14.00">created_at </text>
<text text-anchor="start" x="512.15" y="-86.2" font-family="Arial" font-size="14.00" fill="#666666">[timestamp without time zone]</text>
<polygon fill="none" stroke="black" points="435.11,-43.2 435.11,-74 708.25,-74 708.25,-43.2 435.11,-43.2"/>
<text text-anchor="start" x="442.11" y="-55.4" font-family="Arial" font-size="14.00">updated_at </text>
<text text-anchor="start" x="516.06" y="-55.4" font-family="Arial" font-size="14.00" fill="#666666">[timestamp without time zone]</text>
</g>
<!-- public.user_identities&#45;&gt;public.users -->
<g id="edge1" class="edge">
<title>public.user_identities:user_id&#45;&gt;public.users:id</title>
<path fill="none" stroke="black" d="M350.35,-553.21C413.46,-524.02 358.82,-212.6 434.11,-212.6"/>
<polygon fill="black" stroke="black" points="350.26,-553.23 339.54,-550.93 345.05,-554.35 340.81,-555.26 340.81,-555.26 340.81,-555.26 345.05,-554.35 341.43,-559.73 350.26,-553.23"/>
<text text-anchor="start" x="347.16" y="-565.4" font-family="Arial" font-size="10.00">FOREIGN KEY (user_id) REFERENCES users(id) ON DELETE CASCADE</text>
</g>
<!-- public.sessions -->
<g id="node3" class="node">
<title>public.sessions</title>
<polygon fill="#efefef" stroke="none" points="446.79,-617 446.79,-652.6 696.56,-652.6 696.56,-617 446.79,-617"/>
<polygon fill="none" stroke="black" points="446.79,-617 446.79,-652.6 696.56,-652.6 696.56,-617 446.79,-617"/>
<text text-anchor="start" x="455.18" y="-630.4" font-family="Arial Bold" font-size="18.00">public.sessions</text>
<text text-anchor="start" x="563.68" y="-630.4" font-family="Arial" font-size="14.00">    </text>
<text text-anchor="start" x="594.8" y="-630.4" font-family="Arial" font-size="14.00" fill="#666666">[BASE TABLE]</text>
<polygon fill="none" stroke="black" points="446.79,-586.2 446.79,-617 696.56,-617 696.56,-586.2 446.79,-586.2"/>
<text text-anchor="start" x="453.79" y="-598.4" font-family="Arial" font-size="14.00">session_id </text>
<text text-anchor="start" x="523.83" y="-598.4" font-family="Arial" font-size="14.00" fill="#666666">[text]</text>
<polygon fill="none" stroke="black" points="446.79,-555.4 446.79,-586.2 696.56,-586.2 696.56,-555.4 446.79,-555.4"/>
<text text-anchor="start" x="453.79" y="-567.6" font-family="Arial" font-size="14.00">user_id </text>
<text text-anchor="start" x="503.6" y="-567.6" font-family="Arial" font-size="14.00" fill="#666666">[uuid]</text>
<polygon fill="none" stroke="black" points="446.79,-524.6 446.79,-555.4 696.56,-555.4 696.56,-524.6 446.79,-524.6"/>
<text text-anchor="start" x="453.79" y="-536.8" font-family="Arial" font-size="14.00">active_membership_id </text>
<text text-anchor="start" x="597.75" y="-536.8" font-family="Arial" font-size="14.00" fill="#666666">[uuid]</text>
<polygon fill="none" stroke="black" points="446.79,-493.8 446.79,-524.6 696.56,-524.6 696.56,-493.8 446.79,-493.8"/>
<text text-anchor="start" x="453.79" y="-506" font-family="Arial" font-size="14.00">created_at </text>
<text text-anchor="start" x="523.84" y="-506" font-family="Arial" font-size="14.00" fill="#666666">[timestamp with time zone]</text>
<polygon fill="none" stroke="black" points="446.79,-463 446.79,-493.8 696.56,-493.8 696.56,-463 446.79,-463"/>
<text text-anchor="start" x="453.79" y="-475.2" font-family="Arial" font-size="14.00">expires_at </text>
<text text-anchor="start" x="522.28" y="-475.2" font-family="Arial" font-size="14.00" fill="#666666">[timestamp with time zone]</text>
<polygon fill="none" stroke="black" points="446.79,-432.2 446.79,-463 696.56,-463 696.56,-432.2 446.79,-432.2"/>
<text text-anchor="start" x="453.79" y="-444.4" font-family="Arial" font-size="14.00">csrf_token </text>
<text text-anchor="start" x="522.27" y="-444.4" font-family="Arial" font-size="14.00" fill="#666666">[text]</text>
<polygon fill="none" stroke="black" points="446.79,-401.4 446.79,-432.2 696.56,-432.2 696.56,-401.4 446.79,-401.4"/>
<text text-anchor="start" x="453.79" y="-413.6" font-family="Arial" font-size="14.00">revoked </text>
<text text-anchor="start" x="507.49" y="-413.6" font-family="Arial" font-size="14.00" fill="#666666">[boolean]</text>
</g>
<!-- public.sessions&#45;&gt;public.users -->
<g id="edge2" class="edge">
<title>public.sessions:user_id&#45;&gt;public.users:id</title>
<path fill="none" stroke="black" d="M706.16,-564.88C738.87,-518.31 746.04,-212.6 709.25,-212.6"/>
<polygon fill="black" stroke="black" points="706.08,-564.94 695.29,-566.9 701.68,-567.97 698.12,-570.42 698.12,-570.42 698.12,-570.42 701.68,-567.97 700.39,-574.32 706.08,-564.94"/>
<text text-anchor="start" x="530.58" y="-554.8" font-family="Arial" font-size="10.00">FOREIGN KEY (user_id) REFERENCES users(id) ON DELETE CASCADE</text>
</g>
<!-- public.tenant_memberships -->
<g id="node4" class="node">
<title>public.tenant_memberships</title>
<polygon fill="#efefef" stroke="none" points="801.21,-632.4 801.21,-668 1138.15,-668 1138.15,-632.4 801.21,-632.4"/>
<polygon fill="none" stroke="black" points="801.21,-632.4 801.21,-668 1138.15,-668 1138.15,-632.4 801.21,-632.4"/>
<text text-anchor="start" x="808.21" y="-645.8" font-family="Arial Bold" font-size="18.00">public.tenant_memberships</text>
<text text-anchor="start" x="1006.66" y="-645.8" font-family="Arial" font-size="14.00">    </text>
<text text-anchor="start" x="1037.78" y="-645.8" font-family="Arial" font-size="14.00" fill="#666666">[BASE TABLE]</text>
<polygon fill="none" stroke="black" points="801.21,-601.6 801.21,-632.4 1138.15,-632.4 1138.15,-601.6 801.21,-601.6"/>
<text text-anchor="start" x="808.21" y="-613.8" font-family="Arial" font-size="14.00">id </text>
<text text-anchor="start" x="822.99" y="-613.8" font-family="Arial" font-size="14.00" fill="#666666">[uuid]</text>
<polygon fill="none" stroke="black" points="801.21,-570.8 801.21,-601.6 1138.15,-601.6 1138.15,-570.8 801.21,-570.8"/>
<text text-anchor="start" x="808.21" y="-583" font-family="Arial" font-size="14.00">tenant_id </text>
<text text-anchor="start" x="869.7" y="-583" font-family="Arial" font-size="14.00" fill="#666666">[uuid]</text>
<polygon fill="none" stroke="black" points="801.21,-540 801.21,-570.8 1138.15,-570.8 1138.15,-540 801.21,-540"/>
<text text-anchor="start" x="808.21" y="-552.2" font-family="Arial" font-size="14.00">user_id </text>
<text text-anchor="start" x="858.01" y="-552.2" font-family="Arial" font-size="14.00" fill="#666666">[uuid]</text>
<polygon fill="none" stroke="black" points="801.21,-509.2 801.21,-540 1138.15,-540 1138.15,-509.2 801.21,-509.2"/>
<text text-anchor="start" x="808.21" y="-521.4" font-family="Arial" font-size="14.00">role </text>
<text text-anchor="start" x="835.44" y="-521.4" font-family="Arial" font-size="14.00" fill="#666666">[text]</text>
<polygon fill="none" stroke="black" points="801.21,-478.4 801.21,-509.2 1138.15,-509.2 1138.15,-478.4 801.21,-478.4"/>
<text text-anchor="start" x="808.21" y="-490.6" font-family="Arial" font-size="14.00">status </text>
<text text-anchor="start" x="849.45" y="-490.6" font-family="Arial" font-size="14.00" fill="#666666">[text]</text>
<polygon fill="none" stroke="black" points="801.21,-447.6 801.21,-478.4 1138.15,-478.4 1138.15,-447.6 801.21,-447.6"/>
<text text-anchor="start" x="808.21" y="-459.8" font-family="Arial" font-size="14.00">joined_via </text>
<text text-anchor="start" x="875.14" y="-459.8" font-family="Arial" font-size="14.00" fill="#666666">[text]</text>
<polygon fill="none" stroke="black" points="801.21,-416.8 801.21,-447.6 1138.15,-447.6 1138.15,-416.8 801.21,-416.8"/>
<text text-anchor="start" x="808.21" y="-429" font-family="Arial" font-size="14.00">created_at </text>
<text text-anchor="start" x="878.25" y="-429" font-family="Arial" font-size="14.00" fill="#666666">[timestamp with time zone]</text>
<polygon fill="none" stroke="black" points="801.21,-386 801.21,-416.8 1138.15,-416.8 1138.15,-386 801.21,-386"/>
<text text-anchor="start" x="808.21" y="-398.2" font-family="Arial" font-size="14.00">left_at </text>
<text text-anchor="start" x="850.23" y="-398.2" font-family="Arial" font-size="14.00" fill="#666666">[timestamp with time zone]</text>
</g>
<!-- public.tenant_memberships&#45;&gt;public.users -->
<g id="edge3" class="edge">
<title>public.tenant_memberships:user_id&#45;&gt;public.users:id</title>
<path fill="none" stroke="black" d="M790.05,-553.21C727.32,-524.02 784.37,-212.6 709.25,-212.6"/>
<polygon fill="black" stroke="black" points="790.1,-553.22 798.93,-559.73 795.32,-554.35 799.55,-555.26 799.55,-555.26 799.55,-555.26 795.32,-554.35 800.83,-550.93 790.1,-553.22"/>
<text text-anchor="start" x="546.24" y="-539.4" font-family="Arial" font-size="10.00">FOREIGN KEY (user_id) REFERENCES users(id) ON DELETE CASCADE</text>
</g>
</g>
</svg>
