<?xml version="1.0" encoding="UTF-8" standalone="no"?>
<!DOCTYPE svg PUBLIC "-//W3C//DTD SVG 1.1//EN"
 "http://www.w3.org/Graphics/SVG/1.1/DTD/svg11.dtd">
<!-- Generated by graphviz version 12.1.2 (20240928.0832)
 -->
<!-- Title: public.console_sessions Pages: 1 -->
<svg width="1682pt" height="719pt"
 viewBox="0.00 0.00 1682.36 719.20" xmlns="http://www.w3.org/2000/svg" xmlns:xlink="http://www.w3.org/1999/xlink">
<g id="graph0" class="graph" transform="scale(1 1) rotate(0) translate(4 715.2)">
<title>public.console_sessions</title>
<polygon fill="white" stroke="none" points="-4,4 -4,-715.2 1678.36,-715.2 1678.36,4 -4,4"/>
<!-- public.console_sessions -->
<g id="node1" class="node">
<title>public.console_sessions</title>
<polygon fill="#efefef" stroke="none" points="46.2,-570.8 46.2,-606.4 357.17,-606.4 357.17,-570.8 46.2,-570.8"/>
<polygon fill="none" stroke="black" points="46.2,-570.8 46.2,-606.4 357.17,-606.4 357.17,-570.8 46.2,-570.8"/>
<text text-anchor="start" x="53.2" y="-584.2" font-family="Arial Bold" font-size="18.00">public.console_sessions</text>
<text text-anchor="start" x="225.69" y="-584.2" font-family="Arial" font-size="14.00">    </text>
<text text-anchor="start" x="256.8" y="-584.2" font-family="Arial" font-size="14.00" fill="#666666">[BASE TABLE]</text>
<polygon fill="none" stroke="black" points="46.2,-540 46.2,-570.8 357.17,-570.8 357.17,-540 46.2,-540"/>
<text text-anchor="start" x="53.2" y="-552.2" font-family="Arial" font-size="14.00">session_id </text>
<text text-anchor="start" x="123.24" y="-552.2" font-family="Arial" font-size="14.00" fill="#666666">[text]</text>
<polygon fill="none" stroke="black" points="46.2,-509.2 46.2,-540 357.17,-540 357.17,-509.2 46.2,-509.2"/>
<text text-anchor="start" x="53.2" y="-521.4" font-family="Arial" font-size="14.00">tenant_id </text>
<text text-anchor="start" x="114.7" y="-521.4" font-family="Arial" font-size="14.00" fill="#666666">[uuid]</text>
<polygon fill="none" stroke="black" points="46.2,-478.4 46.2,-509.2 357.17,-509.2 357.17,-478.4 46.2,-478.4"/>
<text text-anchor="start" x="53.2" y="-490.6" font-family="Arial" font-size="14.00">created_at </text>
<text text-anchor="start" x="123.25" y="-490.6" font-family="Arial" font-size="14.00" fill="#666666">[timestamp with time zone]</text>
<polygon fill="none" stroke="black" points="46.2,-447.6 46.2,-478.4 357.17,-478.4 357.17,-447.6 46.2,-447.6"/>
<text text-anchor="start" x="53.2" y="-459.8" font-family="Arial" font-size="14.00">expires_at </text>
<text text-anchor="start" x="121.68" y="-459.8" font-family="Arial" font-size="14.00" fill="#666666">[timestamp with time zone]</text>
<polygon fill="none" stroke="black" stroke-width="3" points="44.7,-446.1 44.7,-607.9 358.67,-607.9 358.67,-446.1 44.7,-446.1"/>
</g>
<!-- public.tenants -->
<g id="node2" class="node">
<title>public.tenants</title>
<polygon fill="#efefef" stroke="none" points="695.85,-228 695.85,-263.6 949.53,-263.6 949.53,-228 695.85,-228"/>
<polygon fill="none" stroke="black" points="695.85,-228 695.85,-263.6 949.53,-263.6 949.53,-228 695.85,-228"/>
<text text-anchor="start" x="710.2" y="-241.4" font-family="Arial Bold" font-size="18.00">public.tenants</text>
<text text-anchor="start" x="810.68" y="-241.4" font-family="Arial" font-size="14.00">    </text>
<text text-anchor="start" x="841.8" y="-241.4" font-family="Arial" font-size="14.00" fill="#666666">[BASE TABLE]</text>
<polygon fill="none" stroke="black" points="695.85,-197.2 695.85,-228 949.53,-228 949.53,-197.2 695.85,-197.2"/>
<text text-anchor="start" x="702.85" y="-209.4" font-family="Arial" font-size="14.00">id </text>
<text text-anchor="start" x="717.63" y="-209.4" font-family="Arial" font-size="14.00" fill="#666666">[uuid]</text>
<polygon fill="none" stroke="black" points="695.85,-166.4 695.85,-197.2 949.53,-197.2 949.53,-166.4 695.85,-166.4"/>
<text text-anchor="start" x="702.85" y="-178.6" font-family="Arial" font-size="14.00">name </text>
<text text-anchor="start" x="741.76" y="-178.6" font-family="Arial" font-size="14.00" fill="#666666">[text]</text>
<polygon fill="none" stroke="black" points="695.85,-135.6 695.85,-166.4 949.53,-166.4 949.53,-135.6 695.85,-135.6"/>
<text text-anchor="start" x="702.85" y="-147.8" font-family="Arial" font-size="14.00">slug </text>
<text text-anchor="start" x="732.42" y="-147.8" font-family="Arial" font-size="14.00" fill="#666666">[text]</text>
<polygon fill="none" stroke="black" points="695.85,-104.8 695.85,-135.6 949.53,-135.6 949.53,-104.8 695.85,-104.8"/>
<text text-anchor="start" x="702.85" y="-117" font-family="Arial" font-size="14.00">password_hash </text>
<text text-anchor="start" x="804.8" y="-117" font-family="Arial" font-size="14.00" fill="#666666">[text]</text>
<polygon fill="none" stroke="black" points="695.85,-74 695.85,-104.8 949.53,-104.8 949.53,-74 695.85,-74"/>
<text text-anchor="start" x="702.85" y="-86.2" font-family="Arial" font-size="14.00">created_at </text>
<text text-anchor="start" x="772.89" y="-86.2" font-family="Arial" font-size="14.00" fill="#666666">[timestamp with time zone]</text>
<polygon fill="none" stroke="black" points="695.85,-43.2 695.85,-74 949.53,-74 949.53,-43.2 695.85,-43.2"/>
<text text-anchor="start" x="702.85" y="-55.4" font-family="Arial" font-size="14.00">updated_at </text>
<text text-anchor="start" x="776.8" y="-55.4" font-family="Arial" font-size="14.00" fill="#666666">[timestamp with time zone]</text>
</g>
<!-- public.console_sessions&#45;&gt;public.tenants -->
<g id="edge1" class="edge">
<title>public.console_sessions:tenant_id&#45;&gt;public.tenants:id</title>
<path fill="none" stroke="black" d="M368.54,-523.9C435.16,-514.1 359.87,-403.64 412.69,-342.8 503.22,-238.5 556.74,-212.6 694.85,-212.6"/>
<polygon fill="black" stroke="black" points="368.49,-523.9 358.21,-520.09 363.16,-524.26 358.84,-524.55 358.84,-524.55 358.84,-524.55 363.16,-524.26 358.81,-529.07 368.49,-523.9"/>
<text text-anchor="start" x="182.85" y="-508.6" font-family="Arial" font-size="10.00">FOREIGN KEY (tenant_id) REFERENCES tenants(id) ON DELETE CASCADE</text>
</g>
<!-- public.tenant_domains -->
<g id="node3" class="node">
<title>public.tenant_domains</title>
<polygon fill="#efefef" stroke="none" points="464.71,-570.8 464.71,-606.4 766.67,-606.4 766.67,-570.8 464.71,-570.8"/>
<polygon fill="none" stroke="black" points="464.71,-570.8 464.71,-606.4 766.67,-606.4 766.67,-570.8 464.71,-570.8"/>
<text text-anchor="start" x="471.71" y="-584.2" font-family="Arial Bold" font-size="18.00">public.tenant_domains</text>
<text text-anchor="start" x="635.18" y="-584.2" font-family="Arial" font-size="14.00">    </text>
<text text-anchor="start" x="666.29" y="-584.2" font-family="Arial" font-size="14.00" fill="#666666">[BASE TABLE]</text>
<polygon fill="none" stroke="black" points="464.71,-540 464.71,-570.8 766.67,-570.8 766.67,-540 464.71,-540"/>
<text text-anchor="start" x="471.71" y="-552.2" font-family="Arial" font-size="14.00">id </text>
<text text-anchor="start" x="486.49" y="-552.2" font-family="Arial" font-size="14.00" fill="#666666">[uuid]</text>
<polygon fill="none" stroke="black" points="464.71,-509.2 464.71,-540 766.67,-540 766.67,-509.2 464.71,-509.2"/>
<text text-anchor="start" x="471.71" y="-521.4" font-family="Arial" font-size="14.00">tenant_id </text>
<text text-anchor="start" x="533.2" y="-521.4" font-family="Arial" font-size="14.00" fill="#666666">[uuid]</text>
<polygon fill="none" stroke="black" points="464.71,-478.4 464.71,-509.2 766.67,-509.2 766.67,-478.4 464.71,-478.4"/>
<text text-anchor="start" x="471.71" y="-490.6" font-family="Arial" font-size="14.00">domain </text>
<text text-anchor="start" x="521.52" y="-490.6" font-family="Arial" font-size="14.00" fill="#666666">[text]</text>
<polygon fill="none" stroke="black" points="464.71,-447.6 464.71,-478.4 766.67,-478.4 766.67,-447.6 464.71,-447.6"/>
<text text-anchor="start" x="471.71" y="-459.8" font-family="Arial" font-size="14.00">created_at </text>
<text text-anchor="start" x="541.76" y="-459.8" font-family="Arial" font-size="14.00" fill="#666666">[timestamp with time zone]</text>
</g>
<!-- public.tenant_domains&#45;&gt;public.tenants -->
<g id="edge2" class="edge">
<title>public.tenant_domains:tenant_id&#45;&gt;public.tenants:id</title>
<path fill="none" stroke="black" d="M777.83,-524.24C894.67,-515.38 709.09,-346.88 695.85,-306.8 682.71,-267.05 652.98,-212.6 694.85,-212.6"/>
<polygon fill="black" stroke="black" points="777.99,-524.23 767.84,-520.09 772.66,-524.42 768.33,-524.58 768.33,-524.58 768.33,-524.58 772.66,-524.42 768.16,-529.09 777.99,-524.23"/>
<text text-anchor="start" x="410.01" y="-534.6" font-family="Arial" font-size="10.00">FOREIGN KEY (tenant_id) REFERENCES tenants(id) ON DELETE CASCADE</text>
</g>
<!-- public.tenant_join_codes -->
<g id="node4" class="node">
<title>public.tenant_join_codes</title>
<polygon fill="#efefef" stroke="none" points="871.21,-617 871.21,-652.6 1190.16,-652.6 1190.16,-617 871.21,-617"/>
<polygon fill="none" stroke="black" points="871.21,-617 871.21,-652.6 1190.16,-652.6 1190.16,-617 871.21,-617"/>
<text text-anchor="start" x="878.21" y="-630.4" font-family="Arial Bold" font-size="18.00">public.tenant_join_codes</text>
<text text-anchor="start" x="1058.67" y="-630.4" font-family="Arial" font-size="14.00">    </text>
<text text-anchor="start" x="1089.79" y="-630.4" font-family="Arial" font-size="14.00" fill="#666666">[BASE TABLE]</text>
<polygon fill="none" stroke="black" points="871.21,-586.2 871.21,-617 1190.16,-617 1190.16,-586.2 871.21,-586.2"/>
<text text-anchor="start" x="878.21" y="-598.4" font-family="Arial" font-size="14.00">id </text>
<text text-anchor="start" x="893" y="-598.4" font-family="Arial" font-size="14.00" fill="#666666">[uuid]</text>
<polygon fill="none" stroke="black" points="871.21,-555.4 871.21,-586.2 1190.16,-586.2 1190.16,-555.4 871.21,-555.4"/>
<text text-anchor="start" x="878.21" y="-567.6" font-family="Arial" font-size="14.00">tenant_id </text>
<text text-anchor="start" x="939.71" y="-567.6" font-family="Arial" font-size="14.00" fill="#666666">[uuid]</text>
<polygon fill="none" stroke="black" points="871.21,-524.6 871.21,-555.4 1190.16,-555.4 1190.16,-524.6 871.21,-524.6"/>
<text text-anchor="start" x="878.21" y="-536.8" font-family="Arial" font-size="14.00">code </text>
<text text-anchor="start" x="912.46" y="-536.8" font-family="Arial" font-size="14.00" fill="#666666">[text]</text>
<polygon fill="none" stroke="black" points="871.21,-493.8 871.21,-524.6 1190.16,-524.6 1190.16,-493.8 871.21,-493.8"/>
<text text-anchor="start" x="878.21" y="-506" font-family="Arial" font-size="14.00">expires_at </text>
<text text-anchor="start" x="946.7" y="-506" font-family="Arial" font-size="14.00" fill="#666666">[timestamp with time zone]</text>
<polygon fill="none" stroke="black" points="871.21,-463 871.21,-493.8 1190.16,-493.8 1190.16,-463 871.21,-463"/>
<text text-anchor="start" x="878.21" y="-475.2" font-family="Arial" font-size="14.00">max_uses </text>
<text text-anchor="start" x="945.91" y="-475.2" font-family="Arial" font-size="14.00" fill="#666666">[integer]</text>
<polygon fill="none" stroke="black" points="871.21,-432.2 871.21,-463 1190.16,-463 1190.16,-432.2 871.21,-432.2"/>
<text text-anchor="start" x="878.21" y="-444.4" font-family="Arial" font-size="14.00">used_count </text>
<text text-anchor="start" x="954.5" y="-444.4" font-family="Arial" font-size="14.00" fill="#666666">[integer]</text>
<polygon fill="none" stroke="black" points="871.21,-401.4 871.21,-432.2 1190.16,-432.2 1190.16,-401.4 871.21,-401.4"/>
<text text-anchor="start" x="878.21" y="-413.6" font-family="Arial" font-size="14.00">created_at </text>
<text text-anchor="start" x="948.26" y="-413.6" font-family="Arial" font-size="14.00" fill="#666666">[timestamp with time zone]</text>
</g>
<!-- public.tenant_join_codes&#45;&gt;public.tenants -->
<g id="edge3" class="edge">
<title>public.tenant_join_codes:tenant_id&#45;&gt;public.tenants:id</title>
<path fill="none" stroke="black" d="M860.44,-567.81C826.97,-544.86 850.43,-396.48 871.21,-358.2 891.08,-321.61 929.56,-343.33 949.53,-306.8 969.61,-270.06 992.4,-212.6 950.53,-212.6"/>
<polygon fill="black" stroke="black" points="860.33,-567.78 868.58,-575.01 865.43,-569.34 869.57,-570.6 869.57,-570.6 869.57,-570.6 865.43,-569.34 871.21,-566.4 860.33,-567.78"/>
<text text-anchor="start" x="877.21" y="-580.8" font-family="Arial" font-size="10.00">FOREIGN KEY (tenant_id) REFERENCES tenants(id) ON DELETE CASCADE</text>
</g>
<!-- public.tenant_memberships -->
<g id="node5" class="node">
<title>public.tenant_memberships</title>
<polygon fill="#efefef" stroke="none" points="1294.21,-632.4 1294.21,-668 1631.16,-668 1631.16,-632.4 1294.21,-632.4"/>
<polygon fill="none" stroke="black" points="1294.21,-632.4 1294.21,-668 1631.16,-668 1631.16,-632.4 1294.21,-632.4"/>
<text text-anchor="start" x="1301.21" y="-645.8" font-family="Arial Bold" font-size="18.00">public.tenant_memberships</text>
<text text-anchor="start" x="1499.67" y="-645.8" font-family="Arial" font-size="14.00">    </text>
<text text-anchor="start" x="1530.79" y="-645.8" font-family="Arial" font-size="14.00" fill="#666666">[BASE TABLE]</text>
<polygon fill="none" stroke="black" points="1294.21,-601.6 1294.21,-632.4 1631.16,-632.4 1631.16,-601.6 1294.21,-601.6"/>
<text text-anchor="start" x="1301.21" y="-613.8" font-family="Arial" font-size="14.00">id </text>
<text text-anchor="start" x="1316" y="-613.8" font-family="Arial" font-size="14.00" fill="#666666">[uuid]</text>
<polygon fill="none" stroke="black" points="1294.21,-570.8 1294.21,-601.6 1631.16,-601.6 1631.16,-570.8 1294.21,-570.8"/>
<text text-anchor="start" x="1301.21" y="-583" font-family="Arial" font-size="14.00">tenant_id </text>
<text text-anchor="start" x="1362.71" y="-583" font-family="Arial" font-size="14.00" fill="#666666">[uuid]</text>
<polygon fill="none" stroke="black" points="1294.21,-540 1294.21,-570.8 1631.16,-570.8 1631.16,-540 1294.21,-540"/>
<text text-anchor="start" x="1301.21" y="-552.2" font-family="Arial" font-size="14.00">user_id </text>
<text text-anchor="start" x="1351.02" y="-552.2" font-family="Arial" font-size="14.00" fill="#666666">[uuid]</text>
<polygon fill="none" stroke="black" points="1294.21,-509.2 1294.21,-540 1631.16,-540 1631.16,-509.2 1294.21,-509.2"/>
<text text-anchor="start" x="1301.21" y="-521.4" font-family="Arial" font-size="14.00">role </text>
<text text-anchor="start" x="1328.45" y="-521.4" font-family="Arial" font-size="14.00" fill="#666666">[text]</text>
<polygon fill="none" stroke="black" points="1294.21,-478.4 1294.21,-509.2 1631.16,-509.2 1631.16,-478.4 1294.21,-478.4"/>
<text text-anchor="start" x="1301.21" y="-490.6" font-family="Arial" font-size="14.00">status </text>
<text text-anchor="start" x="1342.46" y="-490.6" font-family="Arial" font-size="14.00" fill="#666666">[text]</text>
<polygon fill="none" stroke="black" points="1294.21,-447.6 1294.21,-478.4 1631.16,-478.4 1631.16,-447.6 1294.21,-447.6"/>
<text text-anchor="start" x="1301.21" y="-459.8" font-family="Arial" font-size="14.00">joined_via </text>
<text text-anchor="start" x="1368.15" y="-459.8" font-family="Arial" font-size="14.00" fill="#666666">[text]</text>
<polygon fill="none" stroke="black" points="1294.21,-416.8 1294.21,-447.6 1631.16,-447.6 1631.16,-416.8 1294.21,-416.8"/>
<text text-anchor="start" x="1301.21" y="-429" font-family="Arial" font-size="14.00">created_at </text>
<text text-anchor="start" x="1371.26" y="-429" font-family="Arial" font-size="14.00" fill="#666666">[timestamp with time zone]</text>
<polygon fill="none" stroke="black" points="1294.21,-386 1294.21,-416.8 1631.16,-416.8 1631.16,-386 1294.21,-386"/>
<text text-anchor="start" x="1301.21" y="-398.2" font-family="Arial" font-size="14.00">left_at </text>
<text text-anchor="start" x="1343.24" y="-398.2" font-family="Arial" font-size="14.00" fill="#666666">[timestamp with time zone]</text>
</g>
<!-- public.tenant_memberships&#45;&gt;public.tenants -->
<g id="edge4" class="edge">
<title>public.tenant_memberships:tenant_id&#45;&gt;public.tenants:id</title>
<path fill="none" stroke="black" d="M1282.99,-585.69C1191.1,-575.83 1309.7,-425.98 1242.69,-342.8 1153.51,-232.09 1092.69,-212.6 950.53,-212.6"/>
<polygon fill="black" stroke="black" points="1282.89,-585.68 1292.66,-590.68 1288.22,-585.95 1292.55,-586.17 1292.55,-586.17 1292.55,-586.17 1288.22,-585.95 1293.11,-581.69 1282.89,-585.68"/>
<text text-anchor="start" x="1300.21" y="-596.2" font-family="Arial" font-size="10.00">FOREIGN KEY (tenant_id) REFERENCES tenants(id) ON DELETE CASCADE</text>
</g>
</g>
</svg>
