<?xml version="1.0" encoding="UTF-8" standalone="no"?>
<!DOCTYPE svg PUBLIC "-//W3C//DTD SVG 1.1//EN"
 "http://www.w3.org/Graphics/SVG/1.1/DTD/svg11.dtd">
<!-- Generated by graphviz version 12.1.2 (20240928.0832)
 -->
<!-- Title: public.tenant_join_codes Pages: 1 -->
<svg width="860pt" height="750pt"
 viewBox="0.00 0.00 860.35 750.00" xmlns="http://www.w3.org/2000/svg" xmlns:xlink="http://www.w3.org/1999/xlink">
<g id="graph0" class="graph" transform="scale(1 1) rotate(0) translate(4 746)">
<title>public.tenant_join_codes</title>
<polygon fill="white" stroke="none" points="-4,4 -4,-746 856.35,-746 856.35,4 -4,4"/>
<!-- public.tenant_join_codes -->
<g id="node1" class="node">
<title>public.tenant_join_codes</title>
<polygon fill="#efefef" stroke="none" points="46.2,-647.8 46.2,-683.4 365.15,-683.4 365.15,-647.8 46.2,-647.8"/>
<polygon fill="none" stroke="black" points="46.2,-647.8 46.2,-683.4 365.15,-683.4 365.15,-647.8 46.2,-647.8"/>
<text text-anchor="start" x="53.2" y="-661.2" font-family="Arial Bold" font-size="18.00">public.tenant_join_codes</text>
<text text-anchor="start" x="233.66" y="-661.2" font-family="Arial" font-size="14.00">    </text>
<text text-anchor="start" x="264.77" y="-661.2" font-family="Arial" font-size="14.00" fill="#666666">[BASE TABLE]</text>
<polygon fill="none" stroke="black" points="46.2,-617 46.2,-647.8 365.15,-647.8 365.15,-617 46.2,-617"/>
<text text-anchor="start" x="53.2" y="-629.2" font-family="Arial" font-size="14.00">id </text>
<text text-anchor="start" x="67.99" y="-629.2" font-family="Arial" font-size="14.00" fill="#666666">[uuid]</text>
<polygon fill="none" stroke="black" points="46.2,-586.2 46.2,-617 365.15,-617 365.15,-586.2 46.2,-586.2"/>
<text text-anchor="start" x="53.2" y="-598.4" font-family="Arial" font-size="14.00">tenant_id </text>
<text text-anchor="start" x="114.7" y="-598.4" font-family="Arial" font-size="14.00" fill="#666666">[uuid]</text>
<polygon fill="none" stroke="black" points="46.2,-555.4 46.2,-586.2 365.15,-586.2 365.15,-555.4 46.2,-555.4"/>
<text text-anchor="start" x="53.2" y="-567.6" font-family="Arial" font-size="14.00">code </text>
<text text-anchor="start" x="87.45" y="-567.6" font-family="Arial" font-size="14.00" fill="#666666">[text]</text>
<polygon fill="none" stroke="black" points="46.2,-524.6 46.2,-555.4 365.15,-555.4 365.15,-524.6 46.2,-524.6"/>
<text text-anchor="start" x="53.2" y="-536.8" font-family="Arial" font-size="14.00">expires_at </text>
<text text-anchor="start" x="121.68" y="-536.8" font-family="Arial" font-size="14.00" fill="#666666">[timestamp with time zone]</text>
<polygon fill="none" stroke="black" points="46.2,-493.8 46.2,-524.6 365.15,-524.6 365.15,-493.8 46.2,-493.8"/>
<text text-anchor="start" x="53.2" y="-506" font-family="Arial" font-size="14.00">max_uses </text>
<text text-anchor="start" x="120.9" y="-506" font-family="Arial" font-size="14.00" fill="#666666">[integer]</text>
<polygon fill="none" stroke="black" points="46.2,-463 46.2,-493.8 365.15,-493.8 365.15,-463 46.2,-463"/>
<text text-anchor="start" x="53.2" y="-475.2" font-family="Arial" font-size="14.00">used_count </text>
<text text-anchor="start" x="129.48" y="-475.2" font-family="Arial" font-size="14.00" fill="#666666">[integer]</text>
<polygon fill="none" stroke="black" points="46.2,-432.2 46.2,-463 365.15,-463 365.15,-432.2 46.2,-432.2"/>
<text text-anchor="start" x="53.2" y="-444.4" font-family="Arial" font-size="14.00">created_at </text>
<text text-anchor="start" x="123.25" y="-444.4" font-family="Arial" font-size="14.00" fill="#666666">[timestamp with time zone]</text>
<polygon fill="none" stroke="black" stroke-width="3" points="44.7,-430.7 44.7,-684.9 366.65,-684.9 366.65,-430.7 44.7,-430.7"/>
</g>
<!-- public.tenants -->
<g id="node2" class="node">
<title>public.tenants</title>
<polygon fill="#efefef" stroke="none" points="295.83,-258.8 295.83,-294.4 549.51,-294.4 549.51,-258.8 295.83,-258.8"/>
<polygon fill="none" stroke="black" points="295.83,-258.8 295.83,-294.4 549.51,-294.4 549.51,-258.8 295.83,-258.8"/>
<text text-anchor="start" x="310.19" y="-272.2" font-family="Arial Bold" font-size="18.00">public.tenants</text>
<text text-anchor="start" x="410.67" y="-272.2" font-family="Arial" font-size="14.00">    </text>
<text text-anchor="start" x="441.78" y="-272.2" font-family="Arial" font-size="14.00" fill="#666666">[BASE TABLE]</text>
<polygon fill="none" stroke="black" points="295.83,-228 295.83,-258.8 549.51,-258.8 549.51,-228 295.83,-228"/>
<text text-anchor="start" x="302.83" y="-240.2" font-family="Arial" font-size="14.00">id </text>
<text text-anchor="start" x="317.62" y="-240.2" font-family="Arial" font-size="14.00" fill="#666666">[uuid]</text>
<polygon fill="none" stroke="black" points="295.83,-197.2 295.83,-228 549.51,-228 549.51,-197.2 295.83,-197.2"/>
<text text-anchor="start" x="302.83" y="-209.4" font-family="Arial" font-size="14.00">name </text>
<text text-anchor="start" x="341.74" y="-209.4" font-family="Arial" font-size="14.00" fill="#666666">[text]</text>
<polygon fill="none" stroke="black" points="295.83,-166.4 295.83,-197.2 549.51,-197.2 549.51,-166.4 295.83,-166.4"/>
<text text-anchor="start" x="302.83" y="-178.6" font-family="Arial" font-size="14.00">description </text>
<text text-anchor="start" x="374.43" y="-178.6" font-family="Arial" font-size="14.00" fill="#666666">[text]</text>
<polygon fill="none" stroke="black" points="295.83,-135.6 295.83,-166.4 549.51,-166.4 549.51,-135.6 295.83,-135.6"/>
<text text-anchor="start" x="302.83" y="-147.8" font-family="Arial" font-size="14.00">password_hash </text>
<text text-anchor="start" x="404.78" y="-147.8" font-family="Arial" font-size="14.00" fill="#666666">[text]</text>
<polygon fill="none" stroke="black" points="295.83,-104.8 295.83,-135.6 549.51,-135.6 549.51,-104.8 295.83,-104.8"/>
<text text-anchor="start" x="302.83" y="-117" font-family="Arial" font-size="14.00">tenant_type </text>
<text text-anchor="start" x="379.89" y="-117" font-family="Arial" font-size="14.00" fill="#666666">[text]</text>
<polygon fill="none" stroke="black" points="295.83,-74 295.83,-104.8 549.51,-104.8 549.51,-74 295.83,-74"/>
<text text-anchor="start" x="302.83" y="-86.2" font-family="Arial" font-size="14.00">created_at </text>
<text text-anchor="start" x="372.88" y="-86.2" font-family="Arial" font-size="14.00" fill="#666666">[timestamp with time zone]</text>
<polygon fill="none" stroke="black" points="295.83,-43.2 295.83,-74 549.51,-74 549.51,-43.2 295.83,-43.2"/>
<text text-anchor="start" x="302.83" y="-55.4" font-family="Arial" font-size="14.00">updated_at </text>
<text text-anchor="start" x="376.79" y="-55.4" font-family="Arial" font-size="14.00" fill="#666666">[timestamp with time zone]</text>
</g>
<!-- public.tenant_join_codes&#45;&gt;public.tenants -->
<g id="edge1" class="edge">
<title>public.tenant_join_codes:tenant_id&#45;&gt;public.tenants:id</title>
<path fill="none" stroke="black" d="M376.05,-598.57C409.92,-575.34 385.66,-425.12 365.15,-386 347.7,-352.72 313.38,-370.82 295.83,-337.6 276.28,-300.58 252.96,-243.4 294.83,-243.4"/>
<polygon fill="black" stroke="black" points="376.03,-598.58 365.15,-597.2 370.93,-600.14 366.79,-601.4 366.79,-601.4 366.79,-601.4 370.93,-600.14 367.78,-605.81 376.03,-598.58"/>
<text text-anchor="start" x="373.15" y="-611.6" font-family="Arial" font-size="10.00">FOREIGN KEY (tenant_id) REFERENCES tenants(id) ON DELETE CASCADE</text>
</g>
<!-- public.tenant_memberships -->
<g id="node3" class="node">
<title>public.tenant_memberships</title>
<polygon fill="#efefef" stroke="none" points="472.2,-663.2 472.2,-698.8 809.15,-698.8 809.15,-663.2 472.2,-663.2"/>
<polygon fill="none" stroke="black" points="472.2,-663.2 472.2,-698.8 809.15,-698.8 809.15,-663.2 472.2,-663.2"/>
<text text-anchor="start" x="479.2" y="-676.6" font-family="Arial Bold" font-size="18.00">public.tenant_memberships</text>
<text text-anchor="start" x="677.66" y="-676.6" font-family="Arial" font-size="14.00">    </text>
<text text-anchor="start" x="708.77" y="-676.6" font-family="Arial" font-size="14.00" fill="#666666">[BASE TABLE]</text>
<polygon fill="none" stroke="black" points="472.2,-632.4 472.2,-663.2 809.15,-663.2 809.15,-632.4 472.2,-632.4"/>
<text text-anchor="start" x="479.2" y="-644.6" font-family="Arial" font-size="14.00">id </text>
<text text-anchor="start" x="493.99" y="-644.6" font-family="Arial" font-size="14.00" fill="#666666">[uuid]</text>
<polygon fill="none" stroke="black" points="472.2,-601.6 472.2,-632.4 809.15,-632.4 809.15,-601.6 472.2,-601.6"/>
<text text-anchor="start" x="479.2" y="-613.8" font-family="Arial" font-size="14.00">tenant_id </text>
<text text-anchor="start" x="540.7" y="-613.8" font-family="Arial" font-size="14.00" fill="#666666">[uuid]</text>
<polygon fill="none" stroke="black" points="472.2,-570.8 472.2,-601.6 809.15,-601.6 809.15,-570.8 472.2,-570.8"/>
<text text-anchor="start" x="479.2" y="-583" font-family="Arial" font-size="14.00">user_id </text>
<text text-anchor="start" x="529.01" y="-583" font-family="Arial" font-size="14.00" fill="#666666">[uuid]</text>
<polygon fill="none" stroke="black" points="472.2,-540 472.2,-570.8 809.15,-570.8 809.15,-540 472.2,-540"/>
<text text-anchor="start" x="479.2" y="-552.2" font-family="Arial" font-size="14.00">role </text>
<text text-anchor="start" x="506.43" y="-552.2" font-family="Arial" font-size="14.00" fill="#666666">[text]</text>
<polygon fill="none" stroke="black" points="472.2,-509.2 472.2,-540 809.15,-540 809.15,-509.2 472.2,-509.2"/>
<text text-anchor="start" x="479.2" y="-521.4" font-family="Arial" font-size="14.00">status </text>
<text text-anchor="start" x="520.44" y="-521.4" font-family="Arial" font-size="14.00" fill="#666666">[text]</text>
<polygon fill="none" stroke="black" points="472.2,-478.4 472.2,-509.2 809.15,-509.2 809.15,-478.4 472.2,-478.4"/>
<text text-anchor="start" x="479.2" y="-490.6" font-family="Arial" font-size="14.00">joined_via </text>
<text text-anchor="start" x="546.14" y="-490.6" font-family="Arial" font-size="14.00" fill="#666666">[text]</text>
<polygon fill="none" stroke="black" points="472.2,-447.6 472.2,-478.4 809.15,-478.4 809.15,-447.6 472.2,-447.6"/>
<text text-anchor="start" x="479.2" y="-459.8" font-family="Arial" font-size="14.00">created_at </text>
<text text-anchor="start" x="549.25" y="-459.8" font-family="Arial" font-size="14.00" fill="#666666">[timestamp with time zone]</text>
<polygon fill="none" stroke="black" points="472.2,-416.8 472.2,-447.6 809.15,-447.6 809.15,-416.8 472.2,-416.8"/>
<text text-anchor="start" x="479.2" y="-429" font-family="Arial" font-size="14.00">left_at </text>
<text text-anchor="start" x="521.23" y="-429" font-family="Arial" font-size="14.00" fill="#666666">[timestamp with time zone]</text>
</g>
<!-- public.tenant_memberships&#45;&gt;public.tenants -->
<g id="edge2" class="edge">
<title>public.tenant_memberships:tenant_id&#45;&gt;public.tenants:id</title>
<path fill="none" stroke="black" d="M461.2,-614.34C420.67,-590.66 445.03,-416.04 472.2,-373.6 492.64,-341.68 528.97,-369.45 549.51,-337.6 572.21,-302.41 592.38,-243.4 550.51,-243.4"/>
<polygon fill="black" stroke="black" points="461.21,-614.34 469.72,-621.26 466.37,-615.71 470.55,-616.83 470.55,-616.83 470.55,-616.83 466.37,-615.71 472.03,-612.57 461.21,-614.34"/>
<text text-anchor="start" x="478.2" y="-627" font-family="Arial" font-size="10.00">FOREIGN KEY (tenant_id) REFERENCES tenants(id) ON DELETE CASCADE</text>
</g>
</g>
</svg>
