<?xml version="1.0" encoding="UTF-8" standalone="no"?>
<!DOCTYPE svg PUBLIC "-//W3C//DTD SVG 1.1//EN"
 "http://www.w3.org/Graphics/SVG/1.1/DTD/svg11.dtd">
<!-- Generated by graphviz version 12.1.2 (20240928.0832)
 -->
<!-- Title: public.room_assignments Pages: 1 -->
<svg width="1702pt" height="787pt"
 viewBox="0.00 0.00 1702.45 786.80" xmlns="http://www.w3.org/2000/svg" xmlns:xlink="http://www.w3.org/1999/xlink">
<g id="graph0" class="graph" transform="scale(1 1) rotate(0) translate(4 782.8)">
<title>public.room_assignments</title>
<polygon fill="white" stroke="none" points="-4,4 -4,-782.8 1698.45,-782.8 1698.45,4 -4,4"/>
<!-- public.room_assignments -->
<g id="node1" class="node">
<title>public.room_assignments</title>
<polygon fill="#efefef" stroke="none" points="910.19,-697 910.19,-732.6 1233.16,-732.6 1233.16,-697 910.19,-697"/>
<polygon fill="none" stroke="black" points="910.19,-697 910.19,-732.6 1233.16,-732.6 1233.16,-697 910.19,-697"/>
<text text-anchor="start" x="917.19" y="-710.4" font-family="Arial Bold" font-size="18.00">public.room_assignments</text>
<text text-anchor="start" x="1101.67" y="-710.4" font-family="Arial" font-size="14.00">    </text>
<text text-anchor="start" x="1132.79" y="-710.4" font-family="Arial" font-size="14.00" fill="#666666">[BASE TABLE]</text>
<polygon fill="none" stroke="black" points="910.19,-666.2 910.19,-697 1233.16,-697 1233.16,-666.2 910.19,-666.2"/>
<text text-anchor="start" x="917.19" y="-678.4" font-family="Arial" font-size="14.00">id </text>
<text text-anchor="start" x="931.97" y="-678.4" font-family="Arial" font-size="14.00" fill="#666666">[uuid]</text>
<polygon fill="none" stroke="black" points="910.19,-635.4 910.19,-666.2 1233.16,-666.2 1233.16,-635.4 910.19,-635.4"/>
<text text-anchor="start" x="917.19" y="-647.6" font-family="Arial" font-size="14.00">tenant_id </text>
<text text-anchor="start" x="978.68" y="-647.6" font-family="Arial" font-size="14.00" fill="#666666">[uuid]</text>
<polygon fill="none" stroke="black" points="910.19,-604.6 910.19,-635.4 1233.16,-635.4 1233.16,-604.6 910.19,-604.6"/>
<text text-anchor="start" x="917.19" y="-616.8" font-family="Arial" font-size="14.00">room_id </text>
<text text-anchor="start" x="971.66" y="-616.8" font-family="Arial" font-size="14.00" fill="#666666">[uuid]</text>
<polygon fill="none" stroke="black" points="910.19,-573.8 910.19,-604.6 1233.16,-604.6 1233.16,-573.8 910.19,-573.8"/>
<text text-anchor="start" x="917.19" y="-586" font-family="Arial" font-size="14.00">assigned_at </text>
<text text-anchor="start" x="996.58" y="-586" font-family="Arial" font-size="14.00" fill="#666666">[timestamp with time zone]</text>
<polygon fill="none" stroke="black" points="910.19,-543 910.19,-573.8 1233.16,-573.8 1233.16,-543 910.19,-543"/>
<text text-anchor="start" x="917.19" y="-555.2" font-family="Arial" font-size="14.00">expires_at </text>
<text text-anchor="start" x="985.67" y="-555.2" font-family="Arial" font-size="14.00" fill="#666666">[timestamp with time zone]</text>
<polygon fill="none" stroke="black" points="910.19,-512.2 910.19,-543 1233.16,-543 1233.16,-512.2 910.19,-512.2"/>
<text text-anchor="start" x="917.19" y="-524.4" font-family="Arial" font-size="14.00">created_at </text>
<text text-anchor="start" x="987.24" y="-524.4" font-family="Arial" font-size="14.00" fill="#666666">[timestamp with time zone]</text>
<polygon fill="none" stroke="black" points="910.19,-481.4 910.19,-512.2 1233.16,-512.2 1233.16,-481.4 910.19,-481.4"/>
<text text-anchor="start" x="917.19" y="-493.6" font-family="Arial" font-size="14.00">updated_at </text>
<text text-anchor="start" x="991.15" y="-493.6" font-family="Arial" font-size="14.00" fill="#666666">[timestamp with time zone]</text>
<polygon fill="none" stroke="black" stroke-width="3" points="908.69,-479.9 908.69,-734.1 1234.66,-734.1 1234.66,-479.9 908.69,-479.9"/>
</g>
<!-- public.tenants -->
<g id="node2" class="node">
<title>public.tenants</title>
<polygon fill="#efefef" stroke="none" points="507.83,-289.6 507.83,-325.2 761.51,-325.2 761.51,-289.6 507.83,-289.6"/>
<polygon fill="none" stroke="black" points="507.83,-289.6 507.83,-325.2 761.51,-325.2 761.51,-289.6 507.83,-289.6"/>
<text text-anchor="start" x="522.19" y="-303" font-family="Arial Bold" font-size="18.00">public.tenants</text>
<text text-anchor="start" x="622.67" y="-303" font-family="Arial" font-size="14.00">    </text>
<text text-anchor="start" x="653.78" y="-303" font-family="Arial" font-size="14.00" fill="#666666">[BASE TABLE]</text>
<polygon fill="none" stroke="black" points="507.83,-258.8 507.83,-289.6 761.51,-289.6 761.51,-258.8 507.83,-258.8"/>
<text text-anchor="start" x="514.83" y="-271" font-family="Arial" font-size="14.00">id </text>
<text text-anchor="start" x="529.62" y="-271" font-family="Arial" font-size="14.00" fill="#666666">[uuid]</text>
<polygon fill="none" stroke="black" points="507.83,-228 507.83,-258.8 761.51,-258.8 761.51,-228 507.83,-228"/>
<text text-anchor="start" x="514.83" y="-240.2" font-family="Arial" font-size="14.00">organization_id </text>
<text text-anchor="start" x="613.68" y="-240.2" font-family="Arial" font-size="14.00" fill="#666666">[uuid]</text>
<polygon fill="none" stroke="black" points="507.83,-197.2 507.83,-228 761.51,-228 761.51,-197.2 507.83,-197.2"/>
<text text-anchor="start" x="514.83" y="-209.4" font-family="Arial" font-size="14.00">name </text>
<text text-anchor="start" x="553.74" y="-209.4" font-family="Arial" font-size="14.00" fill="#666666">[text]</text>
<polygon fill="none" stroke="black" points="507.83,-166.4 507.83,-197.2 761.51,-197.2 761.51,-166.4 507.83,-166.4"/>
<text text-anchor="start" x="514.83" y="-178.6" font-family="Arial" font-size="14.00">description </text>
<text text-anchor="start" x="586.43" y="-178.6" font-family="Arial" font-size="14.00" fill="#666666">[text]</text>
<polygon fill="none" stroke="black" points="507.83,-135.6 507.83,-166.4 761.51,-166.4 761.51,-135.6 507.83,-135.6"/>
<text text-anchor="start" x="514.83" y="-147.8" font-family="Arial" font-size="14.00">tenant_type </text>
<text text-anchor="start" x="591.89" y="-147.8" font-family="Arial" font-size="14.00" fill="#666666">[text]</text>
<polygon fill="none" stroke="black" points="507.83,-104.8 507.83,-135.6 761.51,-135.6 761.51,-104.8 507.83,-104.8"/>
<text text-anchor="start" x="514.83" y="-117" font-family="Arial" font-size="14.00">created_at </text>
<text text-anchor="start" x="584.88" y="-117" font-family="Arial" font-size="14.00" fill="#666666">[timestamp with time zone]</text>
<polygon fill="none" stroke="black" points="507.83,-74 507.83,-104.8 761.51,-104.8 761.51,-74 507.83,-74"/>
<text text-anchor="start" x="514.83" y="-86.2" font-family="Arial" font-size="14.00">updated_at </text>
<text text-anchor="start" x="588.79" y="-86.2" font-family="Arial" font-size="14.00" fill="#666666">[timestamp with time zone]</text>
</g>
<!-- public.room_assignments&#45;&gt;public.tenants -->
<g id="edge1" class="edge">
<title>public.room_assignments:tenant_id&#45;&gt;public.tenants:id</title>
<path fill="none" stroke="black" d="M898.93,-650.3C816.39,-641.64 891.28,-523.35 855.67,-435.2 824.71,-358.55 845.18,-274.2 762.51,-274.2"/>
<polygon fill="black" stroke="black" points="898.87,-650.29 908.63,-655.28 904.19,-650.55 908.52,-650.77 908.52,-650.77 908.52,-650.77 904.19,-650.55 909.07,-646.29 898.87,-650.29"/>
<text text-anchor="start" x="916.19" y="-660.8" font-family="Arial" font-size="10.00">FOREIGN KEY (tenant_id) REFERENCES tenants(id) ON DELETE CASCADE</text>
</g>
<!-- public.rooms -->
<g id="node5" class="node">
<title>public.rooms</title>
<polygon fill="#efefef" stroke="none" points="1142.83,-320.4 1142.83,-356 1396.51,-356 1396.51,-320.4 1142.83,-320.4"/>
<polygon fill="none" stroke="black" points="1142.83,-320.4 1142.83,-356 1396.51,-356 1396.51,-320.4 1142.83,-320.4"/>
<text text-anchor="start" x="1160.18" y="-333.8" font-family="Arial Bold" font-size="18.00">public.rooms</text>
<text text-anchor="start" x="1254.67" y="-333.8" font-family="Arial" font-size="14.00">    </text>
<text text-anchor="start" x="1285.79" y="-333.8" font-family="Arial" font-size="14.00" fill="#666666">[BASE TABLE]</text>
<polygon fill="none" stroke="black" points="1142.83,-289.6 1142.83,-320.4 1396.51,-320.4 1396.51,-289.6 1142.83,-289.6"/>
<text text-anchor="start" x="1149.83" y="-301.8" font-family="Arial" font-size="14.00">id </text>
<text text-anchor="start" x="1164.62" y="-301.8" font-family="Arial" font-size="14.00" fill="#666666">[uuid]</text>
<polygon fill="none" stroke="black" points="1142.83,-258.8 1142.83,-289.6 1396.51,-289.6 1396.51,-258.8 1142.83,-258.8"/>
<text text-anchor="start" x="1149.83" y="-271" font-family="Arial" font-size="14.00">organization_id </text>
<text text-anchor="start" x="1248.68" y="-271" font-family="Arial" font-size="14.00" fill="#666666">[uuid]</text>
<polygon fill="none" stroke="black" points="1142.83,-228 1142.83,-258.8 1396.51,-258.8 1396.51,-228 1142.83,-228"/>
<text text-anchor="start" x="1149.83" y="-240.2" font-family="Arial" font-size="14.00">name </text>
<text text-anchor="start" x="1188.74" y="-240.2" font-family="Arial" font-size="14.00" fill="#666666">[text]</text>
<polygon fill="none" stroke="black" points="1142.83,-197.2 1142.83,-228 1396.51,-228 1396.51,-197.2 1142.83,-197.2"/>
<text text-anchor="start" x="1149.83" y="-209.4" font-family="Arial" font-size="14.00">building_name </text>
<text text-anchor="start" x="1244.79" y="-209.4" font-family="Arial" font-size="14.00" fill="#666666">[text]</text>
<polygon fill="none" stroke="black" points="1142.83,-166.4 1142.83,-197.2 1396.51,-197.2 1396.51,-166.4 1142.83,-166.4"/>
<text text-anchor="start" x="1149.83" y="-178.6" font-family="Arial" font-size="14.00">floor_number </text>
<text text-anchor="start" x="1236.21" y="-178.6" font-family="Arial" font-size="14.00" fill="#666666">[text]</text>
<polygon fill="none" stroke="black" points="1142.83,-135.6 1142.83,-166.4 1396.51,-166.4 1396.51,-135.6 1142.83,-135.6"/>
<text text-anchor="start" x="1149.83" y="-147.8" font-family="Arial" font-size="14.00">room_type </text>
<text text-anchor="start" x="1219.87" y="-147.8" font-family="Arial" font-size="14.00" fill="#666666">[text]</text>
<polygon fill="none" stroke="black" points="1142.83,-104.8 1142.83,-135.6 1396.51,-135.6 1396.51,-104.8 1142.83,-104.8"/>
<text text-anchor="start" x="1149.83" y="-117" font-family="Arial" font-size="14.00">description </text>
<text text-anchor="start" x="1221.43" y="-117" font-family="Arial" font-size="14.00" fill="#666666">[text]</text>
<polygon fill="none" stroke="black" points="1142.83,-74 1142.83,-104.8 1396.51,-104.8 1396.51,-74 1142.83,-74"/>
<text text-anchor="start" x="1149.83" y="-86.2" font-family="Arial" font-size="14.00">created_at </text>
<text text-anchor="start" x="1219.88" y="-86.2" font-family="Arial" font-size="14.00" fill="#666666">[timestamp with time zone]</text>
<polygon fill="none" stroke="black" points="1142.83,-43.2 1142.83,-74 1396.51,-74 1396.51,-43.2 1142.83,-43.2"/>
<text text-anchor="start" x="1149.83" y="-55.4" font-family="Arial" font-size="14.00">updated_at </text>
<text text-anchor="start" x="1223.79" y="-55.4" font-family="Arial" font-size="14.00" fill="#666666">[timestamp with time zone]</text>
</g>
<!-- public.room_assignments&#45;&gt;public.rooms -->
<g id="edge4" class="edge">
<title>public.room_assignments:room_id&#45;&gt;public.rooms:id</title>
<path fill="none" stroke="black" d="M1244.52,-619.31C1312.96,-609.59 1277.35,-500.01 1233.16,-435.2 1208.81,-399.49 1167.27,-434.84 1142.83,-399.2 1119.15,-364.67 1099.96,-305 1141.83,-305"/>
<polygon fill="black" stroke="black" points="1244.47,-619.31 1234.19,-615.49 1239.15,-619.67 1234.83,-619.96 1234.83,-619.96 1234.83,-619.96 1239.15,-619.67 1234.79,-624.47 1244.47,-619.31"/>
<text text-anchor="start" x="1063.85" y="-604" font-family="Arial" font-size="10.00">FOREIGN KEY (room_id) REFERENCES rooms(id) ON DELETE CASCADE</text>
</g>
<!-- public.tenant_join_codes -->
<g id="node3" class="node">
<title>public.tenant_join_codes</title>
<polygon fill="#efefef" stroke="none" points="43.2,-697 43.2,-732.6 362.15,-732.6 362.15,-697 43.2,-697"/>
<polygon fill="none" stroke="black" points="43.2,-697 43.2,-732.6 362.15,-732.6 362.15,-697 43.2,-697"/>
<text text-anchor="start" x="50.2" y="-710.4" font-family="Arial Bold" font-size="18.00">public.tenant_join_codes</text>
<text text-anchor="start" x="230.66" y="-710.4" font-family="Arial" font-size="14.00">    </text>
<text text-anchor="start" x="261.77" y="-710.4" font-family="Arial" font-size="14.00" fill="#666666">[BASE TABLE]</text>
<polygon fill="none" stroke="black" points="43.2,-666.2 43.2,-697 362.15,-697 362.15,-666.2 43.2,-666.2"/>
<text text-anchor="start" x="50.2" y="-678.4" font-family="Arial" font-size="14.00">id </text>
<text text-anchor="start" x="64.99" y="-678.4" font-family="Arial" font-size="14.00" fill="#666666">[uuid]</text>
<polygon fill="none" stroke="black" points="43.2,-635.4 43.2,-666.2 362.15,-666.2 362.15,-635.4 43.2,-635.4"/>
<text text-anchor="start" x="50.2" y="-647.6" font-family="Arial" font-size="14.00">tenant_id </text>
<text text-anchor="start" x="111.7" y="-647.6" font-family="Arial" font-size="14.00" fill="#666666">[uuid]</text>
<polygon fill="none" stroke="black" points="43.2,-604.6 43.2,-635.4 362.15,-635.4 362.15,-604.6 43.2,-604.6"/>
<text text-anchor="start" x="50.2" y="-616.8" font-family="Arial" font-size="14.00">code </text>
<text text-anchor="start" x="84.45" y="-616.8" font-family="Arial" font-size="14.00" fill="#666666">[text]</text>
<polygon fill="none" stroke="black" points="43.2,-573.8 43.2,-604.6 362.15,-604.6 362.15,-573.8 43.2,-573.8"/>
<text text-anchor="start" x="50.2" y="-586" font-family="Arial" font-size="14.00">expires_at </text>
<text text-anchor="start" x="118.68" y="-586" font-family="Arial" font-size="14.00" fill="#666666">[timestamp with time zone]</text>
<polygon fill="none" stroke="black" points="43.2,-543 43.2,-573.8 362.15,-573.8 362.15,-543 43.2,-543"/>
<text text-anchor="start" x="50.2" y="-555.2" font-family="Arial" font-size="14.00">max_uses </text>
<text text-anchor="start" x="117.9" y="-555.2" font-family="Arial" font-size="14.00" fill="#666666">[integer]</text>
<polygon fill="none" stroke="black" points="43.2,-512.2 43.2,-543 362.15,-543 362.15,-512.2 43.2,-512.2"/>
<text text-anchor="start" x="50.2" y="-524.4" font-family="Arial" font-size="14.00">used_count </text>
<text text-anchor="start" x="126.48" y="-524.4" font-family="Arial" font-size="14.00" fill="#666666">[integer]</text>
<polygon fill="none" stroke="black" points="43.2,-481.4 43.2,-512.2 362.15,-512.2 362.15,-481.4 43.2,-481.4"/>
<text text-anchor="start" x="50.2" y="-493.6" font-family="Arial" font-size="14.00">created_at </text>
<text text-anchor="start" x="120.25" y="-493.6" font-family="Arial" font-size="14.00" fill="#666666">[timestamp with time zone]</text>
</g>
<!-- public.tenant_join_codes&#45;&gt;public.tenants -->
<g id="edge2" class="edge">
<title>public.tenant_join_codes:tenant_id&#45;&gt;public.tenants:id</title>
<path fill="none" stroke="black" d="M373.36,-650.3C455.48,-641.63 378.75,-523.3 413.67,-435.2 444.14,-358.35 424.16,-274.2 506.83,-274.2"/>
<polygon fill="black" stroke="black" points="373.47,-650.29 363.26,-646.29 368.14,-650.55 363.81,-650.77 363.81,-650.77 363.81,-650.77 368.14,-650.55 363.7,-655.28 373.47,-650.29"/>
<text text-anchor="start" x="187.82" y="-634.8" font-family="Arial" font-size="10.00">FOREIGN KEY (tenant_id) REFERENCES tenants(id) ON DELETE CASCADE</text>
</g>
<!-- public.tenant_memberships -->
<g id="node4" class="node">
<title>public.tenant_memberships</title>
<polygon fill="#efefef" stroke="none" points="466.2,-681.6 466.2,-717.2 803.15,-717.2 803.15,-681.6 466.2,-681.6"/>
<polygon fill="none" stroke="black" points="466.2,-681.6 466.2,-717.2 803.15,-717.2 803.15,-681.6 466.2,-681.6"/>
<text text-anchor="start" x="473.2" y="-695" font-family="Arial Bold" font-size="18.00">public.tenant_memberships</text>
<text text-anchor="start" x="671.66" y="-695" font-family="Arial" font-size="14.00">    </text>
<text text-anchor="start" x="702.77" y="-695" font-family="Arial" font-size="14.00" fill="#666666">[BASE TABLE]</text>
<polygon fill="none" stroke="black" points="466.2,-650.8 466.2,-681.6 803.15,-681.6 803.15,-650.8 466.2,-650.8"/>
<text text-anchor="start" x="473.2" y="-663" font-family="Arial" font-size="14.00">id </text>
<text text-anchor="start" x="487.99" y="-663" font-family="Arial" font-size="14.00" fill="#666666">[uuid]</text>
<polygon fill="none" stroke="black" points="466.2,-620 466.2,-650.8 803.15,-650.8 803.15,-620 466.2,-620"/>
<text text-anchor="start" x="473.2" y="-632.2" font-family="Arial" font-size="14.00">tenant_id </text>
<text text-anchor="start" x="534.7" y="-632.2" font-family="Arial" font-size="14.00" fill="#666666">[uuid]</text>
<polygon fill="none" stroke="black" points="466.2,-589.2 466.2,-620 803.15,-620 803.15,-589.2 466.2,-589.2"/>
<text text-anchor="start" x="473.2" y="-601.4" font-family="Arial" font-size="14.00">user_id </text>
<text text-anchor="start" x="523.01" y="-601.4" font-family="Arial" font-size="14.00" fill="#666666">[uuid]</text>
<polygon fill="none" stroke="black" points="466.2,-558.4 466.2,-589.2 803.15,-589.2 803.15,-558.4 466.2,-558.4"/>
<text text-anchor="start" x="473.2" y="-570.6" font-family="Arial" font-size="14.00">role </text>
<text text-anchor="start" x="500.43" y="-570.6" font-family="Arial" font-size="14.00" fill="#666666">[text]</text>
<polygon fill="none" stroke="black" points="466.2,-527.6 466.2,-558.4 803.15,-558.4 803.15,-527.6 466.2,-527.6"/>
<text text-anchor="start" x="473.2" y="-539.8" font-family="Arial" font-size="14.00">created_at </text>
<text text-anchor="start" x="543.25" y="-539.8" font-family="Arial" font-size="14.00" fill="#666666">[timestamp with time zone]</text>
<polygon fill="none" stroke="black" points="466.2,-496.8 466.2,-527.6 803.15,-527.6 803.15,-496.8 466.2,-496.8"/>
<text text-anchor="start" x="473.2" y="-509" font-family="Arial" font-size="14.00">left_at </text>
<text text-anchor="start" x="515.23" y="-509" font-family="Arial" font-size="14.00" fill="#666666">[timestamp with time zone]</text>
</g>
<!-- public.tenant_memberships&#45;&gt;public.tenants -->
<g id="edge3" class="edge">
<title>public.tenant_memberships:tenant_id&#45;&gt;public.tenants:id</title>
<path fill="none" stroke="black" d="M814.3,-633.28C881.12,-603.68 839.68,-274.2 762.51,-274.2"/>
<polygon fill="black" stroke="black" points="814.26,-633.29 803.55,-630.93 809.04,-634.38 804.8,-635.26 804.8,-635.26 804.8,-635.26 809.04,-634.38 805.39,-639.74 814.26,-633.29"/>
<text text-anchor="start" x="628.82" y="-619.4" font-family="Arial" font-size="10.00">FOREIGN KEY (tenant_id) REFERENCES tenants(id) ON DELETE CASCADE</text>
</g>
<!-- public.keys -->
<g id="node6" class="node">
<title>public.keys</title>
<polygon fill="#efefef" stroke="none" points="1340.83,-697 1340.83,-732.6 1594.51,-732.6 1594.51,-697 1340.83,-697"/>
<polygon fill="none" stroke="black" points="1340.83,-697 1340.83,-732.6 1594.51,-732.6 1594.51,-697 1340.83,-697"/>
<text text-anchor="start" x="1364.19" y="-710.4" font-family="Arial Bold" font-size="18.00">public.keys</text>
<text text-anchor="start" x="1446.67" y="-710.4" font-family="Arial" font-size="14.00">    </text>
<text text-anchor="start" x="1477.79" y="-710.4" font-family="Arial" font-size="14.00" fill="#666666">[BASE TABLE]</text>
<polygon fill="none" stroke="black" points="1340.83,-666.2 1340.83,-697 1594.51,-697 1594.51,-666.2 1340.83,-666.2"/>
<text text-anchor="start" x="1347.83" y="-678.4" font-family="Arial" font-size="14.00">id </text>
<text text-anchor="start" x="1362.62" y="-678.4" font-family="Arial" font-size="14.00" fill="#666666">[uuid]</text>
<polygon fill="none" stroke="black" points="1340.83,-635.4 1340.83,-666.2 1594.51,-666.2 1594.51,-635.4 1340.83,-635.4"/>
<text text-anchor="start" x="1347.83" y="-647.6" font-family="Arial" font-size="14.00">room_id </text>
<text text-anchor="start" x="1402.3" y="-647.6" font-family="Arial" font-size="14.00" fill="#666666">[uuid]</text>
<polygon fill="none" stroke="black" points="1340.83,-604.6 1340.83,-635.4 1594.51,-635.4 1594.51,-604.6 1340.83,-604.6"/>
<text text-anchor="start" x="1347.83" y="-616.8" font-family="Arial" font-size="14.00">organization_id </text>
<text text-anchor="start" x="1446.68" y="-616.8" font-family="Arial" font-size="14.00" fill="#666666">[uuid]</text>
<polygon fill="none" stroke="black" points="1340.83,-573.8 1340.83,-604.6 1594.51,-604.6 1594.51,-573.8 1340.83,-573.8"/>
<text text-anchor="start" x="1347.83" y="-586" font-family="Arial" font-size="14.00">key_number </text>
<text text-anchor="start" x="1428.76" y="-586" font-family="Arial" font-size="14.00" fill="#666666">[text]</text>
<polygon fill="none" stroke="black" points="1340.83,-543 1340.83,-573.8 1594.51,-573.8 1594.51,-543 1340.83,-543"/>
<text text-anchor="start" x="1347.83" y="-555.2" font-family="Arial" font-size="14.00">status </text>
<text text-anchor="start" x="1389.07" y="-555.2" font-family="Arial" font-size="14.00" fill="#666666">[text]</text>
<polygon fill="none" stroke="black" points="1340.83,-512.2 1340.83,-543 1594.51,-543 1594.51,-512.2 1340.83,-512.2"/>
<text text-anchor="start" x="1347.83" y="-524.4" font-family="Arial" font-size="14.00">created_at </text>
<text text-anchor="start" x="1417.88" y="-524.4" font-family="Arial" font-size="14.00" fill="#666666">[timestamp with time zone]</text>
<polygon fill="none" stroke="black" points="1340.83,-481.4 1340.83,-512.2 1594.51,-512.2 1594.51,-481.4 1340.83,-481.4"/>
<text text-anchor="start" x="1347.83" y="-493.6" font-family="Arial" font-size="14.00">updated_at </text>
<text text-anchor="start" x="1421.79" y="-493.6" font-family="Arial" font-size="14.00" fill="#666666">[timestamp with time zone]</text>
</g>
<!-- public.keys&#45;&gt;public.rooms -->
<g id="edge5" class="edge">
<title>public.keys:room_id&#45;&gt;public.rooms:id</title>
<path fill="none" stroke="black" d="M1330.07,-647.82C1296.68,-624.91 1320.63,-476.79 1340.83,-438.2 1354.84,-411.43 1382.42,-425.93 1396.51,-399.2 1416.04,-362.16 1439.38,-305 1397.51,-305"/>
<polygon fill="black" stroke="black" points="1329.95,-647.78 1338.2,-655.01 1335.05,-649.34 1339.19,-650.6 1339.19,-650.6 1339.19,-650.6 1335.05,-649.34 1340.83,-646.4 1329.95,-647.78"/>
<text text-anchor="start" x="1346.83" y="-660.8" font-family="Arial" font-size="10.00">FOREIGN KEY (room_id) REFERENCES rooms(id) ON DELETE CASCADE</text>
</g>
</g>
</svg>
