<?xml version="1.0" encoding="UTF-8" standalone="no"?>
<!DOCTYPE svg PUBLIC "-//W3C//DTD SVG 1.1//EN"
 "http://www.w3.org/Graphics/SVG/1.1/DTD/svg11.dtd">
<!-- Generated by graphviz version 12.1.2 (20240928.0832)
 -->
<!-- Title: public.users Pages: 1 -->
<svg width="1190pt" height="1124pt"
 viewBox="0.00 0.00 1189.81 1123.60" xmlns="http://www.w3.org/2000/svg" xmlns:xlink="http://www.w3.org/1999/xlink">
<g id="graph0" class="graph" transform="scale(1 1) rotate(0) translate(4 1119.6)">
<title>public.users</title>
<polygon fill="white" stroke="none" points="-4,4 -4,-1119.6 1185.81,-1119.6 1185.81,4 -4,4"/>
<!-- public.users -->
<g id="node1" class="node">
<title>public.users</title>
<polygon fill="#efefef" stroke="none" points="205.11,-243.4 205.11,-279 478.25,-279 478.25,-243.4 205.11,-243.4"/>
<polygon fill="none" stroke="black" points="205.11,-243.4 205.11,-279 478.25,-279 478.25,-243.4 205.11,-243.4"/>
<text text-anchor="start" x="236.19" y="-256.8" font-family="Arial Bold" font-size="18.00">public.users</text>
<text text-anchor="start" x="322.68" y="-256.8" font-family="Arial" font-size="14.00">    </text>
<text text-anchor="start" x="353.79" y="-256.8" font-family="Arial" font-size="14.00" fill="#666666">[BASE TABLE]</text>
<polygon fill="none" stroke="black" points="205.11,-212.6 205.11,-243.4 478.25,-243.4 478.25,-212.6 205.11,-212.6"/>
<text text-anchor="start" x="212.11" y="-224.8" font-family="Arial" font-size="14.00">id </text>
<text text-anchor="start" x="226.89" y="-224.8" font-family="Arial" font-size="14.00" fill="#666666">[uuid]</text>
<polygon fill="none" stroke="black" points="205.11,-181.8 205.11,-212.6 478.25,-212.6 478.25,-181.8 205.11,-181.8"/>
<text text-anchor="start" x="212.11" y="-194" font-family="Arial" font-size="14.00">email </text>
<text text-anchor="start" x="249.45" y="-194" font-family="Arial" font-size="14.00" fill="#666666">[text]</text>
<polygon fill="none" stroke="black" points="205.11,-151 205.11,-181.8 478.25,-181.8 478.25,-151 205.11,-151"/>
<text text-anchor="start" x="212.11" y="-163.2" font-family="Arial" font-size="14.00">name </text>
<text text-anchor="start" x="251.02" y="-163.2" font-family="Arial" font-size="14.00" fill="#666666">[text]</text>
<polygon fill="none" stroke="black" points="205.11,-120.2 205.11,-151 478.25,-151 478.25,-120.2 205.11,-120.2"/>
<text text-anchor="start" x="212.11" y="-132.4" font-family="Arial" font-size="14.00">icon </text>
<text text-anchor="start" x="241.68" y="-132.4" font-family="Arial" font-size="14.00" fill="#666666">[text]</text>
<polygon fill="none" stroke="black" points="205.11,-89.4 205.11,-120.2 478.25,-120.2 478.25,-89.4 205.11,-89.4"/>
<text text-anchor="start" x="212.11" y="-101.6" font-family="Arial" font-size="14.00">created_at </text>
<text text-anchor="start" x="282.15" y="-101.6" font-family="Arial" font-size="14.00" fill="#666666">[timestamp without time zone]</text>
<polygon fill="none" stroke="black" points="205.11,-58.6 205.11,-89.4 478.25,-89.4 478.25,-58.6 205.11,-58.6"/>
<text text-anchor="start" x="212.11" y="-70.8" font-family="Arial" font-size="14.00">updated_at </text>
<text text-anchor="start" x="286.06" y="-70.8" font-family="Arial" font-size="14.00" fill="#666666">[timestamp without time zone]</text>
<polygon fill="none" stroke="black" stroke-width="3" points="203.61,-57.1 203.61,-280.5 479.75,-280.5 479.75,-57.1 203.61,-57.1"/>
</g>
<!-- public.user_identities -->
<g id="node2" class="node">
<title>public.user_identities</title>
<polygon fill="#efefef" stroke="none" points="43.2,-632.4 43.2,-668 336.16,-668 336.16,-632.4 43.2,-632.4"/>
<polygon fill="none" stroke="black" points="43.2,-632.4 43.2,-668 336.16,-668 336.16,-632.4 43.2,-632.4"/>
<text text-anchor="start" x="50.2" y="-645.8" font-family="Arial Bold" font-size="18.00">public.user_identities</text>
<text text-anchor="start" x="204.67" y="-645.8" font-family="Arial" font-size="14.00">    </text>
<text text-anchor="start" x="235.78" y="-645.8" font-family="Arial" font-size="14.00" fill="#666666">[BASE TABLE]</text>
<polygon fill="none" stroke="black" points="43.2,-601.6 43.2,-632.4 336.16,-632.4 336.16,-601.6 43.2,-601.6"/>
<text text-anchor="start" x="50.2" y="-613.8" font-family="Arial" font-size="14.00">id </text>
<text text-anchor="start" x="64.99" y="-613.8" font-family="Arial" font-size="14.00" fill="#666666">[uuid]</text>
<polygon fill="none" stroke="black" points="43.2,-570.8 43.2,-601.6 336.16,-601.6 336.16,-570.8 43.2,-570.8"/>
<text text-anchor="start" x="50.2" y="-583" font-family="Arial" font-size="14.00">user_id </text>
<text text-anchor="start" x="100.01" y="-583" font-family="Arial" font-size="14.00" fill="#666666">[uuid]</text>
<polygon fill="none" stroke="black" points="43.2,-540 43.2,-570.8 336.16,-570.8 336.16,-540 43.2,-540"/>
<text text-anchor="start" x="50.2" y="-552.2" font-family="Arial" font-size="14.00">provider </text>
<text text-anchor="start" x="104.67" y="-552.2" font-family="Arial" font-size="14.00" fill="#666666">[text]</text>
<polygon fill="none" stroke="black" points="43.2,-509.2 43.2,-540 336.16,-540 336.16,-509.2 43.2,-509.2"/>
<text text-anchor="start" x="50.2" y="-521.4" font-family="Arial" font-size="14.00">provider_sub </text>
<text text-anchor="start" x="135.03" y="-521.4" font-family="Arial" font-size="14.00" fill="#666666">[text]</text>
<polygon fill="none" stroke="black" points="43.2,-478.4 43.2,-509.2 336.16,-509.2 336.16,-478.4 43.2,-478.4"/>
<text text-anchor="start" x="50.2" y="-490.6" font-family="Arial" font-size="14.00">created_at </text>
<text text-anchor="start" x="120.25" y="-490.6" font-family="Arial" font-size="14.00" fill="#666666">[timestamp with time zone]</text>
<polygon fill="none" stroke="black" points="43.2,-447.6 43.2,-478.4 336.16,-478.4 336.16,-447.6 43.2,-447.6"/>
<text text-anchor="start" x="50.2" y="-459.8" font-family="Arial" font-size="14.00">updated_at </text>
<text text-anchor="start" x="124.16" y="-459.8" font-family="Arial" font-size="14.00" fill="#666666">[timestamp with time zone]</text>
</g>
<!-- public.user_identities&#45;&gt;public.users -->
<g id="edge1" class="edge">
<title>public.user_identities:user_id&#45;&gt;public.users:id</title>
<path fill="none" stroke="black" d="M347.31,-585.54C414.2,-576.26 374.26,-471.51 336.16,-404.4 302.56,-345.22 238.85,-384.3 205.11,-325.2 183.69,-287.68 160.9,-228 204.11,-228"/>
<polygon fill="black" stroke="black" points="347.47,-585.53 337.2,-581.69 342.15,-585.88 337.82,-586.16 337.82,-586.16 337.82,-586.16 342.15,-585.88 337.78,-590.67 347.47,-585.53"/>
<text text-anchor="start" x="344.16" y="-596.2" font-family="Arial" font-size="10.00">FOREIGN KEY (user_id) REFERENCES users(id) ON DELETE CASCADE</text>
</g>
<!-- public.sessions -->
<g id="node3" class="node">
<title>public.sessions</title>
<polygon fill="#efefef" stroke="none" points="402.79,-1036.8 402.79,-1072.4 652.56,-1072.4 652.56,-1036.8 402.79,-1036.8"/>
<polygon fill="none" stroke="black" points="402.79,-1036.8 402.79,-1072.4 652.56,-1072.4 652.56,-1036.8 402.79,-1036.8"/>
<text text-anchor="start" x="411.18" y="-1050.2" font-family="Arial Bold" font-size="18.00">public.sessions</text>
<text text-anchor="start" x="519.68" y="-1050.2" font-family="Arial" font-size="14.00">    </text>
<text text-anchor="start" x="550.8" y="-1050.2" font-family="Arial" font-size="14.00" fill="#666666">[BASE TABLE]</text>
<polygon fill="none" stroke="black" points="402.79,-1006 402.79,-1036.8 652.56,-1036.8 652.56,-1006 402.79,-1006"/>
<text text-anchor="start" x="409.79" y="-1018.2" font-family="Arial" font-size="14.00">session_id </text>
<text text-anchor="start" x="479.83" y="-1018.2" font-family="Arial" font-size="14.00" fill="#666666">[text]</text>
<polygon fill="none" stroke="black" points="402.79,-975.2 402.79,-1006 652.56,-1006 652.56,-975.2 402.79,-975.2"/>
<text text-anchor="start" x="409.79" y="-987.4" font-family="Arial" font-size="14.00">user_id </text>
<text text-anchor="start" x="459.6" y="-987.4" font-family="Arial" font-size="14.00" fill="#666666">[uuid]</text>
<polygon fill="none" stroke="black" points="402.79,-944.4 402.79,-975.2 652.56,-975.2 652.56,-944.4 402.79,-944.4"/>
<text text-anchor="start" x="409.79" y="-956.6" font-family="Arial" font-size="14.00">active_membership_id </text>
<text text-anchor="start" x="553.75" y="-956.6" font-family="Arial" font-size="14.00" fill="#666666">[uuid]</text>
<polygon fill="none" stroke="black" points="402.79,-913.6 402.79,-944.4 652.56,-944.4 652.56,-913.6 402.79,-913.6"/>
<text text-anchor="start" x="409.79" y="-925.8" font-family="Arial" font-size="14.00">created_at </text>
<text text-anchor="start" x="479.84" y="-925.8" font-family="Arial" font-size="14.00" fill="#666666">[timestamp with time zone]</text>
<polygon fill="none" stroke="black" points="402.79,-882.8 402.79,-913.6 652.56,-913.6 652.56,-882.8 402.79,-882.8"/>
<text text-anchor="start" x="409.79" y="-895" font-family="Arial" font-size="14.00">expires_at </text>
<text text-anchor="start" x="478.28" y="-895" font-family="Arial" font-size="14.00" fill="#666666">[timestamp with time zone]</text>
<polygon fill="none" stroke="black" points="402.79,-852 402.79,-882.8 652.56,-882.8 652.56,-852 402.79,-852"/>
<text text-anchor="start" x="409.79" y="-864.2" font-family="Arial" font-size="14.00">csrf_token </text>
<text text-anchor="start" x="478.27" y="-864.2" font-family="Arial" font-size="14.00" fill="#666666">[text]</text>
<polygon fill="none" stroke="black" points="402.79,-821.2 402.79,-852 652.56,-852 652.56,-821.2 402.79,-821.2"/>
<text text-anchor="start" x="409.79" y="-833.4" font-family="Arial" font-size="14.00">revoked </text>
<text text-anchor="start" x="463.49" y="-833.4" font-family="Arial" font-size="14.00" fill="#666666">[boolean]</text>
</g>
<!-- public.sessions&#45;&gt;public.users -->
<g id="edge2" class="edge">
<title>public.sessions:user_id&#45;&gt;public.users:id</title>
<path fill="none" stroke="black" d="M391.56,-990.07C314.39,-981.41 399.9,-868.75 402.79,-778 405.66,-688.02 388.49,-455.12 426.68,-373.6 440.01,-345.13 465.61,-353.98 478.25,-325.2 495.62,-285.64 522.45,-228 479.25,-228"/>
<polygon fill="black" stroke="black" points="391.47,-990.06 401.22,-995.08 396.8,-990.34 401.12,-990.57 401.12,-990.57 401.12,-990.57 396.8,-990.34 401.69,-986.09 391.47,-990.06"/>
<text text-anchor="start" x="60.83" y="-1000.6" font-family="Arial" font-size="10.00">FOREIGN KEY (user_id) REFERENCES users(id) ON DELETE CASCADE</text>
</g>
<!-- public.tenant_memberships -->
<g id="node4" class="node">
<title>public.tenant_memberships</title>
<polygon fill="#efefef" stroke="none" points="479.21,-663.2 479.21,-698.8 816.15,-698.8 816.15,-663.2 479.21,-663.2"/>
<polygon fill="none" stroke="black" points="479.21,-663.2 479.21,-698.8 816.15,-698.8 816.15,-663.2 479.21,-663.2"/>
<text text-anchor="start" x="486.21" y="-676.6" font-family="Arial Bold" font-size="18.00">public.tenant_memberships</text>
<text text-anchor="start" x="684.66" y="-676.6" font-family="Arial" font-size="14.00">    </text>
<text text-anchor="start" x="715.78" y="-676.6" font-family="Arial" font-size="14.00" fill="#666666">[BASE TABLE]</text>
<polygon fill="none" stroke="black" points="479.21,-632.4 479.21,-663.2 816.15,-663.2 816.15,-632.4 479.21,-632.4"/>
<text text-anchor="start" x="486.21" y="-644.6" font-family="Arial" font-size="14.00">id </text>
<text text-anchor="start" x="500.99" y="-644.6" font-family="Arial" font-size="14.00" fill="#666666">[uuid]</text>
<polygon fill="none" stroke="black" points="479.21,-601.6 479.21,-632.4 816.15,-632.4 816.15,-601.6 479.21,-601.6"/>
<text text-anchor="start" x="486.21" y="-613.8" font-family="Arial" font-size="14.00">tenant_id </text>
<text text-anchor="start" x="547.7" y="-613.8" font-family="Arial" font-size="14.00" fill="#666666">[uuid]</text>
<polygon fill="none" stroke="black" points="479.21,-570.8 479.21,-601.6 816.15,-601.6 816.15,-570.8 479.21,-570.8"/>
<text text-anchor="start" x="486.21" y="-583" font-family="Arial" font-size="14.00">user_id </text>
<text text-anchor="start" x="536.01" y="-583" font-family="Arial" font-size="14.00" fill="#666666">[uuid]</text>
<polygon fill="none" stroke="black" points="479.21,-540 479.21,-570.8 816.15,-570.8 816.15,-540 479.21,-540"/>
<text text-anchor="start" x="486.21" y="-552.2" font-family="Arial" font-size="14.00">role </text>
<text text-anchor="start" x="513.44" y="-552.2" font-family="Arial" font-size="14.00" fill="#666666">[text]</text>
<polygon fill="none" stroke="black" points="479.21,-509.2 479.21,-540 816.15,-540 816.15,-509.2 479.21,-509.2"/>
<text text-anchor="start" x="486.21" y="-521.4" font-family="Arial" font-size="14.00">status </text>
<text text-anchor="start" x="527.45" y="-521.4" font-family="Arial" font-size="14.00" fill="#666666">[text]</text>
<polygon fill="none" stroke="black" points="479.21,-478.4 479.21,-509.2 816.15,-509.2 816.15,-478.4 479.21,-478.4"/>
<text text-anchor="start" x="486.21" y="-490.6" font-family="Arial" font-size="14.00">joined_via </text>
<text text-anchor="start" x="553.14" y="-490.6" font-family="Arial" font-size="14.00" fill="#666666">[text]</text>
<polygon fill="none" stroke="black" points="479.21,-447.6 479.21,-478.4 816.15,-478.4 816.15,-447.6 479.21,-447.6"/>
<text text-anchor="start" x="486.21" y="-459.8" font-family="Arial" font-size="14.00">created_at </text>
<text text-anchor="start" x="556.25" y="-459.8" font-family="Arial" font-size="14.00" fill="#666666">[timestamp with time zone]</text>
<polygon fill="none" stroke="black" points="479.21,-416.8 479.21,-447.6 816.15,-447.6 816.15,-416.8 479.21,-416.8"/>
<text text-anchor="start" x="486.21" y="-429" font-family="Arial" font-size="14.00">left_at </text>
<text text-anchor="start" x="528.23" y="-429" font-family="Arial" font-size="14.00" fill="#666666">[timestamp with time zone]</text>
</g>
<!-- public.sessions&#45;&gt;public.tenant_memberships -->
<g id="edge3" class="edge">
<title>public.sessions:active_membership_id&#45;&gt;public.tenant_memberships:id</title>
<path fill="none" stroke="black" d="M663.79,-959.09C731.57,-949.2 701.43,-837.73 652.56,-778 602.73,-717.1 529.19,-802.77 479.21,-742 452.61,-709.66 436.34,-647.8 478.21,-647.8"/>
<polygon fill="black" stroke="black" points="663.87,-959.09 653.59,-955.29 658.55,-959.46 654.23,-959.75 654.23,-959.75 654.23,-959.75 658.55,-959.46 654.21,-964.27 663.87,-959.09"/>
<text text-anchor="start" x="660.56" y="-969.8" font-family="Arial" font-size="10.00">FOREIGN KEY (active_membership_id) REFERENCES tenant_memberships(id)</text>
</g>
<!-- public.tenant_memberships&#45;&gt;public.users -->
<g id="edge4" class="edge">
<title>public.tenant_memberships:user_id&#45;&gt;public.users:id</title>
<path fill="none" stroke="black" d="M477.69,-575.87C476.85,-517.14 481.49,-228 479.25,-228"/>
<polygon fill="black" stroke="black" points="477.69,-575.88 473.69,-586.09 477.96,-581.21 478.17,-585.53 478.17,-585.53 478.17,-585.53 477.96,-581.21 482.68,-585.64 477.69,-575.88"/>
<text text-anchor="start" x="398.22" y="-570.2" font-family="Arial" font-size="10.00">FOREIGN KEY (user_id) REFERENCES users(id) ON DELETE CASCADE</text>
</g>
<!-- public.tenants -->
<g id="node5" class="node">
<title>public.tenants</title>
<polygon fill="#efefef" stroke="none" points="585.84,-258.8 585.84,-294.4 839.52,-294.4 839.52,-258.8 585.84,-258.8"/>
<polygon fill="none" stroke="black" points="585.84,-258.8 585.84,-294.4 839.52,-294.4 839.52,-258.8 585.84,-258.8"/>
<text text-anchor="start" x="600.2" y="-272.2" font-family="Arial Bold" font-size="18.00">public.tenants</text>
<text text-anchor="start" x="700.67" y="-272.2" font-family="Arial" font-size="14.00">    </text>
<text text-anchor="start" x="731.79" y="-272.2" font-family="Arial" font-size="14.00" fill="#666666">[BASE TABLE]</text>
<polygon fill="none" stroke="black" points="585.84,-228 585.84,-258.8 839.52,-258.8 839.52,-228 585.84,-228"/>
<text text-anchor="start" x="592.84" y="-240.2" font-family="Arial" font-size="14.00">id </text>
<text text-anchor="start" x="607.62" y="-240.2" font-family="Arial" font-size="14.00" fill="#666666">[uuid]</text>
<polygon fill="none" stroke="black" points="585.84,-197.2 585.84,-228 839.52,-228 839.52,-197.2 585.84,-197.2"/>
<text text-anchor="start" x="592.84" y="-209.4" font-family="Arial" font-size="14.00">name </text>
<text text-anchor="start" x="631.75" y="-209.4" font-family="Arial" font-size="14.00" fill="#666666">[text]</text>
<polygon fill="none" stroke="black" points="585.84,-166.4 585.84,-197.2 839.52,-197.2 839.52,-166.4 585.84,-166.4"/>
<text text-anchor="start" x="592.84" y="-178.6" font-family="Arial" font-size="14.00">description </text>
<text text-anchor="start" x="664.43" y="-178.6" font-family="Arial" font-size="14.00" fill="#666666">[text]</text>
<polygon fill="none" stroke="black" points="585.84,-135.6 585.84,-166.4 839.52,-166.4 839.52,-135.6 585.84,-135.6"/>
<text text-anchor="start" x="592.84" y="-147.8" font-family="Arial" font-size="14.00">password_hash </text>
<text text-anchor="start" x="694.79" y="-147.8" font-family="Arial" font-size="14.00" fill="#666666">[text]</text>
<polygon fill="none" stroke="black" points="585.84,-104.8 585.84,-135.6 839.52,-135.6 839.52,-104.8 585.84,-104.8"/>
<text text-anchor="start" x="592.84" y="-117" font-family="Arial" font-size="14.00">tenant_type </text>
<text text-anchor="start" x="669.9" y="-117" font-family="Arial" font-size="14.00" fill="#666666">[text]</text>
<polygon fill="none" stroke="black" points="585.84,-74 585.84,-104.8 839.52,-104.8 839.52,-74 585.84,-74"/>
<text text-anchor="start" x="592.84" y="-86.2" font-family="Arial" font-size="14.00">created_at </text>
<text text-anchor="start" x="662.89" y="-86.2" font-family="Arial" font-size="14.00" fill="#666666">[timestamp with time zone]</text>
<polygon fill="none" stroke="black" points="585.84,-43.2 585.84,-74 839.52,-74 839.52,-43.2 585.84,-43.2"/>
<text text-anchor="start" x="592.84" y="-55.4" font-family="Arial" font-size="14.00">updated_at </text>
<text text-anchor="start" x="666.8" y="-55.4" font-family="Arial" font-size="14.00" fill="#666666">[timestamp with time zone]</text>
</g>
<!-- public.tenant_memberships&#45;&gt;public.tenants -->
<g id="edge5" class="edge">
<title>public.tenant_memberships:tenant_id&#45;&gt;public.tenants:id</title>
<path fill="none" stroke="black" d="M827.45,-616.48C922.73,-606.37 884.32,-452.92 816.15,-373.6 748.62,-295.03 653.62,-415.95 585.84,-337.6 558.45,-305.94 542.97,-243.4 584.84,-243.4"/>
<polygon fill="black" stroke="black" points="827.47,-616.47 817.26,-612.49 822.15,-616.75 817.82,-616.97 817.82,-616.97 817.82,-616.97 822.15,-616.75 817.71,-621.48 827.47,-616.47"/>
<text text-anchor="start" x="824.15" y="-627" font-family="Arial" font-size="10.00">FOREIGN KEY (tenant_id) REFERENCES tenants(id) ON DELETE CASCADE</text>
</g>
</g>
</svg>
