<?xml version="1.0" encoding="UTF-8" standalone="no"?>
<!DOCTYPE svg PUBLIC "-//W3C//DTD SVG 1.1//EN"
 "http://www.w3.org/Graphics/SVG/1.1/DTD/svg11.dtd">
<!-- Generated by graphviz version 12.1.2 (20240928.0832)
 -->
<!-- Title: public.tenants Pages: 1 -->
<svg width="1594pt" height="1154pt"
 viewBox="0.00 0.00 1593.78 1154.40" xmlns="http://www.w3.org/2000/svg" xmlns:xlink="http://www.w3.org/1999/xlink">
<g id="graph0" class="graph" transform="scale(1 1) rotate(0) translate(4 1150.4)">
<title>public.tenants</title>
<polygon fill="white" stroke="none" points="-4,4 -4,-1150.4 1589.78,-1150.4 1589.78,4 -4,4"/>
<!-- public.tenants -->
<g id="node1" class="node">
<title>public.tenants</title>
<polygon fill="#efefef" stroke="none" points="516.83,-289.6 516.83,-325.2 770.51,-325.2 770.51,-289.6 516.83,-289.6"/>
<polygon fill="none" stroke="black" points="516.83,-289.6 516.83,-325.2 770.51,-325.2 770.51,-289.6 516.83,-289.6"/>
<text text-anchor="start" x="531.19" y="-303" font-family="Arial Bold" font-size="18.00">public.tenants</text>
<text text-anchor="start" x="631.67" y="-303" font-family="Arial" font-size="14.00">    </text>
<text text-anchor="start" x="662.78" y="-303" font-family="Arial" font-size="14.00" fill="#666666">[BASE TABLE]</text>
<polygon fill="none" stroke="black" points="516.83,-258.8 516.83,-289.6 770.51,-289.6 770.51,-258.8 516.83,-258.8"/>
<text text-anchor="start" x="523.83" y="-271" font-family="Arial" font-size="14.00">id </text>
<text text-anchor="start" x="538.62" y="-271" font-family="Arial" font-size="14.00" fill="#666666">[uuid]</text>
<polygon fill="none" stroke="black" points="516.83,-228 516.83,-258.8 770.51,-258.8 770.51,-228 516.83,-228"/>
<text text-anchor="start" x="523.83" y="-240.2" font-family="Arial" font-size="14.00">organization_id </text>
<text text-anchor="start" x="622.68" y="-240.2" font-family="Arial" font-size="14.00" fill="#666666">[uuid]</text>
<polygon fill="none" stroke="black" points="516.83,-197.2 516.83,-228 770.51,-228 770.51,-197.2 516.83,-197.2"/>
<text text-anchor="start" x="523.83" y="-209.4" font-family="Arial" font-size="14.00">name </text>
<text text-anchor="start" x="562.74" y="-209.4" font-family="Arial" font-size="14.00" fill="#666666">[text]</text>
<polygon fill="none" stroke="black" points="516.83,-166.4 516.83,-197.2 770.51,-197.2 770.51,-166.4 516.83,-166.4"/>
<text text-anchor="start" x="523.83" y="-178.6" font-family="Arial" font-size="14.00">description </text>
<text text-anchor="start" x="595.43" y="-178.6" font-family="Arial" font-size="14.00" fill="#666666">[text]</text>
<polygon fill="none" stroke="black" points="516.83,-135.6 516.83,-166.4 770.51,-166.4 770.51,-135.6 516.83,-135.6"/>
<text text-anchor="start" x="523.83" y="-147.8" font-family="Arial" font-size="14.00">tenant_type </text>
<text text-anchor="start" x="600.89" y="-147.8" font-family="Arial" font-size="14.00" fill="#666666">[text]</text>
<polygon fill="none" stroke="black" points="516.83,-104.8 516.83,-135.6 770.51,-135.6 770.51,-104.8 516.83,-104.8"/>
<text text-anchor="start" x="523.83" y="-117" font-family="Arial" font-size="14.00">created_at </text>
<text text-anchor="start" x="593.88" y="-117" font-family="Arial" font-size="14.00" fill="#666666">[timestamp with time zone]</text>
<polygon fill="none" stroke="black" points="516.83,-74 516.83,-104.8 770.51,-104.8 770.51,-74 516.83,-74"/>
<text text-anchor="start" x="523.83" y="-86.2" font-family="Arial" font-size="14.00">updated_at </text>
<text text-anchor="start" x="597.79" y="-86.2" font-family="Arial" font-size="14.00" fill="#666666">[timestamp with time zone]</text>
<polygon fill="none" stroke="black" stroke-width="3" points="515.33,-72.5 515.33,-326.7 772.01,-326.7 772.01,-72.5 515.33,-72.5"/>
</g>
<!-- public.tenant_join_codes -->
<g id="node2" class="node">
<title>public.tenant_join_codes</title>
<polygon fill="#efefef" stroke="none" points="484.2,-694 484.2,-729.6 803.15,-729.6 803.15,-694 484.2,-694"/>
<polygon fill="none" stroke="black" points="484.2,-694 484.2,-729.6 803.15,-729.6 803.15,-694 484.2,-694"/>
<text text-anchor="start" x="491.2" y="-707.4" font-family="Arial Bold" font-size="18.00">public.tenant_join_codes</text>
<text text-anchor="start" x="671.66" y="-707.4" font-family="Arial" font-size="14.00">    </text>
<text text-anchor="start" x="702.77" y="-707.4" font-family="Arial" font-size="14.00" fill="#666666">[BASE TABLE]</text>
<polygon fill="none" stroke="black" points="484.2,-663.2 484.2,-694 803.15,-694 803.15,-663.2 484.2,-663.2"/>
<text text-anchor="start" x="491.2" y="-675.4" font-family="Arial" font-size="14.00">id </text>
<text text-anchor="start" x="505.99" y="-675.4" font-family="Arial" font-size="14.00" fill="#666666">[uuid]</text>
<polygon fill="none" stroke="black" points="484.2,-632.4 484.2,-663.2 803.15,-663.2 803.15,-632.4 484.2,-632.4"/>
<text text-anchor="start" x="491.2" y="-644.6" font-family="Arial" font-size="14.00">tenant_id </text>
<text text-anchor="start" x="552.7" y="-644.6" font-family="Arial" font-size="14.00" fill="#666666">[uuid]</text>
<polygon fill="none" stroke="black" points="484.2,-601.6 484.2,-632.4 803.15,-632.4 803.15,-601.6 484.2,-601.6"/>
<text text-anchor="start" x="491.2" y="-613.8" font-family="Arial" font-size="14.00">code </text>
<text text-anchor="start" x="525.45" y="-613.8" font-family="Arial" font-size="14.00" fill="#666666">[text]</text>
<polygon fill="none" stroke="black" points="484.2,-570.8 484.2,-601.6 803.15,-601.6 803.15,-570.8 484.2,-570.8"/>
<text text-anchor="start" x="491.2" y="-583" font-family="Arial" font-size="14.00">expires_at </text>
<text text-anchor="start" x="559.68" y="-583" font-family="Arial" font-size="14.00" fill="#666666">[timestamp with time zone]</text>
<polygon fill="none" stroke="black" points="484.2,-540 484.2,-570.8 803.15,-570.8 803.15,-540 484.2,-540"/>
<text text-anchor="start" x="491.2" y="-552.2" font-family="Arial" font-size="14.00">max_uses </text>
<text text-anchor="start" x="558.9" y="-552.2" font-family="Arial" font-size="14.00" fill="#666666">[integer]</text>
<polygon fill="none" stroke="black" points="484.2,-509.2 484.2,-540 803.15,-540 803.15,-509.2 484.2,-509.2"/>
<text text-anchor="start" x="491.2" y="-521.4" font-family="Arial" font-size="14.00">used_count </text>
<text text-anchor="start" x="567.48" y="-521.4" font-family="Arial" font-size="14.00" fill="#666666">[integer]</text>
<polygon fill="none" stroke="black" points="484.2,-478.4 484.2,-509.2 803.15,-509.2 803.15,-478.4 484.2,-478.4"/>
<text text-anchor="start" x="491.2" y="-490.6" font-family="Arial" font-size="14.00">created_at </text>
<text text-anchor="start" x="561.25" y="-490.6" font-family="Arial" font-size="14.00" fill="#666666">[timestamp with time zone]</text>
</g>
<!-- public.tenant_join_codes&#45;&gt;public.tenants -->
<g id="edge1" class="edge">
<title>public.tenant_join_codes:tenant_id&#45;&gt;public.tenants:id</title>
<path fill="none" stroke="black" d="M814.25,-645.79C884.59,-616.38 851.27,-274.2 771.51,-274.2"/>
<polygon fill="black" stroke="black" points="814.28,-645.78 803.6,-643.32 809.05,-646.82 804.8,-647.67 804.8,-647.67 804.8,-647.67 809.05,-646.82 805.35,-652.15 814.28,-645.78"/>
<text text-anchor="start" x="811.15" y="-657.8" font-family="Arial" font-size="10.00">FOREIGN KEY (tenant_id) REFERENCES tenants(id) ON DELETE CASCADE</text>
</g>
<!-- public.tenant_memberships -->
<g id="node3" class="node">
<title>public.tenant_memberships</title>
<polygon fill="#efefef" stroke="none" points="43.2,-678.6 43.2,-714.2 380.15,-714.2 380.15,-678.6 43.2,-678.6"/>
<polygon fill="none" stroke="black" points="43.2,-678.6 43.2,-714.2 380.15,-714.2 380.15,-678.6 43.2,-678.6"/>
<text text-anchor="start" x="50.2" y="-692" font-family="Arial Bold" font-size="18.00">public.tenant_memberships</text>
<text text-anchor="start" x="248.66" y="-692" font-family="Arial" font-size="14.00">    </text>
<text text-anchor="start" x="279.77" y="-692" font-family="Arial" font-size="14.00" fill="#666666">[BASE TABLE]</text>
<polygon fill="none" stroke="black" points="43.2,-647.8 43.2,-678.6 380.15,-678.6 380.15,-647.8 43.2,-647.8"/>
<text text-anchor="start" x="50.2" y="-660" font-family="Arial" font-size="14.00">id </text>
<text text-anchor="start" x="64.99" y="-660" font-family="Arial" font-size="14.00" fill="#666666">[uuid]</text>
<polygon fill="none" stroke="black" points="43.2,-617 43.2,-647.8 380.15,-647.8 380.15,-617 43.2,-617"/>
<text text-anchor="start" x="50.2" y="-629.2" font-family="Arial" font-size="14.00">tenant_id </text>
<text text-anchor="start" x="111.7" y="-629.2" font-family="Arial" font-size="14.00" fill="#666666">[uuid]</text>
<polygon fill="none" stroke="black" points="43.2,-586.2 43.2,-617 380.15,-617 380.15,-586.2 43.2,-586.2"/>
<text text-anchor="start" x="50.2" y="-598.4" font-family="Arial" font-size="14.00">user_id </text>
<text text-anchor="start" x="100.01" y="-598.4" font-family="Arial" font-size="14.00" fill="#666666">[uuid]</text>
<polygon fill="none" stroke="black" points="43.2,-555.4 43.2,-586.2 380.15,-586.2 380.15,-555.4 43.2,-555.4"/>
<text text-anchor="start" x="50.2" y="-567.6" font-family="Arial" font-size="14.00">role </text>
<text text-anchor="start" x="77.43" y="-567.6" font-family="Arial" font-size="14.00" fill="#666666">[text]</text>
<polygon fill="none" stroke="black" points="43.2,-524.6 43.2,-555.4 380.15,-555.4 380.15,-524.6 43.2,-524.6"/>
<text text-anchor="start" x="50.2" y="-536.8" font-family="Arial" font-size="14.00">created_at </text>
<text text-anchor="start" x="120.25" y="-536.8" font-family="Arial" font-size="14.00" fill="#666666">[timestamp with time zone]</text>
<polygon fill="none" stroke="black" points="43.2,-493.8 43.2,-524.6 380.15,-524.6 380.15,-493.8 43.2,-493.8"/>
<text text-anchor="start" x="50.2" y="-506" font-family="Arial" font-size="14.00">left_at </text>
<text text-anchor="start" x="92.23" y="-506" font-family="Arial" font-size="14.00" fill="#666666">[timestamp with time zone]</text>
</g>
<!-- public.tenant_memberships&#45;&gt;public.tenants -->
<g id="edge2" class="edge">
<title>public.tenant_memberships:tenant_id&#45;&gt;public.tenants:id</title>
<path fill="none" stroke="black" d="M391.48,-631.84C465.86,-623.2 400.6,-516.21 431.67,-435.2 460.59,-359.81 435.09,-274.2 515.83,-274.2"/>
<polygon fill="black" stroke="black" points="391.47,-631.84 381.24,-627.89 386.14,-632.13 381.81,-632.36 381.81,-632.36 381.81,-632.36 386.14,-632.13 381.72,-636.88 391.47,-631.84"/>
<text text-anchor="start" x="388.15" y="-642.4" font-family="Arial" font-size="10.00">FOREIGN KEY (tenant_id) REFERENCES tenants(id) ON DELETE CASCADE</text>
</g>
<!-- public.users -->
<g id="node5" class="node">
<title>public.users</title>
<polygon fill="#efefef" stroke="none" points="75.1,-274.2 75.1,-309.8 348.24,-309.8 348.24,-274.2 75.1,-274.2"/>
<polygon fill="none" stroke="black" points="75.1,-274.2 75.1,-309.8 348.24,-309.8 348.24,-274.2 75.1,-274.2"/>
<text text-anchor="start" x="106.19" y="-287.6" font-family="Arial Bold" font-size="18.00">public.users</text>
<text text-anchor="start" x="192.67" y="-287.6" font-family="Arial" font-size="14.00">    </text>
<text text-anchor="start" x="223.79" y="-287.6" font-family="Arial" font-size="14.00" fill="#666666">[BASE TABLE]</text>
<polygon fill="none" stroke="black" points="75.1,-243.4 75.1,-274.2 348.24,-274.2 348.24,-243.4 75.1,-243.4"/>
<text text-anchor="start" x="82.1" y="-255.6" font-family="Arial" font-size="14.00">id </text>
<text text-anchor="start" x="96.89" y="-255.6" font-family="Arial" font-size="14.00" fill="#666666">[uuid]</text>
<polygon fill="none" stroke="black" points="75.1,-212.6 75.1,-243.4 348.24,-243.4 348.24,-212.6 75.1,-212.6"/>
<text text-anchor="start" x="82.1" y="-224.8" font-family="Arial" font-size="14.00">email </text>
<text text-anchor="start" x="119.45" y="-224.8" font-family="Arial" font-size="14.00" fill="#666666">[text]</text>
<polygon fill="none" stroke="black" points="75.1,-181.8 75.1,-212.6 348.24,-212.6 348.24,-181.8 75.1,-181.8"/>
<text text-anchor="start" x="82.1" y="-194" font-family="Arial" font-size="14.00">name </text>
<text text-anchor="start" x="121.01" y="-194" font-family="Arial" font-size="14.00" fill="#666666">[text]</text>
<polygon fill="none" stroke="black" points="75.1,-151 75.1,-181.8 348.24,-181.8 348.24,-151 75.1,-151"/>
<text text-anchor="start" x="82.1" y="-163.2" font-family="Arial" font-size="14.00">icon </text>
<text text-anchor="start" x="111.67" y="-163.2" font-family="Arial" font-size="14.00" fill="#666666">[text]</text>
<polygon fill="none" stroke="black" points="75.1,-120.2 75.1,-151 348.24,-151 348.24,-120.2 75.1,-120.2"/>
<text text-anchor="start" x="82.1" y="-132.4" font-family="Arial" font-size="14.00">created_at </text>
<text text-anchor="start" x="152.15" y="-132.4" font-family="Arial" font-size="14.00" fill="#666666">[timestamp without time zone]</text>
<polygon fill="none" stroke="black" points="75.1,-89.4 75.1,-120.2 348.24,-120.2 348.24,-89.4 75.1,-89.4"/>
<text text-anchor="start" x="82.1" y="-101.6" font-family="Arial" font-size="14.00">updated_at </text>
<text text-anchor="start" x="156.06" y="-101.6" font-family="Arial" font-size="14.00" fill="#666666">[timestamp without time zone]</text>
</g>
<!-- public.tenant_memberships&#45;&gt;public.users -->
<g id="edge4" class="edge">
<title>public.tenant_memberships:user_id&#45;&gt;public.users:id</title>
<path fill="none" stroke="black" d="M391.2,-599.41C454.56,-570.22 422.17,-258.8 349.24,-258.8"/>
<polygon fill="black" stroke="black" points="391.24,-599.4 380.52,-597.13 386.03,-600.54 381.8,-601.46 381.8,-601.46 381.8,-601.46 386.03,-600.54 382.43,-605.93 391.24,-599.4"/>
<text text-anchor="start" x="388.15" y="-611.6" font-family="Arial" font-size="10.00">FOREIGN KEY (user_id) REFERENCES users(id) ON DELETE CASCADE</text>
</g>
<!-- public.sessions -->
<g id="node4" class="node">
<title>public.sessions</title>
<polygon fill="#efefef" stroke="none" points="86.79,-1067.6 86.79,-1103.2 336.56,-1103.2 336.56,-1067.6 86.79,-1067.6"/>
<polygon fill="none" stroke="black" points="86.79,-1067.6 86.79,-1103.2 336.56,-1103.2 336.56,-1067.6 86.79,-1067.6"/>
<text text-anchor="start" x="95.18" y="-1081" font-family="Arial Bold" font-size="18.00">public.sessions</text>
<text text-anchor="start" x="203.68" y="-1081" font-family="Arial" font-size="14.00">    </text>
<text text-anchor="start" x="234.8" y="-1081" font-family="Arial" font-size="14.00" fill="#666666">[BASE TABLE]</text>
<polygon fill="none" stroke="black" points="86.79,-1036.8 86.79,-1067.6 336.56,-1067.6 336.56,-1036.8 86.79,-1036.8"/>
<text text-anchor="start" x="93.79" y="-1049" font-family="Arial" font-size="14.00">session_id </text>
<text text-anchor="start" x="163.83" y="-1049" font-family="Arial" font-size="14.00" fill="#666666">[text]</text>
<polygon fill="none" stroke="black" points="86.79,-1006 86.79,-1036.8 336.56,-1036.8 336.56,-1006 86.79,-1006"/>
<text text-anchor="start" x="93.79" y="-1018.2" font-family="Arial" font-size="14.00">user_id </text>
<text text-anchor="start" x="143.59" y="-1018.2" font-family="Arial" font-size="14.00" fill="#666666">[uuid]</text>
<polygon fill="none" stroke="black" points="86.79,-975.2 86.79,-1006 336.56,-1006 336.56,-975.2 86.79,-975.2"/>
<text text-anchor="start" x="93.79" y="-987.4" font-family="Arial" font-size="14.00">active_membership_id </text>
<text text-anchor="start" x="237.75" y="-987.4" font-family="Arial" font-size="14.00" fill="#666666">[uuid]</text>
<polygon fill="none" stroke="black" points="86.79,-944.4 86.79,-975.2 336.56,-975.2 336.56,-944.4 86.79,-944.4"/>
<text text-anchor="start" x="93.79" y="-956.6" font-family="Arial" font-size="14.00">created_at </text>
<text text-anchor="start" x="163.84" y="-956.6" font-family="Arial" font-size="14.00" fill="#666666">[timestamp with time zone]</text>
<polygon fill="none" stroke="black" points="86.79,-913.6 86.79,-944.4 336.56,-944.4 336.56,-913.6 86.79,-913.6"/>
<text text-anchor="start" x="93.79" y="-925.8" font-family="Arial" font-size="14.00">expires_at </text>
<text text-anchor="start" x="162.27" y="-925.8" font-family="Arial" font-size="14.00" fill="#666666">[timestamp with time zone]</text>
<polygon fill="none" stroke="black" points="86.79,-882.8 86.79,-913.6 336.56,-913.6 336.56,-882.8 86.79,-882.8"/>
<text text-anchor="start" x="93.79" y="-895" font-family="Arial" font-size="14.00">csrf_token </text>
<text text-anchor="start" x="162.26" y="-895" font-family="Arial" font-size="14.00" fill="#666666">[text]</text>
<polygon fill="none" stroke="black" points="86.79,-852 86.79,-882.8 336.56,-882.8 336.56,-852 86.79,-852"/>
<text text-anchor="start" x="93.79" y="-864.2" font-family="Arial" font-size="14.00">revoked </text>
<text text-anchor="start" x="147.48" y="-864.2" font-family="Arial" font-size="14.00" fill="#666666">[boolean]</text>
</g>
<!-- public.sessions&#45;&gt;public.tenant_memberships -->
<g id="edge3" class="edge">
<title>public.sessions:active_membership_id&#45;&gt;public.tenant_memberships:id</title>
<path fill="none" stroke="black" d="M347.67,-988.51C414.79,-960.63 451.1,-663.2 381.15,-663.2"/>
<polygon fill="black" stroke="black" points="347.68,-988.51 336.98,-986.13 342.46,-989.59 338.21,-990.46 338.21,-990.46 338.21,-990.46 342.46,-989.59 338.8,-994.94 347.68,-988.51"/>
<text text-anchor="start" x="344.56" y="-1000.6" font-family="Arial" font-size="10.00">FOREIGN KEY (active_membership_id) REFERENCES tenant_memberships(id)</text>
</g>
<!-- public.room_assignments -->
<g id="node6" class="node">
<title>public.room_assignments</title>
<polygon fill="#efefef" stroke="none" points="907.19,-694 907.19,-729.6 1230.16,-729.6 1230.16,-694 907.19,-694"/>
<polygon fill="none" stroke="black" points="907.19,-694 907.19,-729.6 1230.16,-729.6 1230.16,-694 907.19,-694"/>
<text text-anchor="start" x="914.19" y="-707.4" font-family="Arial Bold" font-size="18.00">public.room_assignments</text>
<text text-anchor="start" x="1098.67" y="-707.4" font-family="Arial" font-size="14.00">    </text>
<text text-anchor="start" x="1129.79" y="-707.4" font-family="Arial" font-size="14.00" fill="#666666">[BASE TABLE]</text>
<polygon fill="none" stroke="black" points="907.19,-663.2 907.19,-694 1230.16,-694 1230.16,-663.2 907.19,-663.2"/>
<text text-anchor="start" x="914.19" y="-675.4" font-family="Arial" font-size="14.00">id </text>
<text text-anchor="start" x="928.97" y="-675.4" font-family="Arial" font-size="14.00" fill="#666666">[uuid]</text>
<polygon fill="none" stroke="black" points="907.19,-632.4 907.19,-663.2 1230.16,-663.2 1230.16,-632.4 907.19,-632.4"/>
<text text-anchor="start" x="914.19" y="-644.6" font-family="Arial" font-size="14.00">tenant_id </text>
<text text-anchor="start" x="975.68" y="-644.6" font-family="Arial" font-size="14.00" fill="#666666">[uuid]</text>
<polygon fill="none" stroke="black" points="907.19,-601.6 907.19,-632.4 1230.16,-632.4 1230.16,-601.6 907.19,-601.6"/>
<text text-anchor="start" x="914.19" y="-613.8" font-family="Arial" font-size="14.00">room_id </text>
<text text-anchor="start" x="968.66" y="-613.8" font-family="Arial" font-size="14.00" fill="#666666">[uuid]</text>
<polygon fill="none" stroke="black" points="907.19,-570.8 907.19,-601.6 1230.16,-601.6 1230.16,-570.8 907.19,-570.8"/>
<text text-anchor="start" x="914.19" y="-583" font-family="Arial" font-size="14.00">assigned_at </text>
<text text-anchor="start" x="993.58" y="-583" font-family="Arial" font-size="14.00" fill="#666666">[timestamp with time zone]</text>
<polygon fill="none" stroke="black" points="907.19,-540 907.19,-570.8 1230.16,-570.8 1230.16,-540 907.19,-540"/>
<text text-anchor="start" x="914.19" y="-552.2" font-family="Arial" font-size="14.00">expires_at </text>
<text text-anchor="start" x="982.67" y="-552.2" font-family="Arial" font-size="14.00" fill="#666666">[timestamp with time zone]</text>
<polygon fill="none" stroke="black" points="907.19,-509.2 907.19,-540 1230.16,-540 1230.16,-509.2 907.19,-509.2"/>
<text text-anchor="start" x="914.19" y="-521.4" font-family="Arial" font-size="14.00">created_at </text>
<text text-anchor="start" x="984.24" y="-521.4" font-family="Arial" font-size="14.00" fill="#666666">[timestamp with time zone]</text>
<polygon fill="none" stroke="black" points="907.19,-478.4 907.19,-509.2 1230.16,-509.2 1230.16,-478.4 907.19,-478.4"/>
<text text-anchor="start" x="914.19" y="-490.6" font-family="Arial" font-size="14.00">updated_at </text>
<text text-anchor="start" x="988.15" y="-490.6" font-family="Arial" font-size="14.00" fill="#666666">[timestamp with time zone]</text>
</g>
<!-- public.room_assignments&#45;&gt;public.tenants -->
<g id="edge5" class="edge">
<title>public.room_assignments:tenant_id&#45;&gt;public.tenants:id</title>
<path fill="none" stroke="black" d="M896.09,-647.31C814.89,-638.82 888.39,-522.8 855.67,-435.2 827.42,-359.56 852.26,-274.2 771.51,-274.2"/>
<polygon fill="black" stroke="black" points="895.87,-647.29 905.63,-652.28 901.19,-647.56 905.52,-647.77 905.52,-647.77 905.52,-647.77 901.19,-647.56 906.07,-643.29 895.87,-647.29"/>
<text text-anchor="start" x="913.19" y="-631.8" font-family="Arial" font-size="10.00">FOREIGN KEY (tenant_id) REFERENCES tenants(id) ON DELETE CASCADE</text>
</g>
<!-- public.rooms -->
<g id="node7" class="node">
<title>public.rooms</title>
<polygon fill="#efefef" stroke="none" points="941.83,-320.4 941.83,-356 1195.51,-356 1195.51,-320.4 941.83,-320.4"/>
<polygon fill="none" stroke="black" points="941.83,-320.4 941.83,-356 1195.51,-356 1195.51,-320.4 941.83,-320.4"/>
<text text-anchor="start" x="959.18" y="-333.8" font-family="Arial Bold" font-size="18.00">public.rooms</text>
<text text-anchor="start" x="1053.67" y="-333.8" font-family="Arial" font-size="14.00">    </text>
<text text-anchor="start" x="1084.79" y="-333.8" font-family="Arial" font-size="14.00" fill="#666666">[BASE TABLE]</text>
<polygon fill="none" stroke="black" points="941.83,-289.6 941.83,-320.4 1195.51,-320.4 1195.51,-289.6 941.83,-289.6"/>
<text text-anchor="start" x="948.83" y="-301.8" font-family="Arial" font-size="14.00">id </text>
<text text-anchor="start" x="963.62" y="-301.8" font-family="Arial" font-size="14.00" fill="#666666">[uuid]</text>
<polygon fill="none" stroke="black" points="941.83,-258.8 941.83,-289.6 1195.51,-289.6 1195.51,-258.8 941.83,-258.8"/>
<text text-anchor="start" x="948.83" y="-271" font-family="Arial" font-size="14.00">organization_id </text>
<text text-anchor="start" x="1047.68" y="-271" font-family="Arial" font-size="14.00" fill="#666666">[uuid]</text>
<polygon fill="none" stroke="black" points="941.83,-228 941.83,-258.8 1195.51,-258.8 1195.51,-228 941.83,-228"/>
<text text-anchor="start" x="948.83" y="-240.2" font-family="Arial" font-size="14.00">name </text>
<text text-anchor="start" x="987.74" y="-240.2" font-family="Arial" font-size="14.00" fill="#666666">[text]</text>
<polygon fill="none" stroke="black" points="941.83,-197.2 941.83,-228 1195.51,-228 1195.51,-197.2 941.83,-197.2"/>
<text text-anchor="start" x="948.83" y="-209.4" font-family="Arial" font-size="14.00">building_name </text>
<text text-anchor="start" x="1043.79" y="-209.4" font-family="Arial" font-size="14.00" fill="#666666">[text]</text>
<polygon fill="none" stroke="black" points="941.83,-166.4 941.83,-197.2 1195.51,-197.2 1195.51,-166.4 941.83,-166.4"/>
<text text-anchor="start" x="948.83" y="-178.6" font-family="Arial" font-size="14.00">floor_number </text>
<text text-anchor="start" x="1035.21" y="-178.6" font-family="Arial" font-size="14.00" fill="#666666">[text]</text>
<polygon fill="none" stroke="black" points="941.83,-135.6 941.83,-166.4 1195.51,-166.4 1195.51,-135.6 941.83,-135.6"/>
<text text-anchor="start" x="948.83" y="-147.8" font-family="Arial" font-size="14.00">room_type </text>
<text text-anchor="start" x="1018.87" y="-147.8" font-family="Arial" font-size="14.00" fill="#666666">[text]</text>
<polygon fill="none" stroke="black" points="941.83,-104.8 941.83,-135.6 1195.51,-135.6 1195.51,-104.8 941.83,-104.8"/>
<text text-anchor="start" x="948.83" y="-117" font-family="Arial" font-size="14.00">description </text>
<text text-anchor="start" x="1020.43" y="-117" font-family="Arial" font-size="14.00" fill="#666666">[text]</text>
<polygon fill="none" stroke="black" points="941.83,-74 941.83,-104.8 1195.51,-104.8 1195.51,-74 941.83,-74"/>
<text text-anchor="start" x="948.83" y="-86.2" font-family="Arial" font-size="14.00">created_at </text>
<text text-anchor="start" x="1018.88" y="-86.2" font-family="Arial" font-size="14.00" fill="#666666">[timestamp with time zone]</text>
<polygon fill="none" stroke="black" points="941.83,-43.2 941.83,-74 1195.51,-74 1195.51,-43.2 941.83,-43.2"/>
<text text-anchor="start" x="948.83" y="-55.4" font-family="Arial" font-size="14.00">updated_at </text>
<text text-anchor="start" x="1022.79" y="-55.4" font-family="Arial" font-size="14.00" fill="#666666">[timestamp with time zone]</text>
</g>
<!-- public.room_assignments&#45;&gt;public.rooms -->
<g id="edge6" class="edge">
<title>public.room_assignments:room_id&#45;&gt;public.rooms:id</title>
<path fill="none" stroke="black" d="M1240.99,-614.67C1297.31,-586.12 1262.73,-305 1196.51,-305"/>
<polygon fill="black" stroke="black" points="1241.21,-614.61 1230.45,-612.54 1236.02,-615.85 1231.81,-616.85 1231.81,-616.85 1231.81,-616.85 1236.02,-615.85 1232.52,-621.3 1241.21,-614.61"/>
<text text-anchor="start" x="1238.16" y="-601" font-family="Arial" font-size="10.00">FOREIGN KEY (room_id) REFERENCES rooms(id) ON DELETE CASCADE</text>
</g>
</g>
</svg>
