<?xml version="1.0" encoding="UTF-8" standalone="no"?>
<!DOCTYPE svg PUBLIC "-//W3C//DTD SVG 1.1//EN"
 "http://www.w3.org/Graphics/SVG/1.1/DTD/svg11.dtd">
<!-- Generated by graphviz version 12.1.2 (20240928.0832)
 -->
<!-- Title: public.tenant_memberships Pages: 1 -->
<svg width="1867pt" height="1093pt"
 viewBox="0.00 0.00 1866.53 1092.80" xmlns="http://www.w3.org/2000/svg" xmlns:xlink="http://www.w3.org/1999/xlink">
<g id="graph0" class="graph" transform="scale(1 1) rotate(0) translate(4 1088.8)">
<title>public.tenant_memberships</title>
<polygon fill="white" stroke="none" points="-4,4 -4,-1088.8 1862.53,-1088.8 1862.53,4 -4,4"/>
<!-- public.tenant_memberships -->
<g id="node1" class="node">
<title>public.tenant_memberships</title>
<polygon fill="#efefef" stroke="none" points="625.37,-617 625.37,-652.6 962.32,-652.6 962.32,-617 625.37,-617"/>
<polygon fill="none" stroke="black" points="625.37,-617 625.37,-652.6 962.32,-652.6 962.32,-617 625.37,-617"/>
<text text-anchor="start" x="632.37" y="-630.4" font-family="Arial Bold" font-size="18.00">public.tenant_memberships</text>
<text text-anchor="start" x="830.83" y="-630.4" font-family="Arial" font-size="14.00">    </text>
<text text-anchor="start" x="861.95" y="-630.4" font-family="Arial" font-size="14.00" fill="#666666">[BASE TABLE]</text>
<polygon fill="none" stroke="black" points="625.37,-586.2 625.37,-617 962.32,-617 962.32,-586.2 625.37,-586.2"/>
<text text-anchor="start" x="632.37" y="-598.4" font-family="Arial" font-size="14.00">id </text>
<text text-anchor="start" x="647.16" y="-598.4" font-family="Arial" font-size="14.00" fill="#666666">[uuid]</text>
<polygon fill="none" stroke="black" points="625.37,-555.4 625.37,-586.2 962.32,-586.2 962.32,-555.4 625.37,-555.4"/>
<text text-anchor="start" x="632.37" y="-567.6" font-family="Arial" font-size="14.00">tenant_id </text>
<text text-anchor="start" x="693.87" y="-567.6" font-family="Arial" font-size="14.00" fill="#666666">[uuid]</text>
<polygon fill="none" stroke="black" points="625.37,-524.6 625.37,-555.4 962.32,-555.4 962.32,-524.6 625.37,-524.6"/>
<text text-anchor="start" x="632.37" y="-536.8" font-family="Arial" font-size="14.00">user_id </text>
<text text-anchor="start" x="682.18" y="-536.8" font-family="Arial" font-size="14.00" fill="#666666">[uuid]</text>
<polygon fill="none" stroke="black" points="625.37,-493.8 625.37,-524.6 962.32,-524.6 962.32,-493.8 625.37,-493.8"/>
<text text-anchor="start" x="632.37" y="-506" font-family="Arial" font-size="14.00">role </text>
<text text-anchor="start" x="659.61" y="-506" font-family="Arial" font-size="14.00" fill="#666666">[text]</text>
<polygon fill="none" stroke="black" points="625.37,-463 625.37,-493.8 962.32,-493.8 962.32,-463 625.37,-463"/>
<text text-anchor="start" x="632.37" y="-475.2" font-family="Arial" font-size="14.00">created_at </text>
<text text-anchor="start" x="702.42" y="-475.2" font-family="Arial" font-size="14.00" fill="#666666">[timestamp with time zone]</text>
<polygon fill="none" stroke="black" points="625.37,-432.2 625.37,-463 962.32,-463 962.32,-432.2 625.37,-432.2"/>
<text text-anchor="start" x="632.37" y="-444.4" font-family="Arial" font-size="14.00">left_at </text>
<text text-anchor="start" x="674.4" y="-444.4" font-family="Arial" font-size="14.00" fill="#666666">[timestamp with time zone]</text>
<polygon fill="none" stroke="black" stroke-width="3" points="623.87,-430.7 623.87,-654.1 963.82,-654.1 963.82,-430.7 623.87,-430.7"/>
</g>
<!-- public.users -->
<g id="node3" class="node">
<title>public.users</title>
<polygon fill="#efefef" stroke="none" points="235.27,-243.4 235.27,-279 508.42,-279 508.42,-243.4 235.27,-243.4"/>
<polygon fill="none" stroke="black" points="235.27,-243.4 235.27,-279 508.42,-279 508.42,-243.4 235.27,-243.4"/>
<text text-anchor="start" x="266.36" y="-256.8" font-family="Arial Bold" font-size="18.00">public.users</text>
<text text-anchor="start" x="352.84" y="-256.8" font-family="Arial" font-size="14.00">    </text>
<text text-anchor="start" x="383.96" y="-256.8" font-family="Arial" font-size="14.00" fill="#666666">[BASE TABLE]</text>
<polygon fill="none" stroke="black" points="235.27,-212.6 235.27,-243.4 508.42,-243.4 508.42,-212.6 235.27,-212.6"/>
<text text-anchor="start" x="242.27" y="-224.8" font-family="Arial" font-size="14.00">id </text>
<text text-anchor="start" x="257.06" y="-224.8" font-family="Arial" font-size="14.00" fill="#666666">[uuid]</text>
<polygon fill="none" stroke="black" points="235.27,-181.8 235.27,-212.6 508.42,-212.6 508.42,-181.8 235.27,-181.8"/>
<text text-anchor="start" x="242.27" y="-194" font-family="Arial" font-size="14.00">email </text>
<text text-anchor="start" x="279.62" y="-194" font-family="Arial" font-size="14.00" fill="#666666">[text]</text>
<polygon fill="none" stroke="black" points="235.27,-151 235.27,-181.8 508.42,-181.8 508.42,-151 235.27,-151"/>
<text text-anchor="start" x="242.27" y="-163.2" font-family="Arial" font-size="14.00">name </text>
<text text-anchor="start" x="281.18" y="-163.2" font-family="Arial" font-size="14.00" fill="#666666">[text]</text>
<polygon fill="none" stroke="black" points="235.27,-120.2 235.27,-151 508.42,-151 508.42,-120.2 235.27,-120.2"/>
<text text-anchor="start" x="242.27" y="-132.4" font-family="Arial" font-size="14.00">icon </text>
<text text-anchor="start" x="271.85" y="-132.4" font-family="Arial" font-size="14.00" fill="#666666">[text]</text>
<polygon fill="none" stroke="black" points="235.27,-89.4 235.27,-120.2 508.42,-120.2 508.42,-89.4 235.27,-89.4"/>
<text text-anchor="start" x="242.27" y="-101.6" font-family="Arial" font-size="14.00">created_at </text>
<text text-anchor="start" x="312.32" y="-101.6" font-family="Arial" font-size="14.00" fill="#666666">[timestamp without time zone]</text>
<polygon fill="none" stroke="black" points="235.27,-58.6 235.27,-89.4 508.42,-89.4 508.42,-58.6 235.27,-58.6"/>
<text text-anchor="start" x="242.27" y="-70.8" font-family="Arial" font-size="14.00">updated_at </text>
<text text-anchor="start" x="316.23" y="-70.8" font-family="Arial" font-size="14.00" fill="#666666">[timestamp without time zone]</text>
</g>
<!-- public.tenant_memberships&#45;&gt;public.users -->
<g id="edge6" class="edge">
<title>public.tenant_memberships:user_id&#45;&gt;public.users:id</title>
<path fill="none" stroke="black" d="M614.28,-539.4C551.31,-531.27 596.6,-443.02 570.85,-373.6 546.42,-307.75 579.65,-228 509.42,-228"/>
<polygon fill="black" stroke="black" points="614.06,-539.38 623.77,-544.47 619.38,-539.7 623.7,-539.96 623.7,-539.96 623.7,-539.96 619.38,-539.7 624.31,-535.49 614.06,-539.38"/>
<text text-anchor="start" x="631.37" y="-550" font-family="Arial" font-size="10.00">FOREIGN KEY (user_id) REFERENCES users(id) ON DELETE CASCADE</text>
</g>
<!-- public.tenants -->
<g id="node4" class="node">
<title>public.tenants</title>
<polygon fill="#efefef" stroke="none" points="1102,-258.8 1102,-294.4 1355.69,-294.4 1355.69,-258.8 1102,-258.8"/>
<polygon fill="none" stroke="black" points="1102,-258.8 1102,-294.4 1355.69,-294.4 1355.69,-258.8 1102,-258.8"/>
<text text-anchor="start" x="1116.36" y="-272.2" font-family="Arial Bold" font-size="18.00">public.tenants</text>
<text text-anchor="start" x="1216.84" y="-272.2" font-family="Arial" font-size="14.00">    </text>
<text text-anchor="start" x="1247.96" y="-272.2" font-family="Arial" font-size="14.00" fill="#666666">[BASE TABLE]</text>
<polygon fill="none" stroke="black" points="1102,-228 1102,-258.8 1355.69,-258.8 1355.69,-228 1102,-228"/>
<text text-anchor="start" x="1109" y="-240.2" font-family="Arial" font-size="14.00">id </text>
<text text-anchor="start" x="1123.79" y="-240.2" font-family="Arial" font-size="14.00" fill="#666666">[uuid]</text>
<polygon fill="none" stroke="black" points="1102,-197.2 1102,-228 1355.69,-228 1355.69,-197.2 1102,-197.2"/>
<text text-anchor="start" x="1109" y="-209.4" font-family="Arial" font-size="14.00">organization_id </text>
<text text-anchor="start" x="1207.85" y="-209.4" font-family="Arial" font-size="14.00" fill="#666666">[uuid]</text>
<polygon fill="none" stroke="black" points="1102,-166.4 1102,-197.2 1355.69,-197.2 1355.69,-166.4 1102,-166.4"/>
<text text-anchor="start" x="1109" y="-178.6" font-family="Arial" font-size="14.00">name </text>
<text text-anchor="start" x="1147.92" y="-178.6" font-family="Arial" font-size="14.00" fill="#666666">[text]</text>
<polygon fill="none" stroke="black" points="1102,-135.6 1102,-166.4 1355.69,-166.4 1355.69,-135.6 1102,-135.6"/>
<text text-anchor="start" x="1109" y="-147.8" font-family="Arial" font-size="14.00">description </text>
<text text-anchor="start" x="1180.6" y="-147.8" font-family="Arial" font-size="14.00" fill="#666666">[text]</text>
<polygon fill="none" stroke="black" points="1102,-104.8 1102,-135.6 1355.69,-135.6 1355.69,-104.8 1102,-104.8"/>
<text text-anchor="start" x="1109" y="-117" font-family="Arial" font-size="14.00">tenant_type </text>
<text text-anchor="start" x="1186.07" y="-117" font-family="Arial" font-size="14.00" fill="#666666">[text]</text>
<polygon fill="none" stroke="black" points="1102,-74 1102,-104.8 1355.69,-104.8 1355.69,-74 1102,-74"/>
<text text-anchor="start" x="1109" y="-86.2" font-family="Arial" font-size="14.00">created_at </text>
<text text-anchor="start" x="1179.05" y="-86.2" font-family="Arial" font-size="14.00" fill="#666666">[timestamp with time zone]</text>
<polygon fill="none" stroke="black" points="1102,-43.2 1102,-74 1355.69,-74 1355.69,-43.2 1102,-43.2"/>
<text text-anchor="start" x="1109" y="-55.4" font-family="Arial" font-size="14.00">updated_at </text>
<text text-anchor="start" x="1182.96" y="-55.4" font-family="Arial" font-size="14.00" fill="#666666">[timestamp with time zone]</text>
</g>
<!-- public.tenant_memberships&#45;&gt;public.tenants -->
<g id="edge3" class="edge">
<title>public.tenant_memberships:tenant_id&#45;&gt;public.tenants:id</title>
<path fill="none" stroke="black" d="M973.68,-570.23C1048.23,-561.48 981.38,-453.14 1016.85,-373.6 1044.91,-310.67 1032.1,-243.4 1101,-243.4"/>
<polygon fill="black" stroke="black" points="973.64,-570.24 963.41,-566.29 968.31,-570.53 963.99,-570.76 963.99,-570.76 963.99,-570.76 968.31,-570.53 963.9,-575.28 973.64,-570.24"/>
<text text-anchor="start" x="970.32" y="-580.8" font-family="Arial" font-size="10.00">FOREIGN KEY (tenant_id) REFERENCES tenants(id) ON DELETE CASCADE</text>
</g>
<!-- public.sessions -->
<g id="node2" class="node">
<title>public.sessions</title>
<polygon fill="#efefef" stroke="none" points="348.96,-1006 348.96,-1041.6 598.73,-1041.6 598.73,-1006 348.96,-1006"/>
<polygon fill="none" stroke="black" points="348.96,-1006 348.96,-1041.6 598.73,-1041.6 598.73,-1006 348.96,-1006"/>
<text text-anchor="start" x="357.35" y="-1019.4" font-family="Arial Bold" font-size="18.00">public.sessions</text>
<text text-anchor="start" x="465.85" y="-1019.4" font-family="Arial" font-size="14.00">    </text>
<text text-anchor="start" x="496.97" y="-1019.4" font-family="Arial" font-size="14.00" fill="#666666">[BASE TABLE]</text>
<polygon fill="none" stroke="black" points="348.96,-975.2 348.96,-1006 598.73,-1006 598.73,-975.2 348.96,-975.2"/>
<text text-anchor="start" x="355.96" y="-987.4" font-family="Arial" font-size="14.00">session_id </text>
<text text-anchor="start" x="426" y="-987.4" font-family="Arial" font-size="14.00" fill="#666666">[text]</text>
<polygon fill="none" stroke="black" points="348.96,-944.4 348.96,-975.2 598.73,-975.2 598.73,-944.4 348.96,-944.4"/>
<text text-anchor="start" x="355.96" y="-956.6" font-family="Arial" font-size="14.00">user_id </text>
<text text-anchor="start" x="405.77" y="-956.6" font-family="Arial" font-size="14.00" fill="#666666">[uuid]</text>
<polygon fill="none" stroke="black" points="348.96,-913.6 348.96,-944.4 598.73,-944.4 598.73,-913.6 348.96,-913.6"/>
<text text-anchor="start" x="355.96" y="-925.8" font-family="Arial" font-size="14.00">active_membership_id </text>
<text text-anchor="start" x="499.92" y="-925.8" font-family="Arial" font-size="14.00" fill="#666666">[uuid]</text>
<polygon fill="none" stroke="black" points="348.96,-882.8 348.96,-913.6 598.73,-913.6 598.73,-882.8 348.96,-882.8"/>
<text text-anchor="start" x="355.96" y="-895" font-family="Arial" font-size="14.00">created_at </text>
<text text-anchor="start" x="426.01" y="-895" font-family="Arial" font-size="14.00" fill="#666666">[timestamp with time zone]</text>
<polygon fill="none" stroke="black" points="348.96,-852 348.96,-882.8 598.73,-882.8 598.73,-852 348.96,-852"/>
<text text-anchor="start" x="355.96" y="-864.2" font-family="Arial" font-size="14.00">expires_at </text>
<text text-anchor="start" x="424.44" y="-864.2" font-family="Arial" font-size="14.00" fill="#666666">[timestamp with time zone]</text>
<polygon fill="none" stroke="black" points="348.96,-821.2 348.96,-852 598.73,-852 598.73,-821.2 348.96,-821.2"/>
<text text-anchor="start" x="355.96" y="-833.4" font-family="Arial" font-size="14.00">csrf_token </text>
<text text-anchor="start" x="424.44" y="-833.4" font-family="Arial" font-size="14.00" fill="#666666">[text]</text>
<polygon fill="none" stroke="black" points="348.96,-790.4 348.96,-821.2 598.73,-821.2 598.73,-790.4 348.96,-790.4"/>
<text text-anchor="start" x="355.96" y="-802.6" font-family="Arial" font-size="14.00">revoked </text>
<text text-anchor="start" x="409.66" y="-802.6" font-family="Arial" font-size="14.00" fill="#666666">[boolean]</text>
</g>
<!-- public.sessions&#45;&gt;public.tenant_memberships -->
<g id="edge1" class="edge">
<title>public.sessions:active_membership_id&#45;&gt;public.tenant_memberships:id</title>
<path fill="none" stroke="black" d="M610.06,-928.38C732.35,-912.59 482.15,-601.6 624.37,-601.6"/>
<polygon fill="black" stroke="black" points="610.05,-928.38 599.79,-924.49 604.72,-928.7 600.4,-928.96 600.4,-928.96 600.4,-928.96 604.72,-928.7 600.34,-933.47 610.05,-928.38"/>
<text text-anchor="start" x="606.73" y="-939" font-family="Arial" font-size="10.00">FOREIGN KEY (active_membership_id) REFERENCES tenant_memberships(id)</text>
</g>
<!-- public.sessions&#45;&gt;public.users -->
<g id="edge2" class="edge">
<title>public.sessions:user_id&#45;&gt;public.users:id</title>
<path fill="none" stroke="black" d="M337.55,-959.55C212.83,-953.48 212.59,-836.64 172.85,-711.2 140.15,-608.01 126.03,-228 234.27,-228"/>
<polygon fill="black" stroke="black" points="337.63,-959.55 347.52,-964.29 342.96,-959.68 347.29,-959.78 347.29,-959.78 347.29,-959.78 342.96,-959.68 347.73,-955.29 337.63,-959.55"/>
<text text-anchor="start" x="7" y="-969.8" font-family="Arial" font-size="10.00">FOREIGN KEY (user_id) REFERENCES users(id) ON DELETE CASCADE</text>
</g>
<!-- public.tenant_join_codes -->
<g id="node5" class="node">
<title>public.tenant_join_codes</title>
<polygon fill="#efefef" stroke="none" points="1069.37,-632.4 1069.37,-668 1388.32,-668 1388.32,-632.4 1069.37,-632.4"/>
<polygon fill="none" stroke="black" points="1069.37,-632.4 1069.37,-668 1388.32,-668 1388.32,-632.4 1069.37,-632.4"/>
<text text-anchor="start" x="1076.37" y="-645.8" font-family="Arial Bold" font-size="18.00">public.tenant_join_codes</text>
<text text-anchor="start" x="1256.83" y="-645.8" font-family="Arial" font-size="14.00">    </text>
<text text-anchor="start" x="1287.95" y="-645.8" font-family="Arial" font-size="14.00" fill="#666666">[BASE TABLE]</text>
<polygon fill="none" stroke="black" points="1069.37,-601.6 1069.37,-632.4 1388.32,-632.4 1388.32,-601.6 1069.37,-601.6"/>
<text text-anchor="start" x="1076.37" y="-613.8" font-family="Arial" font-size="14.00">id </text>
<text text-anchor="start" x="1091.16" y="-613.8" font-family="Arial" font-size="14.00" fill="#666666">[uuid]</text>
<polygon fill="none" stroke="black" points="1069.37,-570.8 1069.37,-601.6 1388.32,-601.6 1388.32,-570.8 1069.37,-570.8"/>
<text text-anchor="start" x="1076.37" y="-583" font-family="Arial" font-size="14.00">tenant_id </text>
<text text-anchor="start" x="1137.87" y="-583" font-family="Arial" font-size="14.00" fill="#666666">[uuid]</text>
<polygon fill="none" stroke="black" points="1069.37,-540 1069.37,-570.8 1388.32,-570.8 1388.32,-540 1069.37,-540"/>
<text text-anchor="start" x="1076.37" y="-552.2" font-family="Arial" font-size="14.00">code </text>
<text text-anchor="start" x="1110.62" y="-552.2" font-family="Arial" font-size="14.00" fill="#666666">[text]</text>
<polygon fill="none" stroke="black" points="1069.37,-509.2 1069.37,-540 1388.32,-540 1388.32,-509.2 1069.37,-509.2"/>
<text text-anchor="start" x="1076.37" y="-521.4" font-family="Arial" font-size="14.00">expires_at </text>
<text text-anchor="start" x="1144.85" y="-521.4" font-family="Arial" font-size="14.00" fill="#666666">[timestamp with time zone]</text>
<polygon fill="none" stroke="black" points="1069.37,-478.4 1069.37,-509.2 1388.32,-509.2 1388.32,-478.4 1069.37,-478.4"/>
<text text-anchor="start" x="1076.37" y="-490.6" font-family="Arial" font-size="14.00">max_uses </text>
<text text-anchor="start" x="1144.07" y="-490.6" font-family="Arial" font-size="14.00" fill="#666666">[integer]</text>
<polygon fill="none" stroke="black" points="1069.37,-447.6 1069.37,-478.4 1388.32,-478.4 1388.32,-447.6 1069.37,-447.6"/>
<text text-anchor="start" x="1076.37" y="-459.8" font-family="Arial" font-size="14.00">used_count </text>
<text text-anchor="start" x="1152.65" y="-459.8" font-family="Arial" font-size="14.00" fill="#666666">[integer]</text>
<polygon fill="none" stroke="black" points="1069.37,-416.8 1069.37,-447.6 1388.32,-447.6 1388.32,-416.8 1069.37,-416.8"/>
<text text-anchor="start" x="1076.37" y="-429" font-family="Arial" font-size="14.00">created_at </text>
<text text-anchor="start" x="1146.42" y="-429" font-family="Arial" font-size="14.00" fill="#666666">[timestamp with time zone]</text>
</g>
<!-- public.tenant_join_codes&#45;&gt;public.tenants -->
<g id="edge4" class="edge">
<title>public.tenant_join_codes:tenant_id&#45;&gt;public.tenants:id</title>
<path fill="none" stroke="black" d="M1399.37,-584.01C1462.69,-554.82 1429.62,-243.4 1356.69,-243.4"/>
<polygon fill="black" stroke="black" points="1399.42,-584 1388.69,-581.73 1394.2,-585.14 1389.97,-586.06 1389.97,-586.06 1389.97,-586.06 1394.2,-585.14 1390.6,-590.53 1399.42,-584"/>
<text text-anchor="start" x="1396.32" y="-596.2" font-family="Arial" font-size="10.00">FOREIGN KEY (tenant_id) REFERENCES tenants(id) ON DELETE CASCADE</text>
</g>
<!-- public.room_assignments -->
<g id="node6" class="node">
<title>public.room_assignments</title>
<polygon fill="#efefef" stroke="none" points="1492.36,-632.4 1492.36,-668 1815.33,-668 1815.33,-632.4 1492.36,-632.4"/>
<polygon fill="none" stroke="black" points="1492.36,-632.4 1492.36,-668 1815.33,-668 1815.33,-632.4 1492.36,-632.4"/>
<text text-anchor="start" x="1499.36" y="-645.8" font-family="Arial Bold" font-size="18.00">public.room_assignments</text>
<text text-anchor="start" x="1683.84" y="-645.8" font-family="Arial" font-size="14.00">    </text>
<text text-anchor="start" x="1714.96" y="-645.8" font-family="Arial" font-size="14.00" fill="#666666">[BASE TABLE]</text>
<polygon fill="none" stroke="black" points="1492.36,-601.6 1492.36,-632.4 1815.33,-632.4 1815.33,-601.6 1492.36,-601.6"/>
<text text-anchor="start" x="1499.36" y="-613.8" font-family="Arial" font-size="14.00">id </text>
<text text-anchor="start" x="1514.15" y="-613.8" font-family="Arial" font-size="14.00" fill="#666666">[uuid]</text>
<polygon fill="none" stroke="black" points="1492.36,-570.8 1492.36,-601.6 1815.33,-601.6 1815.33,-570.8 1492.36,-570.8"/>
<text text-anchor="start" x="1499.36" y="-583" font-family="Arial" font-size="14.00">tenant_id </text>
<text text-anchor="start" x="1560.86" y="-583" font-family="Arial" font-size="14.00" fill="#666666">[uuid]</text>
<polygon fill="none" stroke="black" points="1492.36,-540 1492.36,-570.8 1815.33,-570.8 1815.33,-540 1492.36,-540"/>
<text text-anchor="start" x="1499.36" y="-552.2" font-family="Arial" font-size="14.00">room_id </text>
<text text-anchor="start" x="1553.83" y="-552.2" font-family="Arial" font-size="14.00" fill="#666666">[uuid]</text>
<polygon fill="none" stroke="black" points="1492.36,-509.2 1492.36,-540 1815.33,-540 1815.33,-509.2 1492.36,-509.2"/>
<text text-anchor="start" x="1499.36" y="-521.4" font-family="Arial" font-size="14.00">assigned_at </text>
<text text-anchor="start" x="1578.75" y="-521.4" font-family="Arial" font-size="14.00" fill="#666666">[timestamp with time zone]</text>
<polygon fill="none" stroke="black" points="1492.36,-478.4 1492.36,-509.2 1815.33,-509.2 1815.33,-478.4 1492.36,-478.4"/>
<text text-anchor="start" x="1499.36" y="-490.6" font-family="Arial" font-size="14.00">expires_at </text>
<text text-anchor="start" x="1567.84" y="-490.6" font-family="Arial" font-size="14.00" fill="#666666">[timestamp with time zone]</text>
<polygon fill="none" stroke="black" points="1492.36,-447.6 1492.36,-478.4 1815.33,-478.4 1815.33,-447.6 1492.36,-447.6"/>
<text text-anchor="start" x="1499.36" y="-459.8" font-family="Arial" font-size="14.00">created_at </text>
<text text-anchor="start" x="1569.41" y="-459.8" font-family="Arial" font-size="14.00" fill="#666666">[timestamp with time zone]</text>
<polygon fill="none" stroke="black" points="1492.36,-416.8 1492.36,-447.6 1815.33,-447.6 1815.33,-416.8 1492.36,-416.8"/>
<text text-anchor="start" x="1499.36" y="-429" font-family="Arial" font-size="14.00">updated_at </text>
<text text-anchor="start" x="1573.32" y="-429" font-family="Arial" font-size="14.00" fill="#666666">[timestamp with time zone]</text>
</g>
<!-- public.room_assignments&#45;&gt;public.tenants -->
<g id="edge5" class="edge">
<title>public.room_assignments:tenant_id&#45;&gt;public.tenants:id</title>
<path fill="none" stroke="black" d="M1481.28,-585.7C1400.36,-577.1 1477.57,-459.6 1440.85,-373.6 1413.79,-310.23 1425.59,-243.4 1356.69,-243.4"/>
<polygon fill="black" stroke="black" points="1481.04,-585.69 1490.8,-590.68 1486.37,-585.95 1490.69,-586.17 1490.69,-586.17 1490.69,-586.17 1486.37,-585.95 1491.25,-581.69 1481.04,-585.69"/>
<text text-anchor="start" x="1498.36" y="-570.2" font-family="Arial" font-size="10.00">FOREIGN KEY (tenant_id) REFERENCES tenants(id) ON DELETE CASCADE</text>
</g>
<!-- public.user_identities -->
<g id="node7" class="node">
<title>public.user_identities</title>
<polygon fill="#efefef" stroke="none" points="225.37,-617 225.37,-652.6 518.32,-652.6 518.32,-617 225.37,-617"/>
<polygon fill="none" stroke="black" points="225.37,-617 225.37,-652.6 518.32,-652.6 518.32,-617 225.37,-617"/>
<text text-anchor="start" x="232.37" y="-630.4" font-family="Arial Bold" font-size="18.00">public.user_identities</text>
<text text-anchor="start" x="386.83" y="-630.4" font-family="Arial" font-size="14.00">    </text>
<text text-anchor="start" x="417.95" y="-630.4" font-family="Arial" font-size="14.00" fill="#666666">[BASE TABLE]</text>
<polygon fill="none" stroke="black" points="225.37,-586.2 225.37,-617 518.32,-617 518.32,-586.2 225.37,-586.2"/>
<text text-anchor="start" x="232.37" y="-598.4" font-family="Arial" font-size="14.00">id </text>
<text text-anchor="start" x="247.15" y="-598.4" font-family="Arial" font-size="14.00" fill="#666666">[uuid]</text>
<polygon fill="none" stroke="black" points="225.37,-555.4 225.37,-586.2 518.32,-586.2 518.32,-555.4 225.37,-555.4"/>
<text text-anchor="start" x="232.37" y="-567.6" font-family="Arial" font-size="14.00">user_id </text>
<text text-anchor="start" x="282.17" y="-567.6" font-family="Arial" font-size="14.00" fill="#666666">[uuid]</text>
<polygon fill="none" stroke="black" points="225.37,-524.6 225.37,-555.4 518.32,-555.4 518.32,-524.6 225.37,-524.6"/>
<text text-anchor="start" x="232.37" y="-536.8" font-family="Arial" font-size="14.00">provider </text>
<text text-anchor="start" x="286.84" y="-536.8" font-family="Arial" font-size="14.00" fill="#666666">[text]</text>
<polygon fill="none" stroke="black" points="225.37,-493.8 225.37,-524.6 518.32,-524.6 518.32,-493.8 225.37,-493.8"/>
<text text-anchor="start" x="232.37" y="-506" font-family="Arial" font-size="14.00">provider_sub </text>
<text text-anchor="start" x="317.19" y="-506" font-family="Arial" font-size="14.00" fill="#666666">[text]</text>
<polygon fill="none" stroke="black" points="225.37,-463 225.37,-493.8 518.32,-493.8 518.32,-463 225.37,-463"/>
<text text-anchor="start" x="232.37" y="-475.2" font-family="Arial" font-size="14.00">created_at </text>
<text text-anchor="start" x="302.42" y="-475.2" font-family="Arial" font-size="14.00" fill="#666666">[timestamp with time zone]</text>
<polygon fill="none" stroke="black" points="225.37,-432.2 225.37,-463 518.32,-463 518.32,-432.2 225.37,-432.2"/>
<text text-anchor="start" x="232.37" y="-444.4" font-family="Arial" font-size="14.00">updated_at </text>
<text text-anchor="start" x="306.33" y="-444.4" font-family="Arial" font-size="14.00" fill="#666666">[timestamp with time zone]</text>
</g>
<!-- public.user_identities&#45;&gt;public.users -->
<g id="edge7" class="edge">
<title>public.user_identities:user_id&#45;&gt;public.users:id</title>
<path fill="none" stroke="black" d="M527.56,-564.56C555.66,-518.1 544.47,-228 509.42,-228"/>
<polygon fill="black" stroke="black" points="527.56,-564.56 516.87,-567.01 523.31,-567.78 519.86,-570.4 519.86,-570.4 519.86,-570.4 523.31,-567.78 522.31,-574.19 527.56,-564.56"/>
<text text-anchor="start" x="526.32" y="-580.8" font-family="Arial" font-size="10.00">FOREIGN KEY (user_id) REFERENCES users(id) ON DELETE CASCADE</text>
</g>
</g>
</svg>
