<?xml version="1.0" encoding="UTF-8" standalone="no"?>
<!DOCTYPE svg PUBLIC "-//W3C//DTD SVG 1.1//EN"
 "http://www.w3.org/Graphics/SVG/1.1/DTD/svg11.dtd">
<!-- Generated by graphviz version 12.1.2 (20240928.0832)
 -->
<!-- Title: public.sessions Pages: 1 -->
<svg width="1335pt" height="1068pt"
 viewBox="0.00 0.00 1334.98 1068.00" xmlns="http://www.w3.org/2000/svg" xmlns:xlink="http://www.w3.org/1999/xlink">
<g id="graph0" class="graph" transform="scale(1 1) rotate(0) translate(4 1064)">
<title>public.sessions</title>
<polygon fill="white" stroke="none" points="-4,4 -4,-1064 1330.98,-1064 1330.98,4 -4,4"/>
<!-- public.sessions -->
<g id="node1" class="node">
<title>public.sessions</title>
<polygon fill="#efefef" stroke="none" points="348.96,-978.2 348.96,-1013.8 598.73,-1013.8 598.73,-978.2 348.96,-978.2"/>
<polygon fill="none" stroke="black" points="348.96,-978.2 348.96,-1013.8 598.73,-1013.8 598.73,-978.2 348.96,-978.2"/>
<text text-anchor="start" x="357.35" y="-991.6" font-family="Arial Bold" font-size="18.00">public.sessions</text>
<text text-anchor="start" x="465.85" y="-991.6" font-family="Arial" font-size="14.00">    </text>
<text text-anchor="start" x="496.97" y="-991.6" font-family="Arial" font-size="14.00" fill="#666666">[BASE TABLE]</text>
<polygon fill="none" stroke="black" points="348.96,-947.4 348.96,-978.2 598.73,-978.2 598.73,-947.4 348.96,-947.4"/>
<text text-anchor="start" x="355.96" y="-959.6" font-family="Arial" font-size="14.00">session_id </text>
<text text-anchor="start" x="426" y="-959.6" font-family="Arial" font-size="14.00" fill="#666666">[text]</text>
<polygon fill="none" stroke="black" points="348.96,-916.6 348.96,-947.4 598.73,-947.4 598.73,-916.6 348.96,-916.6"/>
<text text-anchor="start" x="355.96" y="-928.8" font-family="Arial" font-size="14.00">user_id </text>
<text text-anchor="start" x="405.77" y="-928.8" font-family="Arial" font-size="14.00" fill="#666666">[uuid]</text>
<polygon fill="none" stroke="black" points="348.96,-885.8 348.96,-916.6 598.73,-916.6 598.73,-885.8 348.96,-885.8"/>
<text text-anchor="start" x="355.96" y="-898" font-family="Arial" font-size="14.00">active_membership_id </text>
<text text-anchor="start" x="499.92" y="-898" font-family="Arial" font-size="14.00" fill="#666666">[uuid]</text>
<polygon fill="none" stroke="black" points="348.96,-855 348.96,-885.8 598.73,-885.8 598.73,-855 348.96,-855"/>
<text text-anchor="start" x="355.96" y="-867.2" font-family="Arial" font-size="14.00">created_at </text>
<text text-anchor="start" x="426.01" y="-867.2" font-family="Arial" font-size="14.00" fill="#666666">[timestamp with time zone]</text>
<polygon fill="none" stroke="black" points="348.96,-824.2 348.96,-855 598.73,-855 598.73,-824.2 348.96,-824.2"/>
<text text-anchor="start" x="355.96" y="-836.4" font-family="Arial" font-size="14.00">expires_at </text>
<text text-anchor="start" x="424.44" y="-836.4" font-family="Arial" font-size="14.00" fill="#666666">[timestamp with time zone]</text>
<polygon fill="none" stroke="black" points="348.96,-793.4 348.96,-824.2 598.73,-824.2 598.73,-793.4 348.96,-793.4"/>
<text text-anchor="start" x="355.96" y="-805.6" font-family="Arial" font-size="14.00">csrf_token </text>
<text text-anchor="start" x="424.44" y="-805.6" font-family="Arial" font-size="14.00" fill="#666666">[text]</text>
<polygon fill="none" stroke="black" points="348.96,-762.6 348.96,-793.4 598.73,-793.4 598.73,-762.6 348.96,-762.6"/>
<text text-anchor="start" x="355.96" y="-774.8" font-family="Arial" font-size="14.00">revoked </text>
<text text-anchor="start" x="409.66" y="-774.8" font-family="Arial" font-size="14.00" fill="#666666">[boolean]</text>
<polygon fill="none" stroke="black" stroke-width="3" points="347.46,-761.1 347.46,-1015.3 600.23,-1015.3 600.23,-761.1 347.46,-761.1"/>
</g>
<!-- public.users -->
<g id="node2" class="node">
<title>public.users</title>
<polygon fill="#efefef" stroke="none" points="237.27,-243.4 237.27,-279 510.42,-279 510.42,-243.4 237.27,-243.4"/>
<polygon fill="none" stroke="black" points="237.27,-243.4 237.27,-279 510.42,-279 510.42,-243.4 237.27,-243.4"/>
<text text-anchor="start" x="268.36" y="-256.8" font-family="Arial Bold" font-size="18.00">public.users</text>
<text text-anchor="start" x="354.84" y="-256.8" font-family="Arial" font-size="14.00">    </text>
<text text-anchor="start" x="385.96" y="-256.8" font-family="Arial" font-size="14.00" fill="#666666">[BASE TABLE]</text>
<polygon fill="none" stroke="black" points="237.27,-212.6 237.27,-243.4 510.42,-243.4 510.42,-212.6 237.27,-212.6"/>
<text text-anchor="start" x="244.27" y="-224.8" font-family="Arial" font-size="14.00">id </text>
<text text-anchor="start" x="259.06" y="-224.8" font-family="Arial" font-size="14.00" fill="#666666">[uuid]</text>
<polygon fill="none" stroke="black" points="237.27,-181.8 237.27,-212.6 510.42,-212.6 510.42,-181.8 237.27,-181.8"/>
<text text-anchor="start" x="244.27" y="-194" font-family="Arial" font-size="14.00">email </text>
<text text-anchor="start" x="281.62" y="-194" font-family="Arial" font-size="14.00" fill="#666666">[text]</text>
<polygon fill="none" stroke="black" points="237.27,-151 237.27,-181.8 510.42,-181.8 510.42,-151 237.27,-151"/>
<text text-anchor="start" x="244.27" y="-163.2" font-family="Arial" font-size="14.00">name </text>
<text text-anchor="start" x="283.18" y="-163.2" font-family="Arial" font-size="14.00" fill="#666666">[text]</text>
<polygon fill="none" stroke="black" points="237.27,-120.2 237.27,-151 510.42,-151 510.42,-120.2 237.27,-120.2"/>
<text text-anchor="start" x="244.27" y="-132.4" font-family="Arial" font-size="14.00">icon </text>
<text text-anchor="start" x="273.85" y="-132.4" font-family="Arial" font-size="14.00" fill="#666666">[text]</text>
<polygon fill="none" stroke="black" points="237.27,-89.4 237.27,-120.2 510.42,-120.2 510.42,-89.4 237.27,-89.4"/>
<text text-anchor="start" x="244.27" y="-101.6" font-family="Arial" font-size="14.00">created_at </text>
<text text-anchor="start" x="314.32" y="-101.6" font-family="Arial" font-size="14.00" fill="#666666">[timestamp without time zone]</text>
<polygon fill="none" stroke="black" points="237.27,-58.6 237.27,-89.4 510.42,-89.4 510.42,-58.6 237.27,-58.6"/>
<text text-anchor="start" x="244.27" y="-70.8" font-family="Arial" font-size="14.00">updated_at </text>
<text text-anchor="start" x="318.23" y="-70.8" font-family="Arial" font-size="14.00" fill="#666666">[timestamp without time zone]</text>
</g>
<!-- public.sessions&#45;&gt;public.users -->
<g id="edge1" class="edge">
<title>public.sessions:user_id&#45;&gt;public.users:id</title>
<path fill="none" stroke="black" d="M337.89,-931.77C212.34,-925.8 214.11,-806.73 174.85,-680.4 144.73,-583.52 134.82,-228 236.27,-228"/>
<polygon fill="black" stroke="black" points="337.63,-931.76 347.52,-936.49 342.96,-931.88 347.29,-931.98 347.29,-931.98 347.29,-931.98 342.96,-931.88 347.73,-927.49 337.63,-931.76"/>
<text text-anchor="start" x="7" y="-942" font-family="Arial" font-size="10.00">FOREIGN KEY (user_id) REFERENCES users(id) ON DELETE CASCADE</text>
</g>
<!-- public.tenant_memberships -->
<g id="node4" class="node">
<title>public.tenant_memberships</title>
<polygon fill="#efefef" stroke="none" points="624.37,-601.6 624.37,-637.2 961.32,-637.2 961.32,-601.6 624.37,-601.6"/>
<polygon fill="none" stroke="black" points="624.37,-601.6 624.37,-637.2 961.32,-637.2 961.32,-601.6 624.37,-601.6"/>
<text text-anchor="start" x="631.37" y="-615" font-family="Arial Bold" font-size="18.00">public.tenant_memberships</text>
<text text-anchor="start" x="829.83" y="-615" font-family="Arial" font-size="14.00">    </text>
<text text-anchor="start" x="860.95" y="-615" font-family="Arial" font-size="14.00" fill="#666666">[BASE TABLE]</text>
<polygon fill="none" stroke="black" points="624.37,-570.8 624.37,-601.6 961.32,-601.6 961.32,-570.8 624.37,-570.8"/>
<text text-anchor="start" x="631.37" y="-583" font-family="Arial" font-size="14.00">id </text>
<text text-anchor="start" x="646.16" y="-583" font-family="Arial" font-size="14.00" fill="#666666">[uuid]</text>
<polygon fill="none" stroke="black" points="624.37,-540 624.37,-570.8 961.32,-570.8 961.32,-540 624.37,-540"/>
<text text-anchor="start" x="631.37" y="-552.2" font-family="Arial" font-size="14.00">tenant_id </text>
<text text-anchor="start" x="692.87" y="-552.2" font-family="Arial" font-size="14.00" fill="#666666">[uuid]</text>
<polygon fill="none" stroke="black" points="624.37,-509.2 624.37,-540 961.32,-540 961.32,-509.2 624.37,-509.2"/>
<text text-anchor="start" x="631.37" y="-521.4" font-family="Arial" font-size="14.00">user_id </text>
<text text-anchor="start" x="681.18" y="-521.4" font-family="Arial" font-size="14.00" fill="#666666">[uuid]</text>
<polygon fill="none" stroke="black" points="624.37,-478.4 624.37,-509.2 961.32,-509.2 961.32,-478.4 624.37,-478.4"/>
<text text-anchor="start" x="631.37" y="-490.6" font-family="Arial" font-size="14.00">role </text>
<text text-anchor="start" x="658.61" y="-490.6" font-family="Arial" font-size="14.00" fill="#666666">[text]</text>
<polygon fill="none" stroke="black" points="624.37,-447.6 624.37,-478.4 961.32,-478.4 961.32,-447.6 624.37,-447.6"/>
<text text-anchor="start" x="631.37" y="-459.8" font-family="Arial" font-size="14.00">created_at </text>
<text text-anchor="start" x="701.42" y="-459.8" font-family="Arial" font-size="14.00" fill="#666666">[timestamp with time zone]</text>
<polygon fill="none" stroke="black" points="624.37,-416.8 624.37,-447.6 961.32,-447.6 961.32,-416.8 624.37,-416.8"/>
<text text-anchor="start" x="631.37" y="-429" font-family="Arial" font-size="14.00">left_at </text>
<text text-anchor="start" x="673.4" y="-429" font-family="Arial" font-size="14.00" fill="#666666">[timestamp with time zone]</text>
</g>
<!-- public.sessions&#45;&gt;public.tenant_memberships -->
<g id="edge4" class="edge">
<title>public.sessions:active_membership_id&#45;&gt;public.tenant_memberships:id</title>
<path fill="none" stroke="black" d="M610.02,-900.55C726.84,-884.81 486.68,-586.2 623.37,-586.2"/>
<polygon fill="black" stroke="black" points="610.05,-900.55 599.78,-896.69 604.72,-900.89 600.4,-901.16 600.4,-901.16 600.4,-901.16 604.72,-900.89 600.35,-905.67 610.05,-900.55"/>
<text text-anchor="start" x="606.73" y="-911.2" font-family="Arial" font-size="10.00">FOREIGN KEY (active_membership_id) REFERENCES tenant_memberships(id)</text>
</g>
<!-- public.user_identities -->
<g id="node3" class="node">
<title>public.user_identities</title>
<polygon fill="#efefef" stroke="none" points="227.37,-601.6 227.37,-637.2 520.32,-637.2 520.32,-601.6 227.37,-601.6"/>
<polygon fill="none" stroke="black" points="227.37,-601.6 227.37,-637.2 520.32,-637.2 520.32,-601.6 227.37,-601.6"/>
<text text-anchor="start" x="234.37" y="-615" font-family="Arial Bold" font-size="18.00">public.user_identities</text>
<text text-anchor="start" x="388.83" y="-615" font-family="Arial" font-size="14.00">    </text>
<text text-anchor="start" x="419.95" y="-615" font-family="Arial" font-size="14.00" fill="#666666">[BASE TABLE]</text>
<polygon fill="none" stroke="black" points="227.37,-570.8 227.37,-601.6 520.32,-601.6 520.32,-570.8 227.37,-570.8"/>
<text text-anchor="start" x="234.37" y="-583" font-family="Arial" font-size="14.00">id </text>
<text text-anchor="start" x="249.15" y="-583" font-family="Arial" font-size="14.00" fill="#666666">[uuid]</text>
<polygon fill="none" stroke="black" points="227.37,-540 227.37,-570.8 520.32,-570.8 520.32,-540 227.37,-540"/>
<text text-anchor="start" x="234.37" y="-552.2" font-family="Arial" font-size="14.00">user_id </text>
<text text-anchor="start" x="284.17" y="-552.2" font-family="Arial" font-size="14.00" fill="#666666">[uuid]</text>
<polygon fill="none" stroke="black" points="227.37,-509.2 227.37,-540 520.32,-540 520.32,-509.2 227.37,-509.2"/>
<text text-anchor="start" x="234.37" y="-521.4" font-family="Arial" font-size="14.00">provider </text>
<text text-anchor="start" x="288.84" y="-521.4" font-family="Arial" font-size="14.00" fill="#666666">[text]</text>
<polygon fill="none" stroke="black" points="227.37,-478.4 227.37,-509.2 520.32,-509.2 520.32,-478.4 227.37,-478.4"/>
<text text-anchor="start" x="234.37" y="-490.6" font-family="Arial" font-size="14.00">provider_sub </text>
<text text-anchor="start" x="319.19" y="-490.6" font-family="Arial" font-size="14.00" fill="#666666">[text]</text>
<polygon fill="none" stroke="black" points="227.37,-447.6 227.37,-478.4 520.32,-478.4 520.32,-447.6 227.37,-447.6"/>
<text text-anchor="start" x="234.37" y="-459.8" font-family="Arial" font-size="14.00">created_at </text>
<text text-anchor="start" x="304.42" y="-459.8" font-family="Arial" font-size="14.00" fill="#666666">[timestamp with time zone]</text>
<polygon fill="none" stroke="black" points="227.37,-416.8 227.37,-447.6 520.32,-447.6 520.32,-416.8 227.37,-416.8"/>
<text text-anchor="start" x="234.37" y="-429" font-family="Arial" font-size="14.00">updated_at </text>
<text text-anchor="start" x="308.33" y="-429" font-family="Arial" font-size="14.00" fill="#666666">[timestamp with time zone]</text>
</g>
<!-- public.user_identities&#45;&gt;public.users -->
<g id="edge2" class="edge">
<title>public.user_identities:user_id&#45;&gt;public.users:id</title>
<path fill="none" stroke="black" d="M531.4,-553.13C593,-524.21 580.65,-228 511.42,-228"/>
<polygon fill="black" stroke="black" points="531.41,-553.13 520.66,-550.94 526.2,-554.3 521.98,-555.25 521.98,-555.25 521.98,-555.25 526.2,-554.3 522.64,-559.72 531.41,-553.13"/>
<text text-anchor="start" x="528.32" y="-565.4" font-family="Arial" font-size="10.00">FOREIGN KEY (user_id) REFERENCES users(id) ON DELETE CASCADE</text>
</g>
<!-- public.tenant_memberships&#45;&gt;public.users -->
<g id="edge3" class="edge">
<title>public.tenant_memberships:user_id&#45;&gt;public.users:id</title>
<path fill="none" stroke="black" d="M613.12,-523.91C557.18,-515.71 596.53,-436.31 572.85,-373.6 548.03,-307.89 581.65,-228 511.42,-228"/>
<polygon fill="black" stroke="black" points="613.06,-523.9 622.74,-529.07 618.38,-524.26 622.71,-524.55 622.71,-524.55 622.71,-524.55 618.38,-524.26 623.34,-520.09 613.06,-523.9"/>
<text text-anchor="start" x="630.37" y="-534.6" font-family="Arial" font-size="10.00">FOREIGN KEY (user_id) REFERENCES users(id) ON DELETE CASCADE</text>
</g>
<!-- public.tenants -->
<g id="node5" class="node">
<title>public.tenants</title>
<polygon fill="#efefef" stroke="none" points="666,-258.8 666,-294.4 919.69,-294.4 919.69,-258.8 666,-258.8"/>
<polygon fill="none" stroke="black" points="666,-258.8 666,-294.4 919.69,-294.4 919.69,-258.8 666,-258.8"/>
<text text-anchor="start" x="680.36" y="-272.2" font-family="Arial Bold" font-size="18.00">public.tenants</text>
<text text-anchor="start" x="780.84" y="-272.2" font-family="Arial" font-size="14.00">    </text>
<text text-anchor="start" x="811.96" y="-272.2" font-family="Arial" font-size="14.00" fill="#666666">[BASE TABLE]</text>
<polygon fill="none" stroke="black" points="666,-228 666,-258.8 919.69,-258.8 919.69,-228 666,-228"/>
<text text-anchor="start" x="673" y="-240.2" font-family="Arial" font-size="14.00">id </text>
<text text-anchor="start" x="687.79" y="-240.2" font-family="Arial" font-size="14.00" fill="#666666">[uuid]</text>
<polygon fill="none" stroke="black" points="666,-197.2 666,-228 919.69,-228 919.69,-197.2 666,-197.2"/>
<text text-anchor="start" x="673" y="-209.4" font-family="Arial" font-size="14.00">organization_id </text>
<text text-anchor="start" x="771.85" y="-209.4" font-family="Arial" font-size="14.00" fill="#666666">[uuid]</text>
<polygon fill="none" stroke="black" points="666,-166.4 666,-197.2 919.69,-197.2 919.69,-166.4 666,-166.4"/>
<text text-anchor="start" x="673" y="-178.6" font-family="Arial" font-size="14.00">name </text>
<text text-anchor="start" x="711.92" y="-178.6" font-family="Arial" font-size="14.00" fill="#666666">[text]</text>
<polygon fill="none" stroke="black" points="666,-135.6 666,-166.4 919.69,-166.4 919.69,-135.6 666,-135.6"/>
<text text-anchor="start" x="673" y="-147.8" font-family="Arial" font-size="14.00">description </text>
<text text-anchor="start" x="744.6" y="-147.8" font-family="Arial" font-size="14.00" fill="#666666">[text]</text>
<polygon fill="none" stroke="black" points="666,-104.8 666,-135.6 919.69,-135.6 919.69,-104.8 666,-104.8"/>
<text text-anchor="start" x="673" y="-117" font-family="Arial" font-size="14.00">tenant_type </text>
<text text-anchor="start" x="750.07" y="-117" font-family="Arial" font-size="14.00" fill="#666666">[text]</text>
<polygon fill="none" stroke="black" points="666,-74 666,-104.8 919.69,-104.8 919.69,-74 666,-74"/>
<text text-anchor="start" x="673" y="-86.2" font-family="Arial" font-size="14.00">created_at </text>
<text text-anchor="start" x="743.05" y="-86.2" font-family="Arial" font-size="14.00" fill="#666666">[timestamp with time zone]</text>
<polygon fill="none" stroke="black" points="666,-43.2 666,-74 919.69,-74 919.69,-43.2 666,-43.2"/>
<text text-anchor="start" x="673" y="-55.4" font-family="Arial" font-size="14.00">updated_at </text>
<text text-anchor="start" x="746.96" y="-55.4" font-family="Arial" font-size="14.00" fill="#666666">[timestamp with time zone]</text>
</g>
<!-- public.tenant_memberships&#45;&gt;public.tenants -->
<g id="edge5" class="edge">
<title>public.tenant_memberships:tenant_id&#45;&gt;public.tenants:id</title>
<path fill="none" stroke="black" d="M972.12,-553.07C1027.97,-524.52 987.08,-243.4 920.69,-243.4"/>
<polygon fill="black" stroke="black" points="972.37,-553.01 961.6,-550.94 967.18,-554.24 962.97,-555.25 962.97,-555.25 962.97,-555.25 967.18,-554.24 963.69,-559.7 972.37,-553.01"/>
<text text-anchor="start" x="969.32" y="-565.4" font-family="Arial" font-size="10.00">FOREIGN KEY (tenant_id) REFERENCES tenants(id) ON DELETE CASCADE</text>
</g>
</g>
</svg>
