<?xml version="1.0" encoding="UTF-8" standalone="no"?>
<!DOCTYPE svg PUBLIC "-//W3C//DTD SVG 1.1//EN"
 "http://www.w3.org/Graphics/SVG/1.1/DTD/svg11.dtd">
<!-- Generated by graphviz version 12.1.2 (20240928.0832)
 -->
<!-- Title: public.keys Pages: 1 -->
<svg width="835pt" height="787pt"
 viewBox="0.00 0.00 835.47 786.80" xmlns="http://www.w3.org/2000/svg" xmlns:xlink="http://www.w3.org/1999/xlink">
<g id="graph0" class="graph" transform="scale(1 1) rotate(0) translate(4 782.8)">
<title>public.keys</title>
<polygon fill="white" stroke="none" points="-4,4 -4,-782.8 831.47,-782.8 831.47,4 -4,4"/>
<!-- public.keys -->
<g id="node1" class="node">
<title>public.keys</title>
<polygon fill="#efefef" stroke="none" points="99.94,-697 99.94,-732.6 353.62,-732.6 353.62,-697 99.94,-697"/>
<polygon fill="none" stroke="black" points="99.94,-697 99.94,-732.6 353.62,-732.6 353.62,-697 99.94,-697"/>
<text text-anchor="start" x="123.29" y="-710.4" font-family="Arial Bold" font-size="18.00">public.keys</text>
<text text-anchor="start" x="205.78" y="-710.4" font-family="Arial" font-size="14.00">    </text>
<text text-anchor="start" x="236.89" y="-710.4" font-family="Arial" font-size="14.00" fill="#666666">[BASE TABLE]</text>
<polygon fill="none" stroke="black" points="99.94,-666.2 99.94,-697 353.62,-697 353.62,-666.2 99.94,-666.2"/>
<text text-anchor="start" x="106.94" y="-678.4" font-family="Arial" font-size="14.00">id </text>
<text text-anchor="start" x="121.72" y="-678.4" font-family="Arial" font-size="14.00" fill="#666666">[uuid]</text>
<polygon fill="none" stroke="black" points="99.94,-635.4 99.94,-666.2 353.62,-666.2 353.62,-635.4 99.94,-635.4"/>
<text text-anchor="start" x="106.94" y="-647.6" font-family="Arial" font-size="14.00">room_id </text>
<text text-anchor="start" x="161.41" y="-647.6" font-family="Arial" font-size="14.00" fill="#666666">[uuid]</text>
<polygon fill="none" stroke="black" points="99.94,-604.6 99.94,-635.4 353.62,-635.4 353.62,-604.6 99.94,-604.6"/>
<text text-anchor="start" x="106.94" y="-616.8" font-family="Arial" font-size="14.00">organization_id </text>
<text text-anchor="start" x="205.79" y="-616.8" font-family="Arial" font-size="14.00" fill="#666666">[uuid]</text>
<polygon fill="none" stroke="black" points="99.94,-573.8 99.94,-604.6 353.62,-604.6 353.62,-573.8 99.94,-573.8"/>
<text text-anchor="start" x="106.94" y="-586" font-family="Arial" font-size="14.00">key_number </text>
<text text-anchor="start" x="187.87" y="-586" font-family="Arial" font-size="14.00" fill="#666666">[text]</text>
<polygon fill="none" stroke="black" points="99.94,-543 99.94,-573.8 353.62,-573.8 353.62,-543 99.94,-543"/>
<text text-anchor="start" x="106.94" y="-555.2" font-family="Arial" font-size="14.00">status </text>
<text text-anchor="start" x="148.18" y="-555.2" font-family="Arial" font-size="14.00" fill="#666666">[text]</text>
<polygon fill="none" stroke="black" points="99.94,-512.2 99.94,-543 353.62,-543 353.62,-512.2 99.94,-512.2"/>
<text text-anchor="start" x="106.94" y="-524.4" font-family="Arial" font-size="14.00">created_at </text>
<text text-anchor="start" x="176.99" y="-524.4" font-family="Arial" font-size="14.00" fill="#666666">[timestamp with time zone]</text>
<polygon fill="none" stroke="black" points="99.94,-481.4 99.94,-512.2 353.62,-512.2 353.62,-481.4 99.94,-481.4"/>
<text text-anchor="start" x="106.94" y="-493.6" font-family="Arial" font-size="14.00">updated_at </text>
<text text-anchor="start" x="180.9" y="-493.6" font-family="Arial" font-size="14.00" fill="#666666">[timestamp with time zone]</text>
<polygon fill="none" stroke="black" stroke-width="3" points="98.44,-479.9 98.44,-734.1 355.12,-734.1 355.12,-479.9 98.44,-479.9"/>
</g>
<!-- public.rooms -->
<g id="node2" class="node">
<title>public.rooms</title>
<polygon fill="#efefef" stroke="none" points="297.94,-320.4 297.94,-356 551.62,-356 551.62,-320.4 297.94,-320.4"/>
<polygon fill="none" stroke="black" points="297.94,-320.4 297.94,-356 551.62,-356 551.62,-320.4 297.94,-320.4"/>
<text text-anchor="start" x="315.29" y="-333.8" font-family="Arial Bold" font-size="18.00">public.rooms</text>
<text text-anchor="start" x="409.78" y="-333.8" font-family="Arial" font-size="14.00">    </text>
<text text-anchor="start" x="440.9" y="-333.8" font-family="Arial" font-size="14.00" fill="#666666">[BASE TABLE]</text>
<polygon fill="none" stroke="black" points="297.94,-289.6 297.94,-320.4 551.62,-320.4 551.62,-289.6 297.94,-289.6"/>
<text text-anchor="start" x="304.94" y="-301.8" font-family="Arial" font-size="14.00">id </text>
<text text-anchor="start" x="319.72" y="-301.8" font-family="Arial" font-size="14.00" fill="#666666">[uuid]</text>
<polygon fill="none" stroke="black" points="297.94,-258.8 297.94,-289.6 551.62,-289.6 551.62,-258.8 297.94,-258.8"/>
<text text-anchor="start" x="304.94" y="-271" font-family="Arial" font-size="14.00">organization_id </text>
<text text-anchor="start" x="403.79" y="-271" font-family="Arial" font-size="14.00" fill="#666666">[uuid]</text>
<polygon fill="none" stroke="black" points="297.94,-228 297.94,-258.8 551.62,-258.8 551.62,-228 297.94,-228"/>
<text text-anchor="start" x="304.94" y="-240.2" font-family="Arial" font-size="14.00">name </text>
<text text-anchor="start" x="343.85" y="-240.2" font-family="Arial" font-size="14.00" fill="#666666">[text]</text>
<polygon fill="none" stroke="black" points="297.94,-197.2 297.94,-228 551.62,-228 551.62,-197.2 297.94,-197.2"/>
<text text-anchor="start" x="304.94" y="-209.4" font-family="Arial" font-size="14.00">building_name </text>
<text text-anchor="start" x="399.9" y="-209.4" font-family="Arial" font-size="14.00" fill="#666666">[text]</text>
<polygon fill="none" stroke="black" points="297.94,-166.4 297.94,-197.2 551.62,-197.2 551.62,-166.4 297.94,-166.4"/>
<text text-anchor="start" x="304.94" y="-178.6" font-family="Arial" font-size="14.00">floor_number </text>
<text text-anchor="start" x="391.32" y="-178.6" font-family="Arial" font-size="14.00" fill="#666666">[text]</text>
<polygon fill="none" stroke="black" points="297.94,-135.6 297.94,-166.4 551.62,-166.4 551.62,-135.6 297.94,-135.6"/>
<text text-anchor="start" x="304.94" y="-147.8" font-family="Arial" font-size="14.00">room_type </text>
<text text-anchor="start" x="374.97" y="-147.8" font-family="Arial" font-size="14.00" fill="#666666">[text]</text>
<polygon fill="none" stroke="black" points="297.94,-104.8 297.94,-135.6 551.62,-135.6 551.62,-104.8 297.94,-104.8"/>
<text text-anchor="start" x="304.94" y="-117" font-family="Arial" font-size="14.00">description </text>
<text text-anchor="start" x="376.53" y="-117" font-family="Arial" font-size="14.00" fill="#666666">[text]</text>
<polygon fill="none" stroke="black" points="297.94,-74 297.94,-104.8 551.62,-104.8 551.62,-74 297.94,-74"/>
<text text-anchor="start" x="304.94" y="-86.2" font-family="Arial" font-size="14.00">created_at </text>
<text text-anchor="start" x="374.99" y="-86.2" font-family="Arial" font-size="14.00" fill="#666666">[timestamp with time zone]</text>
<polygon fill="none" stroke="black" points="297.94,-43.2 297.94,-74 551.62,-74 551.62,-43.2 297.94,-43.2"/>
<text text-anchor="start" x="304.94" y="-55.4" font-family="Arial" font-size="14.00">updated_at </text>
<text text-anchor="start" x="378.9" y="-55.4" font-family="Arial" font-size="14.00" fill="#666666">[timestamp with time zone]</text>
</g>
<!-- public.keys&#45;&gt;public.rooms -->
<g id="edge1" class="edge">
<title>public.keys:room_id&#45;&gt;public.rooms:id</title>
<path fill="none" stroke="black" d="M364.53,-647.77C398.5,-624.48 374.82,-473.95 353.62,-435.2 339.47,-409.35 312.16,-425.01 297.94,-399.2 277.73,-362.53 255.07,-305 296.94,-305"/>
<polygon fill="black" stroke="black" points="364.5,-647.78 353.62,-646.4 359.4,-649.34 355.26,-650.6 355.26,-650.6 355.26,-650.6 359.4,-649.34 356.26,-655.01 364.5,-647.78"/>
<text text-anchor="start" x="7" y="-660.8" font-family="Arial" font-size="10.00">FOREIGN KEY (room_id) REFERENCES rooms(id) ON DELETE CASCADE</text>
</g>
<!-- public.room_assignments -->
<g id="node3" class="node">
<title>public.room_assignments</title>
<polygon fill="#efefef" stroke="none" points="461.29,-697 461.29,-732.6 784.27,-732.6 784.27,-697 461.29,-697"/>
<polygon fill="none" stroke="black" points="461.29,-697 461.29,-732.6 784.27,-732.6 784.27,-697 461.29,-697"/>
<text text-anchor="start" x="468.29" y="-710.4" font-family="Arial Bold" font-size="18.00">public.room_assignments</text>
<text text-anchor="start" x="652.78" y="-710.4" font-family="Arial" font-size="14.00">    </text>
<text text-anchor="start" x="683.89" y="-710.4" font-family="Arial" font-size="14.00" fill="#666666">[BASE TABLE]</text>
<polygon fill="none" stroke="black" points="461.29,-666.2 461.29,-697 784.27,-697 784.27,-666.2 461.29,-666.2"/>
<text text-anchor="start" x="468.29" y="-678.4" font-family="Arial" font-size="14.00">id </text>
<text text-anchor="start" x="483.08" y="-678.4" font-family="Arial" font-size="14.00" fill="#666666">[uuid]</text>
<polygon fill="none" stroke="black" points="461.29,-635.4 461.29,-666.2 784.27,-666.2 784.27,-635.4 461.29,-635.4"/>
<text text-anchor="start" x="468.29" y="-647.6" font-family="Arial" font-size="14.00">tenant_id </text>
<text text-anchor="start" x="529.79" y="-647.6" font-family="Arial" font-size="14.00" fill="#666666">[uuid]</text>
<polygon fill="none" stroke="black" points="461.29,-604.6 461.29,-635.4 784.27,-635.4 784.27,-604.6 461.29,-604.6"/>
<text text-anchor="start" x="468.29" y="-616.8" font-family="Arial" font-size="14.00">room_id </text>
<text text-anchor="start" x="522.76" y="-616.8" font-family="Arial" font-size="14.00" fill="#666666">[uuid]</text>
<polygon fill="none" stroke="black" points="461.29,-573.8 461.29,-604.6 784.27,-604.6 784.27,-573.8 461.29,-573.8"/>
<text text-anchor="start" x="468.29" y="-586" font-family="Arial" font-size="14.00">assigned_at </text>
<text text-anchor="start" x="547.69" y="-586" font-family="Arial" font-size="14.00" fill="#666666">[timestamp with time zone]</text>
<polygon fill="none" stroke="black" points="461.29,-543 461.29,-573.8 784.27,-573.8 784.27,-543 461.29,-543"/>
<text text-anchor="start" x="468.29" y="-555.2" font-family="Arial" font-size="14.00">expires_at </text>
<text text-anchor="start" x="536.78" y="-555.2" font-family="Arial" font-size="14.00" fill="#666666">[timestamp with time zone]</text>
<polygon fill="none" stroke="black" points="461.29,-512.2 461.29,-543 784.27,-543 784.27,-512.2 461.29,-512.2"/>
<text text-anchor="start" x="468.29" y="-524.4" font-family="Arial" font-size="14.00">created_at </text>
<text text-anchor="start" x="538.34" y="-524.4" font-family="Arial" font-size="14.00" fill="#666666">[timestamp with time zone]</text>
<polygon fill="none" stroke="black" points="461.29,-481.4 461.29,-512.2 784.27,-512.2 784.27,-481.4 461.29,-481.4"/>
<text text-anchor="start" x="468.29" y="-493.6" font-family="Arial" font-size="14.00">updated_at </text>
<text text-anchor="start" x="542.25" y="-493.6" font-family="Arial" font-size="14.00" fill="#666666">[timestamp with time zone]</text>
</g>
<!-- public.room_assignments&#45;&gt;public.rooms -->
<g id="edge2" class="edge">
<title>public.room_assignments:room_id&#45;&gt;public.rooms:id</title>
<path fill="none" stroke="black" d="M450.11,-619.32C382.85,-609.82 418.72,-502.57 461.29,-438.2 485.42,-401.73 527.4,-435.61 551.62,-399.2 574.81,-364.34 594.49,-305 552.62,-305"/>
<polygon fill="black" stroke="black" points="449.98,-619.31 459.66,-624.47 455.3,-619.67 459.63,-619.96 459.63,-619.96 459.63,-619.96 455.3,-619.67 460.26,-615.49 449.98,-619.31"/>
<text text-anchor="start" x="467.29" y="-630" font-family="Arial" font-size="10.00">FOREIGN KEY (room_id) REFERENCES rooms(id) ON DELETE CASCADE</text>
</g>
</g>
</svg>
