<?xml version="1.0" encoding="UTF-8" standalone="no"?>
<!DOCTYPE svg PUBLIC "-//W3C//DTD SVG 1.1//EN"
 "http://www.w3.org/Graphics/SVG/1.1/DTD/svg11.dtd">
<!-- Generated by graphviz version 12.1.2 (20240928.0832)
 -->
<!-- Title: public.users Pages: 1 -->
<svg width="1190pt" height="1099pt"
 viewBox="0.00 0.00 1189.81 1098.80" xmlns="http://www.w3.org/2000/svg" xmlns:xlink="http://www.w3.org/1999/xlink">
<g id="graph0" class="graph" transform="scale(1 1) rotate(0) translate(4 1094.8)">
<title>public.users</title>
<polygon fill="white" stroke="none" points="-4,4 -4,-1094.8 1185.81,-1094.8 1185.81,4 -4,4"/>
<!-- public.users -->
<g id="node1" class="node">
<title>public.users</title>
<polygon fill="#efefef" stroke="none" points="205.11,-231 205.11,-266.6 478.25,-266.6 478.25,-231 205.11,-231"/>
<polygon fill="none" stroke="black" points="205.11,-231 205.11,-266.6 478.25,-266.6 478.25,-231 205.11,-231"/>
<text text-anchor="start" x="236.19" y="-244.4" font-family="Arial Bold" font-size="18.00">public.users</text>
<text text-anchor="start" x="322.68" y="-244.4" font-family="Arial" font-size="14.00">    </text>
<text text-anchor="start" x="353.79" y="-244.4" font-family="Arial" font-size="14.00" fill="#666666">[BASE TABLE]</text>
<polygon fill="none" stroke="black" points="205.11,-200.2 205.11,-231 478.25,-231 478.25,-200.2 205.11,-200.2"/>
<text text-anchor="start" x="212.11" y="-212.4" font-family="Arial" font-size="14.00">id </text>
<text text-anchor="start" x="226.89" y="-212.4" font-family="Arial" font-size="14.00" fill="#666666">[uuid]</text>
<polygon fill="none" stroke="black" points="205.11,-169.4 205.11,-200.2 478.25,-200.2 478.25,-169.4 205.11,-169.4"/>
<text text-anchor="start" x="212.11" y="-181.6" font-family="Arial" font-size="14.00">email </text>
<text text-anchor="start" x="249.45" y="-181.6" font-family="Arial" font-size="14.00" fill="#666666">[text]</text>
<polygon fill="none" stroke="black" points="205.11,-138.6 205.11,-169.4 478.25,-169.4 478.25,-138.6 205.11,-138.6"/>
<text text-anchor="start" x="212.11" y="-150.8" font-family="Arial" font-size="14.00">name </text>
<text text-anchor="start" x="251.02" y="-150.8" font-family="Arial" font-size="14.00" fill="#666666">[text]</text>
<polygon fill="none" stroke="black" points="205.11,-107.8 205.11,-138.6 478.25,-138.6 478.25,-107.8 205.11,-107.8"/>
<text text-anchor="start" x="212.11" y="-120" font-family="Arial" font-size="14.00">icon </text>
<text text-anchor="start" x="241.68" y="-120" font-family="Arial" font-size="14.00" fill="#666666">[text]</text>
<polygon fill="none" stroke="black" points="205.11,-77 205.11,-107.8 478.25,-107.8 478.25,-77 205.11,-77"/>
<text text-anchor="start" x="212.11" y="-89.2" font-family="Arial" font-size="14.00">created_at </text>
<text text-anchor="start" x="282.15" y="-89.2" font-family="Arial" font-size="14.00" fill="#666666">[timestamp without time zone]</text>
<polygon fill="none" stroke="black" points="205.11,-46.2 205.11,-77 478.25,-77 478.25,-46.2 205.11,-46.2"/>
<text text-anchor="start" x="212.11" y="-58.4" font-family="Arial" font-size="14.00">updated_at </text>
<text text-anchor="start" x="286.06" y="-58.4" font-family="Arial" font-size="14.00" fill="#666666">[timestamp without time zone]</text>
<polygon fill="none" stroke="black" stroke-width="3" points="203.61,-44.7 203.61,-268.1 479.75,-268.1 479.75,-44.7 203.61,-44.7"/>
</g>
<!-- public.user_identities -->
<g id="node2" class="node">
<title>public.user_identities</title>
<polygon fill="#efefef" stroke="none" points="43.2,-607.6 43.2,-643.2 336.16,-643.2 336.16,-607.6 43.2,-607.6"/>
<polygon fill="none" stroke="black" points="43.2,-607.6 43.2,-643.2 336.16,-643.2 336.16,-607.6 43.2,-607.6"/>
<text text-anchor="start" x="50.2" y="-621" font-family="Arial Bold" font-size="18.00">public.user_identities</text>
<text text-anchor="start" x="204.67" y="-621" font-family="Arial" font-size="14.00">    </text>
<text text-anchor="start" x="235.78" y="-621" font-family="Arial" font-size="14.00" fill="#666666">[BASE TABLE]</text>
<polygon fill="none" stroke="black" points="43.2,-576.8 43.2,-607.6 336.16,-607.6 336.16,-576.8 43.2,-576.8"/>
<text text-anchor="start" x="50.2" y="-589" font-family="Arial" font-size="14.00">id </text>
<text text-anchor="start" x="64.99" y="-589" font-family="Arial" font-size="14.00" fill="#666666">[uuid]</text>
<polygon fill="none" stroke="black" points="43.2,-546 43.2,-576.8 336.16,-576.8 336.16,-546 43.2,-546"/>
<text text-anchor="start" x="50.2" y="-558.2" font-family="Arial" font-size="14.00">user_id </text>
<text text-anchor="start" x="100.01" y="-558.2" font-family="Arial" font-size="14.00" fill="#666666">[uuid]</text>
<polygon fill="none" stroke="black" points="43.2,-515.2 43.2,-546 336.16,-546 336.16,-515.2 43.2,-515.2"/>
<text text-anchor="start" x="50.2" y="-527.4" font-family="Arial" font-size="14.00">provider </text>
<text text-anchor="start" x="104.67" y="-527.4" font-family="Arial" font-size="14.00" fill="#666666">[text]</text>
<polygon fill="none" stroke="black" points="43.2,-484.4 43.2,-515.2 336.16,-515.2 336.16,-484.4 43.2,-484.4"/>
<text text-anchor="start" x="50.2" y="-496.6" font-family="Arial" font-size="14.00">provider_sub </text>
<text text-anchor="start" x="135.03" y="-496.6" font-family="Arial" font-size="14.00" fill="#666666">[text]</text>
<polygon fill="none" stroke="black" points="43.2,-453.6 43.2,-484.4 336.16,-484.4 336.16,-453.6 43.2,-453.6"/>
<text text-anchor="start" x="50.2" y="-465.8" font-family="Arial" font-size="14.00">created_at </text>
<text text-anchor="start" x="120.25" y="-465.8" font-family="Arial" font-size="14.00" fill="#666666">[timestamp with time zone]</text>
<polygon fill="none" stroke="black" points="43.2,-422.8 43.2,-453.6 336.16,-453.6 336.16,-422.8 43.2,-422.8"/>
<text text-anchor="start" x="50.2" y="-435" font-family="Arial" font-size="14.00">updated_at </text>
<text text-anchor="start" x="124.16" y="-435" font-family="Arial" font-size="14.00" fill="#666666">[timestamp with time zone]</text>
</g>
<!-- public.user_identities&#45;&gt;public.users -->
<g id="edge1" class="edge">
<title>public.user_identities:user_id&#45;&gt;public.users:id</title>
<path fill="none" stroke="black" d="M347.33,-560.73C414.41,-551.34 376.65,-445.29 336.16,-379.6 301.85,-323.95 239.55,-368.37 205.11,-312.8 182.35,-276.08 160.9,-215.6 204.11,-215.6"/>
<polygon fill="black" stroke="black" points="347.47,-560.72 337.2,-556.89 342.15,-561.07 337.82,-561.36 337.82,-561.36 337.82,-561.36 342.15,-561.07 337.79,-565.87 347.47,-560.72"/>
<text text-anchor="start" x="344.16" y="-571.4" font-family="Arial" font-size="10.00">FOREIGN KEY (user_id) REFERENCES users(id) ON DELETE CASCADE</text>
</g>
<!-- public.sessions -->
<g id="node3" class="node">
<title>public.sessions</title>
<polygon fill="#efefef" stroke="none" points="402.79,-1012 402.79,-1047.6 652.56,-1047.6 652.56,-1012 402.79,-1012"/>
<polygon fill="none" stroke="black" points="402.79,-1012 402.79,-1047.6 652.56,-1047.6 652.56,-1012 402.79,-1012"/>
<text text-anchor="start" x="411.18" y="-1025.4" font-family="Arial Bold" font-size="18.00">public.sessions</text>
<text text-anchor="start" x="519.68" y="-1025.4" font-family="Arial" font-size="14.00">    </text>
<text text-anchor="start" x="550.8" y="-1025.4" font-family="Arial" font-size="14.00" fill="#666666">[BASE TABLE]</text>
<polygon fill="none" stroke="black" points="402.79,-981.2 402.79,-1012 652.56,-1012 652.56,-981.2 402.79,-981.2"/>
<text text-anchor="start" x="409.79" y="-993.4" font-family="Arial" font-size="14.00">session_id </text>
<text text-anchor="start" x="479.83" y="-993.4" font-family="Arial" font-size="14.00" fill="#666666">[text]</text>
<polygon fill="none" stroke="black" points="402.79,-950.4 402.79,-981.2 652.56,-981.2 652.56,-950.4 402.79,-950.4"/>
<text text-anchor="start" x="409.79" y="-962.6" font-family="Arial" font-size="14.00">user_id </text>
<text text-anchor="start" x="459.6" y="-962.6" font-family="Arial" font-size="14.00" fill="#666666">[uuid]</text>
<polygon fill="none" stroke="black" points="402.79,-919.6 402.79,-950.4 652.56,-950.4 652.56,-919.6 402.79,-919.6"/>
<text text-anchor="start" x="409.79" y="-931.8" font-family="Arial" font-size="14.00">active_membership_id </text>
<text text-anchor="start" x="553.75" y="-931.8" font-family="Arial" font-size="14.00" fill="#666666">[uuid]</text>
<polygon fill="none" stroke="black" points="402.79,-888.8 402.79,-919.6 652.56,-919.6 652.56,-888.8 402.79,-888.8"/>
<text text-anchor="start" x="409.79" y="-901" font-family="Arial" font-size="14.00">created_at </text>
<text text-anchor="start" x="479.84" y="-901" font-family="Arial" font-size="14.00" fill="#666666">[timestamp with time zone]</text>
<polygon fill="none" stroke="black" points="402.79,-858 402.79,-888.8 652.56,-888.8 652.56,-858 402.79,-858"/>
<text text-anchor="start" x="409.79" y="-870.2" font-family="Arial" font-size="14.00">expires_at </text>
<text text-anchor="start" x="478.28" y="-870.2" font-family="Arial" font-size="14.00" fill="#666666">[timestamp with time zone]</text>
<polygon fill="none" stroke="black" points="402.79,-827.2 402.79,-858 652.56,-858 652.56,-827.2 402.79,-827.2"/>
<text text-anchor="start" x="409.79" y="-839.4" font-family="Arial" font-size="14.00">csrf_token </text>
<text text-anchor="start" x="478.27" y="-839.4" font-family="Arial" font-size="14.00" fill="#666666">[text]</text>
<polygon fill="none" stroke="black" points="402.79,-796.4 402.79,-827.2 652.56,-827.2 652.56,-796.4 402.79,-796.4"/>
<text text-anchor="start" x="409.79" y="-808.6" font-family="Arial" font-size="14.00">revoked </text>
<text text-anchor="start" x="463.49" y="-808.6" font-family="Arial" font-size="14.00" fill="#666666">[boolean]</text>
</g>
<!-- public.sessions&#45;&gt;public.users -->
<g id="edge2" class="edge">
<title>public.sessions:user_id&#45;&gt;public.users:id</title>
<path fill="none" stroke="black" d="M391.56,-965.27C314.39,-956.61 399.9,-843.95 402.79,-753.2 405.66,-663.22 382.72,-427.36 426.68,-348.8 440.33,-324.41 465.2,-337.52 478.25,-312.8 498.42,-274.6 522.45,-215.6 479.25,-215.6"/>
<polygon fill="black" stroke="black" points="391.47,-965.26 401.22,-970.28 396.8,-965.54 401.12,-965.77 401.12,-965.77 401.12,-965.77 396.8,-965.54 401.69,-961.29 391.47,-965.26"/>
<text text-anchor="start" x="60.83" y="-975.8" font-family="Arial" font-size="10.00">FOREIGN KEY (user_id) REFERENCES users(id) ON DELETE CASCADE</text>
</g>
<!-- public.tenant_memberships -->
<g id="node4" class="node">
<title>public.tenant_memberships</title>
<polygon fill="#efefef" stroke="none" points="479.21,-638.4 479.21,-674 816.15,-674 816.15,-638.4 479.21,-638.4"/>
<polygon fill="none" stroke="black" points="479.21,-638.4 479.21,-674 816.15,-674 816.15,-638.4 479.21,-638.4"/>
<text text-anchor="start" x="486.21" y="-651.8" font-family="Arial Bold" font-size="18.00">public.tenant_memberships</text>
<text text-anchor="start" x="684.66" y="-651.8" font-family="Arial" font-size="14.00">    </text>
<text text-anchor="start" x="715.78" y="-651.8" font-family="Arial" font-size="14.00" fill="#666666">[BASE TABLE]</text>
<polygon fill="none" stroke="black" points="479.21,-607.6 479.21,-638.4 816.15,-638.4 816.15,-607.6 479.21,-607.6"/>
<text text-anchor="start" x="486.21" y="-619.8" font-family="Arial" font-size="14.00">id </text>
<text text-anchor="start" x="500.99" y="-619.8" font-family="Arial" font-size="14.00" fill="#666666">[uuid]</text>
<polygon fill="none" stroke="black" points="479.21,-576.8 479.21,-607.6 816.15,-607.6 816.15,-576.8 479.21,-576.8"/>
<text text-anchor="start" x="486.21" y="-589" font-family="Arial" font-size="14.00">tenant_id </text>
<text text-anchor="start" x="547.7" y="-589" font-family="Arial" font-size="14.00" fill="#666666">[uuid]</text>
<polygon fill="none" stroke="black" points="479.21,-546 479.21,-576.8 816.15,-576.8 816.15,-546 479.21,-546"/>
<text text-anchor="start" x="486.21" y="-558.2" font-family="Arial" font-size="14.00">user_id </text>
<text text-anchor="start" x="536.01" y="-558.2" font-family="Arial" font-size="14.00" fill="#666666">[uuid]</text>
<polygon fill="none" stroke="black" points="479.21,-515.2 479.21,-546 816.15,-546 816.15,-515.2 479.21,-515.2"/>
<text text-anchor="start" x="486.21" y="-527.4" font-family="Arial" font-size="14.00">role </text>
<text text-anchor="start" x="513.44" y="-527.4" font-family="Arial" font-size="14.00" fill="#666666">[text]</text>
<polygon fill="none" stroke="black" points="479.21,-484.4 479.21,-515.2 816.15,-515.2 816.15,-484.4 479.21,-484.4"/>
<text text-anchor="start" x="486.21" y="-496.6" font-family="Arial" font-size="14.00">status </text>
<text text-anchor="start" x="527.45" y="-496.6" font-family="Arial" font-size="14.00" fill="#666666">[text]</text>
<polygon fill="none" stroke="black" points="479.21,-453.6 479.21,-484.4 816.15,-484.4 816.15,-453.6 479.21,-453.6"/>
<text text-anchor="start" x="486.21" y="-465.8" font-family="Arial" font-size="14.00">joined_via </text>
<text text-anchor="start" x="553.14" y="-465.8" font-family="Arial" font-size="14.00" fill="#666666">[text]</text>
<polygon fill="none" stroke="black" points="479.21,-422.8 479.21,-453.6 816.15,-453.6 816.15,-422.8 479.21,-422.8"/>
<text text-anchor="start" x="486.21" y="-435" font-family="Arial" font-size="14.00">created_at </text>
<text text-anchor="start" x="556.25" y="-435" font-family="Arial" font-size="14.00" fill="#666666">[timestamp with time zone]</text>
<polygon fill="none" stroke="black" points="479.21,-392 479.21,-422.8 816.15,-422.8 816.15,-392 479.21,-392"/>
<text text-anchor="start" x="486.21" y="-404.2" font-family="Arial" font-size="14.00">left_at </text>
<text text-anchor="start" x="528.23" y="-404.2" font-family="Arial" font-size="14.00" fill="#666666">[timestamp with time zone]</text>
</g>
<!-- public.sessions&#45;&gt;public.tenant_memberships -->
<g id="edge3" class="edge">
<title>public.sessions:active_membership_id&#45;&gt;public.tenant_memberships:id</title>
<path fill="none" stroke="black" d="M663.79,-934.29C731.57,-924.4 701.43,-812.93 652.56,-753.2 602.73,-692.3 529.19,-777.97 479.21,-717.2 452.61,-684.86 436.34,-623 478.21,-623"/>
<polygon fill="black" stroke="black" points="663.87,-934.29 653.59,-930.49 658.55,-934.66 654.23,-934.95 654.23,-934.95 654.23,-934.95 658.55,-934.66 654.21,-939.47 663.87,-934.29"/>
<text text-anchor="start" x="660.56" y="-945" font-family="Arial" font-size="10.00">FOREIGN KEY (active_membership_id) REFERENCES tenant_memberships(id)</text>
</g>
<!-- public.tenant_memberships&#45;&gt;public.users -->
<g id="edge4" class="edge">
<title>public.tenant_memberships:user_id&#45;&gt;public.users:id</title>
<path fill="none" stroke="black" d="M477.71,-551.05C476.93,-493.51 481.4,-215.6 479.25,-215.6"/>
<polygon fill="black" stroke="black" points="477.71,-551.08 473.69,-561.28 477.96,-556.41 478.17,-560.73 478.17,-560.73 478.17,-560.73 477.96,-556.41 482.68,-560.85 477.71,-551.08"/>
<text text-anchor="start" x="398.22" y="-545.4" font-family="Arial" font-size="10.00">FOREIGN KEY (user_id) REFERENCES users(id) ON DELETE CASCADE</text>
</g>
<!-- public.tenants -->
<g id="node5" class="node">
<title>public.tenants</title>
<polygon fill="#efefef" stroke="none" points="585.84,-231 585.84,-266.6 839.52,-266.6 839.52,-231 585.84,-231"/>
<polygon fill="none" stroke="black" points="585.84,-231 585.84,-266.6 839.52,-266.6 839.52,-231 585.84,-231"/>
<text text-anchor="start" x="600.2" y="-244.4" font-family="Arial Bold" font-size="18.00">public.tenants</text>
<text text-anchor="start" x="700.67" y="-244.4" font-family="Arial" font-size="14.00">    </text>
<text text-anchor="start" x="731.79" y="-244.4" font-family="Arial" font-size="14.00" fill="#666666">[BASE TABLE]</text>
<polygon fill="none" stroke="black" points="585.84,-200.2 585.84,-231 839.52,-231 839.52,-200.2 585.84,-200.2"/>
<text text-anchor="start" x="592.84" y="-212.4" font-family="Arial" font-size="14.00">id </text>
<text text-anchor="start" x="607.62" y="-212.4" font-family="Arial" font-size="14.00" fill="#666666">[uuid]</text>
<polygon fill="none" stroke="black" points="585.84,-169.4 585.84,-200.2 839.52,-200.2 839.52,-169.4 585.84,-169.4"/>
<text text-anchor="start" x="592.84" y="-181.6" font-family="Arial" font-size="14.00">name </text>
<text text-anchor="start" x="631.75" y="-181.6" font-family="Arial" font-size="14.00" fill="#666666">[text]</text>
<polygon fill="none" stroke="black" points="585.84,-138.6 585.84,-169.4 839.52,-169.4 839.52,-138.6 585.84,-138.6"/>
<text text-anchor="start" x="592.84" y="-150.8" font-family="Arial" font-size="14.00">slug </text>
<text text-anchor="start" x="622.41" y="-150.8" font-family="Arial" font-size="14.00" fill="#666666">[text]</text>
<polygon fill="none" stroke="black" points="585.84,-107.8 585.84,-138.6 839.52,-138.6 839.52,-107.8 585.84,-107.8"/>
<text text-anchor="start" x="592.84" y="-120" font-family="Arial" font-size="14.00">password_hash </text>
<text text-anchor="start" x="694.79" y="-120" font-family="Arial" font-size="14.00" fill="#666666">[text]</text>
<polygon fill="none" stroke="black" points="585.84,-77 585.84,-107.8 839.52,-107.8 839.52,-77 585.84,-77"/>
<text text-anchor="start" x="592.84" y="-89.2" font-family="Arial" font-size="14.00">created_at </text>
<text text-anchor="start" x="662.89" y="-89.2" font-family="Arial" font-size="14.00" fill="#666666">[timestamp with time zone]</text>
<polygon fill="none" stroke="black" points="585.84,-46.2 585.84,-77 839.52,-77 839.52,-46.2 585.84,-46.2"/>
<text text-anchor="start" x="592.84" y="-58.4" font-family="Arial" font-size="14.00">updated_at </text>
<text text-anchor="start" x="666.8" y="-58.4" font-family="Arial" font-size="14.00" fill="#666666">[timestamp with time zone]</text>
</g>
<!-- public.tenant_memberships&#45;&gt;public.tenants -->
<g id="edge5" class="edge">
<title>public.tenant_memberships:tenant_id&#45;&gt;public.tenants:id</title>
<path fill="none" stroke="black" d="M827.44,-591.68C922.69,-581.6 883.81,-428.55 816.15,-348.8 748.99,-269.63 653.26,-388.75 585.84,-309.8 558.65,-277.96 542.97,-215.6 584.84,-215.6"/>
<polygon fill="black" stroke="black" points="827.47,-591.68 817.26,-587.69 822.15,-591.95 817.82,-592.17 817.82,-592.17 817.82,-592.17 822.15,-591.95 817.71,-596.68 827.47,-591.68"/>
<text text-anchor="start" x="824.15" y="-602.2" font-family="Arial" font-size="10.00">FOREIGN KEY (tenant_id) REFERENCES tenants(id) ON DELETE CASCADE</text>
</g>
</g>
</svg>
