<?xml version="1.0" encoding="UTF-8" standalone="no"?>
<!DOCTYPE svg PUBLIC "-//W3C//DTD SVG 1.1//EN"
 "http://www.w3.org/Graphics/SVG/1.1/DTD/svg11.dtd">
<!-- Generated by graphviz version 12.1.2 (20240928.0832)
 -->
<!-- Title: public.tenants Pages: 1 -->
<svg width="1160pt" height="1099pt"
 viewBox="0.00 0.00 1160.11 1098.80" xmlns="http://www.w3.org/2000/svg" xmlns:xlink="http://www.w3.org/1999/xlink">
<g id="graph0" class="graph" transform="scale(1 1) rotate(0) translate(4 1094.8)">
<title>public.tenants</title>
<polygon fill="white" stroke="none" points="-4,4 -4,-1094.8 1156.11,-1094.8 1156.11,4 -4,4"/>
<!-- public.tenants -->
<g id="node1" class="node">
<title>public.tenants</title>
<polygon fill="#efefef" stroke="none" points="106.83,-231 106.83,-266.6 360.51,-266.6 360.51,-231 106.83,-231"/>
<polygon fill="none" stroke="black" points="106.83,-231 106.83,-266.6 360.51,-266.6 360.51,-231 106.83,-231"/>
<text text-anchor="start" x="121.19" y="-244.4" font-family="Arial Bold" font-size="18.00">public.tenants</text>
<text text-anchor="start" x="221.67" y="-244.4" font-family="Arial" font-size="14.00">    </text>
<text text-anchor="start" x="252.78" y="-244.4" font-family="Arial" font-size="14.00" fill="#666666">[BASE TABLE]</text>
<polygon fill="none" stroke="black" points="106.83,-200.2 106.83,-231 360.51,-231 360.51,-200.2 106.83,-200.2"/>
<text text-anchor="start" x="113.83" y="-212.4" font-family="Arial" font-size="14.00">id </text>
<text text-anchor="start" x="128.62" y="-212.4" font-family="Arial" font-size="14.00" fill="#666666">[uuid]</text>
<polygon fill="none" stroke="black" points="106.83,-169.4 106.83,-200.2 360.51,-200.2 360.51,-169.4 106.83,-169.4"/>
<text text-anchor="start" x="113.83" y="-181.6" font-family="Arial" font-size="14.00">name </text>
<text text-anchor="start" x="152.74" y="-181.6" font-family="Arial" font-size="14.00" fill="#666666">[text]</text>
<polygon fill="none" stroke="black" points="106.83,-138.6 106.83,-169.4 360.51,-169.4 360.51,-138.6 106.83,-138.6"/>
<text text-anchor="start" x="113.83" y="-150.8" font-family="Arial" font-size="14.00">description </text>
<text text-anchor="start" x="185.43" y="-150.8" font-family="Arial" font-size="14.00" fill="#666666">[text]</text>
<polygon fill="none" stroke="black" points="106.83,-107.8 106.83,-138.6 360.51,-138.6 360.51,-107.8 106.83,-107.8"/>
<text text-anchor="start" x="113.83" y="-120" font-family="Arial" font-size="14.00">tenant_type </text>
<text text-anchor="start" x="190.89" y="-120" font-family="Arial" font-size="14.00" fill="#666666">[text]</text>
<polygon fill="none" stroke="black" points="106.83,-77 106.83,-107.8 360.51,-107.8 360.51,-77 106.83,-77"/>
<text text-anchor="start" x="113.83" y="-89.2" font-family="Arial" font-size="14.00">created_at </text>
<text text-anchor="start" x="183.88" y="-89.2" font-family="Arial" font-size="14.00" fill="#666666">[timestamp with time zone]</text>
<polygon fill="none" stroke="black" points="106.83,-46.2 106.83,-77 360.51,-77 360.51,-46.2 106.83,-46.2"/>
<text text-anchor="start" x="113.83" y="-58.4" font-family="Arial" font-size="14.00">updated_at </text>
<text text-anchor="start" x="187.79" y="-58.4" font-family="Arial" font-size="14.00" fill="#666666">[timestamp with time zone]</text>
<polygon fill="none" stroke="black" stroke-width="3" points="105.33,-44.7 105.33,-268.1 362.01,-268.1 362.01,-44.7 105.33,-44.7"/>
</g>
<!-- public.tenant_join_codes -->
<g id="node2" class="node">
<title>public.tenant_join_codes</title>
<polygon fill="#efefef" stroke="none" points="43.2,-623 43.2,-658.6 362.15,-658.6 362.15,-623 43.2,-623"/>
<polygon fill="none" stroke="black" points="43.2,-623 43.2,-658.6 362.15,-658.6 362.15,-623 43.2,-623"/>
<text text-anchor="start" x="50.2" y="-636.4" font-family="Arial Bold" font-size="18.00">public.tenant_join_codes</text>
<text text-anchor="start" x="230.66" y="-636.4" font-family="Arial" font-size="14.00">    </text>
<text text-anchor="start" x="261.77" y="-636.4" font-family="Arial" font-size="14.00" fill="#666666">[BASE TABLE]</text>
<polygon fill="none" stroke="black" points="43.2,-592.2 43.2,-623 362.15,-623 362.15,-592.2 43.2,-592.2"/>
<text text-anchor="start" x="50.2" y="-604.4" font-family="Arial" font-size="14.00">id </text>
<text text-anchor="start" x="64.99" y="-604.4" font-family="Arial" font-size="14.00" fill="#666666">[uuid]</text>
<polygon fill="none" stroke="black" points="43.2,-561.4 43.2,-592.2 362.15,-592.2 362.15,-561.4 43.2,-561.4"/>
<text text-anchor="start" x="50.2" y="-573.6" font-family="Arial" font-size="14.00">tenant_id </text>
<text text-anchor="start" x="111.7" y="-573.6" font-family="Arial" font-size="14.00" fill="#666666">[uuid]</text>
<polygon fill="none" stroke="black" points="43.2,-530.6 43.2,-561.4 362.15,-561.4 362.15,-530.6 43.2,-530.6"/>
<text text-anchor="start" x="50.2" y="-542.8" font-family="Arial" font-size="14.00">code </text>
<text text-anchor="start" x="84.45" y="-542.8" font-family="Arial" font-size="14.00" fill="#666666">[text]</text>
<polygon fill="none" stroke="black" points="43.2,-499.8 43.2,-530.6 362.15,-530.6 362.15,-499.8 43.2,-499.8"/>
<text text-anchor="start" x="50.2" y="-512" font-family="Arial" font-size="14.00">expires_at </text>
<text text-anchor="start" x="118.68" y="-512" font-family="Arial" font-size="14.00" fill="#666666">[timestamp with time zone]</text>
<polygon fill="none" stroke="black" points="43.2,-469 43.2,-499.8 362.15,-499.8 362.15,-469 43.2,-469"/>
<text text-anchor="start" x="50.2" y="-481.2" font-family="Arial" font-size="14.00">max_uses </text>
<text text-anchor="start" x="117.9" y="-481.2" font-family="Arial" font-size="14.00" fill="#666666">[integer]</text>
<polygon fill="none" stroke="black" points="43.2,-438.2 43.2,-469 362.15,-469 362.15,-438.2 43.2,-438.2"/>
<text text-anchor="start" x="50.2" y="-450.4" font-family="Arial" font-size="14.00">used_count </text>
<text text-anchor="start" x="126.48" y="-450.4" font-family="Arial" font-size="14.00" fill="#666666">[integer]</text>
<polygon fill="none" stroke="black" points="43.2,-407.4 43.2,-438.2 362.15,-438.2 362.15,-407.4 43.2,-407.4"/>
<text text-anchor="start" x="50.2" y="-419.6" font-family="Arial" font-size="14.00">created_at </text>
<text text-anchor="start" x="120.25" y="-419.6" font-family="Arial" font-size="14.00" fill="#666666">[timestamp with time zone]</text>
</g>
<!-- public.tenant_join_codes&#45;&gt;public.tenants -->
<g id="edge1" class="edge">
<title>public.tenant_join_codes:tenant_id&#45;&gt;public.tenants:id</title>
<path fill="none" stroke="black" d="M373.05,-573.73C407.47,-550.13 389.82,-397.83 362.15,-364.2 288.61,-274.81 180.62,-401.98 106.83,-312.8 79.29,-279.51 62.63,-215.6 105.83,-215.6"/>
<polygon fill="black" stroke="black" points="373.02,-573.74 362.13,-572.4 367.92,-575.32 363.79,-576.6 363.79,-576.6 363.79,-576.6 367.92,-575.32 364.8,-581 373.02,-573.74"/>
<text text-anchor="start" x="370.15" y="-586.8" font-family="Arial" font-size="10.00">FOREIGN KEY (tenant_id) REFERENCES tenants(id) ON DELETE CASCADE</text>
</g>
<!-- public.tenant_memberships -->
<g id="node3" class="node">
<title>public.tenant_memberships</title>
<polygon fill="#efefef" stroke="none" points="466.2,-638.4 466.2,-674 803.15,-674 803.15,-638.4 466.2,-638.4"/>
<polygon fill="none" stroke="black" points="466.2,-638.4 466.2,-674 803.15,-674 803.15,-638.4 466.2,-638.4"/>
<text text-anchor="start" x="473.2" y="-651.8" font-family="Arial Bold" font-size="18.00">public.tenant_memberships</text>
<text text-anchor="start" x="671.66" y="-651.8" font-family="Arial" font-size="14.00">    </text>
<text text-anchor="start" x="702.77" y="-651.8" font-family="Arial" font-size="14.00" fill="#666666">[BASE TABLE]</text>
<polygon fill="none" stroke="black" points="466.2,-607.6 466.2,-638.4 803.15,-638.4 803.15,-607.6 466.2,-607.6"/>
<text text-anchor="start" x="473.2" y="-619.8" font-family="Arial" font-size="14.00">id </text>
<text text-anchor="start" x="487.99" y="-619.8" font-family="Arial" font-size="14.00" fill="#666666">[uuid]</text>
<polygon fill="none" stroke="black" points="466.2,-576.8 466.2,-607.6 803.15,-607.6 803.15,-576.8 466.2,-576.8"/>
<text text-anchor="start" x="473.2" y="-589" font-family="Arial" font-size="14.00">tenant_id </text>
<text text-anchor="start" x="534.7" y="-589" font-family="Arial" font-size="14.00" fill="#666666">[uuid]</text>
<polygon fill="none" stroke="black" points="466.2,-546 466.2,-576.8 803.15,-576.8 803.15,-546 466.2,-546"/>
<text text-anchor="start" x="473.2" y="-558.2" font-family="Arial" font-size="14.00">user_id </text>
<text text-anchor="start" x="523.01" y="-558.2" font-family="Arial" font-size="14.00" fill="#666666">[uuid]</text>
<polygon fill="none" stroke="black" points="466.2,-515.2 466.2,-546 803.15,-546 803.15,-515.2 466.2,-515.2"/>
<text text-anchor="start" x="473.2" y="-527.4" font-family="Arial" font-size="14.00">role </text>
<text text-anchor="start" x="500.43" y="-527.4" font-family="Arial" font-size="14.00" fill="#666666">[text]</text>
<polygon fill="none" stroke="black" points="466.2,-484.4 466.2,-515.2 803.15,-515.2 803.15,-484.4 466.2,-484.4"/>
<text text-anchor="start" x="473.2" y="-496.6" font-family="Arial" font-size="14.00">status </text>
<text text-anchor="start" x="514.44" y="-496.6" font-family="Arial" font-size="14.00" fill="#666666">[text]</text>
<polygon fill="none" stroke="black" points="466.2,-453.6 466.2,-484.4 803.15,-484.4 803.15,-453.6 466.2,-453.6"/>
<text text-anchor="start" x="473.2" y="-465.8" font-family="Arial" font-size="14.00">joined_via </text>
<text text-anchor="start" x="540.14" y="-465.8" font-family="Arial" font-size="14.00" fill="#666666">[text]</text>
<polygon fill="none" stroke="black" points="466.2,-422.8 466.2,-453.6 803.15,-453.6 803.15,-422.8 466.2,-422.8"/>
<text text-anchor="start" x="473.2" y="-435" font-family="Arial" font-size="14.00">created_at </text>
<text text-anchor="start" x="543.25" y="-435" font-family="Arial" font-size="14.00" fill="#666666">[timestamp with time zone]</text>
<polygon fill="none" stroke="black" points="466.2,-392 466.2,-422.8 803.15,-422.8 803.15,-392 466.2,-392"/>
<text text-anchor="start" x="473.2" y="-404.2" font-family="Arial" font-size="14.00">left_at </text>
<text text-anchor="start" x="515.23" y="-404.2" font-family="Arial" font-size="14.00" fill="#666666">[timestamp with time zone]</text>
</g>
<!-- public.tenant_memberships&#45;&gt;public.tenants -->
<g id="edge2" class="edge">
<title>public.tenant_memberships:tenant_id&#45;&gt;public.tenants:id</title>
<path fill="none" stroke="black" d="M455.17,-589.78C412.54,-567.51 429.53,-398.19 414.67,-348.8 396.31,-287.76 425.25,-215.6 361.51,-215.6"/>
<polygon fill="black" stroke="black" points="455.15,-589.77 463.82,-596.5 460.34,-591.03 464.55,-592.04 464.55,-592.04 464.55,-592.04 460.34,-591.03 465.93,-587.75 455.15,-589.77"/>
<text text-anchor="start" x="472.2" y="-602.2" font-family="Arial" font-size="10.00">FOREIGN KEY (tenant_id) REFERENCES tenants(id) ON DELETE CASCADE</text>
</g>
<!-- public.users -->
<g id="node5" class="node">
<title>public.users</title>
<polygon fill="#efefef" stroke="none" points="498.1,-231 498.1,-266.6 771.24,-266.6 771.24,-231 498.1,-231"/>
<polygon fill="none" stroke="black" points="498.1,-231 498.1,-266.6 771.24,-266.6 771.24,-231 498.1,-231"/>
<text text-anchor="start" x="529.19" y="-244.4" font-family="Arial Bold" font-size="18.00">public.users</text>
<text text-anchor="start" x="615.67" y="-244.4" font-family="Arial" font-size="14.00">    </text>
<text text-anchor="start" x="646.79" y="-244.4" font-family="Arial" font-size="14.00" fill="#666666">[BASE TABLE]</text>
<polygon fill="none" stroke="black" points="498.1,-200.2 498.1,-231 771.24,-231 771.24,-200.2 498.1,-200.2"/>
<text text-anchor="start" x="505.1" y="-212.4" font-family="Arial" font-size="14.00">id </text>
<text text-anchor="start" x="519.89" y="-212.4" font-family="Arial" font-size="14.00" fill="#666666">[uuid]</text>
<polygon fill="none" stroke="black" points="498.1,-169.4 498.1,-200.2 771.24,-200.2 771.24,-169.4 498.1,-169.4"/>
<text text-anchor="start" x="505.1" y="-181.6" font-family="Arial" font-size="14.00">email </text>
<text text-anchor="start" x="542.45" y="-181.6" font-family="Arial" font-size="14.00" fill="#666666">[text]</text>
<polygon fill="none" stroke="black" points="498.1,-138.6 498.1,-169.4 771.24,-169.4 771.24,-138.6 498.1,-138.6"/>
<text text-anchor="start" x="505.1" y="-150.8" font-family="Arial" font-size="14.00">name </text>
<text text-anchor="start" x="544.01" y="-150.8" font-family="Arial" font-size="14.00" fill="#666666">[text]</text>
<polygon fill="none" stroke="black" points="498.1,-107.8 498.1,-138.6 771.24,-138.6 771.24,-107.8 498.1,-107.8"/>
<text text-anchor="start" x="505.1" y="-120" font-family="Arial" font-size="14.00">icon </text>
<text text-anchor="start" x="534.67" y="-120" font-family="Arial" font-size="14.00" fill="#666666">[text]</text>
<polygon fill="none" stroke="black" points="498.1,-77 498.1,-107.8 771.24,-107.8 771.24,-77 498.1,-77"/>
<text text-anchor="start" x="505.1" y="-89.2" font-family="Arial" font-size="14.00">created_at </text>
<text text-anchor="start" x="575.15" y="-89.2" font-family="Arial" font-size="14.00" fill="#666666">[timestamp without time zone]</text>
<polygon fill="none" stroke="black" points="498.1,-46.2 498.1,-77 771.24,-77 771.24,-46.2 498.1,-46.2"/>
<text text-anchor="start" x="505.1" y="-58.4" font-family="Arial" font-size="14.00">updated_at </text>
<text text-anchor="start" x="579.06" y="-58.4" font-family="Arial" font-size="14.00" fill="#666666">[timestamp without time zone]</text>
</g>
<!-- public.tenant_memberships&#45;&gt;public.users -->
<g id="edge4" class="edge">
<title>public.tenant_memberships:user_id&#45;&gt;public.users:id</title>
<path fill="none" stroke="black" d="M814.29,-559.19C878.23,-529.74 845.8,-215.6 772.24,-215.6"/>
<polygon fill="black" stroke="black" points="814.24,-559.2 803.52,-556.93 809.03,-560.34 804.8,-561.26 804.8,-561.26 804.8,-561.26 809.03,-560.34 805.43,-565.73 814.24,-559.2"/>
<text text-anchor="start" x="811.15" y="-571.4" font-family="Arial" font-size="10.00">FOREIGN KEY (user_id) REFERENCES users(id) ON DELETE CASCADE</text>
</g>
<!-- public.sessions -->
<g id="node4" class="node">
<title>public.sessions</title>
<polygon fill="#efefef" stroke="none" points="509.79,-1012 509.79,-1047.6 759.56,-1047.6 759.56,-1012 509.79,-1012"/>
<polygon fill="none" stroke="black" points="509.79,-1012 509.79,-1047.6 759.56,-1047.6 759.56,-1012 509.79,-1012"/>
<text text-anchor="start" x="518.18" y="-1025.4" font-family="Arial Bold" font-size="18.00">public.sessions</text>
<text text-anchor="start" x="626.68" y="-1025.4" font-family="Arial" font-size="14.00">    </text>
<text text-anchor="start" x="657.8" y="-1025.4" font-family="Arial" font-size="14.00" fill="#666666">[BASE TABLE]</text>
<polygon fill="none" stroke="black" points="509.79,-981.2 509.79,-1012 759.56,-1012 759.56,-981.2 509.79,-981.2"/>
<text text-anchor="start" x="516.79" y="-993.4" font-family="Arial" font-size="14.00">session_id </text>
<text text-anchor="start" x="586.83" y="-993.4" font-family="Arial" font-size="14.00" fill="#666666">[text]</text>
<polygon fill="none" stroke="black" points="509.79,-950.4 509.79,-981.2 759.56,-981.2 759.56,-950.4 509.79,-950.4"/>
<text text-anchor="start" x="516.79" y="-962.6" font-family="Arial" font-size="14.00">user_id </text>
<text text-anchor="start" x="566.59" y="-962.6" font-family="Arial" font-size="14.00" fill="#666666">[uuid]</text>
<polygon fill="none" stroke="black" points="509.79,-919.6 509.79,-950.4 759.56,-950.4 759.56,-919.6 509.79,-919.6"/>
<text text-anchor="start" x="516.79" y="-931.8" font-family="Arial" font-size="14.00">active_membership_id </text>
<text text-anchor="start" x="660.75" y="-931.8" font-family="Arial" font-size="14.00" fill="#666666">[uuid]</text>
<polygon fill="none" stroke="black" points="509.79,-888.8 509.79,-919.6 759.56,-919.6 759.56,-888.8 509.79,-888.8"/>
<text text-anchor="start" x="516.79" y="-901" font-family="Arial" font-size="14.00">created_at </text>
<text text-anchor="start" x="586.84" y="-901" font-family="Arial" font-size="14.00" fill="#666666">[timestamp with time zone]</text>
<polygon fill="none" stroke="black" points="509.79,-858 509.79,-888.8 759.56,-888.8 759.56,-858 509.79,-858"/>
<text text-anchor="start" x="516.79" y="-870.2" font-family="Arial" font-size="14.00">expires_at </text>
<text text-anchor="start" x="585.27" y="-870.2" font-family="Arial" font-size="14.00" fill="#666666">[timestamp with time zone]</text>
<polygon fill="none" stroke="black" points="509.79,-827.2 509.79,-858 759.56,-858 759.56,-827.2 509.79,-827.2"/>
<text text-anchor="start" x="516.79" y="-839.4" font-family="Arial" font-size="14.00">csrf_token </text>
<text text-anchor="start" x="585.26" y="-839.4" font-family="Arial" font-size="14.00" fill="#666666">[text]</text>
<polygon fill="none" stroke="black" points="509.79,-796.4 509.79,-827.2 759.56,-827.2 759.56,-796.4 509.79,-796.4"/>
<text text-anchor="start" x="516.79" y="-808.6" font-family="Arial" font-size="14.00">revoked </text>
<text text-anchor="start" x="570.48" y="-808.6" font-family="Arial" font-size="14.00" fill="#666666">[boolean]</text>
</g>
<!-- public.sessions&#45;&gt;public.tenant_memberships -->
<g id="edge3" class="edge">
<title>public.sessions:active_membership_id&#45;&gt;public.tenant_memberships:id</title>
<path fill="none" stroke="black" d="M770.61,-932.84C834.55,-905.28 870.73,-623 804.15,-623"/>
<polygon fill="black" stroke="black" points="770.66,-932.83 759.94,-930.53 765.45,-933.95 761.21,-934.86 761.21,-934.86 761.21,-934.86 765.45,-933.95 761.83,-939.33 770.66,-932.83"/>
<text text-anchor="start" x="767.56" y="-945" font-family="Arial" font-size="10.00">FOREIGN KEY (active_membership_id) REFERENCES tenant_memberships(id)</text>
</g>
</g>
</svg>
