<?xml version="1.0" encoding="UTF-8" standalone="no"?>
<!DOCTYPE svg PUBLIC "-//W3C//DTD SVG 1.1//EN"
 "http://www.w3.org/Graphics/SVG/1.1/DTD/svg11.dtd">
<!-- Generated by graphviz version 12.1.2 (20240928.0832)
 -->
<!-- Title: public.tenant_memberships Pages: 1 -->
<svg width="2262pt" height="1099pt"
 viewBox="0.00 0.00 2261.53 1098.80" xmlns="http://www.w3.org/2000/svg" xmlns:xlink="http://www.w3.org/1999/xlink">
<g id="graph0" class="graph" transform="scale(1 1) rotate(0) translate(4 1094.8)">
<title>public.tenant_memberships</title>
<polygon fill="white" stroke="none" points="-4,4 -4,-1094.8 2257.53,-1094.8 2257.53,4 -4,4"/>
<!-- public.tenant_memberships -->
<g id="node1" class="node">
<title>public.tenant_memberships</title>
<polygon fill="#efefef" stroke="none" points="625.37,-635.4 625.37,-671 962.32,-671 962.32,-635.4 625.37,-635.4"/>
<polygon fill="none" stroke="black" points="625.37,-635.4 625.37,-671 962.32,-671 962.32,-635.4 625.37,-635.4"/>
<text text-anchor="start" x="632.37" y="-648.8" font-family="Arial Bold" font-size="18.00">public.tenant_memberships</text>
<text text-anchor="start" x="830.83" y="-648.8" font-family="Arial" font-size="14.00">    </text>
<text text-anchor="start" x="861.95" y="-648.8" font-family="Arial" font-size="14.00" fill="#666666">[BASE TABLE]</text>
<polygon fill="none" stroke="black" points="625.37,-604.6 625.37,-635.4 962.32,-635.4 962.32,-604.6 625.37,-604.6"/>
<text text-anchor="start" x="632.37" y="-616.8" font-family="Arial" font-size="14.00">id </text>
<text text-anchor="start" x="647.16" y="-616.8" font-family="Arial" font-size="14.00" fill="#666666">[uuid]</text>
<polygon fill="none" stroke="black" points="625.37,-573.8 625.37,-604.6 962.32,-604.6 962.32,-573.8 625.37,-573.8"/>
<text text-anchor="start" x="632.37" y="-586" font-family="Arial" font-size="14.00">tenant_id </text>
<text text-anchor="start" x="693.87" y="-586" font-family="Arial" font-size="14.00" fill="#666666">[uuid]</text>
<polygon fill="none" stroke="black" points="625.37,-543 625.37,-573.8 962.32,-573.8 962.32,-543 625.37,-543"/>
<text text-anchor="start" x="632.37" y="-555.2" font-family="Arial" font-size="14.00">user_id </text>
<text text-anchor="start" x="682.18" y="-555.2" font-family="Arial" font-size="14.00" fill="#666666">[uuid]</text>
<polygon fill="none" stroke="black" points="625.37,-512.2 625.37,-543 962.32,-543 962.32,-512.2 625.37,-512.2"/>
<text text-anchor="start" x="632.37" y="-524.4" font-family="Arial" font-size="14.00">role </text>
<text text-anchor="start" x="659.61" y="-524.4" font-family="Arial" font-size="14.00" fill="#666666">[text]</text>
<polygon fill="none" stroke="black" points="625.37,-481.4 625.37,-512.2 962.32,-512.2 962.32,-481.4 625.37,-481.4"/>
<text text-anchor="start" x="632.37" y="-493.6" font-family="Arial" font-size="14.00">status </text>
<text text-anchor="start" x="673.61" y="-493.6" font-family="Arial" font-size="14.00" fill="#666666">[text]</text>
<polygon fill="none" stroke="black" points="625.37,-450.6 625.37,-481.4 962.32,-481.4 962.32,-450.6 625.37,-450.6"/>
<text text-anchor="start" x="632.37" y="-462.8" font-family="Arial" font-size="14.00">joined_via </text>
<text text-anchor="start" x="699.31" y="-462.8" font-family="Arial" font-size="14.00" fill="#666666">[text]</text>
<polygon fill="none" stroke="black" points="625.37,-419.8 625.37,-450.6 962.32,-450.6 962.32,-419.8 625.37,-419.8"/>
<text text-anchor="start" x="632.37" y="-432" font-family="Arial" font-size="14.00">created_at </text>
<text text-anchor="start" x="702.42" y="-432" font-family="Arial" font-size="14.00" fill="#666666">[timestamp with time zone]</text>
<polygon fill="none" stroke="black" points="625.37,-389 625.37,-419.8 962.32,-419.8 962.32,-389 625.37,-389"/>
<text text-anchor="start" x="632.37" y="-401.2" font-family="Arial" font-size="14.00">left_at </text>
<text text-anchor="start" x="674.4" y="-401.2" font-family="Arial" font-size="14.00" fill="#666666">[timestamp with time zone]</text>
<polygon fill="none" stroke="black" stroke-width="3" points="623.87,-387.5 623.87,-672.5 963.82,-672.5 963.82,-387.5 623.87,-387.5"/>
</g>
<!-- public.users -->
<g id="node3" class="node">
<title>public.users</title>
<polygon fill="#efefef" stroke="none" points="235.27,-228 235.27,-263.6 508.42,-263.6 508.42,-228 235.27,-228"/>
<polygon fill="none" stroke="black" points="235.27,-228 235.27,-263.6 508.42,-263.6 508.42,-228 235.27,-228"/>
<text text-anchor="start" x="266.36" y="-241.4" font-family="Arial Bold" font-size="18.00">public.users</text>
<text text-anchor="start" x="352.84" y="-241.4" font-family="Arial" font-size="14.00">    </text>
<text text-anchor="start" x="383.96" y="-241.4" font-family="Arial" font-size="14.00" fill="#666666">[BASE TABLE]</text>
<polygon fill="none" stroke="black" points="235.27,-197.2 235.27,-228 508.42,-228 508.42,-197.2 235.27,-197.2"/>
<text text-anchor="start" x="242.27" y="-209.4" font-family="Arial" font-size="14.00">id </text>
<text text-anchor="start" x="257.06" y="-209.4" font-family="Arial" font-size="14.00" fill="#666666">[uuid]</text>
<polygon fill="none" stroke="black" points="235.27,-166.4 235.27,-197.2 508.42,-197.2 508.42,-166.4 235.27,-166.4"/>
<text text-anchor="start" x="242.27" y="-178.6" font-family="Arial" font-size="14.00">email </text>
<text text-anchor="start" x="279.62" y="-178.6" font-family="Arial" font-size="14.00" fill="#666666">[text]</text>
<polygon fill="none" stroke="black" points="235.27,-135.6 235.27,-166.4 508.42,-166.4 508.42,-135.6 235.27,-135.6"/>
<text text-anchor="start" x="242.27" y="-147.8" font-family="Arial" font-size="14.00">name </text>
<text text-anchor="start" x="281.18" y="-147.8" font-family="Arial" font-size="14.00" fill="#666666">[text]</text>
<polygon fill="none" stroke="black" points="235.27,-104.8 235.27,-135.6 508.42,-135.6 508.42,-104.8 235.27,-104.8"/>
<text text-anchor="start" x="242.27" y="-117" font-family="Arial" font-size="14.00">icon </text>
<text text-anchor="start" x="271.85" y="-117" font-family="Arial" font-size="14.00" fill="#666666">[text]</text>
<polygon fill="none" stroke="black" points="235.27,-74 235.27,-104.8 508.42,-104.8 508.42,-74 235.27,-74"/>
<text text-anchor="start" x="242.27" y="-86.2" font-family="Arial" font-size="14.00">created_at </text>
<text text-anchor="start" x="312.32" y="-86.2" font-family="Arial" font-size="14.00" fill="#666666">[timestamp without time zone]</text>
<polygon fill="none" stroke="black" points="235.27,-43.2 235.27,-74 508.42,-74 508.42,-43.2 235.27,-43.2"/>
<text text-anchor="start" x="242.27" y="-55.4" font-family="Arial" font-size="14.00">updated_at </text>
<text text-anchor="start" x="316.23" y="-55.4" font-family="Arial" font-size="14.00" fill="#666666">[timestamp without time zone]</text>
</g>
<!-- public.tenant_memberships&#45;&gt;public.users -->
<g id="edge7" class="edge">
<title>public.tenant_memberships:user_id&#45;&gt;public.users:id</title>
<path fill="none" stroke="black" d="M614.1,-557.9C531.3,-549.34 602.74,-432.36 570.85,-342.8 549.38,-282.52 573.4,-212.6 509.42,-212.6"/>
<polygon fill="black" stroke="black" points="614.05,-557.9 623.82,-562.88 619.38,-558.16 623.7,-558.37 623.7,-558.37 623.7,-558.37 619.38,-558.16 624.26,-553.89 614.05,-557.9"/>
<text text-anchor="start" x="631.37" y="-568.4" font-family="Arial" font-size="10.00">FOREIGN KEY (user_id) REFERENCES users(id) ON DELETE CASCADE</text>
</g>
<!-- public.tenants -->
<g id="node4" class="node">
<title>public.tenants</title>
<polygon fill="#efefef" stroke="none" points="1301,-228 1301,-263.6 1554.69,-263.6 1554.69,-228 1301,-228"/>
<polygon fill="none" stroke="black" points="1301,-228 1301,-263.6 1554.69,-263.6 1554.69,-228 1301,-228"/>
<text text-anchor="start" x="1315.36" y="-241.4" font-family="Arial Bold" font-size="18.00">public.tenants</text>
<text text-anchor="start" x="1415.84" y="-241.4" font-family="Arial" font-size="14.00">    </text>
<text text-anchor="start" x="1446.96" y="-241.4" font-family="Arial" font-size="14.00" fill="#666666">[BASE TABLE]</text>
<polygon fill="none" stroke="black" points="1301,-197.2 1301,-228 1554.69,-228 1554.69,-197.2 1301,-197.2"/>
<text text-anchor="start" x="1308" y="-209.4" font-family="Arial" font-size="14.00">id </text>
<text text-anchor="start" x="1322.79" y="-209.4" font-family="Arial" font-size="14.00" fill="#666666">[uuid]</text>
<polygon fill="none" stroke="black" points="1301,-166.4 1301,-197.2 1554.69,-197.2 1554.69,-166.4 1301,-166.4"/>
<text text-anchor="start" x="1308" y="-178.6" font-family="Arial" font-size="14.00">name </text>
<text text-anchor="start" x="1346.92" y="-178.6" font-family="Arial" font-size="14.00" fill="#666666">[text]</text>
<polygon fill="none" stroke="black" points="1301,-135.6 1301,-166.4 1554.69,-166.4 1554.69,-135.6 1301,-135.6"/>
<text text-anchor="start" x="1308" y="-147.8" font-family="Arial" font-size="14.00">slug </text>
<text text-anchor="start" x="1337.58" y="-147.8" font-family="Arial" font-size="14.00" fill="#666666">[text]</text>
<polygon fill="none" stroke="black" points="1301,-104.8 1301,-135.6 1554.69,-135.6 1554.69,-104.8 1301,-104.8"/>
<text text-anchor="start" x="1308" y="-117" font-family="Arial" font-size="14.00">password_hash </text>
<text text-anchor="start" x="1409.96" y="-117" font-family="Arial" font-size="14.00" fill="#666666">[text]</text>
<polygon fill="none" stroke="black" points="1301,-74 1301,-104.8 1554.69,-104.8 1554.69,-74 1301,-74"/>
<text text-anchor="start" x="1308" y="-86.2" font-family="Arial" font-size="14.00">created_at </text>
<text text-anchor="start" x="1378.05" y="-86.2" font-family="Arial" font-size="14.00" fill="#666666">[timestamp with time zone]</text>
<polygon fill="none" stroke="black" points="1301,-43.2 1301,-74 1554.69,-74 1554.69,-43.2 1301,-43.2"/>
<text text-anchor="start" x="1308" y="-55.4" font-family="Arial" font-size="14.00">updated_at </text>
<text text-anchor="start" x="1381.96" y="-55.4" font-family="Arial" font-size="14.00" fill="#666666">[timestamp with time zone]</text>
</g>
<!-- public.tenant_memberships&#45;&gt;public.tenants -->
<g id="edge3" class="edge">
<title>public.tenant_memberships:tenant_id&#45;&gt;public.tenants:id</title>
<path fill="none" stroke="black" d="M973.71,-588.68C1067.2,-578.72 949.82,-427.24 1017.85,-342.8 1104.49,-235.25 1161.89,-212.6 1300,-212.6"/>
<polygon fill="black" stroke="black" points="973.64,-588.69 963.43,-584.69 968.31,-588.95 963.99,-589.17 963.99,-589.17 963.99,-589.17 968.31,-588.95 963.88,-593.68 973.64,-588.69"/>
<text text-anchor="start" x="970.32" y="-599.2" font-family="Arial" font-size="10.00">FOREIGN KEY (tenant_id) REFERENCES tenants(id) ON DELETE CASCADE</text>
</g>
<!-- public.sessions -->
<g id="node2" class="node">
<title>public.sessions</title>
<polygon fill="#efefef" stroke="none" points="348.96,-1012 348.96,-1047.6 598.73,-1047.6 598.73,-1012 348.96,-1012"/>
<polygon fill="none" stroke="black" points="348.96,-1012 348.96,-1047.6 598.73,-1047.6 598.73,-1012 348.96,-1012"/>
<text text-anchor="start" x="357.35" y="-1025.4" font-family="Arial Bold" font-size="18.00">public.sessions</text>
<text text-anchor="start" x="465.85" y="-1025.4" font-family="Arial" font-size="14.00">    </text>
<text text-anchor="start" x="496.97" y="-1025.4" font-family="Arial" font-size="14.00" fill="#666666">[BASE TABLE]</text>
<polygon fill="none" stroke="black" points="348.96,-981.2 348.96,-1012 598.73,-1012 598.73,-981.2 348.96,-981.2"/>
<text text-anchor="start" x="355.96" y="-993.4" font-family="Arial" font-size="14.00">session_id </text>
<text text-anchor="start" x="426" y="-993.4" font-family="Arial" font-size="14.00" fill="#666666">[text]</text>
<polygon fill="none" stroke="black" points="348.96,-950.4 348.96,-981.2 598.73,-981.2 598.73,-950.4 348.96,-950.4"/>
<text text-anchor="start" x="355.96" y="-962.6" font-family="Arial" font-size="14.00">user_id </text>
<text text-anchor="start" x="405.77" y="-962.6" font-family="Arial" font-size="14.00" fill="#666666">[uuid]</text>
<polygon fill="none" stroke="black" points="348.96,-919.6 348.96,-950.4 598.73,-950.4 598.73,-919.6 348.96,-919.6"/>
<text text-anchor="start" x="355.96" y="-931.8" font-family="Arial" font-size="14.00">active_membership_id </text>
<text text-anchor="start" x="499.92" y="-931.8" font-family="Arial" font-size="14.00" fill="#666666">[uuid]</text>
<polygon fill="none" stroke="black" points="348.96,-888.8 348.96,-919.6 598.73,-919.6 598.73,-888.8 348.96,-888.8"/>
<text text-anchor="start" x="355.96" y="-901" font-family="Arial" font-size="14.00">created_at </text>
<text text-anchor="start" x="426.01" y="-901" font-family="Arial" font-size="14.00" fill="#666666">[timestamp with time zone]</text>
<polygon fill="none" stroke="black" points="348.96,-858 348.96,-888.8 598.73,-888.8 598.73,-858 348.96,-858"/>
<text text-anchor="start" x="355.96" y="-870.2" font-family="Arial" font-size="14.00">expires_at </text>
<text text-anchor="start" x="424.44" y="-870.2" font-family="Arial" font-size="14.00" fill="#666666">[timestamp with time zone]</text>
<polygon fill="none" stroke="black" points="348.96,-827.2 348.96,-858 598.73,-858 598.73,-827.2 348.96,-827.2"/>
<text text-anchor="start" x="355.96" y="-839.4" font-family="Arial" font-size="14.00">csrf_token </text>
<text text-anchor="start" x="424.44" y="-839.4" font-family="Arial" font-size="14.00" fill="#666666">[text]</text>
<polygon fill="none" stroke="black" points="348.96,-796.4 348.96,-827.2 598.73,-827.2 598.73,-796.4 348.96,-796.4"/>
<text text-anchor="start" x="355.96" y="-808.6" font-family="Arial" font-size="14.00">revoked </text>
<text text-anchor="start" x="409.66" y="-808.6" font-family="Arial" font-size="14.00" fill="#666666">[boolean]</text>
</g>
<!-- public.sessions&#45;&gt;public.tenant_memberships -->
<g id="edge1" class="edge">
<title>public.sessions:active_membership_id&#45;&gt;public.tenant_memberships:id</title>
<path fill="none" stroke="black" d="M610.03,-934.35C726.92,-918.61 487.65,-620 624.37,-620"/>
<polygon fill="black" stroke="black" points="610.05,-934.35 599.78,-930.49 604.72,-934.69 600.4,-934.96 600.4,-934.96 600.4,-934.96 604.72,-934.69 600.35,-939.47 610.05,-934.35"/>
<text text-anchor="start" x="606.73" y="-945" font-family="Arial" font-size="10.00">FOREIGN KEY (active_membership_id) REFERENCES tenant_memberships(id)</text>
</g>
<!-- public.sessions&#45;&gt;public.users -->
<g id="edge2" class="edge">
<title>public.sessions:user_id&#45;&gt;public.users:id</title>
<path fill="none" stroke="black" d="M337.55,-965.55C212.83,-959.48 212.59,-842.64 172.85,-717.2 138.73,-609.51 121.31,-212.6 234.27,-212.6"/>
<polygon fill="black" stroke="black" points="337.63,-965.55 347.52,-970.29 342.96,-965.68 347.29,-965.78 347.29,-965.78 347.29,-965.78 342.96,-965.68 347.73,-961.29 337.63,-965.55"/>
<text text-anchor="start" x="7" y="-975.8" font-family="Arial" font-size="10.00">FOREIGN KEY (user_id) REFERENCES users(id) ON DELETE CASCADE</text>
</g>
<!-- public.tenant_domains -->
<g id="node5" class="node">
<title>public.tenant_domains</title>
<polygon fill="#efefef" stroke="none" points="1069.87,-573.8 1069.87,-609.4 1371.82,-609.4 1371.82,-573.8 1069.87,-573.8"/>
<polygon fill="none" stroke="black" points="1069.87,-573.8 1069.87,-609.4 1371.82,-609.4 1371.82,-573.8 1069.87,-573.8"/>
<text text-anchor="start" x="1076.87" y="-587.2" font-family="Arial Bold" font-size="18.00">public.tenant_domains</text>
<text text-anchor="start" x="1240.33" y="-587.2" font-family="Arial" font-size="14.00">    </text>
<text text-anchor="start" x="1271.45" y="-587.2" font-family="Arial" font-size="14.00" fill="#666666">[BASE TABLE]</text>
<polygon fill="none" stroke="black" points="1069.87,-543 1069.87,-573.8 1371.82,-573.8 1371.82,-543 1069.87,-543"/>
<text text-anchor="start" x="1076.87" y="-555.2" font-family="Arial" font-size="14.00">id </text>
<text text-anchor="start" x="1091.65" y="-555.2" font-family="Arial" font-size="14.00" fill="#666666">[uuid]</text>
<polygon fill="none" stroke="black" points="1069.87,-512.2 1069.87,-543 1371.82,-543 1371.82,-512.2 1069.87,-512.2"/>
<text text-anchor="start" x="1076.87" y="-524.4" font-family="Arial" font-size="14.00">tenant_id </text>
<text text-anchor="start" x="1138.36" y="-524.4" font-family="Arial" font-size="14.00" fill="#666666">[uuid]</text>
<polygon fill="none" stroke="black" points="1069.87,-481.4 1069.87,-512.2 1371.82,-512.2 1371.82,-481.4 1069.87,-481.4"/>
<text text-anchor="start" x="1076.87" y="-493.6" font-family="Arial" font-size="14.00">domain </text>
<text text-anchor="start" x="1126.67" y="-493.6" font-family="Arial" font-size="14.00" fill="#666666">[text]</text>
<polygon fill="none" stroke="black" points="1069.87,-450.6 1069.87,-481.4 1371.82,-481.4 1371.82,-450.6 1069.87,-450.6"/>
<text text-anchor="start" x="1076.87" y="-462.8" font-family="Arial" font-size="14.00">created_at </text>
<text text-anchor="start" x="1146.92" y="-462.8" font-family="Arial" font-size="14.00" fill="#666666">[timestamp with time zone]</text>
</g>
<!-- public.tenant_domains&#45;&gt;public.tenants -->
<g id="edge4" class="edge">
<title>public.tenant_domains:tenant_id&#45;&gt;public.tenants:id</title>
<path fill="none" stroke="black" d="M1383.08,-527.21C1496.26,-517.93 1314.24,-347.82 1301,-306.8 1288.15,-266.95 1258.14,-212.6 1300,-212.6"/>
<polygon fill="black" stroke="black" points="1383.15,-527.2 1372.99,-523.09 1377.82,-527.41 1373.49,-527.57 1373.49,-527.57 1373.49,-527.57 1377.82,-527.41 1373.33,-532.08 1383.15,-527.2"/>
<text text-anchor="start" x="1015.17" y="-537.6" font-family="Arial" font-size="10.00">FOREIGN KEY (tenant_id) REFERENCES tenants(id) ON DELETE CASCADE</text>
</g>
<!-- public.tenant_join_codes -->
<g id="node6" class="node">
<title>public.tenant_join_codes</title>
<polygon fill="#efefef" stroke="none" points="1476.37,-620 1476.37,-655.6 1795.32,-655.6 1795.32,-620 1476.37,-620"/>
<polygon fill="none" stroke="black" points="1476.37,-620 1476.37,-655.6 1795.32,-655.6 1795.32,-620 1476.37,-620"/>
<text text-anchor="start" x="1483.37" y="-633.4" font-family="Arial Bold" font-size="18.00">public.tenant_join_codes</text>
<text text-anchor="start" x="1663.83" y="-633.4" font-family="Arial" font-size="14.00">    </text>
<text text-anchor="start" x="1694.95" y="-633.4" font-family="Arial" font-size="14.00" fill="#666666">[BASE TABLE]</text>
<polygon fill="none" stroke="black" points="1476.37,-589.2 1476.37,-620 1795.32,-620 1795.32,-589.2 1476.37,-589.2"/>
<text text-anchor="start" x="1483.37" y="-601.4" font-family="Arial" font-size="14.00">id </text>
<text text-anchor="start" x="1498.16" y="-601.4" font-family="Arial" font-size="14.00" fill="#666666">[uuid]</text>
<polygon fill="none" stroke="black" points="1476.37,-558.4 1476.37,-589.2 1795.32,-589.2 1795.32,-558.4 1476.37,-558.4"/>
<text text-anchor="start" x="1483.37" y="-570.6" font-family="Arial" font-size="14.00">tenant_id </text>
<text text-anchor="start" x="1544.87" y="-570.6" font-family="Arial" font-size="14.00" fill="#666666">[uuid]</text>
<polygon fill="none" stroke="black" points="1476.37,-527.6 1476.37,-558.4 1795.32,-558.4 1795.32,-527.6 1476.37,-527.6"/>
<text text-anchor="start" x="1483.37" y="-539.8" font-family="Arial" font-size="14.00">code </text>
<text text-anchor="start" x="1517.62" y="-539.8" font-family="Arial" font-size="14.00" fill="#666666">[text]</text>
<polygon fill="none" stroke="black" points="1476.37,-496.8 1476.37,-527.6 1795.32,-527.6 1795.32,-496.8 1476.37,-496.8"/>
<text text-anchor="start" x="1483.37" y="-509" font-family="Arial" font-size="14.00">expires_at </text>
<text text-anchor="start" x="1551.85" y="-509" font-family="Arial" font-size="14.00" fill="#666666">[timestamp with time zone]</text>
<polygon fill="none" stroke="black" points="1476.37,-466 1476.37,-496.8 1795.32,-496.8 1795.32,-466 1476.37,-466"/>
<text text-anchor="start" x="1483.37" y="-478.2" font-family="Arial" font-size="14.00">max_uses </text>
<text text-anchor="start" x="1551.07" y="-478.2" font-family="Arial" font-size="14.00" fill="#666666">[integer]</text>
<polygon fill="none" stroke="black" points="1476.37,-435.2 1476.37,-466 1795.32,-466 1795.32,-435.2 1476.37,-435.2"/>
<text text-anchor="start" x="1483.37" y="-447.4" font-family="Arial" font-size="14.00">used_count </text>
<text text-anchor="start" x="1559.65" y="-447.4" font-family="Arial" font-size="14.00" fill="#666666">[integer]</text>
<polygon fill="none" stroke="black" points="1476.37,-404.4 1476.37,-435.2 1795.32,-435.2 1795.32,-404.4 1476.37,-404.4"/>
<text text-anchor="start" x="1483.37" y="-416.6" font-family="Arial" font-size="14.00">created_at </text>
<text text-anchor="start" x="1553.42" y="-416.6" font-family="Arial" font-size="14.00" fill="#666666">[timestamp with time zone]</text>
</g>
<!-- public.tenant_join_codes&#45;&gt;public.tenants -->
<g id="edge5" class="edge">
<title>public.tenant_join_codes:tenant_id&#45;&gt;public.tenants:id</title>
<path fill="none" stroke="black" d="M1465.61,-570.82C1432.2,-547.9 1456.1,-399.75 1476.37,-361.2 1496.1,-323.69 1534.85,-344.25 1554.69,-306.8 1574.29,-269.8 1597.56,-212.6 1555.69,-212.6"/>
<polygon fill="black" stroke="black" points="1465.49,-570.78 1473.74,-578.01 1470.59,-572.34 1474.73,-573.6 1474.73,-573.6 1474.73,-573.6 1470.59,-572.34 1476.37,-569.4 1465.49,-570.78"/>
<text text-anchor="start" x="1482.37" y="-583.8" font-family="Arial" font-size="10.00">FOREIGN KEY (tenant_id) REFERENCES tenants(id) ON DELETE CASCADE</text>
</g>
<!-- public.console_sessions -->
<g id="node7" class="node">
<title>public.console_sessions</title>
<polygon fill="#efefef" stroke="none" points="1899.36,-573.8 1899.36,-609.4 2210.33,-609.4 2210.33,-573.8 1899.36,-573.8"/>
<polygon fill="none" stroke="black" points="1899.36,-573.8 1899.36,-609.4 2210.33,-609.4 2210.33,-573.8 1899.36,-573.8"/>
<text text-anchor="start" x="1906.36" y="-587.2" font-family="Arial Bold" font-size="18.00">public.console_sessions</text>
<text text-anchor="start" x="2078.84" y="-587.2" font-family="Arial" font-size="14.00">    </text>
<text text-anchor="start" x="2109.96" y="-587.2" font-family="Arial" font-size="14.00" fill="#666666">[BASE TABLE]</text>
<polygon fill="none" stroke="black" points="1899.36,-543 1899.36,-573.8 2210.33,-573.8 2210.33,-543 1899.36,-543"/>
<text text-anchor="start" x="1906.36" y="-555.2" font-family="Arial" font-size="14.00">session_id </text>
<text text-anchor="start" x="1976.4" y="-555.2" font-family="Arial" font-size="14.00" fill="#666666">[text]</text>
<polygon fill="none" stroke="black" points="1899.36,-512.2 1899.36,-543 2210.33,-543 2210.33,-512.2 1899.36,-512.2"/>
<text text-anchor="start" x="1906.36" y="-524.4" font-family="Arial" font-size="14.00">tenant_id </text>
<text text-anchor="start" x="1967.85" y="-524.4" font-family="Arial" font-size="14.00" fill="#666666">[uuid]</text>
<polygon fill="none" stroke="black" points="1899.36,-481.4 1899.36,-512.2 2210.33,-512.2 2210.33,-481.4 1899.36,-481.4"/>
<text text-anchor="start" x="1906.36" y="-493.6" font-family="Arial" font-size="14.00">created_at </text>
<text text-anchor="start" x="1976.41" y="-493.6" font-family="Arial" font-size="14.00" fill="#666666">[timestamp with time zone]</text>
<polygon fill="none" stroke="black" points="1899.36,-450.6 1899.36,-481.4 2210.33,-481.4 2210.33,-450.6 1899.36,-450.6"/>
<text text-anchor="start" x="1906.36" y="-462.8" font-family="Arial" font-size="14.00">expires_at </text>
<text text-anchor="start" x="1974.84" y="-462.8" font-family="Arial" font-size="14.00" fill="#666666">[timestamp with time zone]</text>
</g>
<!-- public.console_sessions&#45;&gt;public.tenants -->
<g id="edge6" class="edge">
<title>public.console_sessions:tenant_id&#45;&gt;public.tenants:id</title>
<path fill="none" stroke="black" d="M1888.33,-526.95C1820.68,-517.37 1900.91,-404.64 1847.85,-342.8 1755.27,-234.92 1697.85,-212.6 1555.69,-212.6"/>
<polygon fill="black" stroke="black" points="1888.05,-526.93 1897.73,-532.07 1893.37,-527.28 1897.69,-527.56 1897.69,-527.56 1897.69,-527.56 1893.37,-527.28 1898.32,-523.09 1888.05,-526.93"/>
<text text-anchor="start" x="1631.86" y="-511.6" font-family="Arial" font-size="10.00">FOREIGN KEY (tenant_id) REFERENCES tenants(id) ON DELETE CASCADE</text>
</g>
<!-- public.user_identities -->
<g id="node8" class="node">
<title>public.user_identities</title>
<polygon fill="#efefef" stroke="none" points="225.37,-604.6 225.37,-640.2 518.32,-640.2 518.32,-604.6 225.37,-604.6"/>
<polygon fill="none" stroke="black" points="225.37,-604.6 225.37,-640.2 518.32,-640.2 518.32,-604.6 225.37,-604.6"/>
<text text-anchor="start" x="232.37" y="-618" font-family="Arial Bold" font-size="18.00">public.user_identities</text>
<text text-anchor="start" x="386.83" y="-618" font-family="Arial" font-size="14.00">    </text>
<text text-anchor="start" x="417.95" y="-618" font-family="Arial" font-size="14.00" fill="#666666">[BASE TABLE]</text>
<polygon fill="none" stroke="black" points="225.37,-573.8 225.37,-604.6 518.32,-604.6 518.32,-573.8 225.37,-573.8"/>
<text text-anchor="start" x="232.37" y="-586" font-family="Arial" font-size="14.00">id </text>
<text text-anchor="start" x="247.15" y="-586" font-family="Arial" font-size="14.00" fill="#666666">[uuid]</text>
<polygon fill="none" stroke="black" points="225.37,-543 225.37,-573.8 518.32,-573.8 518.32,-543 225.37,-543"/>
<text text-anchor="start" x="232.37" y="-555.2" font-family="Arial" font-size="14.00">user_id </text>
<text text-anchor="start" x="282.17" y="-555.2" font-family="Arial" font-size="14.00" fill="#666666">[uuid]</text>
<polygon fill="none" stroke="black" points="225.37,-512.2 225.37,-543 518.32,-543 518.32,-512.2 225.37,-512.2"/>
<text text-anchor="start" x="232.37" y="-524.4" font-family="Arial" font-size="14.00">provider </text>
<text text-anchor="start" x="286.84" y="-524.4" font-family="Arial" font-size="14.00" fill="#666666">[text]</text>
<polygon fill="none" stroke="black" points="225.37,-481.4 225.37,-512.2 518.32,-512.2 518.32,-481.4 225.37,-481.4"/>
<text text-anchor="start" x="232.37" y="-493.6" font-family="Arial" font-size="14.00">provider_sub </text>
<text text-anchor="start" x="317.19" y="-493.6" font-family="Arial" font-size="14.00" fill="#666666">[text]</text>
<polygon fill="none" stroke="black" points="225.37,-450.6 225.37,-481.4 518.32,-481.4 518.32,-450.6 225.37,-450.6"/>
<text text-anchor="start" x="232.37" y="-462.8" font-family="Arial" font-size="14.00">created_at </text>
<text text-anchor="start" x="302.42" y="-462.8" font-family="Arial" font-size="14.00" fill="#666666">[timestamp with time zone]</text>
<polygon fill="none" stroke="black" points="225.37,-419.8 225.37,-450.6 518.32,-450.6 518.32,-419.8 225.37,-419.8"/>
<text text-anchor="start" x="232.37" y="-432" font-family="Arial" font-size="14.00">updated_at </text>
<text text-anchor="start" x="306.33" y="-432" font-family="Arial" font-size="14.00" fill="#666666">[timestamp with time zone]</text>
</g>
<!-- public.user_identities&#45;&gt;public.users -->
<g id="edge8" class="edge">
<title>public.user_identities:user_id&#45;&gt;public.users:id</title>
<path fill="none" stroke="black" d="M527.64,-552.1C555.99,-505.24 544.78,-212.6 509.42,-212.6"/>
<polygon fill="black" stroke="black" points="527.56,-552.16 516.87,-554.61 523.31,-555.38 519.86,-558 519.86,-558 519.86,-558 523.31,-555.38 522.31,-561.79 527.56,-552.16"/>
<text text-anchor="start" x="178.36" y="-568.4" font-family="Arial" font-size="10.00">FOREIGN KEY (user_id) REFERENCES users(id) ON DELETE CASCADE</text>
</g>
</g>
</svg>
