<?xml version="1.0" encoding="UTF-8" standalone="no"?>
<!DOCTYPE svg PUBLIC "-//W3C//DTD SVG 1.1//EN"
 "http://www.w3.org/Graphics/SVG/1.1/DTD/svg11.dtd">
<!-- Generated by graphviz version 12.1.2 (20240928.0832)
 -->
<!-- Title: public.users Pages: 1 -->
<svg width="1190pt" height="1062pt"
 viewBox="0.00 0.00 1189.81 1062.00" xmlns="http://www.w3.org/2000/svg" xmlns:xlink="http://www.w3.org/1999/xlink">
<g id="graph0" class="graph" transform="scale(1 1) rotate(0) translate(4 1058)">
<title>public.users</title>
<polygon fill="white" stroke="none" points="-4,4 -4,-1058 1185.81,-1058 1185.81,4 -4,4"/>
<!-- public.users -->
<g id="node1" class="node">
<title>public.users</title>
<polygon fill="#efefef" stroke="none" points="205.11,-243.4 205.11,-279 478.25,-279 478.25,-243.4 205.11,-243.4"/>
<polygon fill="none" stroke="black" points="205.11,-243.4 205.11,-279 478.25,-279 478.25,-243.4 205.11,-243.4"/>
<text text-anchor="start" x="236.19" y="-256.8" font-family="Arial Bold" font-size="18.00">public.users</text>
<text text-anchor="start" x="322.68" y="-256.8" font-family="Arial" font-size="14.00">    </text>
<text text-anchor="start" x="353.79" y="-256.8" font-family="Arial" font-size="14.00" fill="#666666">[BASE TABLE]</text>
<polygon fill="none" stroke="black" points="205.11,-212.6 205.11,-243.4 478.25,-243.4 478.25,-212.6 205.11,-212.6"/>
<text text-anchor="start" x="212.11" y="-224.8" font-family="Arial" font-size="14.00">id </text>
<text text-anchor="start" x="226.89" y="-224.8" font-family="Arial" font-size="14.00" fill="#666666">[uuid]</text>
<polygon fill="none" stroke="black" points="205.11,-181.8 205.11,-212.6 478.25,-212.6 478.25,-181.8 205.11,-181.8"/>
<text text-anchor="start" x="212.11" y="-194" font-family="Arial" font-size="14.00">email </text>
<text text-anchor="start" x="249.45" y="-194" font-family="Arial" font-size="14.00" fill="#666666">[text]</text>
<polygon fill="none" stroke="black" points="205.11,-151 205.11,-181.8 478.25,-181.8 478.25,-151 205.11,-151"/>
<text text-anchor="start" x="212.11" y="-163.2" font-family="Arial" font-size="14.00">name </text>
<text text-anchor="start" x="251.02" y="-163.2" font-family="Arial" font-size="14.00" fill="#666666">[text]</text>
<polygon fill="none" stroke="black" points="205.11,-120.2 205.11,-151 478.25,-151 478.25,-120.2 205.11,-120.2"/>
<text text-anchor="start" x="212.11" y="-132.4" font-family="Arial" font-size="14.00">icon </text>
<text text-anchor="start" x="241.68" y="-132.4" font-family="Arial" font-size="14.00" fill="#666666">[text]</text>
<polygon fill="none" stroke="black" points="205.11,-89.4 205.11,-120.2 478.25,-120.2 478.25,-89.4 205.11,-89.4"/>
<text text-anchor="start" x="212.11" y="-101.6" font-family="Arial" font-size="14.00">created_at </text>
<text text-anchor="start" x="282.15" y="-101.6" font-family="Arial" font-size="14.00" fill="#666666">[timestamp without time zone]</text>
<polygon fill="none" stroke="black" points="205.11,-58.6 205.11,-89.4 478.25,-89.4 478.25,-58.6 205.11,-58.6"/>
<text text-anchor="start" x="212.11" y="-70.8" font-family="Arial" font-size="14.00">updated_at </text>
<text text-anchor="start" x="286.06" y="-70.8" font-family="Arial" font-size="14.00" fill="#666666">[timestamp without time zone]</text>
<polygon fill="none" stroke="black" stroke-width="3" points="203.61,-57.1 203.61,-280.5 479.75,-280.5 479.75,-57.1 203.61,-57.1"/>
</g>
<!-- public.user_identities -->
<g id="node2" class="node">
<title>public.user_identities</title>
<polygon fill="#efefef" stroke="none" points="43.2,-601.6 43.2,-637.2 336.16,-637.2 336.16,-601.6 43.2,-601.6"/>
<polygon fill="none" stroke="black" points="43.2,-601.6 43.2,-637.2 336.16,-637.2 336.16,-601.6 43.2,-601.6"/>
<text text-anchor="start" x="50.2" y="-615" font-family="Arial Bold" font-size="18.00">public.user_identities</text>
<text text-anchor="start" x="204.67" y="-615" font-family="Arial" font-size="14.00">    </text>
<text text-anchor="start" x="235.78" y="-615" font-family="Arial" font-size="14.00" fill="#666666">[BASE TABLE]</text>
<polygon fill="none" stroke="black" points="43.2,-570.8 43.2,-601.6 336.16,-601.6 336.16,-570.8 43.2,-570.8"/>
<text text-anchor="start" x="50.2" y="-583" font-family="Arial" font-size="14.00">id </text>
<text text-anchor="start" x="64.99" y="-583" font-family="Arial" font-size="14.00" fill="#666666">[uuid]</text>
<polygon fill="none" stroke="black" points="43.2,-540 43.2,-570.8 336.16,-570.8 336.16,-540 43.2,-540"/>
<text text-anchor="start" x="50.2" y="-552.2" font-family="Arial" font-size="14.00">user_id </text>
<text text-anchor="start" x="100.01" y="-552.2" font-family="Arial" font-size="14.00" fill="#666666">[uuid]</text>
<polygon fill="none" stroke="black" points="43.2,-509.2 43.2,-540 336.16,-540 336.16,-509.2 43.2,-509.2"/>
<text text-anchor="start" x="50.2" y="-521.4" font-family="Arial" font-size="14.00">provider </text>
<text text-anchor="start" x="104.67" y="-521.4" font-family="Arial" font-size="14.00" fill="#666666">[text]</text>
<polygon fill="none" stroke="black" points="43.2,-478.4 43.2,-509.2 336.16,-509.2 336.16,-478.4 43.2,-478.4"/>
<text text-anchor="start" x="50.2" y="-490.6" font-family="Arial" font-size="14.00">provider_sub </text>
<text text-anchor="start" x="135.03" y="-490.6" font-family="Arial" font-size="14.00" fill="#666666">[text]</text>
<polygon fill="none" stroke="black" points="43.2,-447.6 43.2,-478.4 336.16,-478.4 336.16,-447.6 43.2,-447.6"/>
<text text-anchor="start" x="50.2" y="-459.8" font-family="Arial" font-size="14.00">created_at </text>
<text text-anchor="start" x="120.25" y="-459.8" font-family="Arial" font-size="14.00" fill="#666666">[timestamp with time zone]</text>
<polygon fill="none" stroke="black" points="43.2,-416.8 43.2,-447.6 336.16,-447.6 336.16,-416.8 43.2,-416.8"/>
<text text-anchor="start" x="50.2" y="-429" font-family="Arial" font-size="14.00">updated_at </text>
<text text-anchor="start" x="124.16" y="-429" font-family="Arial" font-size="14.00" fill="#666666">[timestamp with time zone]</text>
</g>
<!-- public.user_identities&#45;&gt;public.users -->
<g id="edge1" class="edge">
<title>public.user_identities:user_id&#45;&gt;public.users:id</title>
<path fill="none" stroke="black" d="M347.35,-554.71C414.75,-545.11 380.45,-436.8 336.16,-373.6 300.52,-322.75 240.86,-375.96 205.11,-325.2 180.23,-289.88 160.9,-228 204.11,-228"/>
<polygon fill="black" stroke="black" points="347.47,-554.71 337.19,-550.89 342.15,-555.06 337.82,-555.36 337.82,-555.36 337.82,-555.36 342.15,-555.06 337.79,-559.87 347.47,-554.71"/>
<text text-anchor="start" x="344.16" y="-565.4" font-family="Arial" font-size="10.00">FOREIGN KEY (user_id) REFERENCES users(id) ON DELETE CASCADE</text>
</g>
<!-- public.sessions -->
<g id="node3" class="node">
<title>public.sessions</title>
<polygon fill="#efefef" stroke="none" points="402.79,-975.2 402.79,-1010.8 652.56,-1010.8 652.56,-975.2 402.79,-975.2"/>
<polygon fill="none" stroke="black" points="402.79,-975.2 402.79,-1010.8 652.56,-1010.8 652.56,-975.2 402.79,-975.2"/>
<text text-anchor="start" x="411.18" y="-988.6" font-family="Arial Bold" font-size="18.00">public.sessions</text>
<text text-anchor="start" x="519.68" y="-988.6" font-family="Arial" font-size="14.00">    </text>
<text text-anchor="start" x="550.8" y="-988.6" font-family="Arial" font-size="14.00" fill="#666666">[BASE TABLE]</text>
<polygon fill="none" stroke="black" points="402.79,-944.4 402.79,-975.2 652.56,-975.2 652.56,-944.4 402.79,-944.4"/>
<text text-anchor="start" x="409.79" y="-956.6" font-family="Arial" font-size="14.00">session_id </text>
<text text-anchor="start" x="479.83" y="-956.6" font-family="Arial" font-size="14.00" fill="#666666">[text]</text>
<polygon fill="none" stroke="black" points="402.79,-913.6 402.79,-944.4 652.56,-944.4 652.56,-913.6 402.79,-913.6"/>
<text text-anchor="start" x="409.79" y="-925.8" font-family="Arial" font-size="14.00">user_id </text>
<text text-anchor="start" x="459.6" y="-925.8" font-family="Arial" font-size="14.00" fill="#666666">[uuid]</text>
<polygon fill="none" stroke="black" points="402.79,-882.8 402.79,-913.6 652.56,-913.6 652.56,-882.8 402.79,-882.8"/>
<text text-anchor="start" x="409.79" y="-895" font-family="Arial" font-size="14.00">active_membership_id </text>
<text text-anchor="start" x="553.75" y="-895" font-family="Arial" font-size="14.00" fill="#666666">[uuid]</text>
<polygon fill="none" stroke="black" points="402.79,-852 402.79,-882.8 652.56,-882.8 652.56,-852 402.79,-852"/>
<text text-anchor="start" x="409.79" y="-864.2" font-family="Arial" font-size="14.00">created_at </text>
<text text-anchor="start" x="479.84" y="-864.2" font-family="Arial" font-size="14.00" fill="#666666">[timestamp with time zone]</text>
<polygon fill="none" stroke="black" points="402.79,-821.2 402.79,-852 652.56,-852 652.56,-821.2 402.79,-821.2"/>
<text text-anchor="start" x="409.79" y="-833.4" font-family="Arial" font-size="14.00">expires_at </text>
<text text-anchor="start" x="478.28" y="-833.4" font-family="Arial" font-size="14.00" fill="#666666">[timestamp with time zone]</text>
<polygon fill="none" stroke="black" points="402.79,-790.4 402.79,-821.2 652.56,-821.2 652.56,-790.4 402.79,-790.4"/>
<text text-anchor="start" x="409.79" y="-802.6" font-family="Arial" font-size="14.00">csrf_token </text>
<text text-anchor="start" x="478.27" y="-802.6" font-family="Arial" font-size="14.00" fill="#666666">[text]</text>
<polygon fill="none" stroke="black" points="402.79,-759.6 402.79,-790.4 652.56,-790.4 652.56,-759.6 402.79,-759.6"/>
<text text-anchor="start" x="409.79" y="-771.8" font-family="Arial" font-size="14.00">revoked </text>
<text text-anchor="start" x="463.49" y="-771.8" font-family="Arial" font-size="14.00" fill="#666666">[boolean]</text>
</g>
<!-- public.sessions&#45;&gt;public.users -->
<g id="edge2" class="edge">
<title>public.sessions:user_id&#45;&gt;public.users:id</title>
<path fill="none" stroke="black" d="M398.46,-919.11C388.87,-847.4 409.93,-408.87 426.68,-373.6 440.16,-345.2 465.61,-353.98 478.25,-325.2 495.62,-285.64 522.45,-228 479.25,-228"/>
<polygon fill="black" stroke="black" points="398.49,-919.21 397.42,-930.12 400.2,-924.26 401.58,-928.37 401.58,-928.37 401.58,-928.37 400.2,-924.26 405.95,-927.25 398.49,-919.21"/>
<text text-anchor="start" x="60.83" y="-939" font-family="Arial" font-size="10.00">FOREIGN KEY (user_id) REFERENCES users(id) ON DELETE CASCADE</text>
</g>
<!-- public.tenant_memberships -->
<g id="node4" class="node">
<title>public.tenant_memberships</title>
<polygon fill="#efefef" stroke="none" points="479.21,-601.6 479.21,-637.2 816.15,-637.2 816.15,-601.6 479.21,-601.6"/>
<polygon fill="none" stroke="black" points="479.21,-601.6 479.21,-637.2 816.15,-637.2 816.15,-601.6 479.21,-601.6"/>
<text text-anchor="start" x="486.21" y="-615" font-family="Arial Bold" font-size="18.00">public.tenant_memberships</text>
<text text-anchor="start" x="684.66" y="-615" font-family="Arial" font-size="14.00">    </text>
<text text-anchor="start" x="715.78" y="-615" font-family="Arial" font-size="14.00" fill="#666666">[BASE TABLE]</text>
<polygon fill="none" stroke="black" points="479.21,-570.8 479.21,-601.6 816.15,-601.6 816.15,-570.8 479.21,-570.8"/>
<text text-anchor="start" x="486.21" y="-583" font-family="Arial" font-size="14.00">id </text>
<text text-anchor="start" x="500.99" y="-583" font-family="Arial" font-size="14.00" fill="#666666">[uuid]</text>
<polygon fill="none" stroke="black" points="479.21,-540 479.21,-570.8 816.15,-570.8 816.15,-540 479.21,-540"/>
<text text-anchor="start" x="486.21" y="-552.2" font-family="Arial" font-size="14.00">tenant_id </text>
<text text-anchor="start" x="547.7" y="-552.2" font-family="Arial" font-size="14.00" fill="#666666">[uuid]</text>
<polygon fill="none" stroke="black" points="479.21,-509.2 479.21,-540 816.15,-540 816.15,-509.2 479.21,-509.2"/>
<text text-anchor="start" x="486.21" y="-521.4" font-family="Arial" font-size="14.00">user_id </text>
<text text-anchor="start" x="536.01" y="-521.4" font-family="Arial" font-size="14.00" fill="#666666">[uuid]</text>
<polygon fill="none" stroke="black" points="479.21,-478.4 479.21,-509.2 816.15,-509.2 816.15,-478.4 479.21,-478.4"/>
<text text-anchor="start" x="486.21" y="-490.6" font-family="Arial" font-size="14.00">role </text>
<text text-anchor="start" x="513.44" y="-490.6" font-family="Arial" font-size="14.00" fill="#666666">[text]</text>
<polygon fill="none" stroke="black" points="479.21,-447.6 479.21,-478.4 816.15,-478.4 816.15,-447.6 479.21,-447.6"/>
<text text-anchor="start" x="486.21" y="-459.8" font-family="Arial" font-size="14.00">created_at </text>
<text text-anchor="start" x="556.25" y="-459.8" font-family="Arial" font-size="14.00" fill="#666666">[timestamp with time zone]</text>
<polygon fill="none" stroke="black" points="479.21,-416.8 479.21,-447.6 816.15,-447.6 816.15,-416.8 479.21,-416.8"/>
<text text-anchor="start" x="486.21" y="-429" font-family="Arial" font-size="14.00">left_at </text>
<text text-anchor="start" x="528.23" y="-429" font-family="Arial" font-size="14.00" fill="#666666">[timestamp with time zone]</text>
</g>
<!-- public.sessions&#45;&gt;public.tenant_memberships -->
<g id="edge3" class="edge">
<title>public.sessions:active_membership_id&#45;&gt;public.tenant_memberships:id</title>
<path fill="none" stroke="black" d="M663.79,-897.49C731.57,-887.6 701.43,-776.13 652.56,-716.4 602.73,-655.5 529.19,-741.17 479.21,-680.4 452.61,-648.06 436.34,-586.2 478.21,-586.2"/>
<polygon fill="black" stroke="black" points="663.87,-897.49 653.59,-893.69 658.55,-897.86 654.23,-898.15 654.23,-898.15 654.23,-898.15 658.55,-897.86 654.21,-902.67 663.87,-897.49"/>
<text text-anchor="start" x="660.56" y="-908.2" font-family="Arial" font-size="10.00">FOREIGN KEY (active_membership_id) REFERENCES tenant_memberships(id)</text>
</g>
<!-- public.tenant_memberships&#45;&gt;public.users -->
<g id="edge4" class="edge">
<title>public.tenant_memberships:user_id&#45;&gt;public.users:id</title>
<path fill="none" stroke="black" d="M471.31,-516.97C457.15,-470.55 509.05,-228 479.25,-228"/>
<polygon fill="black" stroke="black" points="471.28,-516.93 474.64,-527.37 474.85,-520.89 477.76,-524.1 477.76,-524.1 477.76,-524.1 474.85,-520.89 481.32,-521.34 471.28,-516.93"/>
<text text-anchor="start" x="398.22" y="-508.6" font-family="Arial" font-size="10.00">FOREIGN KEY (user_id) REFERENCES users(id) ON DELETE CASCADE</text>
</g>
<!-- public.tenants -->
<g id="node5" class="node">
<title>public.tenants</title>
<polygon fill="#efefef" stroke="none" points="585.84,-258.8 585.84,-294.4 839.52,-294.4 839.52,-258.8 585.84,-258.8"/>
<polygon fill="none" stroke="black" points="585.84,-258.8 585.84,-294.4 839.52,-294.4 839.52,-258.8 585.84,-258.8"/>
<text text-anchor="start" x="600.2" y="-272.2" font-family="Arial Bold" font-size="18.00">public.tenants</text>
<text text-anchor="start" x="700.67" y="-272.2" font-family="Arial" font-size="14.00">    </text>
<text text-anchor="start" x="731.79" y="-272.2" font-family="Arial" font-size="14.00" fill="#666666">[BASE TABLE]</text>
<polygon fill="none" stroke="black" points="585.84,-228 585.84,-258.8 839.52,-258.8 839.52,-228 585.84,-228"/>
<text text-anchor="start" x="592.84" y="-240.2" font-family="Arial" font-size="14.00">id </text>
<text text-anchor="start" x="607.62" y="-240.2" font-family="Arial" font-size="14.00" fill="#666666">[uuid]</text>
<polygon fill="none" stroke="black" points="585.84,-197.2 585.84,-228 839.52,-228 839.52,-197.2 585.84,-197.2"/>
<text text-anchor="start" x="592.84" y="-209.4" font-family="Arial" font-size="14.00">organization_id </text>
<text text-anchor="start" x="691.69" y="-209.4" font-family="Arial" font-size="14.00" fill="#666666">[uuid]</text>
<polygon fill="none" stroke="black" points="585.84,-166.4 585.84,-197.2 839.52,-197.2 839.52,-166.4 585.84,-166.4"/>
<text text-anchor="start" x="592.84" y="-178.6" font-family="Arial" font-size="14.00">name </text>
<text text-anchor="start" x="631.75" y="-178.6" font-family="Arial" font-size="14.00" fill="#666666">[text]</text>
<polygon fill="none" stroke="black" points="585.84,-135.6 585.84,-166.4 839.52,-166.4 839.52,-135.6 585.84,-135.6"/>
<text text-anchor="start" x="592.84" y="-147.8" font-family="Arial" font-size="14.00">description </text>
<text text-anchor="start" x="664.43" y="-147.8" font-family="Arial" font-size="14.00" fill="#666666">[text]</text>
<polygon fill="none" stroke="black" points="585.84,-104.8 585.84,-135.6 839.52,-135.6 839.52,-104.8 585.84,-104.8"/>
<text text-anchor="start" x="592.84" y="-117" font-family="Arial" font-size="14.00">tenant_type </text>
<text text-anchor="start" x="669.9" y="-117" font-family="Arial" font-size="14.00" fill="#666666">[text]</text>
<polygon fill="none" stroke="black" points="585.84,-74 585.84,-104.8 839.52,-104.8 839.52,-74 585.84,-74"/>
<text text-anchor="start" x="592.84" y="-86.2" font-family="Arial" font-size="14.00">created_at </text>
<text text-anchor="start" x="662.89" y="-86.2" font-family="Arial" font-size="14.00" fill="#666666">[timestamp with time zone]</text>
<polygon fill="none" stroke="black" points="585.84,-43.2 585.84,-74 839.52,-74 839.52,-43.2 585.84,-43.2"/>
<text text-anchor="start" x="592.84" y="-55.4" font-family="Arial" font-size="14.00">updated_at </text>
<text text-anchor="start" x="666.8" y="-55.4" font-family="Arial" font-size="14.00" fill="#666666">[timestamp with time zone]</text>
</g>
<!-- public.tenant_memberships&#45;&gt;public.tenants -->
<g id="edge5" class="edge">
<title>public.tenant_memberships:tenant_id&#45;&gt;public.tenants:id</title>
<path fill="none" stroke="black" d="M827.38,-554.69C895.29,-544.69 866.49,-432.09 816.15,-373.6 748.57,-295.07 653.62,-415.95 585.84,-337.6 558.45,-305.94 542.97,-243.4 584.84,-243.4"/>
<polygon fill="black" stroke="black" points="827.46,-554.68 817.17,-550.89 822.14,-555.05 817.82,-555.35 817.82,-555.35 817.82,-555.35 822.14,-555.05 817.8,-559.87 827.46,-554.68"/>
<text text-anchor="start" x="824.15" y="-565.4" font-family="Arial" font-size="10.00">FOREIGN KEY (tenant_id) REFERENCES tenants(id) ON DELETE CASCADE</text>
</g>
</g>
</svg>
