<?xml version="1.0" encoding="UTF-8" standalone="no"?>
<!DOCTYPE svg PUBLIC "-//W3C//DTD SVG 1.1//EN"
 "http://www.w3.org/Graphics/SVG/1.1/DTD/svg11.dtd">
<!-- Generated by graphviz version 12.1.2 (20240928.0832)
 -->
<!-- Title: public.rooms Pages: 1 -->
<svg width="1155pt" height="787pt"
 viewBox="0.00 0.00 1154.92 786.80" xmlns="http://www.w3.org/2000/svg" xmlns:xlink="http://www.w3.org/1999/xlink">
<g id="graph0" class="graph" transform="scale(1 1) rotate(0) translate(4 782.8)">
<title>public.rooms</title>
<polygon fill="white" stroke="none" points="-4,4 -4,-782.8 1150.92,-782.8 1150.92,4 -4,4"/>
<!-- public.rooms -->
<g id="node1" class="node">
<title>public.rooms</title>
<polygon fill="#efefef" stroke="none" points="115.94,-323.4 115.94,-359 369.62,-359 369.62,-323.4 115.94,-323.4"/>
<polygon fill="none" stroke="black" points="115.94,-323.4 115.94,-359 369.62,-359 369.62,-323.4 115.94,-323.4"/>
<text text-anchor="start" x="133.29" y="-336.8" font-family="Arial Bold" font-size="18.00">public.rooms</text>
<text text-anchor="start" x="227.78" y="-336.8" font-family="Arial" font-size="14.00">    </text>
<text text-anchor="start" x="258.9" y="-336.8" font-family="Arial" font-size="14.00" fill="#666666">[BASE TABLE]</text>
<polygon fill="none" stroke="black" points="115.94,-292.6 115.94,-323.4 369.62,-323.4 369.62,-292.6 115.94,-292.6"/>
<text text-anchor="start" x="122.94" y="-304.8" font-family="Arial" font-size="14.00">id </text>
<text text-anchor="start" x="137.72" y="-304.8" font-family="Arial" font-size="14.00" fill="#666666">[uuid]</text>
<polygon fill="none" stroke="black" points="115.94,-261.8 115.94,-292.6 369.62,-292.6 369.62,-261.8 115.94,-261.8"/>
<text text-anchor="start" x="122.94" y="-274" font-family="Arial" font-size="14.00">organization_id </text>
<text text-anchor="start" x="221.79" y="-274" font-family="Arial" font-size="14.00" fill="#666666">[uuid]</text>
<polygon fill="none" stroke="black" points="115.94,-231 115.94,-261.8 369.62,-261.8 369.62,-231 115.94,-231"/>
<text text-anchor="start" x="122.94" y="-243.2" font-family="Arial" font-size="14.00">name </text>
<text text-anchor="start" x="161.85" y="-243.2" font-family="Arial" font-size="14.00" fill="#666666">[text]</text>
<polygon fill="none" stroke="black" points="115.94,-200.2 115.94,-231 369.62,-231 369.62,-200.2 115.94,-200.2"/>
<text text-anchor="start" x="122.94" y="-212.4" font-family="Arial" font-size="14.00">building_name </text>
<text text-anchor="start" x="217.9" y="-212.4" font-family="Arial" font-size="14.00" fill="#666666">[text]</text>
<polygon fill="none" stroke="black" points="115.94,-169.4 115.94,-200.2 369.62,-200.2 369.62,-169.4 115.94,-169.4"/>
<text text-anchor="start" x="122.94" y="-181.6" font-family="Arial" font-size="14.00">floor_number </text>
<text text-anchor="start" x="209.32" y="-181.6" font-family="Arial" font-size="14.00" fill="#666666">[text]</text>
<polygon fill="none" stroke="black" points="115.94,-138.6 115.94,-169.4 369.62,-169.4 369.62,-138.6 115.94,-138.6"/>
<text text-anchor="start" x="122.94" y="-150.8" font-family="Arial" font-size="14.00">room_type </text>
<text text-anchor="start" x="192.97" y="-150.8" font-family="Arial" font-size="14.00" fill="#666666">[text]</text>
<polygon fill="none" stroke="black" points="115.94,-107.8 115.94,-138.6 369.62,-138.6 369.62,-107.8 115.94,-107.8"/>
<text text-anchor="start" x="122.94" y="-120" font-family="Arial" font-size="14.00">description </text>
<text text-anchor="start" x="194.53" y="-120" font-family="Arial" font-size="14.00" fill="#666666">[text]</text>
<polygon fill="none" stroke="black" points="115.94,-77 115.94,-107.8 369.62,-107.8 369.62,-77 115.94,-77"/>
<text text-anchor="start" x="122.94" y="-89.2" font-family="Arial" font-size="14.00">created_at </text>
<text text-anchor="start" x="192.99" y="-89.2" font-family="Arial" font-size="14.00" fill="#666666">[timestamp with time zone]</text>
<polygon fill="none" stroke="black" points="115.94,-46.2 115.94,-77 369.62,-77 369.62,-46.2 115.94,-46.2"/>
<text text-anchor="start" x="122.94" y="-58.4" font-family="Arial" font-size="14.00">updated_at </text>
<text text-anchor="start" x="196.9" y="-58.4" font-family="Arial" font-size="14.00" fill="#666666">[timestamp with time zone]</text>
<polygon fill="none" stroke="black" stroke-width="3" points="114.44,-44.7 114.44,-360.5 371.12,-360.5 371.12,-44.7 114.44,-44.7"/>
</g>
<!-- public.keys -->
<g id="node2" class="node">
<title>public.keys</title>
<polygon fill="#efefef" stroke="none" points="99.94,-700 99.94,-735.6 353.62,-735.6 353.62,-700 99.94,-700"/>
<polygon fill="none" stroke="black" points="99.94,-700 99.94,-735.6 353.62,-735.6 353.62,-700 99.94,-700"/>
<text text-anchor="start" x="123.29" y="-713.4" font-family="Arial Bold" font-size="18.00">public.keys</text>
<text text-anchor="start" x="205.78" y="-713.4" font-family="Arial" font-size="14.00">    </text>
<text text-anchor="start" x="236.89" y="-713.4" font-family="Arial" font-size="14.00" fill="#666666">[BASE TABLE]</text>
<polygon fill="none" stroke="black" points="99.94,-669.2 99.94,-700 353.62,-700 353.62,-669.2 99.94,-669.2"/>
<text text-anchor="start" x="106.94" y="-681.4" font-family="Arial" font-size="14.00">id </text>
<text text-anchor="start" x="121.72" y="-681.4" font-family="Arial" font-size="14.00" fill="#666666">[uuid]</text>
<polygon fill="none" stroke="black" points="99.94,-638.4 99.94,-669.2 353.62,-669.2 353.62,-638.4 99.94,-638.4"/>
<text text-anchor="start" x="106.94" y="-650.6" font-family="Arial" font-size="14.00">room_id </text>
<text text-anchor="start" x="161.41" y="-650.6" font-family="Arial" font-size="14.00" fill="#666666">[uuid]</text>
<polygon fill="none" stroke="black" points="99.94,-607.6 99.94,-638.4 353.62,-638.4 353.62,-607.6 99.94,-607.6"/>
<text text-anchor="start" x="106.94" y="-619.8" font-family="Arial" font-size="14.00">organization_id </text>
<text text-anchor="start" x="205.79" y="-619.8" font-family="Arial" font-size="14.00" fill="#666666">[uuid]</text>
<polygon fill="none" stroke="black" points="99.94,-576.8 99.94,-607.6 353.62,-607.6 353.62,-576.8 99.94,-576.8"/>
<text text-anchor="start" x="106.94" y="-589" font-family="Arial" font-size="14.00">key_number </text>
<text text-anchor="start" x="187.87" y="-589" font-family="Arial" font-size="14.00" fill="#666666">[text]</text>
<polygon fill="none" stroke="black" points="99.94,-546 99.94,-576.8 353.62,-576.8 353.62,-546 99.94,-546"/>
<text text-anchor="start" x="106.94" y="-558.2" font-family="Arial" font-size="14.00">status </text>
<text text-anchor="start" x="148.18" y="-558.2" font-family="Arial" font-size="14.00" fill="#666666">[text]</text>
<polygon fill="none" stroke="black" points="99.94,-515.2 99.94,-546 353.62,-546 353.62,-515.2 99.94,-515.2"/>
<text text-anchor="start" x="106.94" y="-527.4" font-family="Arial" font-size="14.00">created_at </text>
<text text-anchor="start" x="176.99" y="-527.4" font-family="Arial" font-size="14.00" fill="#666666">[timestamp with time zone]</text>
<polygon fill="none" stroke="black" points="99.94,-484.4 99.94,-515.2 353.62,-515.2 353.62,-484.4 99.94,-484.4"/>
<text text-anchor="start" x="106.94" y="-496.6" font-family="Arial" font-size="14.00">updated_at </text>
<text text-anchor="start" x="180.9" y="-496.6" font-family="Arial" font-size="14.00" fill="#666666">[timestamp with time zone]</text>
</g>
<!-- public.keys&#45;&gt;public.rooms -->
<g id="edge1" class="edge">
<title>public.keys:room_id&#45;&gt;public.rooms:id</title>
<path fill="none" stroke="black" d="M364.53,-650.71C399.07,-627.03 382.1,-474.16 353.62,-441.2 283.77,-360.36 186.02,-485.85 115.94,-405.2 87.6,-372.59 71.74,-308 114.94,-308"/>
<polygon fill="black" stroke="black" points="364.49,-650.73 353.6,-649.4 359.39,-652.31 355.26,-653.6 355.26,-653.6 355.26,-653.6 359.39,-652.31 356.28,-658 364.49,-650.73"/>
<text text-anchor="start" x="7" y="-663.8" font-family="Arial" font-size="10.00">FOREIGN KEY (room_id) REFERENCES rooms(id) ON DELETE CASCADE</text>
</g>
<!-- public.room_assignments -->
<g id="node3" class="node">
<title>public.room_assignments</title>
<polygon fill="#efefef" stroke="none" points="458.29,-700 458.29,-735.6 781.27,-735.6 781.27,-700 458.29,-700"/>
<polygon fill="none" stroke="black" points="458.29,-700 458.29,-735.6 781.27,-735.6 781.27,-700 458.29,-700"/>
<text text-anchor="start" x="465.29" y="-713.4" font-family="Arial Bold" font-size="18.00">public.room_assignments</text>
<text text-anchor="start" x="649.78" y="-713.4" font-family="Arial" font-size="14.00">    </text>
<text text-anchor="start" x="680.89" y="-713.4" font-family="Arial" font-size="14.00" fill="#666666">[BASE TABLE]</text>
<polygon fill="none" stroke="black" points="458.29,-669.2 458.29,-700 781.27,-700 781.27,-669.2 458.29,-669.2"/>
<text text-anchor="start" x="465.29" y="-681.4" font-family="Arial" font-size="14.00">id </text>
<text text-anchor="start" x="480.08" y="-681.4" font-family="Arial" font-size="14.00" fill="#666666">[uuid]</text>
<polygon fill="none" stroke="black" points="458.29,-638.4 458.29,-669.2 781.27,-669.2 781.27,-638.4 458.29,-638.4"/>
<text text-anchor="start" x="465.29" y="-650.6" font-family="Arial" font-size="14.00">tenant_id </text>
<text text-anchor="start" x="526.79" y="-650.6" font-family="Arial" font-size="14.00" fill="#666666">[uuid]</text>
<polygon fill="none" stroke="black" points="458.29,-607.6 458.29,-638.4 781.27,-638.4 781.27,-607.6 458.29,-607.6"/>
<text text-anchor="start" x="465.29" y="-619.8" font-family="Arial" font-size="14.00">room_id </text>
<text text-anchor="start" x="519.76" y="-619.8" font-family="Arial" font-size="14.00" fill="#666666">[uuid]</text>
<polygon fill="none" stroke="black" points="458.29,-576.8 458.29,-607.6 781.27,-607.6 781.27,-576.8 458.29,-576.8"/>
<text text-anchor="start" x="465.29" y="-589" font-family="Arial" font-size="14.00">assigned_at </text>
<text text-anchor="start" x="544.69" y="-589" font-family="Arial" font-size="14.00" fill="#666666">[timestamp with time zone]</text>
<polygon fill="none" stroke="black" points="458.29,-546 458.29,-576.8 781.27,-576.8 781.27,-546 458.29,-546"/>
<text text-anchor="start" x="465.29" y="-558.2" font-family="Arial" font-size="14.00">expires_at </text>
<text text-anchor="start" x="533.78" y="-558.2" font-family="Arial" font-size="14.00" fill="#666666">[timestamp with time zone]</text>
<polygon fill="none" stroke="black" points="458.29,-515.2 458.29,-546 781.27,-546 781.27,-515.2 458.29,-515.2"/>
<text text-anchor="start" x="465.29" y="-527.4" font-family="Arial" font-size="14.00">created_at </text>
<text text-anchor="start" x="535.34" y="-527.4" font-family="Arial" font-size="14.00" fill="#666666">[timestamp with time zone]</text>
<polygon fill="none" stroke="black" points="458.29,-484.4 458.29,-515.2 781.27,-515.2 781.27,-484.4 458.29,-484.4"/>
<text text-anchor="start" x="465.29" y="-496.6" font-family="Arial" font-size="14.00">updated_at </text>
<text text-anchor="start" x="539.25" y="-496.6" font-family="Arial" font-size="14.00" fill="#666666">[timestamp with time zone]</text>
</g>
<!-- public.room_assignments&#45;&gt;public.rooms -->
<g id="edge2" class="edge">
<title>public.room_assignments:room_id&#45;&gt;public.rooms:id</title>
<path fill="none" stroke="black" d="M447.21,-620.65C390.3,-591.82 439.53,-308 370.62,-308"/>
<polygon fill="black" stroke="black" points="447.23,-620.65 455.94,-627.31 452.42,-621.86 456.64,-622.85 456.64,-622.85 456.64,-622.85 452.42,-621.86 457.99,-618.54 447.23,-620.65"/>
<text text-anchor="start" x="464.29" y="-633" font-family="Arial" font-size="10.00">FOREIGN KEY (room_id) REFERENCES rooms(id) ON DELETE CASCADE</text>
</g>
<!-- public.tenants -->
<g id="node4" class="node">
<title>public.tenants</title>
<polygon fill="#efefef" stroke="none" points="492.94,-292.6 492.94,-328.2 746.62,-328.2 746.62,-292.6 492.94,-292.6"/>
<polygon fill="none" stroke="black" points="492.94,-292.6 492.94,-328.2 746.62,-328.2 746.62,-292.6 492.94,-292.6"/>
<text text-anchor="start" x="507.3" y="-306" font-family="Arial Bold" font-size="18.00">public.tenants</text>
<text text-anchor="start" x="607.77" y="-306" font-family="Arial" font-size="14.00">    </text>
<text text-anchor="start" x="638.89" y="-306" font-family="Arial" font-size="14.00" fill="#666666">[BASE TABLE]</text>
<polygon fill="none" stroke="black" points="492.94,-261.8 492.94,-292.6 746.62,-292.6 746.62,-261.8 492.94,-261.8"/>
<text text-anchor="start" x="499.94" y="-274" font-family="Arial" font-size="14.00">id </text>
<text text-anchor="start" x="514.72" y="-274" font-family="Arial" font-size="14.00" fill="#666666">[uuid]</text>
<polygon fill="none" stroke="black" points="492.94,-231 492.94,-261.8 746.62,-261.8 746.62,-231 492.94,-231"/>
<text text-anchor="start" x="499.94" y="-243.2" font-family="Arial" font-size="14.00">organization_id </text>
<text text-anchor="start" x="598.79" y="-243.2" font-family="Arial" font-size="14.00" fill="#666666">[uuid]</text>
<polygon fill="none" stroke="black" points="492.94,-200.2 492.94,-231 746.62,-231 746.62,-200.2 492.94,-200.2"/>
<text text-anchor="start" x="499.94" y="-212.4" font-family="Arial" font-size="14.00">name </text>
<text text-anchor="start" x="538.85" y="-212.4" font-family="Arial" font-size="14.00" fill="#666666">[text]</text>
<polygon fill="none" stroke="black" points="492.94,-169.4 492.94,-200.2 746.62,-200.2 746.62,-169.4 492.94,-169.4"/>
<text text-anchor="start" x="499.94" y="-181.6" font-family="Arial" font-size="14.00">description </text>
<text text-anchor="start" x="571.53" y="-181.6" font-family="Arial" font-size="14.00" fill="#666666">[text]</text>
<polygon fill="none" stroke="black" points="492.94,-138.6 492.94,-169.4 746.62,-169.4 746.62,-138.6 492.94,-138.6"/>
<text text-anchor="start" x="499.94" y="-150.8" font-family="Arial" font-size="14.00">tenant_type </text>
<text text-anchor="start" x="577" y="-150.8" font-family="Arial" font-size="14.00" fill="#666666">[text]</text>
<polygon fill="none" stroke="black" points="492.94,-107.8 492.94,-138.6 746.62,-138.6 746.62,-107.8 492.94,-107.8"/>
<text text-anchor="start" x="499.94" y="-120" font-family="Arial" font-size="14.00">created_at </text>
<text text-anchor="start" x="569.99" y="-120" font-family="Arial" font-size="14.00" fill="#666666">[timestamp with time zone]</text>
<polygon fill="none" stroke="black" points="492.94,-77 492.94,-107.8 746.62,-107.8 746.62,-77 492.94,-77"/>
<text text-anchor="start" x="499.94" y="-89.2" font-family="Arial" font-size="14.00">updated_at </text>
<text text-anchor="start" x="573.9" y="-89.2" font-family="Arial" font-size="14.00" fill="#666666">[timestamp with time zone]</text>
</g>
<!-- public.room_assignments&#45;&gt;public.tenants -->
<g id="edge3" class="edge">
<title>public.room_assignments:tenant_id&#45;&gt;public.tenants:id</title>
<path fill="none" stroke="black" d="M792.45,-651.77C863.24,-622.13 828.05,-277.2 747.62,-277.2"/>
<polygon fill="black" stroke="black" points="792.4,-651.78 781.71,-649.32 787.17,-652.82 782.92,-653.67 782.92,-653.67 782.92,-653.67 787.17,-652.82 783.47,-658.15 792.4,-651.78"/>
<text text-anchor="start" x="789.27" y="-663.8" font-family="Arial" font-size="10.00">FOREIGN KEY (tenant_id) REFERENCES tenants(id) ON DELETE CASCADE</text>
</g>
</g>
</svg>
