<?xml version="1.0" encoding="UTF-8" standalone="no"?>
<!DOCTYPE svg PUBLIC "-//W3C//DTD SVG 1.1//EN"
 "http://www.w3.org/Graphics/SVG/1.1/DTD/svg11.dtd">
<!-- Generated by graphviz version 12.1.2 (20240928.0832)
 -->
<!-- Title: public.user_identities Pages: 1 -->
<svg width="1189pt" height="688pt"
 viewBox="0.00 0.00 1189.35 688.40" xmlns="http://www.w3.org/2000/svg" xmlns:xlink="http://www.w3.org/1999/xlink">
<g id="graph0" class="graph" transform="scale(1 1) rotate(0) translate(4 684.4)">
<title>public.user_identities</title>
<polygon fill="white" stroke="none" points="-4,4 -4,-684.4 1185.35,-684.4 1185.35,4 -4,4"/>
<!-- public.user_identities -->
<g id="node1" class="node">
<title>public.user_identities</title>
<polygon fill="#efefef" stroke="none" points="46.2,-586.2 46.2,-621.8 339.16,-621.8 339.16,-586.2 46.2,-586.2"/>
<polygon fill="none" stroke="black" points="46.2,-586.2 46.2,-621.8 339.16,-621.8 339.16,-586.2 46.2,-586.2"/>
<text text-anchor="start" x="53.2" y="-599.6" font-family="Arial Bold" font-size="18.00">public.user_identities</text>
<text text-anchor="start" x="207.67" y="-599.6" font-family="Arial" font-size="14.00">    </text>
<text text-anchor="start" x="238.78" y="-599.6" font-family="Arial" font-size="14.00" fill="#666666">[BASE TABLE]</text>
<polygon fill="none" stroke="black" points="46.2,-555.4 46.2,-586.2 339.16,-586.2 339.16,-555.4 46.2,-555.4"/>
<text text-anchor="start" x="53.2" y="-567.6" font-family="Arial" font-size="14.00">id </text>
<text text-anchor="start" x="67.99" y="-567.6" font-family="Arial" font-size="14.00" fill="#666666">[uuid]</text>
<polygon fill="none" stroke="black" points="46.2,-524.6 46.2,-555.4 339.16,-555.4 339.16,-524.6 46.2,-524.6"/>
<text text-anchor="start" x="53.2" y="-536.8" font-family="Arial" font-size="14.00">user_id </text>
<text text-anchor="start" x="103.01" y="-536.8" font-family="Arial" font-size="14.00" fill="#666666">[uuid]</text>
<polygon fill="none" stroke="black" points="46.2,-493.8 46.2,-524.6 339.16,-524.6 339.16,-493.8 46.2,-493.8"/>
<text text-anchor="start" x="53.2" y="-506" font-family="Arial" font-size="14.00">provider </text>
<text text-anchor="start" x="107.67" y="-506" font-family="Arial" font-size="14.00" fill="#666666">[text]</text>
<polygon fill="none" stroke="black" points="46.2,-463 46.2,-493.8 339.16,-493.8 339.16,-463 46.2,-463"/>
<text text-anchor="start" x="53.2" y="-475.2" font-family="Arial" font-size="14.00">provider_sub </text>
<text text-anchor="start" x="138.03" y="-475.2" font-family="Arial" font-size="14.00" fill="#666666">[text]</text>
<polygon fill="none" stroke="black" points="46.2,-432.2 46.2,-463 339.16,-463 339.16,-432.2 46.2,-432.2"/>
<text text-anchor="start" x="53.2" y="-444.4" font-family="Arial" font-size="14.00">created_at </text>
<text text-anchor="start" x="123.25" y="-444.4" font-family="Arial" font-size="14.00" fill="#666666">[timestamp with time zone]</text>
<polygon fill="none" stroke="black" points="46.2,-401.4 46.2,-432.2 339.16,-432.2 339.16,-401.4 46.2,-401.4"/>
<text text-anchor="start" x="53.2" y="-413.6" font-family="Arial" font-size="14.00">updated_at </text>
<text text-anchor="start" x="127.16" y="-413.6" font-family="Arial" font-size="14.00" fill="#666666">[timestamp with time zone]</text>
<polygon fill="none" stroke="black" stroke-width="3" points="44.7,-399.9 44.7,-623.3 340.66,-623.3 340.66,-399.9 44.7,-399.9"/>
</g>
<!-- public.users -->
<g id="node2" class="node">
<title>public.users</title>
<polygon fill="#efefef" stroke="none" points="435.11,-228 435.11,-263.6 708.25,-263.6 708.25,-228 435.11,-228"/>
<polygon fill="none" stroke="black" points="435.11,-228 435.11,-263.6 708.25,-263.6 708.25,-228 435.11,-228"/>
<text text-anchor="start" x="466.19" y="-241.4" font-family="Arial Bold" font-size="18.00">public.users</text>
<text text-anchor="start" x="552.68" y="-241.4" font-family="Arial" font-size="14.00">    </text>
<text text-anchor="start" x="583.79" y="-241.4" font-family="Arial" font-size="14.00" fill="#666666">[BASE TABLE]</text>
<polygon fill="none" stroke="black" points="435.11,-197.2 435.11,-228 708.25,-228 708.25,-197.2 435.11,-197.2"/>
<text text-anchor="start" x="442.11" y="-209.4" font-family="Arial" font-size="14.00">id </text>
<text text-anchor="start" x="456.89" y="-209.4" font-family="Arial" font-size="14.00" fill="#666666">[uuid]</text>
<polygon fill="none" stroke="black" points="435.11,-166.4 435.11,-197.2 708.25,-197.2 708.25,-166.4 435.11,-166.4"/>
<text text-anchor="start" x="442.11" y="-178.6" font-family="Arial" font-size="14.00">email </text>
<text text-anchor="start" x="479.45" y="-178.6" font-family="Arial" font-size="14.00" fill="#666666">[text]</text>
<polygon fill="none" stroke="black" points="435.11,-135.6 435.11,-166.4 708.25,-166.4 708.25,-135.6 435.11,-135.6"/>
<text text-anchor="start" x="442.11" y="-147.8" font-family="Arial" font-size="14.00">name </text>
<text text-anchor="start" x="481.02" y="-147.8" font-family="Arial" font-size="14.00" fill="#666666">[text]</text>
<polygon fill="none" stroke="black" points="435.11,-104.8 435.11,-135.6 708.25,-135.6 708.25,-104.8 435.11,-104.8"/>
<text text-anchor="start" x="442.11" y="-117" font-family="Arial" font-size="14.00">icon </text>
<text text-anchor="start" x="471.68" y="-117" font-family="Arial" font-size="14.00" fill="#666666">[text]</text>
<polygon fill="none" stroke="black" points="435.11,-74 435.11,-104.8 708.25,-104.8 708.25,-74 435.11,-74"/>
<text text-anchor="start" x="442.11" y="-86.2" font-family="Arial" font-size="14.00">created_at </text>
<text text-anchor="start" x="512.15" y="-86.2" font-family="Arial" font-size="14.00" fill="#666666">[timestamp without time zone]</text>
<polygon fill="none" stroke="black" points="435.11,-43.2 435.11,-74 708.25,-74 708.25,-43.2 435.11,-43.2"/>
<text text-anchor="start" x="442.11" y="-55.4" font-family="Arial" font-size="14.00">updated_at </text>
<text text-anchor="start" x="516.06" y="-55.4" font-family="Arial" font-size="14.00" fill="#666666">[timestamp without time zone]</text>
</g>
<!-- public.user_identities&#45;&gt;public.users -->
<g id="edge1" class="edge">
<title>public.user_identities:user_id&#45;&gt;public.users:id</title>
<path fill="none" stroke="black" d="M350.32,-537.73C410.56,-508.81 362.11,-212.6 434.11,-212.6"/>
<polygon fill="black" stroke="black" points="350.24,-537.75 339.5,-535.53 345.04,-538.91 340.81,-539.85 340.81,-539.85 340.81,-539.85 345.04,-538.91 341.46,-544.32 350.24,-537.75"/>
<text text-anchor="start" x="347.16" y="-550" font-family="Arial" font-size="10.00">FOREIGN KEY (user_id) REFERENCES users(id) ON DELETE CASCADE</text>
</g>
<!-- public.sessions -->
<g id="node3" class="node">
<title>public.sessions</title>
<polygon fill="#efefef" stroke="none" points="446.79,-601.6 446.79,-637.2 696.56,-637.2 696.56,-601.6 446.79,-601.6"/>
<polygon fill="none" stroke="black" points="446.79,-601.6 446.79,-637.2 696.56,-637.2 696.56,-601.6 446.79,-601.6"/>
<text text-anchor="start" x="455.18" y="-615" font-family="Arial Bold" font-size="18.00">public.sessions</text>
<text text-anchor="start" x="563.68" y="-615" font-family="Arial" font-size="14.00">    </text>
<text text-anchor="start" x="594.8" y="-615" font-family="Arial" font-size="14.00" fill="#666666">[BASE TABLE]</text>
<polygon fill="none" stroke="black" points="446.79,-570.8 446.79,-601.6 696.56,-601.6 696.56,-570.8 446.79,-570.8"/>
<text text-anchor="start" x="453.79" y="-583" font-family="Arial" font-size="14.00">session_id </text>
<text text-anchor="start" x="523.83" y="-583" font-family="Arial" font-size="14.00" fill="#666666">[text]</text>
<polygon fill="none" stroke="black" points="446.79,-540 446.79,-570.8 696.56,-570.8 696.56,-540 446.79,-540"/>
<text text-anchor="start" x="453.79" y="-552.2" font-family="Arial" font-size="14.00">user_id </text>
<text text-anchor="start" x="503.6" y="-552.2" font-family="Arial" font-size="14.00" fill="#666666">[uuid]</text>
<polygon fill="none" stroke="black" points="446.79,-509.2 446.79,-540 696.56,-540 696.56,-509.2 446.79,-509.2"/>
<text text-anchor="start" x="453.79" y="-521.4" font-family="Arial" font-size="14.00">active_membership_id </text>
<text text-anchor="start" x="597.75" y="-521.4" font-family="Arial" font-size="14.00" fill="#666666">[uuid]</text>
<polygon fill="none" stroke="black" points="446.79,-478.4 446.79,-509.2 696.56,-509.2 696.56,-478.4 446.79,-478.4"/>
<text text-anchor="start" x="453.79" y="-490.6" font-family="Arial" font-size="14.00">created_at </text>
<text text-anchor="start" x="523.84" y="-490.6" font-family="Arial" font-size="14.00" fill="#666666">[timestamp with time zone]</text>
<polygon fill="none" stroke="black" points="446.79,-447.6 446.79,-478.4 696.56,-478.4 696.56,-447.6 446.79,-447.6"/>
<text text-anchor="start" x="453.79" y="-459.8" font-family="Arial" font-size="14.00">expires_at </text>
<text text-anchor="start" x="522.28" y="-459.8" font-family="Arial" font-size="14.00" fill="#666666">[timestamp with time zone]</text>
<polygon fill="none" stroke="black" points="446.79,-416.8 446.79,-447.6 696.56,-447.6 696.56,-416.8 446.79,-416.8"/>
<text text-anchor="start" x="453.79" y="-429" font-family="Arial" font-size="14.00">csrf_token </text>
<text text-anchor="start" x="522.27" y="-429" font-family="Arial" font-size="14.00" fill="#666666">[text]</text>
<polygon fill="none" stroke="black" points="446.79,-386 446.79,-416.8 696.56,-416.8 696.56,-386 446.79,-386"/>
<text text-anchor="start" x="453.79" y="-398.2" font-family="Arial" font-size="14.00">revoked </text>
<text text-anchor="start" x="507.49" y="-398.2" font-family="Arial" font-size="14.00" fill="#666666">[boolean]</text>
</g>
<!-- public.sessions&#45;&gt;public.users -->
<g id="edge2" class="edge">
<title>public.sessions:user_id&#45;&gt;public.users:id</title>
<path fill="none" stroke="black" d="M706,-549.45C737.2,-503.93 744.38,-212.6 709.25,-212.6"/>
<polygon fill="black" stroke="black" points="706.01,-549.44 695.24,-551.53 701.65,-552.52 698.11,-555.01 698.11,-555.01 698.11,-555.01 701.65,-552.52 700.43,-558.88 706.01,-549.44"/>
<text text-anchor="start" x="704.56" y="-565.4" font-family="Arial" font-size="10.00">FOREIGN KEY (user_id) REFERENCES users(id) ON DELETE CASCADE</text>
</g>
<!-- public.tenant_memberships -->
<g id="node4" class="node">
<title>public.tenant_memberships</title>
<polygon fill="#efefef" stroke="none" points="801.21,-586.2 801.21,-621.8 1138.15,-621.8 1138.15,-586.2 801.21,-586.2"/>
<polygon fill="none" stroke="black" points="801.21,-586.2 801.21,-621.8 1138.15,-621.8 1138.15,-586.2 801.21,-586.2"/>
<text text-anchor="start" x="808.21" y="-599.6" font-family="Arial Bold" font-size="18.00">public.tenant_memberships</text>
<text text-anchor="start" x="1006.66" y="-599.6" font-family="Arial" font-size="14.00">    </text>
<text text-anchor="start" x="1037.78" y="-599.6" font-family="Arial" font-size="14.00" fill="#666666">[BASE TABLE]</text>
<polygon fill="none" stroke="black" points="801.21,-555.4 801.21,-586.2 1138.15,-586.2 1138.15,-555.4 801.21,-555.4"/>
<text text-anchor="start" x="808.21" y="-567.6" font-family="Arial" font-size="14.00">id </text>
<text text-anchor="start" x="822.99" y="-567.6" font-family="Arial" font-size="14.00" fill="#666666">[uuid]</text>
<polygon fill="none" stroke="black" points="801.21,-524.6 801.21,-555.4 1138.15,-555.4 1138.15,-524.6 801.21,-524.6"/>
<text text-anchor="start" x="808.21" y="-536.8" font-family="Arial" font-size="14.00">tenant_id </text>
<text text-anchor="start" x="869.7" y="-536.8" font-family="Arial" font-size="14.00" fill="#666666">[uuid]</text>
<polygon fill="none" stroke="black" points="801.21,-493.8 801.21,-524.6 1138.15,-524.6 1138.15,-493.8 801.21,-493.8"/>
<text text-anchor="start" x="808.21" y="-506" font-family="Arial" font-size="14.00">user_id </text>
<text text-anchor="start" x="858.01" y="-506" font-family="Arial" font-size="14.00" fill="#666666">[uuid]</text>
<polygon fill="none" stroke="black" points="801.21,-463 801.21,-493.8 1138.15,-493.8 1138.15,-463 801.21,-463"/>
<text text-anchor="start" x="808.21" y="-475.2" font-family="Arial" font-size="14.00">role </text>
<text text-anchor="start" x="835.44" y="-475.2" font-family="Arial" font-size="14.00" fill="#666666">[text]</text>
<polygon fill="none" stroke="black" points="801.21,-432.2 801.21,-463 1138.15,-463 1138.15,-432.2 801.21,-432.2"/>
<text text-anchor="start" x="808.21" y="-444.4" font-family="Arial" font-size="14.00">created_at </text>
<text text-anchor="start" x="878.25" y="-444.4" font-family="Arial" font-size="14.00" fill="#666666">[timestamp with time zone]</text>
<polygon fill="none" stroke="black" points="801.21,-401.4 801.21,-432.2 1138.15,-432.2 1138.15,-401.4 801.21,-401.4"/>
<text text-anchor="start" x="808.21" y="-413.6" font-family="Arial" font-size="14.00">left_at </text>
<text text-anchor="start" x="850.23" y="-413.6" font-family="Arial" font-size="14.00" fill="#666666">[timestamp with time zone]</text>
</g>
<!-- public.tenant_memberships&#45;&gt;public.users -->
<g id="edge3" class="edge">
<title>public.tenant_memberships:user_id&#45;&gt;public.users:id</title>
<path fill="none" stroke="black" d="M790.23,-506.81C735.89,-478.74 774.56,-212.6 709.25,-212.6"/>
<polygon fill="black" stroke="black" points="790.15,-506.79 798.83,-513.5 795.34,-508.04 799.55,-509.04 799.55,-509.04 799.55,-509.04 795.34,-508.04 800.93,-504.75 790.15,-506.79"/>
<text text-anchor="start" x="807.21" y="-519.2" font-family="Arial" font-size="10.00">FOREIGN KEY (user_id) REFERENCES users(id) ON DELETE CASCADE</text>
</g>
</g>
</svg>
