<?xml version="1.0" encoding="UTF-8" standalone="no"?>
<!DOCTYPE svg PUBLIC "-//W3C//DTD SVG 1.1//EN"
 "http://www.w3.org/Graphics/SVG/1.1/DTD/svg11.dtd">
<!-- Generated by graphviz version 12.1.2 (20240928.0832)
 -->
<!-- Title: public.tenant_join_codes Pages: 1 -->
<svg width="1682pt" height="719pt"
 viewBox="0.00 0.00 1682.36 719.20" xmlns="http://www.w3.org/2000/svg" xmlns:xlink="http://www.w3.org/1999/xlink">
<g id="graph0" class="graph" transform="scale(1 1) rotate(0) translate(4 715.2)">
<title>public.tenant_join_codes</title>
<polygon fill="white" stroke="none" points="-4,4 -4,-715.2 1678.36,-715.2 1678.36,4 -4,4"/>
<!-- public.tenant_join_codes -->
<g id="node1" class="node">
<title>public.tenant_join_codes</title>
<polygon fill="#efefef" stroke="none" points="46.2,-617 46.2,-652.6 365.15,-652.6 365.15,-617 46.2,-617"/>
<polygon fill="none" stroke="black" points="46.2,-617 46.2,-652.6 365.15,-652.6 365.15,-617 46.2,-617"/>
<text text-anchor="start" x="53.2" y="-630.4" font-family="Arial Bold" font-size="18.00">public.tenant_join_codes</text>
<text text-anchor="start" x="233.66" y="-630.4" font-family="Arial" font-size="14.00">    </text>
<text text-anchor="start" x="264.77" y="-630.4" font-family="Arial" font-size="14.00" fill="#666666">[BASE TABLE]</text>
<polygon fill="none" stroke="black" points="46.2,-586.2 46.2,-617 365.15,-617 365.15,-586.2 46.2,-586.2"/>
<text text-anchor="start" x="53.2" y="-598.4" font-family="Arial" font-size="14.00">id </text>
<text text-anchor="start" x="67.99" y="-598.4" font-family="Arial" font-size="14.00" fill="#666666">[uuid]</text>
<polygon fill="none" stroke="black" points="46.2,-555.4 46.2,-586.2 365.15,-586.2 365.15,-555.4 46.2,-555.4"/>
<text text-anchor="start" x="53.2" y="-567.6" font-family="Arial" font-size="14.00">tenant_id </text>
<text text-anchor="start" x="114.7" y="-567.6" font-family="Arial" font-size="14.00" fill="#666666">[uuid]</text>
<polygon fill="none" stroke="black" points="46.2,-524.6 46.2,-555.4 365.15,-555.4 365.15,-524.6 46.2,-524.6"/>
<text text-anchor="start" x="53.2" y="-536.8" font-family="Arial" font-size="14.00">code </text>
<text text-anchor="start" x="87.45" y="-536.8" font-family="Arial" font-size="14.00" fill="#666666">[text]</text>
<polygon fill="none" stroke="black" points="46.2,-493.8 46.2,-524.6 365.15,-524.6 365.15,-493.8 46.2,-493.8"/>
<text text-anchor="start" x="53.2" y="-506" font-family="Arial" font-size="14.00">expires_at </text>
<text text-anchor="start" x="121.68" y="-506" font-family="Arial" font-size="14.00" fill="#666666">[timestamp with time zone]</text>
<polygon fill="none" stroke="black" points="46.2,-463 46.2,-493.8 365.15,-493.8 365.15,-463 46.2,-463"/>
<text text-anchor="start" x="53.2" y="-475.2" font-family="Arial" font-size="14.00">max_uses </text>
<text text-anchor="start" x="120.9" y="-475.2" font-family="Arial" font-size="14.00" fill="#666666">[integer]</text>
<polygon fill="none" stroke="black" points="46.2,-432.2 46.2,-463 365.15,-463 365.15,-432.2 46.2,-432.2"/>
<text text-anchor="start" x="53.2" y="-444.4" font-family="Arial" font-size="14.00">used_count </text>
<text text-anchor="start" x="129.48" y="-444.4" font-family="Arial" font-size="14.00" fill="#666666">[integer]</text>
<polygon fill="none" stroke="black" points="46.2,-401.4 46.2,-432.2 365.15,-432.2 365.15,-401.4 46.2,-401.4"/>
<text text-anchor="start" x="53.2" y="-413.6" font-family="Arial" font-size="14.00">created_at </text>
<text text-anchor="start" x="123.25" y="-413.6" font-family="Arial" font-size="14.00" fill="#666666">[timestamp with time zone]</text>
<polygon fill="none" stroke="black" stroke-width="3" points="44.7,-399.9 44.7,-654.1 366.65,-654.1 366.65,-399.9 44.7,-399.9"/>
</g>
<!-- public.tenants -->
<g id="node2" class="node">
<title>public.tenants</title>
<polygon fill="#efefef" stroke="none" points="708.83,-228 708.83,-263.6 962.51,-263.6 962.51,-228 708.83,-228"/>
<polygon fill="none" stroke="black" points="708.83,-228 708.83,-263.6 962.51,-263.6 962.51,-228 708.83,-228"/>
<text text-anchor="start" x="723.19" y="-241.4" font-family="Arial Bold" font-size="18.00">public.tenants</text>
<text text-anchor="start" x="823.67" y="-241.4" font-family="Arial" font-size="14.00">    </text>
<text text-anchor="start" x="854.78" y="-241.4" font-family="Arial" font-size="14.00" fill="#666666">[BASE TABLE]</text>
<polygon fill="none" stroke="black" points="708.83,-197.2 708.83,-228 962.51,-228 962.51,-197.2 708.83,-197.2"/>
<text text-anchor="start" x="715.83" y="-209.4" font-family="Arial" font-size="14.00">id </text>
<text text-anchor="start" x="730.62" y="-209.4" font-family="Arial" font-size="14.00" fill="#666666">[uuid]</text>
<polygon fill="none" stroke="black" points="708.83,-166.4 708.83,-197.2 962.51,-197.2 962.51,-166.4 708.83,-166.4"/>
<text text-anchor="start" x="715.83" y="-178.6" font-family="Arial" font-size="14.00">name </text>
<text text-anchor="start" x="754.74" y="-178.6" font-family="Arial" font-size="14.00" fill="#666666">[text]</text>
<polygon fill="none" stroke="black" points="708.83,-135.6 708.83,-166.4 962.51,-166.4 962.51,-135.6 708.83,-135.6"/>
<text text-anchor="start" x="715.83" y="-147.8" font-family="Arial" font-size="14.00">slug </text>
<text text-anchor="start" x="745.4" y="-147.8" font-family="Arial" font-size="14.00" fill="#666666">[text]</text>
<polygon fill="none" stroke="black" points="708.83,-104.8 708.83,-135.6 962.51,-135.6 962.51,-104.8 708.83,-104.8"/>
<text text-anchor="start" x="715.83" y="-117" font-family="Arial" font-size="14.00">password_hash </text>
<text text-anchor="start" x="817.78" y="-117" font-family="Arial" font-size="14.00" fill="#666666">[text]</text>
<polygon fill="none" stroke="black" points="708.83,-74 708.83,-104.8 962.51,-104.8 962.51,-74 708.83,-74"/>
<text text-anchor="start" x="715.83" y="-86.2" font-family="Arial" font-size="14.00">created_at </text>
<text text-anchor="start" x="785.88" y="-86.2" font-family="Arial" font-size="14.00" fill="#666666">[timestamp with time zone]</text>
<polygon fill="none" stroke="black" points="708.83,-43.2 708.83,-74 962.51,-74 962.51,-43.2 708.83,-43.2"/>
<text text-anchor="start" x="715.83" y="-55.4" font-family="Arial" font-size="14.00">updated_at </text>
<text text-anchor="start" x="789.79" y="-55.4" font-family="Arial" font-size="14.00" fill="#666666">[timestamp with time zone]</text>
</g>
<!-- public.tenant_join_codes&#45;&gt;public.tenants -->
<g id="edge1" class="edge">
<title>public.tenant_join_codes:tenant_id&#45;&gt;public.tenants:id</title>
<path fill="none" stroke="black" d="M376.34,-570.26C462.41,-560.5 356.69,-420.34 420.67,-342.8 509.86,-234.72 567.7,-212.6 707.83,-212.6"/>
<polygon fill="black" stroke="black" points="376.47,-570.25 366.24,-566.29 371.14,-570.54 366.81,-570.76 366.81,-570.76 366.81,-570.76 371.14,-570.54 366.72,-575.28 376.47,-570.25"/>
<text text-anchor="start" x="190.82" y="-554.8" font-family="Arial" font-size="10.00">FOREIGN KEY (tenant_id) REFERENCES tenants(id) ON DELETE CASCADE</text>
</g>
<!-- public.tenant_domains -->
<g id="node3" class="node">
<title>public.tenant_domains</title>
<polygon fill="#efefef" stroke="none" points="472.69,-570.8 472.69,-606.4 774.65,-606.4 774.65,-570.8 472.69,-570.8"/>
<polygon fill="none" stroke="black" points="472.69,-570.8 472.69,-606.4 774.65,-606.4 774.65,-570.8 472.69,-570.8"/>
<text text-anchor="start" x="479.69" y="-584.2" font-family="Arial Bold" font-size="18.00">public.tenant_domains</text>
<text text-anchor="start" x="643.16" y="-584.2" font-family="Arial" font-size="14.00">    </text>
<text text-anchor="start" x="674.28" y="-584.2" font-family="Arial" font-size="14.00" fill="#666666">[BASE TABLE]</text>
<polygon fill="none" stroke="black" points="472.69,-540 472.69,-570.8 774.65,-570.8 774.65,-540 472.69,-540"/>
<text text-anchor="start" x="479.69" y="-552.2" font-family="Arial" font-size="14.00">id </text>
<text text-anchor="start" x="494.48" y="-552.2" font-family="Arial" font-size="14.00" fill="#666666">[uuid]</text>
<polygon fill="none" stroke="black" points="472.69,-509.2 472.69,-540 774.65,-540 774.65,-509.2 472.69,-509.2"/>
<text text-anchor="start" x="479.69" y="-521.4" font-family="Arial" font-size="14.00">tenant_id </text>
<text text-anchor="start" x="541.19" y="-521.4" font-family="Arial" font-size="14.00" fill="#666666">[uuid]</text>
<polygon fill="none" stroke="black" points="472.69,-478.4 472.69,-509.2 774.65,-509.2 774.65,-478.4 472.69,-478.4"/>
<text text-anchor="start" x="479.69" y="-490.6" font-family="Arial" font-size="14.00">domain </text>
<text text-anchor="start" x="529.5" y="-490.6" font-family="Arial" font-size="14.00" fill="#666666">[text]</text>
<polygon fill="none" stroke="black" points="472.69,-447.6 472.69,-478.4 774.65,-478.4 774.65,-447.6 472.69,-447.6"/>
<text text-anchor="start" x="479.69" y="-459.8" font-family="Arial" font-size="14.00">created_at </text>
<text text-anchor="start" x="549.74" y="-459.8" font-family="Arial" font-size="14.00" fill="#666666">[timestamp with time zone]</text>
</g>
<!-- public.tenant_domains&#45;&gt;public.tenants -->
<g id="edge2" class="edge">
<title>public.tenant_domains:tenant_id&#45;&gt;public.tenants:id</title>
<path fill="none" stroke="black" d="M785.87,-524.16C894.37,-514.3 719.05,-339.61 708.83,-306.8 696.38,-266.83 665.96,-212.6 707.83,-212.6"/>
<polygon fill="black" stroke="black" points="785.98,-524.16 775.79,-520.09 780.65,-524.39 776.32,-524.57 776.32,-524.57 776.32,-524.57 780.65,-524.39 776.18,-529.08 785.98,-524.16"/>
<text text-anchor="start" x="417.99" y="-508.6" font-family="Arial" font-size="10.00">FOREIGN KEY (tenant_id) REFERENCES tenants(id) ON DELETE CASCADE</text>
</g>
<!-- public.tenant_memberships -->
<g id="node4" class="node">
<title>public.tenant_memberships</title>
<polygon fill="#efefef" stroke="none" points="879.2,-632.4 879.2,-668 1216.15,-668 1216.15,-632.4 879.2,-632.4"/>
<polygon fill="none" stroke="black" points="879.2,-632.4 879.2,-668 1216.15,-668 1216.15,-632.4 879.2,-632.4"/>
<text text-anchor="start" x="886.2" y="-645.8" font-family="Arial Bold" font-size="18.00">public.tenant_memberships</text>
<text text-anchor="start" x="1084.66" y="-645.8" font-family="Arial" font-size="14.00">    </text>
<text text-anchor="start" x="1115.77" y="-645.8" font-family="Arial" font-size="14.00" fill="#666666">[BASE TABLE]</text>
<polygon fill="none" stroke="black" points="879.2,-601.6 879.2,-632.4 1216.15,-632.4 1216.15,-601.6 879.2,-601.6"/>
<text text-anchor="start" x="886.2" y="-613.8" font-family="Arial" font-size="14.00">id </text>
<text text-anchor="start" x="900.99" y="-613.8" font-family="Arial" font-size="14.00" fill="#666666">[uuid]</text>
<polygon fill="none" stroke="black" points="879.2,-570.8 879.2,-601.6 1216.15,-601.6 1216.15,-570.8 879.2,-570.8"/>
<text text-anchor="start" x="886.2" y="-583" font-family="Arial" font-size="14.00">tenant_id </text>
<text text-anchor="start" x="947.7" y="-583" font-family="Arial" font-size="14.00" fill="#666666">[uuid]</text>
<polygon fill="none" stroke="black" points="879.2,-540 879.2,-570.8 1216.15,-570.8 1216.15,-540 879.2,-540"/>
<text text-anchor="start" x="886.2" y="-552.2" font-family="Arial" font-size="14.00">user_id </text>
<text text-anchor="start" x="936.01" y="-552.2" font-family="Arial" font-size="14.00" fill="#666666">[uuid]</text>
<polygon fill="none" stroke="black" points="879.2,-509.2 879.2,-540 1216.15,-540 1216.15,-509.2 879.2,-509.2"/>
<text text-anchor="start" x="886.2" y="-521.4" font-family="Arial" font-size="14.00">role </text>
<text text-anchor="start" x="913.43" y="-521.4" font-family="Arial" font-size="14.00" fill="#666666">[text]</text>
<polygon fill="none" stroke="black" points="879.2,-478.4 879.2,-509.2 1216.15,-509.2 1216.15,-478.4 879.2,-478.4"/>
<text text-anchor="start" x="886.2" y="-490.6" font-family="Arial" font-size="14.00">status </text>
<text text-anchor="start" x="927.44" y="-490.6" font-family="Arial" font-size="14.00" fill="#666666">[text]</text>
<polygon fill="none" stroke="black" points="879.2,-447.6 879.2,-478.4 1216.15,-478.4 1216.15,-447.6 879.2,-447.6"/>
<text text-anchor="start" x="886.2" y="-459.8" font-family="Arial" font-size="14.00">joined_via </text>
<text text-anchor="start" x="953.14" y="-459.8" font-family="Arial" font-size="14.00" fill="#666666">[text]</text>
<polygon fill="none" stroke="black" points="879.2,-416.8 879.2,-447.6 1216.15,-447.6 1216.15,-416.8 879.2,-416.8"/>
<text text-anchor="start" x="886.2" y="-429" font-family="Arial" font-size="14.00">created_at </text>
<text text-anchor="start" x="956.25" y="-429" font-family="Arial" font-size="14.00" fill="#666666">[timestamp with time zone]</text>
<polygon fill="none" stroke="black" points="879.2,-386 879.2,-416.8 1216.15,-416.8 1216.15,-386 879.2,-386"/>
<text text-anchor="start" x="886.2" y="-398.2" font-family="Arial" font-size="14.00">left_at </text>
<text text-anchor="start" x="928.23" y="-398.2" font-family="Arial" font-size="14.00" fill="#666666">[timestamp with time zone]</text>
</g>
<!-- public.tenant_memberships&#45;&gt;public.tenants -->
<g id="edge3" class="edge">
<title>public.tenant_memberships:tenant_id&#45;&gt;public.tenants:id</title>
<path fill="none" stroke="black" d="M868.2,-583.53C827.59,-559.81 851.44,-384.85 879.2,-342.8 901.42,-309.14 940.18,-340.39 962.51,-306.8 985.7,-271.93 1005.38,-212.6 963.51,-212.6"/>
<polygon fill="black" stroke="black" points="868.21,-583.54 876.72,-590.46 873.37,-584.91 877.55,-586.03 877.55,-586.03 877.55,-586.03 873.37,-584.91 879.04,-581.77 868.21,-583.54"/>
<text text-anchor="start" x="885.2" y="-596.2" font-family="Arial" font-size="10.00">FOREIGN KEY (tenant_id) REFERENCES tenants(id) ON DELETE CASCADE</text>
</g>
<!-- public.console_sessions -->
<g id="node5" class="node">
<title>public.console_sessions</title>
<polygon fill="#efefef" stroke="none" points="1320.19,-570.8 1320.19,-606.4 1631.16,-606.4 1631.16,-570.8 1320.19,-570.8"/>
<polygon fill="none" stroke="black" points="1320.19,-570.8 1320.19,-606.4 1631.16,-606.4 1631.16,-570.8 1320.19,-570.8"/>
<text text-anchor="start" x="1327.19" y="-584.2" font-family="Arial Bold" font-size="18.00">public.console_sessions</text>
<text text-anchor="start" x="1499.67" y="-584.2" font-family="Arial" font-size="14.00">    </text>
<text text-anchor="start" x="1530.79" y="-584.2" font-family="Arial" font-size="14.00" fill="#666666">[BASE TABLE]</text>
<polygon fill="none" stroke="black" points="1320.19,-540 1320.19,-570.8 1631.16,-570.8 1631.16,-540 1320.19,-540"/>
<text text-anchor="start" x="1327.19" y="-552.2" font-family="Arial" font-size="14.00">session_id </text>
<text text-anchor="start" x="1397.23" y="-552.2" font-family="Arial" font-size="14.00" fill="#666666">[text]</text>
<polygon fill="none" stroke="black" points="1320.19,-509.2 1320.19,-540 1631.16,-540 1631.16,-509.2 1320.19,-509.2"/>
<text text-anchor="start" x="1327.19" y="-521.4" font-family="Arial" font-size="14.00">tenant_id </text>
<text text-anchor="start" x="1388.68" y="-521.4" font-family="Arial" font-size="14.00" fill="#666666">[uuid]</text>
<polygon fill="none" stroke="black" points="1320.19,-478.4 1320.19,-509.2 1631.16,-509.2 1631.16,-478.4 1320.19,-478.4"/>
<text text-anchor="start" x="1327.19" y="-490.6" font-family="Arial" font-size="14.00">created_at </text>
<text text-anchor="start" x="1397.23" y="-490.6" font-family="Arial" font-size="14.00" fill="#666666">[timestamp with time zone]</text>
<polygon fill="none" stroke="black" points="1320.19,-447.6 1320.19,-478.4 1631.16,-478.4 1631.16,-447.6 1320.19,-447.6"/>
<text text-anchor="start" x="1327.19" y="-459.8" font-family="Arial" font-size="14.00">expires_at </text>
<text text-anchor="start" x="1395.67" y="-459.8" font-family="Arial" font-size="14.00" fill="#666666">[timestamp with time zone]</text>
</g>
<!-- public.console_sessions&#45;&gt;public.tenants -->
<g id="edge4" class="edge">
<title>public.console_sessions:tenant_id&#45;&gt;public.tenants:id</title>
<path fill="none" stroke="black" d="M1308.9,-523.9C1242.99,-514.05 1321.44,-403.05 1268.67,-342.8 1171.52,-231.87 1110.97,-212.6 963.51,-212.6"/>
<polygon fill="black" stroke="black" points="1308.88,-523.9 1318.55,-529.07 1314.2,-524.26 1318.52,-524.55 1318.52,-524.55 1318.52,-524.55 1314.2,-524.26 1319.16,-520.09 1308.88,-523.9"/>
<text text-anchor="start" x="1052.69" y="-508.6" font-family="Arial" font-size="10.00">FOREIGN KEY (tenant_id) REFERENCES tenants(id) ON DELETE CASCADE</text>
</g>
</g>
</svg>
