<?xml version="1.0" encoding="UTF-8" standalone="no"?>
<!DOCTYPE svg PUBLIC "-//W3C//DTD SVG 1.1//EN"
 "http://www.w3.org/Graphics/SVG/1.1/DTD/svg11.dtd">
<!-- Generated by graphviz version 12.1.2 (20240928.0832)
 -->
<!-- Title: public.tenant_domains Pages: 1 -->
<svg width="1682pt" height="719pt"
 viewBox="0.00 0.00 1681.87 719.20" xmlns="http://www.w3.org/2000/svg" xmlns:xlink="http://www.w3.org/1999/xlink">
<g id="graph0" class="graph" transform="scale(1 1) rotate(0) translate(4 715.2)">
<title>public.tenant_domains</title>
<polygon fill="white" stroke="none" points="-4,4 -4,-715.2 1677.87,-715.2 1677.87,4 -4,4"/>
<!-- public.tenant_domains -->
<g id="node1" class="node">
<title>public.tenant_domains</title>
<polygon fill="#efefef" stroke="none" points="46.2,-570.8 46.2,-606.4 348.16,-606.4 348.16,-570.8 46.2,-570.8"/>
<polygon fill="none" stroke="black" points="46.2,-570.8 46.2,-606.4 348.16,-606.4 348.16,-570.8 46.2,-570.8"/>
<text text-anchor="start" x="53.2" y="-584.2" font-family="Arial Bold" font-size="18.00">public.tenant_domains</text>
<text text-anchor="start" x="216.67" y="-584.2" font-family="Arial" font-size="14.00">    </text>
<text text-anchor="start" x="247.78" y="-584.2" font-family="Arial" font-size="14.00" fill="#666666">[BASE TABLE]</text>
<polygon fill="none" stroke="black" points="46.2,-540 46.2,-570.8 348.16,-570.8 348.16,-540 46.2,-540"/>
<text text-anchor="start" x="53.2" y="-552.2" font-family="Arial" font-size="14.00">id </text>
<text text-anchor="start" x="67.99" y="-552.2" font-family="Arial" font-size="14.00" fill="#666666">[uuid]</text>
<polygon fill="none" stroke="black" points="46.2,-509.2 46.2,-540 348.16,-540 348.16,-509.2 46.2,-509.2"/>
<text text-anchor="start" x="53.2" y="-521.4" font-family="Arial" font-size="14.00">tenant_id </text>
<text text-anchor="start" x="114.7" y="-521.4" font-family="Arial" font-size="14.00" fill="#666666">[uuid]</text>
<polygon fill="none" stroke="black" points="46.2,-478.4 46.2,-509.2 348.16,-509.2 348.16,-478.4 46.2,-478.4"/>
<text text-anchor="start" x="53.2" y="-490.6" font-family="Arial" font-size="14.00">domain </text>
<text text-anchor="start" x="103.01" y="-490.6" font-family="Arial" font-size="14.00" fill="#666666">[text]</text>
<polygon fill="none" stroke="black" points="46.2,-447.6 46.2,-478.4 348.16,-478.4 348.16,-447.6 46.2,-447.6"/>
<text text-anchor="start" x="53.2" y="-459.8" font-family="Arial" font-size="14.00">created_at </text>
<text text-anchor="start" x="123.25" y="-459.8" font-family="Arial" font-size="14.00" fill="#666666">[timestamp with time zone]</text>
<polygon fill="none" stroke="black" stroke-width="3" points="44.7,-446.1 44.7,-607.9 349.66,-607.9 349.66,-446.1 44.7,-446.1"/>
</g>
<!-- public.tenants -->
<g id="node2" class="node">
<title>public.tenants</title>
<polygon fill="#efefef" stroke="none" points="704.34,-228 704.34,-263.6 958.02,-263.6 958.02,-228 704.34,-228"/>
<polygon fill="none" stroke="black" points="704.34,-228 704.34,-263.6 958.02,-263.6 958.02,-228 704.34,-228"/>
<text text-anchor="start" x="718.7" y="-241.4" font-family="Arial Bold" font-size="18.00">public.tenants</text>
<text text-anchor="start" x="819.17" y="-241.4" font-family="Arial" font-size="14.00">    </text>
<text text-anchor="start" x="850.29" y="-241.4" font-family="Arial" font-size="14.00" fill="#666666">[BASE TABLE]</text>
<polygon fill="none" stroke="black" points="704.34,-197.2 704.34,-228 958.02,-228 958.02,-197.2 704.34,-197.2"/>
<text text-anchor="start" x="711.34" y="-209.4" font-family="Arial" font-size="14.00">id </text>
<text text-anchor="start" x="726.12" y="-209.4" font-family="Arial" font-size="14.00" fill="#666666">[uuid]</text>
<polygon fill="none" stroke="black" points="704.34,-166.4 704.34,-197.2 958.02,-197.2 958.02,-166.4 704.34,-166.4"/>
<text text-anchor="start" x="711.34" y="-178.6" font-family="Arial" font-size="14.00">name </text>
<text text-anchor="start" x="750.25" y="-178.6" font-family="Arial" font-size="14.00" fill="#666666">[text]</text>
<polygon fill="none" stroke="black" points="704.34,-135.6 704.34,-166.4 958.02,-166.4 958.02,-135.6 704.34,-135.6"/>
<text text-anchor="start" x="711.34" y="-147.8" font-family="Arial" font-size="14.00">slug </text>
<text text-anchor="start" x="740.91" y="-147.8" font-family="Arial" font-size="14.00" fill="#666666">[text]</text>
<polygon fill="none" stroke="black" points="704.34,-104.8 704.34,-135.6 958.02,-135.6 958.02,-104.8 704.34,-104.8"/>
<text text-anchor="start" x="711.34" y="-117" font-family="Arial" font-size="14.00">password_hash </text>
<text text-anchor="start" x="813.29" y="-117" font-family="Arial" font-size="14.00" fill="#666666">[text]</text>
<polygon fill="none" stroke="black" points="704.34,-74 704.34,-104.8 958.02,-104.8 958.02,-74 704.34,-74"/>
<text text-anchor="start" x="711.34" y="-86.2" font-family="Arial" font-size="14.00">created_at </text>
<text text-anchor="start" x="781.39" y="-86.2" font-family="Arial" font-size="14.00" fill="#666666">[timestamp with time zone]</text>
<polygon fill="none" stroke="black" points="704.34,-43.2 704.34,-74 958.02,-74 958.02,-43.2 704.34,-43.2"/>
<text text-anchor="start" x="711.34" y="-55.4" font-family="Arial" font-size="14.00">updated_at </text>
<text text-anchor="start" x="785.3" y="-55.4" font-family="Arial" font-size="14.00" fill="#666666">[timestamp with time zone]</text>
</g>
<!-- public.tenant_domains&#45;&gt;public.tenants -->
<g id="edge1" class="edge">
<title>public.tenant_domains:tenant_id&#45;&gt;public.tenants:id</title>
<path fill="none" stroke="black" d="M359.51,-523.9C425.99,-514.05 349.78,-403.05 403.18,-342.8 499.63,-233.98 557.92,-212.6 703.34,-212.6"/>
<polygon fill="black" stroke="black" points="359.47,-523.9 349.19,-520.09 354.15,-524.26 349.82,-524.55 349.82,-524.55 349.82,-524.55 354.15,-524.26 349.8,-529.07 359.47,-523.9"/>
<text text-anchor="start" x="173.83" y="-508.6" font-family="Arial" font-size="10.00">FOREIGN KEY (tenant_id) REFERENCES tenants(id) ON DELETE CASCADE</text>
</g>
<!-- public.tenant_join_codes -->
<g id="node3" class="node">
<title>public.tenant_join_codes</title>
<polygon fill="#efefef" stroke="none" points="455.71,-617 455.71,-652.6 774.65,-652.6 774.65,-617 455.71,-617"/>
<polygon fill="none" stroke="black" points="455.71,-617 455.71,-652.6 774.65,-652.6 774.65,-617 455.71,-617"/>
<text text-anchor="start" x="462.71" y="-630.4" font-family="Arial Bold" font-size="18.00">public.tenant_join_codes</text>
<text text-anchor="start" x="643.16" y="-630.4" font-family="Arial" font-size="14.00">    </text>
<text text-anchor="start" x="674.28" y="-630.4" font-family="Arial" font-size="14.00" fill="#666666">[BASE TABLE]</text>
<polygon fill="none" stroke="black" points="455.71,-586.2 455.71,-617 774.65,-617 774.65,-586.2 455.71,-586.2"/>
<text text-anchor="start" x="462.71" y="-598.4" font-family="Arial" font-size="14.00">id </text>
<text text-anchor="start" x="477.49" y="-598.4" font-family="Arial" font-size="14.00" fill="#666666">[uuid]</text>
<polygon fill="none" stroke="black" points="455.71,-555.4 455.71,-586.2 774.65,-586.2 774.65,-555.4 455.71,-555.4"/>
<text text-anchor="start" x="462.71" y="-567.6" font-family="Arial" font-size="14.00">tenant_id </text>
<text text-anchor="start" x="524.2" y="-567.6" font-family="Arial" font-size="14.00" fill="#666666">[uuid]</text>
<polygon fill="none" stroke="black" points="455.71,-524.6 455.71,-555.4 774.65,-555.4 774.65,-524.6 455.71,-524.6"/>
<text text-anchor="start" x="462.71" y="-536.8" font-family="Arial" font-size="14.00">code </text>
<text text-anchor="start" x="496.95" y="-536.8" font-family="Arial" font-size="14.00" fill="#666666">[text]</text>
<polygon fill="none" stroke="black" points="455.71,-493.8 455.71,-524.6 774.65,-524.6 774.65,-493.8 455.71,-493.8"/>
<text text-anchor="start" x="462.71" y="-506" font-family="Arial" font-size="14.00">expires_at </text>
<text text-anchor="start" x="531.19" y="-506" font-family="Arial" font-size="14.00" fill="#666666">[timestamp with time zone]</text>
<polygon fill="none" stroke="black" points="455.71,-463 455.71,-493.8 774.65,-493.8 774.65,-463 455.71,-463"/>
<text text-anchor="start" x="462.71" y="-475.2" font-family="Arial" font-size="14.00">max_uses </text>
<text text-anchor="start" x="530.4" y="-475.2" font-family="Arial" font-size="14.00" fill="#666666">[integer]</text>
<polygon fill="none" stroke="black" points="455.71,-432.2 455.71,-463 774.65,-463 774.65,-432.2 455.71,-432.2"/>
<text text-anchor="start" x="462.71" y="-444.4" font-family="Arial" font-size="14.00">used_count </text>
<text text-anchor="start" x="538.99" y="-444.4" font-family="Arial" font-size="14.00" fill="#666666">[integer]</text>
<polygon fill="none" stroke="black" points="455.71,-401.4 455.71,-432.2 774.65,-432.2 774.65,-401.4 455.71,-401.4"/>
<text text-anchor="start" x="462.71" y="-413.6" font-family="Arial" font-size="14.00">created_at </text>
<text text-anchor="start" x="532.75" y="-413.6" font-family="Arial" font-size="14.00" fill="#666666">[timestamp with time zone]</text>
</g>
<!-- public.tenant_join_codes&#45;&gt;public.tenants -->
<g id="edge2" class="edge">
<title>public.tenant_join_codes:tenant_id&#45;&gt;public.tenants:id</title>
<path fill="none" stroke="black" d="M785.41,-567.82C818.75,-544.94 794.46,-396.99 774.65,-358.2 757.05,-323.72 722.04,-341.22 704.34,-306.8 685.19,-269.57 661.47,-212.6 703.34,-212.6"/>
<polygon fill="black" stroke="black" points="785.54,-567.78 774.66,-566.4 780.43,-569.34 776.29,-570.6 776.29,-570.6 776.29,-570.6 780.43,-569.34 777.29,-575.01 785.54,-567.78"/>
<text text-anchor="start" x="782.65" y="-580.8" font-family="Arial" font-size="10.00">FOREIGN KEY (tenant_id) REFERENCES tenants(id) ON DELETE CASCADE</text>
</g>
<!-- public.tenant_memberships -->
<g id="node4" class="node">
<title>public.tenant_memberships</title>
<polygon fill="#efefef" stroke="none" points="878.71,-632.4 878.71,-668 1215.65,-668 1215.65,-632.4 878.71,-632.4"/>
<polygon fill="none" stroke="black" points="878.71,-632.4 878.71,-668 1215.65,-668 1215.65,-632.4 878.71,-632.4"/>
<text text-anchor="start" x="885.71" y="-645.8" font-family="Arial Bold" font-size="18.00">public.tenant_memberships</text>
<text text-anchor="start" x="1084.16" y="-645.8" font-family="Arial" font-size="14.00">    </text>
<text text-anchor="start" x="1115.28" y="-645.8" font-family="Arial" font-size="14.00" fill="#666666">[BASE TABLE]</text>
<polygon fill="none" stroke="black" points="878.71,-601.6 878.71,-632.4 1215.65,-632.4 1215.65,-601.6 878.71,-601.6"/>
<text text-anchor="start" x="885.71" y="-613.8" font-family="Arial" font-size="14.00">id </text>
<text text-anchor="start" x="900.49" y="-613.8" font-family="Arial" font-size="14.00" fill="#666666">[uuid]</text>
<polygon fill="none" stroke="black" points="878.71,-570.8 878.71,-601.6 1215.65,-601.6 1215.65,-570.8 878.71,-570.8"/>
<text text-anchor="start" x="885.71" y="-583" font-family="Arial" font-size="14.00">tenant_id </text>
<text text-anchor="start" x="947.2" y="-583" font-family="Arial" font-size="14.00" fill="#666666">[uuid]</text>
<polygon fill="none" stroke="black" points="878.71,-540 878.71,-570.8 1215.65,-570.8 1215.65,-540 878.71,-540"/>
<text text-anchor="start" x="885.71" y="-552.2" font-family="Arial" font-size="14.00">user_id </text>
<text text-anchor="start" x="935.51" y="-552.2" font-family="Arial" font-size="14.00" fill="#666666">[uuid]</text>
<polygon fill="none" stroke="black" points="878.71,-509.2 878.71,-540 1215.65,-540 1215.65,-509.2 878.71,-509.2"/>
<text text-anchor="start" x="885.71" y="-521.4" font-family="Arial" font-size="14.00">role </text>
<text text-anchor="start" x="912.94" y="-521.4" font-family="Arial" font-size="14.00" fill="#666666">[text]</text>
<polygon fill="none" stroke="black" points="878.71,-478.4 878.71,-509.2 1215.65,-509.2 1215.65,-478.4 878.71,-478.4"/>
<text text-anchor="start" x="885.71" y="-490.6" font-family="Arial" font-size="14.00">status </text>
<text text-anchor="start" x="926.95" y="-490.6" font-family="Arial" font-size="14.00" fill="#666666">[text]</text>
<polygon fill="none" stroke="black" points="878.71,-447.6 878.71,-478.4 1215.65,-478.4 1215.65,-447.6 878.71,-447.6"/>
<text text-anchor="start" x="885.71" y="-459.8" font-family="Arial" font-size="14.00">joined_via </text>
<text text-anchor="start" x="952.64" y="-459.8" font-family="Arial" font-size="14.00" fill="#666666">[text]</text>
<polygon fill="none" stroke="black" points="878.71,-416.8 878.71,-447.6 1215.65,-447.6 1215.65,-416.8 878.71,-416.8"/>
<text text-anchor="start" x="885.71" y="-429" font-family="Arial" font-size="14.00">created_at </text>
<text text-anchor="start" x="955.75" y="-429" font-family="Arial" font-size="14.00" fill="#666666">[timestamp with time zone]</text>
<polygon fill="none" stroke="black" points="878.71,-386 878.71,-416.8 1215.65,-416.8 1215.65,-386 878.71,-386"/>
<text text-anchor="start" x="885.71" y="-398.2" font-family="Arial" font-size="14.00">left_at </text>
<text text-anchor="start" x="927.73" y="-398.2" font-family="Arial" font-size="14.00" fill="#666666">[timestamp with time zone]</text>
</g>
<!-- public.tenant_memberships&#45;&gt;public.tenants -->
<g id="edge3" class="edge">
<title>public.tenant_memberships:tenant_id&#45;&gt;public.tenants:id</title>
<path fill="none" stroke="black" d="M867.71,-583.54C827.15,-559.84 851.33,-385.1 878.71,-342.8 899.74,-310.3 936.88,-339.23 958.02,-306.8 980.88,-271.72 1000.89,-212.6 959.02,-212.6"/>
<polygon fill="black" stroke="black" points="867.72,-583.54 876.22,-590.46 872.87,-584.91 877.06,-586.03 877.06,-586.03 877.06,-586.03 872.87,-584.91 878.54,-581.77 867.72,-583.54"/>
<text text-anchor="start" x="884.71" y="-596.2" font-family="Arial" font-size="10.00">FOREIGN KEY (tenant_id) REFERENCES tenants(id) ON DELETE CASCADE</text>
</g>
<!-- public.console_sessions -->
<g id="node5" class="node">
<title>public.console_sessions</title>
<polygon fill="#efefef" stroke="none" points="1319.69,-570.8 1319.69,-606.4 1630.67,-606.4 1630.67,-570.8 1319.69,-570.8"/>
<polygon fill="none" stroke="black" points="1319.69,-570.8 1319.69,-606.4 1630.67,-606.4 1630.67,-570.8 1319.69,-570.8"/>
<text text-anchor="start" x="1326.69" y="-584.2" font-family="Arial Bold" font-size="18.00">public.console_sessions</text>
<text text-anchor="start" x="1499.18" y="-584.2" font-family="Arial" font-size="14.00">    </text>
<text text-anchor="start" x="1530.29" y="-584.2" font-family="Arial" font-size="14.00" fill="#666666">[BASE TABLE]</text>
<polygon fill="none" stroke="black" points="1319.69,-540 1319.69,-570.8 1630.67,-570.8 1630.67,-540 1319.69,-540"/>
<text text-anchor="start" x="1326.69" y="-552.2" font-family="Arial" font-size="14.00">session_id </text>
<text text-anchor="start" x="1396.73" y="-552.2" font-family="Arial" font-size="14.00" fill="#666666">[text]</text>
<polygon fill="none" stroke="black" points="1319.69,-509.2 1319.69,-540 1630.67,-540 1630.67,-509.2 1319.69,-509.2"/>
<text text-anchor="start" x="1326.69" y="-521.4" font-family="Arial" font-size="14.00">tenant_id </text>
<text text-anchor="start" x="1388.19" y="-521.4" font-family="Arial" font-size="14.00" fill="#666666">[uuid]</text>
<polygon fill="none" stroke="black" points="1319.69,-478.4 1319.69,-509.2 1630.67,-509.2 1630.67,-478.4 1319.69,-478.4"/>
<text text-anchor="start" x="1326.69" y="-490.6" font-family="Arial" font-size="14.00">created_at </text>
<text text-anchor="start" x="1396.74" y="-490.6" font-family="Arial" font-size="14.00" fill="#666666">[timestamp with time zone]</text>
<polygon fill="none" stroke="black" points="1319.69,-447.6 1319.69,-478.4 1630.67,-478.4 1630.67,-447.6 1319.69,-447.6"/>
<text text-anchor="start" x="1326.69" y="-459.8" font-family="Arial" font-size="14.00">expires_at </text>
<text text-anchor="start" x="1395.17" y="-459.8" font-family="Arial" font-size="14.00" fill="#666666">[timestamp with time zone]</text>
</g>
<!-- public.console_sessions&#45;&gt;public.tenants -->
<g id="edge4" class="edge">
<title>public.console_sessions:tenant_id&#45;&gt;public.tenants:id</title>
<path fill="none" stroke="black" d="M1308.41,-523.9C1242.51,-514.04 1321.09,-402.93 1268.18,-342.8 1169.69,-230.87 1108.11,-212.6 959.02,-212.6"/>
<polygon fill="black" stroke="black" points="1308.38,-523.89 1318.05,-529.07 1313.7,-524.26 1318.02,-524.55 1318.02,-524.55 1318.02,-524.55 1313.7,-524.26 1318.66,-520.09 1308.38,-523.89"/>
<text text-anchor="start" x="1052.2" y="-508.6" font-family="Arial" font-size="10.00">FOREIGN KEY (tenant_id) REFERENCES tenants(id) ON DELETE CASCADE</text>
</g>
</g>
</svg>
