<?xml version="1.0" encoding="UTF-8" standalone="no"?>
<!DOCTYPE svg PUBLIC "-//W3C//DTD SVG 1.1//EN"
 "http://www.w3.org/Graphics/SVG/1.1/DTD/svg11.dtd">
<!-- Generated by graphviz version 12.1.2 (20240928.0832)
 -->
<!-- Title: public.tenant_memberships Pages: 1 -->
<svg width="1441pt" height="1130pt"
 viewBox="0.00 0.00 1441.03 1129.60" xmlns="http://www.w3.org/2000/svg" xmlns:xlink="http://www.w3.org/1999/xlink">
<g id="graph0" class="graph" transform="scale(1 1) rotate(0) translate(4 1125.6)">
<title>public.tenant_memberships</title>
<polygon fill="white" stroke="none" points="-4,4 -4,-1125.6 1437.03,-1125.6 1437.03,4 -4,4"/>
<!-- public.tenant_memberships -->
<g id="node1" class="node">
<title>public.tenant_memberships</title>
<polygon fill="#efefef" stroke="none" points="625.37,-666.2 625.37,-701.8 962.32,-701.8 962.32,-666.2 625.37,-666.2"/>
<polygon fill="none" stroke="black" points="625.37,-666.2 625.37,-701.8 962.32,-701.8 962.32,-666.2 625.37,-666.2"/>
<text text-anchor="start" x="632.37" y="-679.6" font-family="Arial Bold" font-size="18.00">public.tenant_memberships</text>
<text text-anchor="start" x="830.83" y="-679.6" font-family="Arial" font-size="14.00">    </text>
<text text-anchor="start" x="861.95" y="-679.6" font-family="Arial" font-size="14.00" fill="#666666">[BASE TABLE]</text>
<polygon fill="none" stroke="black" points="625.37,-635.4 625.37,-666.2 962.32,-666.2 962.32,-635.4 625.37,-635.4"/>
<text text-anchor="start" x="632.37" y="-647.6" font-family="Arial" font-size="14.00">id </text>
<text text-anchor="start" x="647.16" y="-647.6" font-family="Arial" font-size="14.00" fill="#666666">[uuid]</text>
<polygon fill="none" stroke="black" points="625.37,-604.6 625.37,-635.4 962.32,-635.4 962.32,-604.6 625.37,-604.6"/>
<text text-anchor="start" x="632.37" y="-616.8" font-family="Arial" font-size="14.00">tenant_id </text>
<text text-anchor="start" x="693.87" y="-616.8" font-family="Arial" font-size="14.00" fill="#666666">[uuid]</text>
<polygon fill="none" stroke="black" points="625.37,-573.8 625.37,-604.6 962.32,-604.6 962.32,-573.8 625.37,-573.8"/>
<text text-anchor="start" x="632.37" y="-586" font-family="Arial" font-size="14.00">user_id </text>
<text text-anchor="start" x="682.18" y="-586" font-family="Arial" font-size="14.00" fill="#666666">[uuid]</text>
<polygon fill="none" stroke="black" points="625.37,-543 625.37,-573.8 962.32,-573.8 962.32,-543 625.37,-543"/>
<text text-anchor="start" x="632.37" y="-555.2" font-family="Arial" font-size="14.00">role </text>
<text text-anchor="start" x="659.61" y="-555.2" font-family="Arial" font-size="14.00" fill="#666666">[text]</text>
<polygon fill="none" stroke="black" points="625.37,-512.2 625.37,-543 962.32,-543 962.32,-512.2 625.37,-512.2"/>
<text text-anchor="start" x="632.37" y="-524.4" font-family="Arial" font-size="14.00">status </text>
<text text-anchor="start" x="673.61" y="-524.4" font-family="Arial" font-size="14.00" fill="#666666">[text]</text>
<polygon fill="none" stroke="black" points="625.37,-481.4 625.37,-512.2 962.32,-512.2 962.32,-481.4 625.37,-481.4"/>
<text text-anchor="start" x="632.37" y="-493.6" font-family="Arial" font-size="14.00">joined_via </text>
<text text-anchor="start" x="699.31" y="-493.6" font-family="Arial" font-size="14.00" fill="#666666">[text]</text>
<polygon fill="none" stroke="black" points="625.37,-450.6 625.37,-481.4 962.32,-481.4 962.32,-450.6 625.37,-450.6"/>
<text text-anchor="start" x="632.37" y="-462.8" font-family="Arial" font-size="14.00">created_at </text>
<text text-anchor="start" x="702.42" y="-462.8" font-family="Arial" font-size="14.00" fill="#666666">[timestamp with time zone]</text>
<polygon fill="none" stroke="black" points="625.37,-419.8 625.37,-450.6 962.32,-450.6 962.32,-419.8 625.37,-419.8"/>
<text text-anchor="start" x="632.37" y="-432" font-family="Arial" font-size="14.00">left_at </text>
<text text-anchor="start" x="674.4" y="-432" font-family="Arial" font-size="14.00" fill="#666666">[timestamp with time zone]</text>
<polygon fill="none" stroke="black" stroke-width="3" points="623.87,-418.3 623.87,-703.3 963.82,-703.3 963.82,-418.3 623.87,-418.3"/>
</g>
<!-- public.users -->
<g id="node3" class="node">
<title>public.users</title>
<polygon fill="#efefef" stroke="none" points="235.27,-243.4 235.27,-279 508.42,-279 508.42,-243.4 235.27,-243.4"/>
<polygon fill="none" stroke="black" points="235.27,-243.4 235.27,-279 508.42,-279 508.42,-243.4 235.27,-243.4"/>
<text text-anchor="start" x="266.36" y="-256.8" font-family="Arial Bold" font-size="18.00">public.users</text>
<text text-anchor="start" x="352.84" y="-256.8" font-family="Arial" font-size="14.00">    </text>
<text text-anchor="start" x="383.96" y="-256.8" font-family="Arial" font-size="14.00" fill="#666666">[BASE TABLE]</text>
<polygon fill="none" stroke="black" points="235.27,-212.6 235.27,-243.4 508.42,-243.4 508.42,-212.6 235.27,-212.6"/>
<text text-anchor="start" x="242.27" y="-224.8" font-family="Arial" font-size="14.00">id </text>
<text text-anchor="start" x="257.06" y="-224.8" font-family="Arial" font-size="14.00" fill="#666666">[uuid]</text>
<polygon fill="none" stroke="black" points="235.27,-181.8 235.27,-212.6 508.42,-212.6 508.42,-181.8 235.27,-181.8"/>
<text text-anchor="start" x="242.27" y="-194" font-family="Arial" font-size="14.00">email </text>
<text text-anchor="start" x="279.62" y="-194" font-family="Arial" font-size="14.00" fill="#666666">[text]</text>
<polygon fill="none" stroke="black" points="235.27,-151 235.27,-181.8 508.42,-181.8 508.42,-151 235.27,-151"/>
<text text-anchor="start" x="242.27" y="-163.2" font-family="Arial" font-size="14.00">name </text>
<text text-anchor="start" x="281.18" y="-163.2" font-family="Arial" font-size="14.00" fill="#666666">[text]</text>
<polygon fill="none" stroke="black" points="235.27,-120.2 235.27,-151 508.42,-151 508.42,-120.2 235.27,-120.2"/>
<text text-anchor="start" x="242.27" y="-132.4" font-family="Arial" font-size="14.00">icon </text>
<text text-anchor="start" x="271.85" y="-132.4" font-family="Arial" font-size="14.00" fill="#666666">[text]</text>
<polygon fill="none" stroke="black" points="235.27,-89.4 235.27,-120.2 508.42,-120.2 508.42,-89.4 235.27,-89.4"/>
<text text-anchor="start" x="242.27" y="-101.6" font-family="Arial" font-size="14.00">created_at </text>
<text text-anchor="start" x="312.32" y="-101.6" font-family="Arial" font-size="14.00" fill="#666666">[timestamp without time zone]</text>
<polygon fill="none" stroke="black" points="235.27,-58.6 235.27,-89.4 508.42,-89.4 508.42,-58.6 235.27,-58.6"/>
<text text-anchor="start" x="242.27" y="-70.8" font-family="Arial" font-size="14.00">updated_at </text>
<text text-anchor="start" x="316.23" y="-70.8" font-family="Arial" font-size="14.00" fill="#666666">[timestamp without time zone]</text>
</g>
<!-- public.tenant_memberships&#45;&gt;public.users -->
<g id="edge5" class="edge">
<title>public.tenant_memberships:user_id&#45;&gt;public.users:id</title>
<path fill="none" stroke="black" d="M614.09,-588.7C531.16,-580.19 600.87,-463.8 570.85,-373.6 548.67,-306.96 579.65,-228 509.42,-228"/>
<polygon fill="black" stroke="black" points="614.05,-588.7 623.82,-593.68 619.38,-588.96 623.7,-589.17 623.7,-589.17 623.7,-589.17 619.38,-588.96 624.26,-584.69 614.05,-588.7"/>
<text text-anchor="start" x="631.37" y="-599.2" font-family="Arial" font-size="10.00">FOREIGN KEY (user_id) REFERENCES users(id) ON DELETE CASCADE</text>
</g>
<!-- public.tenants -->
<g id="node4" class="node">
<title>public.tenants</title>
<polygon fill="#efefef" stroke="none" points="884,-258.8 884,-294.4 1137.69,-294.4 1137.69,-258.8 884,-258.8"/>
<polygon fill="none" stroke="black" points="884,-258.8 884,-294.4 1137.69,-294.4 1137.69,-258.8 884,-258.8"/>
<text text-anchor="start" x="898.36" y="-272.2" font-family="Arial Bold" font-size="18.00">public.tenants</text>
<text text-anchor="start" x="998.84" y="-272.2" font-family="Arial" font-size="14.00">    </text>
<text text-anchor="start" x="1029.96" y="-272.2" font-family="Arial" font-size="14.00" fill="#666666">[BASE TABLE]</text>
<polygon fill="none" stroke="black" points="884,-228 884,-258.8 1137.69,-258.8 1137.69,-228 884,-228"/>
<text text-anchor="start" x="891" y="-240.2" font-family="Arial" font-size="14.00">id </text>
<text text-anchor="start" x="905.79" y="-240.2" font-family="Arial" font-size="14.00" fill="#666666">[uuid]</text>
<polygon fill="none" stroke="black" points="884,-197.2 884,-228 1137.69,-228 1137.69,-197.2 884,-197.2"/>
<text text-anchor="start" x="891" y="-209.4" font-family="Arial" font-size="14.00">name </text>
<text text-anchor="start" x="929.92" y="-209.4" font-family="Arial" font-size="14.00" fill="#666666">[text]</text>
<polygon fill="none" stroke="black" points="884,-166.4 884,-197.2 1137.69,-197.2 1137.69,-166.4 884,-166.4"/>
<text text-anchor="start" x="891" y="-178.6" font-family="Arial" font-size="14.00">description </text>
<text text-anchor="start" x="962.6" y="-178.6" font-family="Arial" font-size="14.00" fill="#666666">[text]</text>
<polygon fill="none" stroke="black" points="884,-135.6 884,-166.4 1137.69,-166.4 1137.69,-135.6 884,-135.6"/>
<text text-anchor="start" x="891" y="-147.8" font-family="Arial" font-size="14.00">password_hash </text>
<text text-anchor="start" x="992.96" y="-147.8" font-family="Arial" font-size="14.00" fill="#666666">[text]</text>
<polygon fill="none" stroke="black" points="884,-104.8 884,-135.6 1137.69,-135.6 1137.69,-104.8 884,-104.8"/>
<text text-anchor="start" x="891" y="-117" font-family="Arial" font-size="14.00">tenant_type </text>
<text text-anchor="start" x="968.07" y="-117" font-family="Arial" font-size="14.00" fill="#666666">[text]</text>
<polygon fill="none" stroke="black" points="884,-74 884,-104.8 1137.69,-104.8 1137.69,-74 884,-74"/>
<text text-anchor="start" x="891" y="-86.2" font-family="Arial" font-size="14.00">created_at </text>
<text text-anchor="start" x="961.05" y="-86.2" font-family="Arial" font-size="14.00" fill="#666666">[timestamp with time zone]</text>
<polygon fill="none" stroke="black" points="884,-43.2 884,-74 1137.69,-74 1137.69,-43.2 884,-43.2"/>
<text text-anchor="start" x="891" y="-55.4" font-family="Arial" font-size="14.00">updated_at </text>
<text text-anchor="start" x="964.96" y="-55.4" font-family="Arial" font-size="14.00" fill="#666666">[timestamp with time zone]</text>
</g>
<!-- public.tenant_memberships&#45;&gt;public.tenants -->
<g id="edge3" class="edge">
<title>public.tenant_memberships:tenant_id&#45;&gt;public.tenants:id</title>
<path fill="none" stroke="black" d="M973.18,-617.45C1014.59,-594.07 989.99,-416.58 962.32,-373.6 941.58,-341.39 904.85,-369.74 884,-337.6 861.23,-302.47 841.14,-243.4 883,-243.4"/>
<polygon fill="black" stroke="black" points="973.33,-617.42 962.52,-615.56 968.16,-618.75 963.97,-619.83 963.97,-619.83 963.97,-619.83 968.16,-618.75 964.77,-624.27 973.33,-617.42"/>
<text text-anchor="start" x="970.32" y="-630" font-family="Arial" font-size="10.00">FOREIGN KEY (tenant_id) REFERENCES tenants(id) ON DELETE CASCADE</text>
</g>
<!-- public.sessions -->
<g id="node2" class="node">
<title>public.sessions</title>
<polygon fill="#efefef" stroke="none" points="348.96,-1042.8 348.96,-1078.4 598.73,-1078.4 598.73,-1042.8 348.96,-1042.8"/>
<polygon fill="none" stroke="black" points="348.96,-1042.8 348.96,-1078.4 598.73,-1078.4 598.73,-1042.8 348.96,-1042.8"/>
<text text-anchor="start" x="357.35" y="-1056.2" font-family="Arial Bold" font-size="18.00">public.sessions</text>
<text text-anchor="start" x="465.85" y="-1056.2" font-family="Arial" font-size="14.00">    </text>
<text text-anchor="start" x="496.97" y="-1056.2" font-family="Arial" font-size="14.00" fill="#666666">[BASE TABLE]</text>
<polygon fill="none" stroke="black" points="348.96,-1012 348.96,-1042.8 598.73,-1042.8 598.73,-1012 348.96,-1012"/>
<text text-anchor="start" x="355.96" y="-1024.2" font-family="Arial" font-size="14.00">session_id </text>
<text text-anchor="start" x="426" y="-1024.2" font-family="Arial" font-size="14.00" fill="#666666">[text]</text>
<polygon fill="none" stroke="black" points="348.96,-981.2 348.96,-1012 598.73,-1012 598.73,-981.2 348.96,-981.2"/>
<text text-anchor="start" x="355.96" y="-993.4" font-family="Arial" font-size="14.00">user_id </text>
<text text-anchor="start" x="405.77" y="-993.4" font-family="Arial" font-size="14.00" fill="#666666">[uuid]</text>
<polygon fill="none" stroke="black" points="348.96,-950.4 348.96,-981.2 598.73,-981.2 598.73,-950.4 348.96,-950.4"/>
<text text-anchor="start" x="355.96" y="-962.6" font-family="Arial" font-size="14.00">active_membership_id </text>
<text text-anchor="start" x="499.92" y="-962.6" font-family="Arial" font-size="14.00" fill="#666666">[uuid]</text>
<polygon fill="none" stroke="black" points="348.96,-919.6 348.96,-950.4 598.73,-950.4 598.73,-919.6 348.96,-919.6"/>
<text text-anchor="start" x="355.96" y="-931.8" font-family="Arial" font-size="14.00">created_at </text>
<text text-anchor="start" x="426.01" y="-931.8" font-family="Arial" font-size="14.00" fill="#666666">[timestamp with time zone]</text>
<polygon fill="none" stroke="black" points="348.96,-888.8 348.96,-919.6 598.73,-919.6 598.73,-888.8 348.96,-888.8"/>
<text text-anchor="start" x="355.96" y="-901" font-family="Arial" font-size="14.00">expires_at </text>
<text text-anchor="start" x="424.44" y="-901" font-family="Arial" font-size="14.00" fill="#666666">[timestamp with time zone]</text>
<polygon fill="none" stroke="black" points="348.96,-858 348.96,-888.8 598.73,-888.8 598.73,-858 348.96,-858"/>
<text text-anchor="start" x="355.96" y="-870.2" font-family="Arial" font-size="14.00">csrf_token </text>
<text text-anchor="start" x="424.44" y="-870.2" font-family="Arial" font-size="14.00" fill="#666666">[text]</text>
<polygon fill="none" stroke="black" points="348.96,-827.2 348.96,-858 598.73,-858 598.73,-827.2 348.96,-827.2"/>
<text text-anchor="start" x="355.96" y="-839.4" font-family="Arial" font-size="14.00">revoked </text>
<text text-anchor="start" x="409.66" y="-839.4" font-family="Arial" font-size="14.00" fill="#666666">[boolean]</text>
</g>
<!-- public.sessions&#45;&gt;public.tenant_memberships -->
<g id="edge1" class="edge">
<title>public.sessions:active_membership_id&#45;&gt;public.tenant_memberships:id</title>
<path fill="none" stroke="black" d="M610.03,-965.15C726.92,-949.41 487.65,-650.8 624.37,-650.8"/>
<polygon fill="black" stroke="black" points="610.05,-965.15 599.78,-961.29 604.72,-965.49 600.4,-965.76 600.4,-965.76 600.4,-965.76 604.72,-965.49 600.35,-970.27 610.05,-965.15"/>
<text text-anchor="start" x="606.73" y="-975.8" font-family="Arial" font-size="10.00">FOREIGN KEY (active_membership_id) REFERENCES tenant_memberships(id)</text>
</g>
<!-- public.sessions&#45;&gt;public.users -->
<g id="edge2" class="edge">
<title>public.sessions:user_id&#45;&gt;public.users:id</title>
<path fill="none" stroke="black" d="M337.55,-996.35C212.83,-990.28 212.59,-873.44 172.85,-748 137.7,-637.08 117.91,-228 234.27,-228"/>
<polygon fill="black" stroke="black" points="337.63,-996.35 347.52,-1001.09 342.96,-996.48 347.29,-996.58 347.29,-996.58 347.29,-996.58 342.96,-996.48 347.73,-992.09 337.63,-996.35"/>
<text text-anchor="start" x="7" y="-1006.6" font-family="Arial" font-size="10.00">FOREIGN KEY (user_id) REFERENCES users(id) ON DELETE CASCADE</text>
</g>
<!-- public.tenant_join_codes -->
<g id="node5" class="node">
<title>public.tenant_join_codes</title>
<polygon fill="#efefef" stroke="none" points="1069.37,-650.8 1069.37,-686.4 1388.32,-686.4 1388.32,-650.8 1069.37,-650.8"/>
<polygon fill="none" stroke="black" points="1069.37,-650.8 1069.37,-686.4 1388.32,-686.4 1388.32,-650.8 1069.37,-650.8"/>
<text text-anchor="start" x="1076.37" y="-664.2" font-family="Arial Bold" font-size="18.00">public.tenant_join_codes</text>
<text text-anchor="start" x="1256.83" y="-664.2" font-family="Arial" font-size="14.00">    </text>
<text text-anchor="start" x="1287.95" y="-664.2" font-family="Arial" font-size="14.00" fill="#666666">[BASE TABLE]</text>
<polygon fill="none" stroke="black" points="1069.37,-620 1069.37,-650.8 1388.32,-650.8 1388.32,-620 1069.37,-620"/>
<text text-anchor="start" x="1076.37" y="-632.2" font-family="Arial" font-size="14.00">id </text>
<text text-anchor="start" x="1091.16" y="-632.2" font-family="Arial" font-size="14.00" fill="#666666">[uuid]</text>
<polygon fill="none" stroke="black" points="1069.37,-589.2 1069.37,-620 1388.32,-620 1388.32,-589.2 1069.37,-589.2"/>
<text text-anchor="start" x="1076.37" y="-601.4" font-family="Arial" font-size="14.00">tenant_id </text>
<text text-anchor="start" x="1137.87" y="-601.4" font-family="Arial" font-size="14.00" fill="#666666">[uuid]</text>
<polygon fill="none" stroke="black" points="1069.37,-558.4 1069.37,-589.2 1388.32,-589.2 1388.32,-558.4 1069.37,-558.4"/>
<text text-anchor="start" x="1076.37" y="-570.6" font-family="Arial" font-size="14.00">code </text>
<text text-anchor="start" x="1110.62" y="-570.6" font-family="Arial" font-size="14.00" fill="#666666">[text]</text>
<polygon fill="none" stroke="black" points="1069.37,-527.6 1069.37,-558.4 1388.32,-558.4 1388.32,-527.6 1069.37,-527.6"/>
<text text-anchor="start" x="1076.37" y="-539.8" font-family="Arial" font-size="14.00">expires_at </text>
<text text-anchor="start" x="1144.85" y="-539.8" font-family="Arial" font-size="14.00" fill="#666666">[timestamp with time zone]</text>
<polygon fill="none" stroke="black" points="1069.37,-496.8 1069.37,-527.6 1388.32,-527.6 1388.32,-496.8 1069.37,-496.8"/>
<text text-anchor="start" x="1076.37" y="-509" font-family="Arial" font-size="14.00">max_uses </text>
<text text-anchor="start" x="1144.07" y="-509" font-family="Arial" font-size="14.00" fill="#666666">[integer]</text>
<polygon fill="none" stroke="black" points="1069.37,-466 1069.37,-496.8 1388.32,-496.8 1388.32,-466 1069.37,-466"/>
<text text-anchor="start" x="1076.37" y="-478.2" font-family="Arial" font-size="14.00">used_count </text>
<text text-anchor="start" x="1152.65" y="-478.2" font-family="Arial" font-size="14.00" fill="#666666">[integer]</text>
<polygon fill="none" stroke="black" points="1069.37,-435.2 1069.37,-466 1388.32,-466 1388.32,-435.2 1069.37,-435.2"/>
<text text-anchor="start" x="1076.37" y="-447.4" font-family="Arial" font-size="14.00">created_at </text>
<text text-anchor="start" x="1146.42" y="-447.4" font-family="Arial" font-size="14.00" fill="#666666">[timestamp with time zone]</text>
</g>
<!-- public.tenant_join_codes&#45;&gt;public.tenants -->
<g id="edge4" class="edge">
<title>public.tenant_join_codes:tenant_id&#45;&gt;public.tenants:id</title>
<path fill="none" stroke="black" d="M1058.63,-601.63C1025.4,-578.8 1050.37,-431.19 1069.37,-392 1086.31,-357.08 1120.65,-372.47 1137.69,-337.6 1156.07,-299.98 1180.56,-243.4 1138.69,-243.4"/>
<polygon fill="black" stroke="black" points="1058.49,-601.58 1066.74,-608.81 1063.59,-603.14 1067.73,-604.4 1067.73,-604.4 1067.73,-604.4 1063.59,-603.14 1069.37,-600.2 1058.49,-601.58"/>
<text text-anchor="start" x="1075.37" y="-588.6" font-family="Arial" font-size="10.00">FOREIGN KEY (tenant_id) REFERENCES tenants(id) ON DELETE CASCADE</text>
</g>
<!-- public.user_identities -->
<g id="node6" class="node">
<title>public.user_identities</title>
<polygon fill="#efefef" stroke="none" points="225.37,-635.4 225.37,-671 518.32,-671 518.32,-635.4 225.37,-635.4"/>
<polygon fill="none" stroke="black" points="225.37,-635.4 225.37,-671 518.32,-671 518.32,-635.4 225.37,-635.4"/>
<text text-anchor="start" x="232.37" y="-648.8" font-family="Arial Bold" font-size="18.00">public.user_identities</text>
<text text-anchor="start" x="386.83" y="-648.8" font-family="Arial" font-size="14.00">    </text>
<text text-anchor="start" x="417.95" y="-648.8" font-family="Arial" font-size="14.00" fill="#666666">[BASE TABLE]</text>
<polygon fill="none" stroke="black" points="225.37,-604.6 225.37,-635.4 518.32,-635.4 518.32,-604.6 225.37,-604.6"/>
<text text-anchor="start" x="232.37" y="-616.8" font-family="Arial" font-size="14.00">id </text>
<text text-anchor="start" x="247.15" y="-616.8" font-family="Arial" font-size="14.00" fill="#666666">[uuid]</text>
<polygon fill="none" stroke="black" points="225.37,-573.8 225.37,-604.6 518.32,-604.6 518.32,-573.8 225.37,-573.8"/>
<text text-anchor="start" x="232.37" y="-586" font-family="Arial" font-size="14.00">user_id </text>
<text text-anchor="start" x="282.17" y="-586" font-family="Arial" font-size="14.00" fill="#666666">[uuid]</text>
<polygon fill="none" stroke="black" points="225.37,-543 225.37,-573.8 518.32,-573.8 518.32,-543 225.37,-543"/>
<text text-anchor="start" x="232.37" y="-555.2" font-family="Arial" font-size="14.00">provider </text>
<text text-anchor="start" x="286.84" y="-555.2" font-family="Arial" font-size="14.00" fill="#666666">[text]</text>
<polygon fill="none" stroke="black" points="225.37,-512.2 225.37,-543 518.32,-543 518.32,-512.2 225.37,-512.2"/>
<text text-anchor="start" x="232.37" y="-524.4" font-family="Arial" font-size="14.00">provider_sub </text>
<text text-anchor="start" x="317.19" y="-524.4" font-family="Arial" font-size="14.00" fill="#666666">[text]</text>
<polygon fill="none" stroke="black" points="225.37,-481.4 225.37,-512.2 518.32,-512.2 518.32,-481.4 225.37,-481.4"/>
<text text-anchor="start" x="232.37" y="-493.6" font-family="Arial" font-size="14.00">created_at </text>
<text text-anchor="start" x="302.42" y="-493.6" font-family="Arial" font-size="14.00" fill="#666666">[timestamp with time zone]</text>
<polygon fill="none" stroke="black" points="225.37,-450.6 225.37,-481.4 518.32,-481.4 518.32,-450.6 225.37,-450.6"/>
<text text-anchor="start" x="232.37" y="-462.8" font-family="Arial" font-size="14.00">updated_at </text>
<text text-anchor="start" x="306.33" y="-462.8" font-family="Arial" font-size="14.00" fill="#666666">[timestamp with time zone]</text>
</g>
<!-- public.user_identities&#45;&gt;public.users -->
<g id="edge6" class="edge">
<title>public.user_identities:user_id&#45;&gt;public.users:id</title>
<path fill="none" stroke="black" d="M527.64,-583.23C557.79,-536.27 546.51,-228 509.42,-228"/>
<polygon fill="black" stroke="black" points="527.72,-583.17 516.97,-585.35 523.39,-586.28 519.87,-588.81 519.87,-588.81 519.87,-588.81 523.39,-586.28 522.22,-592.66 527.72,-583.17"/>
<text text-anchor="start" x="178.36" y="-599.2" font-family="Arial" font-size="10.00">FOREIGN KEY (user_id) REFERENCES users(id) ON DELETE CASCADE</text>
</g>
</g>
</svg>
