<?xml version="1.0" encoding="UTF-8" standalone="no"?>
<!DOCTYPE svg PUBLIC "-//W3C//DTD SVG 1.1//EN"
 "http://www.w3.org/Graphics/SVG/1.1/DTD/svg11.dtd">
<!-- Generated by graphviz version 12.1.2 (20240928.0832)
 -->
<!-- Title: public.sessions Pages: 1 -->
<svg width="1335pt" height="1099pt"
 viewBox="0.00 0.00 1334.98 1098.80" xmlns="http://www.w3.org/2000/svg" xmlns:xlink="http://www.w3.org/1999/xlink">
<g id="graph0" class="graph" transform="scale(1 1) rotate(0) translate(4 1094.8)">
<title>public.sessions</title>
<polygon fill="white" stroke="none" points="-4,4 -4,-1094.8 1330.98,-1094.8 1330.98,4 -4,4"/>
<!-- public.sessions -->
<g id="node1" class="node">
<title>public.sessions</title>
<polygon fill="#efefef" stroke="none" points="348.96,-1009 348.96,-1044.6 598.73,-1044.6 598.73,-1009 348.96,-1009"/>
<polygon fill="none" stroke="black" points="348.96,-1009 348.96,-1044.6 598.73,-1044.6 598.73,-1009 348.96,-1009"/>
<text text-anchor="start" x="357.35" y="-1022.4" font-family="Arial Bold" font-size="18.00">public.sessions</text>
<text text-anchor="start" x="465.85" y="-1022.4" font-family="Arial" font-size="14.00">    </text>
<text text-anchor="start" x="496.97" y="-1022.4" font-family="Arial" font-size="14.00" fill="#666666">[BASE TABLE]</text>
<polygon fill="none" stroke="black" points="348.96,-978.2 348.96,-1009 598.73,-1009 598.73,-978.2 348.96,-978.2"/>
<text text-anchor="start" x="355.96" y="-990.4" font-family="Arial" font-size="14.00">session_id </text>
<text text-anchor="start" x="426" y="-990.4" font-family="Arial" font-size="14.00" fill="#666666">[text]</text>
<polygon fill="none" stroke="black" points="348.96,-947.4 348.96,-978.2 598.73,-978.2 598.73,-947.4 348.96,-947.4"/>
<text text-anchor="start" x="355.96" y="-959.6" font-family="Arial" font-size="14.00">user_id </text>
<text text-anchor="start" x="405.77" y="-959.6" font-family="Arial" font-size="14.00" fill="#666666">[uuid]</text>
<polygon fill="none" stroke="black" points="348.96,-916.6 348.96,-947.4 598.73,-947.4 598.73,-916.6 348.96,-916.6"/>
<text text-anchor="start" x="355.96" y="-928.8" font-family="Arial" font-size="14.00">active_membership_id </text>
<text text-anchor="start" x="499.92" y="-928.8" font-family="Arial" font-size="14.00" fill="#666666">[uuid]</text>
<polygon fill="none" stroke="black" points="348.96,-885.8 348.96,-916.6 598.73,-916.6 598.73,-885.8 348.96,-885.8"/>
<text text-anchor="start" x="355.96" y="-898" font-family="Arial" font-size="14.00">created_at </text>
<text text-anchor="start" x="426.01" y="-898" font-family="Arial" font-size="14.00" fill="#666666">[timestamp with time zone]</text>
<polygon fill="none" stroke="black" points="348.96,-855 348.96,-885.8 598.73,-885.8 598.73,-855 348.96,-855"/>
<text text-anchor="start" x="355.96" y="-867.2" font-family="Arial" font-size="14.00">expires_at </text>
<text text-anchor="start" x="424.44" y="-867.2" font-family="Arial" font-size="14.00" fill="#666666">[timestamp with time zone]</text>
<polygon fill="none" stroke="black" points="348.96,-824.2 348.96,-855 598.73,-855 598.73,-824.2 348.96,-824.2"/>
<text text-anchor="start" x="355.96" y="-836.4" font-family="Arial" font-size="14.00">csrf_token </text>
<text text-anchor="start" x="424.44" y="-836.4" font-family="Arial" font-size="14.00" fill="#666666">[text]</text>
<polygon fill="none" stroke="black" points="348.96,-793.4 348.96,-824.2 598.73,-824.2 598.73,-793.4 348.96,-793.4"/>
<text text-anchor="start" x="355.96" y="-805.6" font-family="Arial" font-size="14.00">revoked </text>
<text text-anchor="start" x="409.66" y="-805.6" font-family="Arial" font-size="14.00" fill="#666666">[boolean]</text>
<polygon fill="none" stroke="black" stroke-width="3" points="347.46,-791.9 347.46,-1046.1 600.23,-1046.1 600.23,-791.9 347.46,-791.9"/>
</g>
<!-- public.users -->
<g id="node2" class="node">
<title>public.users</title>
<polygon fill="#efefef" stroke="none" points="237.27,-228 237.27,-263.6 510.42,-263.6 510.42,-228 237.27,-228"/>
<polygon fill="none" stroke="black" points="237.27,-228 237.27,-263.6 510.42,-263.6 510.42,-228 237.27,-228"/>
<text text-anchor="start" x="268.36" y="-241.4" font-family="Arial Bold" font-size="18.00">public.users</text>
<text text-anchor="start" x="354.84" y="-241.4" font-family="Arial" font-size="14.00">    </text>
<text text-anchor="start" x="385.96" y="-241.4" font-family="Arial" font-size="14.00" fill="#666666">[BASE TABLE]</text>
<polygon fill="none" stroke="black" points="237.27,-197.2 237.27,-228 510.42,-228 510.42,-197.2 237.27,-197.2"/>
<text text-anchor="start" x="244.27" y="-209.4" font-family="Arial" font-size="14.00">id </text>
<text text-anchor="start" x="259.06" y="-209.4" font-family="Arial" font-size="14.00" fill="#666666">[uuid]</text>
<polygon fill="none" stroke="black" points="237.27,-166.4 237.27,-197.2 510.42,-197.2 510.42,-166.4 237.27,-166.4"/>
<text text-anchor="start" x="244.27" y="-178.6" font-family="Arial" font-size="14.00">email </text>
<text text-anchor="start" x="281.62" y="-178.6" font-family="Arial" font-size="14.00" fill="#666666">[text]</text>
<polygon fill="none" stroke="black" points="237.27,-135.6 237.27,-166.4 510.42,-166.4 510.42,-135.6 237.27,-135.6"/>
<text text-anchor="start" x="244.27" y="-147.8" font-family="Arial" font-size="14.00">name </text>
<text text-anchor="start" x="283.18" y="-147.8" font-family="Arial" font-size="14.00" fill="#666666">[text]</text>
<polygon fill="none" stroke="black" points="237.27,-104.8 237.27,-135.6 510.42,-135.6 510.42,-104.8 237.27,-104.8"/>
<text text-anchor="start" x="244.27" y="-117" font-family="Arial" font-size="14.00">icon </text>
<text text-anchor="start" x="273.85" y="-117" font-family="Arial" font-size="14.00" fill="#666666">[text]</text>
<polygon fill="none" stroke="black" points="237.27,-74 237.27,-104.8 510.42,-104.8 510.42,-74 237.27,-74"/>
<text text-anchor="start" x="244.27" y="-86.2" font-family="Arial" font-size="14.00">created_at </text>
<text text-anchor="start" x="314.32" y="-86.2" font-family="Arial" font-size="14.00" fill="#666666">[timestamp without time zone]</text>
<polygon fill="none" stroke="black" points="237.27,-43.2 237.27,-74 510.42,-74 510.42,-43.2 237.27,-43.2"/>
<text text-anchor="start" x="244.27" y="-55.4" font-family="Arial" font-size="14.00">updated_at </text>
<text text-anchor="start" x="318.23" y="-55.4" font-family="Arial" font-size="14.00" fill="#666666">[timestamp without time zone]</text>
</g>
<!-- public.sessions&#45;&gt;public.users -->
<g id="edge1" class="edge">
<title>public.sessions:user_id&#45;&gt;public.users:id</title>
<path fill="none" stroke="black" d="M337.89,-962.57C212.34,-956.6 214.11,-837.53 174.85,-711.2 141.71,-604.59 124.64,-212.6 236.27,-212.6"/>
<polygon fill="black" stroke="black" points="337.63,-962.56 347.52,-967.29 342.96,-962.68 347.29,-962.78 347.29,-962.78 347.29,-962.78 342.96,-962.68 347.73,-958.29 337.63,-962.56"/>
<text text-anchor="start" x="7" y="-972.8" font-family="Arial" font-size="10.00">FOREIGN KEY (user_id) REFERENCES users(id) ON DELETE CASCADE</text>
</g>
<!-- public.tenant_memberships -->
<g id="node4" class="node">
<title>public.tenant_memberships</title>
<polygon fill="#efefef" stroke="none" points="624.37,-632.4 624.37,-668 961.32,-668 961.32,-632.4 624.37,-632.4"/>
<polygon fill="none" stroke="black" points="624.37,-632.4 624.37,-668 961.32,-668 961.32,-632.4 624.37,-632.4"/>
<text text-anchor="start" x="631.37" y="-645.8" font-family="Arial Bold" font-size="18.00">public.tenant_memberships</text>
<text text-anchor="start" x="829.83" y="-645.8" font-family="Arial" font-size="14.00">    </text>
<text text-anchor="start" x="860.95" y="-645.8" font-family="Arial" font-size="14.00" fill="#666666">[BASE TABLE]</text>
<polygon fill="none" stroke="black" points="624.37,-601.6 624.37,-632.4 961.32,-632.4 961.32,-601.6 624.37,-601.6"/>
<text text-anchor="start" x="631.37" y="-613.8" font-family="Arial" font-size="14.00">id </text>
<text text-anchor="start" x="646.16" y="-613.8" font-family="Arial" font-size="14.00" fill="#666666">[uuid]</text>
<polygon fill="none" stroke="black" points="624.37,-570.8 624.37,-601.6 961.32,-601.6 961.32,-570.8 624.37,-570.8"/>
<text text-anchor="start" x="631.37" y="-583" font-family="Arial" font-size="14.00">tenant_id </text>
<text text-anchor="start" x="692.87" y="-583" font-family="Arial" font-size="14.00" fill="#666666">[uuid]</text>
<polygon fill="none" stroke="black" points="624.37,-540 624.37,-570.8 961.32,-570.8 961.32,-540 624.37,-540"/>
<text text-anchor="start" x="631.37" y="-552.2" font-family="Arial" font-size="14.00">user_id </text>
<text text-anchor="start" x="681.18" y="-552.2" font-family="Arial" font-size="14.00" fill="#666666">[uuid]</text>
<polygon fill="none" stroke="black" points="624.37,-509.2 624.37,-540 961.32,-540 961.32,-509.2 624.37,-509.2"/>
<text text-anchor="start" x="631.37" y="-521.4" font-family="Arial" font-size="14.00">role </text>
<text text-anchor="start" x="658.61" y="-521.4" font-family="Arial" font-size="14.00" fill="#666666">[text]</text>
<polygon fill="none" stroke="black" points="624.37,-478.4 624.37,-509.2 961.32,-509.2 961.32,-478.4 624.37,-478.4"/>
<text text-anchor="start" x="631.37" y="-490.6" font-family="Arial" font-size="14.00">status </text>
<text text-anchor="start" x="672.61" y="-490.6" font-family="Arial" font-size="14.00" fill="#666666">[text]</text>
<polygon fill="none" stroke="black" points="624.37,-447.6 624.37,-478.4 961.32,-478.4 961.32,-447.6 624.37,-447.6"/>
<text text-anchor="start" x="631.37" y="-459.8" font-family="Arial" font-size="14.00">joined_via </text>
<text text-anchor="start" x="698.31" y="-459.8" font-family="Arial" font-size="14.00" fill="#666666">[text]</text>
<polygon fill="none" stroke="black" points="624.37,-416.8 624.37,-447.6 961.32,-447.6 961.32,-416.8 624.37,-416.8"/>
<text text-anchor="start" x="631.37" y="-429" font-family="Arial" font-size="14.00">created_at </text>
<text text-anchor="start" x="701.42" y="-429" font-family="Arial" font-size="14.00" fill="#666666">[timestamp with time zone]</text>
<polygon fill="none" stroke="black" points="624.37,-386 624.37,-416.8 961.32,-416.8 961.32,-386 624.37,-386"/>
<text text-anchor="start" x="631.37" y="-398.2" font-family="Arial" font-size="14.00">left_at </text>
<text text-anchor="start" x="673.4" y="-398.2" font-family="Arial" font-size="14.00" fill="#666666">[timestamp with time zone]</text>
</g>
<!-- public.sessions&#45;&gt;public.tenant_memberships -->
<g id="edge4" class="edge">
<title>public.sessions:active_membership_id&#45;&gt;public.tenant_memberships:id</title>
<path fill="none" stroke="black" d="M610.02,-931.35C726.84,-915.61 486.68,-617 623.37,-617"/>
<polygon fill="black" stroke="black" points="610.05,-931.35 599.78,-927.49 604.72,-931.69 600.4,-931.96 600.4,-931.96 600.4,-931.96 604.72,-931.69 600.35,-936.47 610.05,-931.35"/>
<text text-anchor="start" x="606.73" y="-942" font-family="Arial" font-size="10.00">FOREIGN KEY (active_membership_id) REFERENCES tenant_memberships(id)</text>
</g>
<!-- public.user_identities -->
<g id="node3" class="node">
<title>public.user_identities</title>
<polygon fill="#efefef" stroke="none" points="227.37,-601.6 227.37,-637.2 520.32,-637.2 520.32,-601.6 227.37,-601.6"/>
<polygon fill="none" stroke="black" points="227.37,-601.6 227.37,-637.2 520.32,-637.2 520.32,-601.6 227.37,-601.6"/>
<text text-anchor="start" x="234.37" y="-615" font-family="Arial Bold" font-size="18.00">public.user_identities</text>
<text text-anchor="start" x="388.83" y="-615" font-family="Arial" font-size="14.00">    </text>
<text text-anchor="start" x="419.95" y="-615" font-family="Arial" font-size="14.00" fill="#666666">[BASE TABLE]</text>
<polygon fill="none" stroke="black" points="227.37,-570.8 227.37,-601.6 520.32,-601.6 520.32,-570.8 227.37,-570.8"/>
<text text-anchor="start" x="234.37" y="-583" font-family="Arial" font-size="14.00">id </text>
<text text-anchor="start" x="249.15" y="-583" font-family="Arial" font-size="14.00" fill="#666666">[uuid]</text>
<polygon fill="none" stroke="black" points="227.37,-540 227.37,-570.8 520.32,-570.8 520.32,-540 227.37,-540"/>
<text text-anchor="start" x="234.37" y="-552.2" font-family="Arial" font-size="14.00">user_id </text>
<text text-anchor="start" x="284.17" y="-552.2" font-family="Arial" font-size="14.00" fill="#666666">[uuid]</text>
<polygon fill="none" stroke="black" points="227.37,-509.2 227.37,-540 520.32,-540 520.32,-509.2 227.37,-509.2"/>
<text text-anchor="start" x="234.37" y="-521.4" font-family="Arial" font-size="14.00">provider </text>
<text text-anchor="start" x="288.84" y="-521.4" font-family="Arial" font-size="14.00" fill="#666666">[text]</text>
<polygon fill="none" stroke="black" points="227.37,-478.4 227.37,-509.2 520.32,-509.2 520.32,-478.4 227.37,-478.4"/>
<text text-anchor="start" x="234.37" y="-490.6" font-family="Arial" font-size="14.00">provider_sub </text>
<text text-anchor="start" x="319.19" y="-490.6" font-family="Arial" font-size="14.00" fill="#666666">[text]</text>
<polygon fill="none" stroke="black" points="227.37,-447.6 227.37,-478.4 520.32,-478.4 520.32,-447.6 227.37,-447.6"/>
<text text-anchor="start" x="234.37" y="-459.8" font-family="Arial" font-size="14.00">created_at </text>
<text text-anchor="start" x="304.42" y="-459.8" font-family="Arial" font-size="14.00" fill="#666666">[timestamp with time zone]</text>
<polygon fill="none" stroke="black" points="227.37,-416.8 227.37,-447.6 520.32,-447.6 520.32,-416.8 227.37,-416.8"/>
<text text-anchor="start" x="234.37" y="-429" font-family="Arial" font-size="14.00">updated_at </text>
<text text-anchor="start" x="308.33" y="-429" font-family="Arial" font-size="14.00" fill="#666666">[timestamp with time zone]</text>
</g>
<!-- public.user_identities&#45;&gt;public.users -->
<g id="edge2" class="edge">
<title>public.user_identities:user_id&#45;&gt;public.users:id</title>
<path fill="none" stroke="black" d="M529.56,-549.16C557.66,-502.7 546.47,-212.6 511.42,-212.6"/>
<polygon fill="black" stroke="black" points="529.56,-549.16 518.87,-551.61 525.31,-552.38 521.86,-555 521.86,-555 521.86,-555 525.31,-552.38 524.31,-558.79 529.56,-549.16"/>
<text text-anchor="start" x="528.32" y="-565.4" font-family="Arial" font-size="10.00">FOREIGN KEY (user_id) REFERENCES users(id) ON DELETE CASCADE</text>
</g>
<!-- public.tenant_memberships&#45;&gt;public.users -->
<g id="edge3" class="edge">
<title>public.tenant_memberships:user_id&#45;&gt;public.users:id</title>
<path fill="none" stroke="black" d="M613.56,-552.76C576.74,-531.31 587.71,-385.23 572.85,-342.8 551.68,-282.42 575.4,-212.6 511.42,-212.6"/>
<polygon fill="black" stroke="black" points="613.39,-552.72 621.88,-559.66 618.54,-554.1 622.73,-555.23 622.73,-555.23 622.73,-555.23 618.54,-554.1 624.22,-550.97 613.39,-552.72"/>
<text text-anchor="start" x="630.37" y="-539.4" font-family="Arial" font-size="10.00">FOREIGN KEY (user_id) REFERENCES users(id) ON DELETE CASCADE</text>
</g>
<!-- public.tenants -->
<g id="node5" class="node">
<title>public.tenants</title>
<polygon fill="#efefef" stroke="none" points="666,-228 666,-263.6 919.69,-263.6 919.69,-228 666,-228"/>
<polygon fill="none" stroke="black" points="666,-228 666,-263.6 919.69,-263.6 919.69,-228 666,-228"/>
<text text-anchor="start" x="680.36" y="-241.4" font-family="Arial Bold" font-size="18.00">public.tenants</text>
<text text-anchor="start" x="780.84" y="-241.4" font-family="Arial" font-size="14.00">    </text>
<text text-anchor="start" x="811.96" y="-241.4" font-family="Arial" font-size="14.00" fill="#666666">[BASE TABLE]</text>
<polygon fill="none" stroke="black" points="666,-197.2 666,-228 919.69,-228 919.69,-197.2 666,-197.2"/>
<text text-anchor="start" x="673" y="-209.4" font-family="Arial" font-size="14.00">id </text>
<text text-anchor="start" x="687.79" y="-209.4" font-family="Arial" font-size="14.00" fill="#666666">[uuid]</text>
<polygon fill="none" stroke="black" points="666,-166.4 666,-197.2 919.69,-197.2 919.69,-166.4 666,-166.4"/>
<text text-anchor="start" x="673" y="-178.6" font-family="Arial" font-size="14.00">name </text>
<text text-anchor="start" x="711.92" y="-178.6" font-family="Arial" font-size="14.00" fill="#666666">[text]</text>
<polygon fill="none" stroke="black" points="666,-135.6 666,-166.4 919.69,-166.4 919.69,-135.6 666,-135.6"/>
<text text-anchor="start" x="673" y="-147.8" font-family="Arial" font-size="14.00">description </text>
<text text-anchor="start" x="744.6" y="-147.8" font-family="Arial" font-size="14.00" fill="#666666">[text]</text>
<polygon fill="none" stroke="black" points="666,-104.8 666,-135.6 919.69,-135.6 919.69,-104.8 666,-104.8"/>
<text text-anchor="start" x="673" y="-117" font-family="Arial" font-size="14.00">tenant_type </text>
<text text-anchor="start" x="750.07" y="-117" font-family="Arial" font-size="14.00" fill="#666666">[text]</text>
<polygon fill="none" stroke="black" points="666,-74 666,-104.8 919.69,-104.8 919.69,-74 666,-74"/>
<text text-anchor="start" x="673" y="-86.2" font-family="Arial" font-size="14.00">created_at </text>
<text text-anchor="start" x="743.05" y="-86.2" font-family="Arial" font-size="14.00" fill="#666666">[timestamp with time zone]</text>
<polygon fill="none" stroke="black" points="666,-43.2 666,-74 919.69,-74 919.69,-43.2 666,-43.2"/>
<text text-anchor="start" x="673" y="-55.4" font-family="Arial" font-size="14.00">updated_at </text>
<text text-anchor="start" x="746.96" y="-55.4" font-family="Arial" font-size="14.00" fill="#666666">[timestamp with time zone]</text>
</g>
<!-- public.tenant_memberships&#45;&gt;public.tenants -->
<g id="edge5" class="edge">
<title>public.tenant_memberships:tenant_id&#45;&gt;public.tenants:id</title>
<path fill="none" stroke="black" d="M972.4,-584.19C1042.2,-554.78 1000.63,-212.6 920.69,-212.6"/>
<polygon fill="black" stroke="black" points="972.45,-584.18 961.77,-581.72 967.22,-585.22 962.97,-586.07 962.97,-586.07 962.97,-586.07 967.22,-585.22 963.53,-590.55 972.45,-584.18"/>
<text text-anchor="start" x="969.32" y="-596.2" font-family="Arial" font-size="10.00">FOREIGN KEY (tenant_id) REFERENCES tenants(id) ON DELETE CASCADE</text>
</g>
</g>
</svg>
