<?xml version="1.0" encoding="UTF-8" standalone="no"?>
<!DOCTYPE svg PUBLIC "-//W3C//DTD SVG 1.1//EN"
 "http://www.w3.org/Graphics/SVG/1.1/DTD/svg11.dtd">
<!-- Generated by graphviz version 12.1.2 (20240928.0832)
 -->
<!-- Title: keyhub Pages: 1 -->
<svg width="2132pt" height="1154pt"
 viewBox="0.00 0.00 2132.46 1154.40" xmlns="http://www.w3.org/2000/svg" xmlns:xlink="http://www.w3.org/1999/xlink">
<g id="graph0" class="graph" transform="scale(1 1) rotate(0) translate(4 1150.4)">
<title>keyhub</title>
<polygon fill="white" stroke="none" points="-4,4 -4,-1150.4 2128.46,-1150.4 2128.46,4 -4,4"/>
<!-- public.users -->
<g id="node1" class="node">
<title>public.users</title>
<polygon fill="#efefef" stroke="none" points="271.11,-274.2 271.11,-309.8 544.25,-309.8 544.25,-274.2 271.11,-274.2"/>
<polygon fill="none" stroke="black" points="271.11,-274.2 271.11,-309.8 544.25,-309.8 544.25,-274.2 271.11,-274.2"/>
<text text-anchor="start" x="302.19" y="-287.6" font-family="Arial Bold" font-size="18.00">public.users</text>
<text text-anchor="start" x="388.68" y="-287.6" font-family="Arial" font-size="14.00">    </text>
<text text-anchor="start" x="419.79" y="-287.6" font-family="Arial" font-size="14.00" fill="#666666">[BASE TABLE]</text>
<polygon fill="none" stroke="black" points="271.11,-243.4 271.11,-274.2 544.25,-274.2 544.25,-243.4 271.11,-243.4"/>
<text text-anchor="start" x="278.11" y="-255.6" font-family="Arial" font-size="14.00">id </text>
<text text-anchor="start" x="292.89" y="-255.6" font-family="Arial" font-size="14.00" fill="#666666">[uuid]</text>
<polygon fill="none" stroke="black" points="271.11,-212.6 271.11,-243.4 544.25,-243.4 544.25,-212.6 271.11,-212.6"/>
<text text-anchor="start" x="278.11" y="-224.8" font-family="Arial" font-size="14.00">email </text>
<text text-anchor="start" x="315.45" y="-224.8" font-family="Arial" font-size="14.00" fill="#666666">[text]</text>
<polygon fill="none" stroke="black" points="271.11,-181.8 271.11,-212.6 544.25,-212.6 544.25,-181.8 271.11,-181.8"/>
<text text-anchor="start" x="278.11" y="-194" font-family="Arial" font-size="14.00">name </text>
<text text-anchor="start" x="317.02" y="-194" font-family="Arial" font-size="14.00" fill="#666666">[text]</text>
<polygon fill="none" stroke="black" points="271.11,-151 271.11,-181.8 544.25,-181.8 544.25,-151 271.11,-151"/>
<text text-anchor="start" x="278.11" y="-163.2" font-family="Arial" font-size="14.00">icon </text>
<text text-anchor="start" x="307.68" y="-163.2" font-family="Arial" font-size="14.00" fill="#666666">[text]</text>
<polygon fill="none" stroke="black" points="271.11,-120.2 271.11,-151 544.25,-151 544.25,-120.2 271.11,-120.2"/>
<text text-anchor="start" x="278.11" y="-132.4" font-family="Arial" font-size="14.00">created_at </text>
<text text-anchor="start" x="348.15" y="-132.4" font-family="Arial" font-size="14.00" fill="#666666">[timestamp without time zone]</text>
<polygon fill="none" stroke="black" points="271.11,-89.4 271.11,-120.2 544.25,-120.2 544.25,-89.4 271.11,-89.4"/>
<text text-anchor="start" x="278.11" y="-101.6" font-family="Arial" font-size="14.00">updated_at </text>
<text text-anchor="start" x="352.06" y="-101.6" font-family="Arial" font-size="14.00" fill="#666666">[timestamp without time zone]</text>
</g>
<!-- public.user_identities -->
<g id="node2" class="node">
<title>public.user_identities</title>
<polygon fill="#efefef" stroke="none" points="43.2,-678.6 43.2,-714.2 336.16,-714.2 336.16,-678.6 43.2,-678.6"/>
<polygon fill="none" stroke="black" points="43.2,-678.6 43.2,-714.2 336.16,-714.2 336.16,-678.6 43.2,-678.6"/>
<text text-anchor="start" x="50.2" y="-692" font-family="Arial Bold" font-size="18.00">public.user_identities</text>
<text text-anchor="start" x="204.67" y="-692" font-family="Arial" font-size="14.00">    </text>
<text text-anchor="start" x="235.78" y="-692" font-family="Arial" font-size="14.00" fill="#666666">[BASE TABLE]</text>
<polygon fill="none" stroke="black" points="43.2,-647.8 43.2,-678.6 336.16,-678.6 336.16,-647.8 43.2,-647.8"/>
<text text-anchor="start" x="50.2" y="-660" font-family="Arial" font-size="14.00">id </text>
<text text-anchor="start" x="64.99" y="-660" font-family="Arial" font-size="14.00" fill="#666666">[uuid]</text>
<polygon fill="none" stroke="black" points="43.2,-617 43.2,-647.8 336.16,-647.8 336.16,-617 43.2,-617"/>
<text text-anchor="start" x="50.2" y="-629.2" font-family="Arial" font-size="14.00">user_id </text>
<text text-anchor="start" x="100.01" y="-629.2" font-family="Arial" font-size="14.00" fill="#666666">[uuid]</text>
<polygon fill="none" stroke="black" points="43.2,-586.2 43.2,-617 336.16,-617 336.16,-586.2 43.2,-586.2"/>
<text text-anchor="start" x="50.2" y="-598.4" font-family="Arial" font-size="14.00">provider </text>
<text text-anchor="start" x="104.67" y="-598.4" font-family="Arial" font-size="14.00" fill="#666666">[text]</text>
<polygon fill="none" stroke="black" points="43.2,-555.4 43.2,-586.2 336.16,-586.2 336.16,-555.4 43.2,-555.4"/>
<text text-anchor="start" x="50.2" y="-567.6" font-family="Arial" font-size="14.00">provider_sub </text>
<text text-anchor="start" x="135.03" y="-567.6" font-family="Arial" font-size="14.00" fill="#666666">[text]</text>
<polygon fill="none" stroke="black" points="43.2,-524.6 43.2,-555.4 336.16,-555.4 336.16,-524.6 43.2,-524.6"/>
<text text-anchor="start" x="50.2" y="-536.8" font-family="Arial" font-size="14.00">created_at </text>
<text text-anchor="start" x="120.25" y="-536.8" font-family="Arial" font-size="14.00" fill="#666666">[timestamp with time zone]</text>
<polygon fill="none" stroke="black" points="43.2,-493.8 43.2,-524.6 336.16,-524.6 336.16,-493.8 43.2,-493.8"/>
<text text-anchor="start" x="50.2" y="-506" font-family="Arial" font-size="14.00">updated_at </text>
<text text-anchor="start" x="124.16" y="-506" font-family="Arial" font-size="14.00" fill="#666666">[timestamp with time zone]</text>
</g>
<!-- public.user_identities&#45;&gt;public.users -->
<g id="edge1" class="edge">
<title>public.user_identities:user_id&#45;&gt;public.users:id</title>
<path fill="none" stroke="black" d="M347.22,-631.78C412.8,-623.06 358.72,-524.4 336.16,-450.6 320.92,-400.75 286.47,-402.81 271.11,-353 258.76,-312.99 228.24,-258.8 270.11,-258.8"/>
<polygon fill="black" stroke="black" points="347.47,-631.76 337.21,-627.89 342.15,-632.09 337.82,-632.36 337.82,-632.36 337.82,-632.36 342.15,-632.09 337.77,-636.87 347.47,-631.76"/>
<text text-anchor="start" x="344.16" y="-642.4" font-family="Arial" font-size="10.00">FOREIGN KEY (user_id) REFERENCES users(id) ON DELETE CASCADE</text>
</g>
<!-- public.sessions -->
<g id="node3" class="node">
<title>public.sessions</title>
<polygon fill="#efefef" stroke="none" points="402.79,-1067.6 402.79,-1103.2 652.56,-1103.2 652.56,-1067.6 402.79,-1067.6"/>
<polygon fill="none" stroke="black" points="402.79,-1067.6 402.79,-1103.2 652.56,-1103.2 652.56,-1067.6 402.79,-1067.6"/>
<text text-anchor="start" x="411.18" y="-1081" font-family="Arial Bold" font-size="18.00">public.sessions</text>
<text text-anchor="start" x="519.68" y="-1081" font-family="Arial" font-size="14.00">    </text>
<text text-anchor="start" x="550.8" y="-1081" font-family="Arial" font-size="14.00" fill="#666666">[BASE TABLE]</text>
<polygon fill="none" stroke="black" points="402.79,-1036.8 402.79,-1067.6 652.56,-1067.6 652.56,-1036.8 402.79,-1036.8"/>
<text text-anchor="start" x="409.79" y="-1049" font-family="Arial" font-size="14.00">session_id </text>
<text text-anchor="start" x="479.83" y="-1049" font-family="Arial" font-size="14.00" fill="#666666">[text]</text>
<polygon fill="none" stroke="black" points="402.79,-1006 402.79,-1036.8 652.56,-1036.8 652.56,-1006 402.79,-1006"/>
<text text-anchor="start" x="409.79" y="-1018.2" font-family="Arial" font-size="14.00">user_id </text>
<text text-anchor="start" x="459.6" y="-1018.2" font-family="Arial" font-size="14.00" fill="#666666">[uuid]</text>
<polygon fill="none" stroke="black" points="402.79,-975.2 402.79,-1006 652.56,-1006 652.56,-975.2 402.79,-975.2"/>
<text text-anchor="start" x="409.79" y="-987.4" font-family="Arial" font-size="14.00">active_membership_id </text>
<text text-anchor="start" x="553.75" y="-987.4" font-family="Arial" font-size="14.00" fill="#666666">[uuid]</text>
<polygon fill="none" stroke="black" points="402.79,-944.4 402.79,-975.2 652.56,-975.2 652.56,-944.4 402.79,-944.4"/>
<text text-anchor="start" x="409.79" y="-956.6" font-family="Arial" font-size="14.00">created_at </text>
<text text-anchor="start" x="479.84" y="-956.6" font-family="Arial" font-size="14.00" fill="#666666">[timestamp with time zone]</text>
<polygon fill="none" stroke="black" points="402.79,-913.6 402.79,-944.4 652.56,-944.4 652.56,-913.6 402.79,-913.6"/>
<text text-anchor="start" x="409.79" y="-925.8" font-family="Arial" font-size="14.00">expires_at </text>
<text text-anchor="start" x="478.28" y="-925.8" font-family="Arial" font-size="14.00" fill="#666666">[timestamp with time zone]</text>
<polygon fill="none" stroke="black" points="402.79,-882.8 402.79,-913.6 652.56,-913.6 652.56,-882.8 402.79,-882.8"/>
<text text-anchor="start" x="409.79" y="-895" font-family="Arial" font-size="14.00">csrf_token </text>
<text text-anchor="start" x="478.27" y="-895" font-family="Arial" font-size="14.00" fill="#666666">[text]</text>
<polygon fill="none" stroke="black" points="402.79,-852 402.79,-882.8 652.56,-882.8 652.56,-852 402.79,-852"/>
<text text-anchor="start" x="409.79" y="-864.2" font-family="Arial" font-size="14.00">revoked </text>
<text text-anchor="start" x="463.49" y="-864.2" font-family="Arial" font-size="14.00" fill="#666666">[boolean]</text>
</g>
<!-- public.sessions&#45;&gt;public.users -->
<g id="edge2" class="edge">
<title>public.sessions:user_id&#45;&gt;public.users:id</title>
<path fill="none" stroke="black" d="M397.61,-1012.07C383.82,-940.58 400.8,-481.22 426.68,-435.2 457.93,-379.62 514.49,-409.39 544.25,-353 563.79,-315.97 587.12,-258.8 545.25,-258.8"/>
<polygon fill="black" stroke="black" points="397.57,-1011.97 397.55,-1022.94 399.75,-1016.84 401.52,-1020.79 401.52,-1020.79 401.52,-1020.79 399.75,-1016.84 405.76,-1019.25 397.57,-1011.97"/>
<text text-anchor="start" x="60.83" y="-1031.4" font-family="Arial" font-size="10.00">FOREIGN KEY (user_id) REFERENCES users(id) ON DELETE CASCADE</text>
</g>
<!-- public.tenant_memberships -->
<g id="node7" class="node">
<title>public.tenant_memberships</title>
<polygon fill="#efefef" stroke="none" points="479.21,-678.6 479.21,-714.2 816.15,-714.2 816.15,-678.6 479.21,-678.6"/>
<polygon fill="none" stroke="black" points="479.21,-678.6 479.21,-714.2 816.15,-714.2 816.15,-678.6 479.21,-678.6"/>
<text text-anchor="start" x="486.21" y="-692" font-family="Arial Bold" font-size="18.00">public.tenant_memberships</text>
<text text-anchor="start" x="684.66" y="-692" font-family="Arial" font-size="14.00">    </text>
<text text-anchor="start" x="715.78" y="-692" font-family="Arial" font-size="14.00" fill="#666666">[BASE TABLE]</text>
<polygon fill="none" stroke="black" points="479.21,-647.8 479.21,-678.6 816.15,-678.6 816.15,-647.8 479.21,-647.8"/>
<text text-anchor="start" x="486.21" y="-660" font-family="Arial" font-size="14.00">id </text>
<text text-anchor="start" x="500.99" y="-660" font-family="Arial" font-size="14.00" fill="#666666">[uuid]</text>
<polygon fill="none" stroke="black" points="479.21,-617 479.21,-647.8 816.15,-647.8 816.15,-617 479.21,-617"/>
<text text-anchor="start" x="486.21" y="-629.2" font-family="Arial" font-size="14.00">tenant_id </text>
<text text-anchor="start" x="547.7" y="-629.2" font-family="Arial" font-size="14.00" fill="#666666">[uuid]</text>
<polygon fill="none" stroke="black" points="479.21,-586.2 479.21,-617 816.15,-617 816.15,-586.2 479.21,-586.2"/>
<text text-anchor="start" x="486.21" y="-598.4" font-family="Arial" font-size="14.00">user_id </text>
<text text-anchor="start" x="536.01" y="-598.4" font-family="Arial" font-size="14.00" fill="#666666">[uuid]</text>
<polygon fill="none" stroke="black" points="479.21,-555.4 479.21,-586.2 816.15,-586.2 816.15,-555.4 479.21,-555.4"/>
<text text-anchor="start" x="486.21" y="-567.6" font-family="Arial" font-size="14.00">role </text>
<text text-anchor="start" x="513.44" y="-567.6" font-family="Arial" font-size="14.00" fill="#666666">[text]</text>
<polygon fill="none" stroke="black" points="479.21,-524.6 479.21,-555.4 816.15,-555.4 816.15,-524.6 479.21,-524.6"/>
<text text-anchor="start" x="486.21" y="-536.8" font-family="Arial" font-size="14.00">created_at </text>
<text text-anchor="start" x="556.25" y="-536.8" font-family="Arial" font-size="14.00" fill="#666666">[timestamp with time zone]</text>
<polygon fill="none" stroke="black" points="479.21,-493.8 479.21,-524.6 816.15,-524.6 816.15,-493.8 479.21,-493.8"/>
<text text-anchor="start" x="486.21" y="-506" font-family="Arial" font-size="14.00">left_at </text>
<text text-anchor="start" x="528.23" y="-506" font-family="Arial" font-size="14.00" fill="#666666">[timestamp with time zone]</text>
</g>
<!-- public.sessions&#45;&gt;public.tenant_memberships -->
<g id="edge3" class="edge">
<title>public.sessions:active_membership_id&#45;&gt;public.tenant_memberships:id</title>
<path fill="none" stroke="black" d="M663.77,-989.91C731.34,-980.18 698.9,-870.51 652.56,-808.8 604.31,-744.53 527.62,-821.54 479.21,-757.4 453.98,-723.98 436.34,-663.2 478.21,-663.2"/>
<polygon fill="black" stroke="black" points="663.87,-989.9 653.59,-986.09 658.55,-990.26 654.23,-990.55 654.23,-990.55 654.23,-990.55 658.55,-990.26 654.2,-995.07 663.87,-989.9"/>
<text text-anchor="start" x="287" y="-1000.6" font-family="Arial" font-size="10.00">FOREIGN KEY (active_membership_id) REFERENCES tenant_memberships(id)</text>
</g>
<!-- public.oauth_states -->
<g id="node4" class="node">
<title>public.oauth_states</title>
<polygon fill="#efefef" stroke="none" points="757.2,-1036.8 757.2,-1072.4 1034.16,-1072.4 1034.16,-1036.8 757.2,-1036.8"/>
<polygon fill="none" stroke="black" points="757.2,-1036.8 757.2,-1072.4 1034.16,-1072.4 1034.16,-1036.8 757.2,-1036.8"/>
<text text-anchor="start" x="764.2" y="-1050.2" font-family="Arial Bold" font-size="18.00">public.oauth_states</text>
<text text-anchor="start" x="902.67" y="-1050.2" font-family="Arial" font-size="14.00">    </text>
<text text-anchor="start" x="933.79" y="-1050.2" font-family="Arial" font-size="14.00" fill="#666666">[BASE TABLE]</text>
<polygon fill="none" stroke="black" points="757.2,-1006 757.2,-1036.8 1034.16,-1036.8 1034.16,-1006 757.2,-1006"/>
<text text-anchor="start" x="764.2" y="-1018.2" font-family="Arial" font-size="14.00">state </text>
<text text-anchor="start" x="798.44" y="-1018.2" font-family="Arial" font-size="14.00" fill="#666666">[text]</text>
<polygon fill="none" stroke="black" points="757.2,-975.2 757.2,-1006 1034.16,-1006 1034.16,-975.2 757.2,-975.2"/>
<text text-anchor="start" x="764.2" y="-987.4" font-family="Arial" font-size="14.00">code_verifier </text>
<text text-anchor="start" x="848.24" y="-987.4" font-family="Arial" font-size="14.00" fill="#666666">[text]</text>
<polygon fill="none" stroke="black" points="757.2,-944.4 757.2,-975.2 1034.16,-975.2 1034.16,-944.4 757.2,-944.4"/>
<text text-anchor="start" x="764.2" y="-956.6" font-family="Arial" font-size="14.00">nonce </text>
<text text-anchor="start" x="806.23" y="-956.6" font-family="Arial" font-size="14.00" fill="#666666">[text]</text>
<polygon fill="none" stroke="black" points="757.2,-913.6 757.2,-944.4 1034.16,-944.4 1034.16,-913.6 757.2,-913.6"/>
<text text-anchor="start" x="764.2" y="-925.8" font-family="Arial" font-size="14.00">created_at </text>
<text text-anchor="start" x="834.25" y="-925.8" font-family="Arial" font-size="14.00" fill="#666666">[timestamp with time zone]</text>
<polygon fill="none" stroke="black" points="757.2,-882.8 757.2,-913.6 1034.16,-913.6 1034.16,-882.8 757.2,-882.8"/>
<text text-anchor="start" x="764.2" y="-895" font-family="Arial" font-size="14.00">consumed_at </text>
<text text-anchor="start" x="852.14" y="-895" font-family="Arial" font-size="14.00" fill="#666666">[timestamp with time zone]</text>
</g>
<!-- public.tenants -->
<g id="node5" class="node">
<title>public.tenants</title>
<polygon fill="#efefef" stroke="none" points="952.84,-289.6 952.84,-325.2 1206.52,-325.2 1206.52,-289.6 952.84,-289.6"/>
<polygon fill="none" stroke="black" points="952.84,-289.6 952.84,-325.2 1206.52,-325.2 1206.52,-289.6 952.84,-289.6"/>
<text text-anchor="start" x="967.2" y="-303" font-family="Arial Bold" font-size="18.00">public.tenants</text>
<text text-anchor="start" x="1067.67" y="-303" font-family="Arial" font-size="14.00">    </text>
<text text-anchor="start" x="1098.79" y="-303" font-family="Arial" font-size="14.00" fill="#666666">[BASE TABLE]</text>
<polygon fill="none" stroke="black" points="952.84,-258.8 952.84,-289.6 1206.52,-289.6 1206.52,-258.8 952.84,-258.8"/>
<text text-anchor="start" x="959.84" y="-271" font-family="Arial" font-size="14.00">id </text>
<text text-anchor="start" x="974.62" y="-271" font-family="Arial" font-size="14.00" fill="#666666">[uuid]</text>
<polygon fill="none" stroke="black" points="952.84,-228 952.84,-258.8 1206.52,-258.8 1206.52,-228 952.84,-228"/>
<text text-anchor="start" x="959.84" y="-240.2" font-family="Arial" font-size="14.00">organization_id </text>
<text text-anchor="start" x="1058.69" y="-240.2" font-family="Arial" font-size="14.00" fill="#666666">[uuid]</text>
<polygon fill="none" stroke="black" points="952.84,-197.2 952.84,-228 1206.52,-228 1206.52,-197.2 952.84,-197.2"/>
<text text-anchor="start" x="959.84" y="-209.4" font-family="Arial" font-size="14.00">name </text>
<text text-anchor="start" x="998.75" y="-209.4" font-family="Arial" font-size="14.00" fill="#666666">[text]</text>
<polygon fill="none" stroke="black" points="952.84,-166.4 952.84,-197.2 1206.52,-197.2 1206.52,-166.4 952.84,-166.4"/>
<text text-anchor="start" x="959.84" y="-178.6" font-family="Arial" font-size="14.00">description </text>
<text text-anchor="start" x="1031.43" y="-178.6" font-family="Arial" font-size="14.00" fill="#666666">[text]</text>
<polygon fill="none" stroke="black" points="952.84,-135.6 952.84,-166.4 1206.52,-166.4 1206.52,-135.6 952.84,-135.6"/>
<text text-anchor="start" x="959.84" y="-147.8" font-family="Arial" font-size="14.00">tenant_type </text>
<text text-anchor="start" x="1036.9" y="-147.8" font-family="Arial" font-size="14.00" fill="#666666">[text]</text>
<polygon fill="none" stroke="black" points="952.84,-104.8 952.84,-135.6 1206.52,-135.6 1206.52,-104.8 952.84,-104.8"/>
<text text-anchor="start" x="959.84" y="-117" font-family="Arial" font-size="14.00">created_at </text>
<text text-anchor="start" x="1029.89" y="-117" font-family="Arial" font-size="14.00" fill="#666666">[timestamp with time zone]</text>
<polygon fill="none" stroke="black" points="952.84,-74 952.84,-104.8 1206.52,-104.8 1206.52,-74 952.84,-74"/>
<text text-anchor="start" x="959.84" y="-86.2" font-family="Arial" font-size="14.00">updated_at </text>
<text text-anchor="start" x="1033.8" y="-86.2" font-family="Arial" font-size="14.00" fill="#666666">[timestamp with time zone]</text>
</g>
<!-- public.tenant_join_codes -->
<g id="node6" class="node">
<title>public.tenant_join_codes</title>
<polygon fill="#efefef" stroke="none" points="920.21,-694 920.21,-729.6 1239.15,-729.6 1239.15,-694 920.21,-694"/>
<polygon fill="none" stroke="black" points="920.21,-694 920.21,-729.6 1239.15,-729.6 1239.15,-694 920.21,-694"/>
<text text-anchor="start" x="927.21" y="-707.4" font-family="Arial Bold" font-size="18.00">public.tenant_join_codes</text>
<text text-anchor="start" x="1107.66" y="-707.4" font-family="Arial" font-size="14.00">    </text>
<text text-anchor="start" x="1138.78" y="-707.4" font-family="Arial" font-size="14.00" fill="#666666">[BASE TABLE]</text>
<polygon fill="none" stroke="black" points="920.21,-663.2 920.21,-694 1239.15,-694 1239.15,-663.2 920.21,-663.2"/>
<text text-anchor="start" x="927.21" y="-675.4" font-family="Arial" font-size="14.00">id </text>
<text text-anchor="start" x="941.99" y="-675.4" font-family="Arial" font-size="14.00" fill="#666666">[uuid]</text>
<polygon fill="none" stroke="black" points="920.21,-632.4 920.21,-663.2 1239.15,-663.2 1239.15,-632.4 920.21,-632.4"/>
<text text-anchor="start" x="927.21" y="-644.6" font-family="Arial" font-size="14.00">tenant_id </text>
<text text-anchor="start" x="988.7" y="-644.6" font-family="Arial" font-size="14.00" fill="#666666">[uuid]</text>
<polygon fill="none" stroke="black" points="920.21,-601.6 920.21,-632.4 1239.15,-632.4 1239.15,-601.6 920.21,-601.6"/>
<text text-anchor="start" x="927.21" y="-613.8" font-family="Arial" font-size="14.00">code </text>
<text text-anchor="start" x="961.45" y="-613.8" font-family="Arial" font-size="14.00" fill="#666666">[text]</text>
<polygon fill="none" stroke="black" points="920.21,-570.8 920.21,-601.6 1239.15,-601.6 1239.15,-570.8 920.21,-570.8"/>
<text text-anchor="start" x="927.21" y="-583" font-family="Arial" font-size="14.00">expires_at </text>
<text text-anchor="start" x="995.69" y="-583" font-family="Arial" font-size="14.00" fill="#666666">[timestamp with time zone]</text>
<polygon fill="none" stroke="black" points="920.21,-540 920.21,-570.8 1239.15,-570.8 1239.15,-540 920.21,-540"/>
<text text-anchor="start" x="927.21" y="-552.2" font-family="Arial" font-size="14.00">max_uses </text>
<text text-anchor="start" x="994.9" y="-552.2" font-family="Arial" font-size="14.00" fill="#666666">[integer]</text>
<polygon fill="none" stroke="black" points="920.21,-509.2 920.21,-540 1239.15,-540 1239.15,-509.2 920.21,-509.2"/>
<text text-anchor="start" x="927.21" y="-521.4" font-family="Arial" font-size="14.00">used_count </text>
<text text-anchor="start" x="1003.49" y="-521.4" font-family="Arial" font-size="14.00" fill="#666666">[integer]</text>
<polygon fill="none" stroke="black" points="920.21,-478.4 920.21,-509.2 1239.15,-509.2 1239.15,-478.4 920.21,-478.4"/>
<text text-anchor="start" x="927.21" y="-490.6" font-family="Arial" font-size="14.00">created_at </text>
<text text-anchor="start" x="997.25" y="-490.6" font-family="Arial" font-size="14.00" fill="#666666">[timestamp with time zone]</text>
</g>
<!-- public.tenant_join_codes&#45;&gt;public.tenants -->
<g id="edge4" class="edge">
<title>public.tenant_join_codes:tenant_id&#45;&gt;public.tenants:id</title>
<path fill="none" stroke="black" d="M1250.26,-645.79C1320.59,-616.38 1287.28,-274.2 1207.52,-274.2"/>
<polygon fill="black" stroke="black" points="1250.29,-645.78 1239.6,-643.32 1245.06,-646.82 1240.81,-647.67 1240.81,-647.67 1240.81,-647.67 1245.06,-646.82 1241.36,-652.15 1250.29,-645.78"/>
<text text-anchor="start" x="1247.15" y="-657.8" font-family="Arial" font-size="10.00">FOREIGN KEY (tenant_id) REFERENCES tenants(id) ON DELETE CASCADE</text>
</g>
<!-- public.tenant_memberships&#45;&gt;public.users -->
<g id="edge5" class="edge">
<title>public.tenant_memberships:user_id&#45;&gt;public.users:id</title>
<path fill="none" stroke="black" d="M467.89,-600.78C416.49,-591.84 460.66,-511.14 479.21,-450.6 494.47,-400.76 528.88,-402.81 544.25,-353 556.59,-312.99 587.12,-258.8 545.25,-258.8"/>
<polygon fill="black" stroke="black" points="467.9,-600.79 477.52,-606.06 473.22,-601.21 477.54,-601.55 477.54,-601.55 477.54,-601.55 473.22,-601.21 478.23,-597.09 467.9,-600.79"/>
<text text-anchor="start" x="398.22" y="-585.6" font-family="Arial" font-size="10.00">FOREIGN KEY (user_id) REFERENCES users(id) ON DELETE CASCADE</text>
</g>
<!-- public.tenant_memberships&#45;&gt;public.tenants -->
<g id="edge6" class="edge">
<title>public.tenant_memberships:tenant_id&#45;&gt;public.tenants:id</title>
<path fill="none" stroke="black" d="M827.48,-631.84C901.87,-623.2 836.61,-516.21 867.68,-435.2 896.59,-359.81 871.1,-274.2 951.84,-274.2"/>
<polygon fill="black" stroke="black" points="827.47,-631.84 817.24,-627.89 822.14,-632.13 817.82,-632.36 817.82,-632.36 817.82,-632.36 822.14,-632.13 817.73,-636.88 827.47,-631.84"/>
<text text-anchor="start" x="824.15" y="-642.4" font-family="Arial" font-size="10.00">FOREIGN KEY (tenant_id) REFERENCES tenants(id) ON DELETE CASCADE</text>
</g>
<!-- public.console_sessions -->
<g id="node8" class="node">
<title>public.console_sessions</title>
<polygon fill="#efefef" stroke="none" points="1138.19,-1021.4 1138.19,-1057 1449.17,-1057 1449.17,-1021.4 1138.19,-1021.4"/>
<polygon fill="none" stroke="black" points="1138.19,-1021.4 1138.19,-1057 1449.17,-1057 1449.17,-1021.4 1138.19,-1021.4"/>
<text text-anchor="start" x="1145.19" y="-1034.8" font-family="Arial Bold" font-size="18.00">public.console_sessions</text>
<text text-anchor="start" x="1317.68" y="-1034.8" font-family="Arial" font-size="14.00">    </text>
<text text-anchor="start" x="1348.79" y="-1034.8" font-family="Arial" font-size="14.00" fill="#666666">[BASE TABLE]</text>
<polygon fill="none" stroke="black" points="1138.19,-990.6 1138.19,-1021.4 1449.17,-1021.4 1449.17,-990.6 1138.19,-990.6"/>
<text text-anchor="start" x="1145.19" y="-1002.8" font-family="Arial" font-size="14.00">session_id </text>
<text text-anchor="start" x="1215.23" y="-1002.8" font-family="Arial" font-size="14.00" fill="#666666">[text]</text>
<polygon fill="none" stroke="black" points="1138.19,-959.8 1138.19,-990.6 1449.17,-990.6 1449.17,-959.8 1138.19,-959.8"/>
<text text-anchor="start" x="1145.19" y="-972" font-family="Arial" font-size="14.00">organization_id </text>
<text text-anchor="start" x="1244.04" y="-972" font-family="Arial" font-size="14.00" fill="#666666">[uuid]</text>
<polygon fill="none" stroke="black" points="1138.19,-929 1138.19,-959.8 1449.17,-959.8 1449.17,-929 1138.19,-929"/>
<text text-anchor="start" x="1145.19" y="-941.2" font-family="Arial" font-size="14.00">created_at </text>
<text text-anchor="start" x="1215.24" y="-941.2" font-family="Arial" font-size="14.00" fill="#666666">[timestamp with time zone]</text>
<polygon fill="none" stroke="black" points="1138.19,-898.2 1138.19,-929 1449.17,-929 1449.17,-898.2 1138.19,-898.2"/>
<text text-anchor="start" x="1145.19" y="-910.4" font-family="Arial" font-size="14.00">expires_at </text>
<text text-anchor="start" x="1213.67" y="-910.4" font-family="Arial" font-size="14.00" fill="#666666">[timestamp with time zone]</text>
</g>
<!-- public.rooms -->
<g id="node9" class="node">
<title>public.rooms</title>
<polygon fill="#efefef" stroke="none" points="1573.84,-320.4 1573.84,-356 1827.52,-356 1827.52,-320.4 1573.84,-320.4"/>
<polygon fill="none" stroke="black" points="1573.84,-320.4 1573.84,-356 1827.52,-356 1827.52,-320.4 1573.84,-320.4"/>
<text text-anchor="start" x="1591.19" y="-333.8" font-family="Arial Bold" font-size="18.00">public.rooms</text>
<text text-anchor="start" x="1685.68" y="-333.8" font-family="Arial" font-size="14.00">    </text>
<text text-anchor="start" x="1716.8" y="-333.8" font-family="Arial" font-size="14.00" fill="#666666">[BASE TABLE]</text>
<polygon fill="none" stroke="black" points="1573.84,-289.6 1573.84,-320.4 1827.52,-320.4 1827.52,-289.6 1573.84,-289.6"/>
<text text-anchor="start" x="1580.84" y="-301.8" font-family="Arial" font-size="14.00">id </text>
<text text-anchor="start" x="1595.62" y="-301.8" font-family="Arial" font-size="14.00" fill="#666666">[uuid]</text>
<polygon fill="none" stroke="black" points="1573.84,-258.8 1573.84,-289.6 1827.52,-289.6 1827.52,-258.8 1573.84,-258.8"/>
<text text-anchor="start" x="1580.84" y="-271" font-family="Arial" font-size="14.00">organization_id </text>
<text text-anchor="start" x="1679.69" y="-271" font-family="Arial" font-size="14.00" fill="#666666">[uuid]</text>
<polygon fill="none" stroke="black" points="1573.84,-228 1573.84,-258.8 1827.52,-258.8 1827.52,-228 1573.84,-228"/>
<text text-anchor="start" x="1580.84" y="-240.2" font-family="Arial" font-size="14.00">name </text>
<text text-anchor="start" x="1619.75" y="-240.2" font-family="Arial" font-size="14.00" fill="#666666">[text]</text>
<polygon fill="none" stroke="black" points="1573.84,-197.2 1573.84,-228 1827.52,-228 1827.52,-197.2 1573.84,-197.2"/>
<text text-anchor="start" x="1580.84" y="-209.4" font-family="Arial" font-size="14.00">building_name </text>
<text text-anchor="start" x="1675.8" y="-209.4" font-family="Arial" font-size="14.00" fill="#666666">[text]</text>
<polygon fill="none" stroke="black" points="1573.84,-166.4 1573.84,-197.2 1827.52,-197.2 1827.52,-166.4 1573.84,-166.4"/>
<text text-anchor="start" x="1580.84" y="-178.6" font-family="Arial" font-size="14.00">floor_number </text>
<text text-anchor="start" x="1667.22" y="-178.6" font-family="Arial" font-size="14.00" fill="#666666">[text]</text>
<polygon fill="none" stroke="black" points="1573.84,-135.6 1573.84,-166.4 1827.52,-166.4 1827.52,-135.6 1573.84,-135.6"/>
<text text-anchor="start" x="1580.84" y="-147.8" font-family="Arial" font-size="14.00">room_type </text>
<text text-anchor="start" x="1650.87" y="-147.8" font-family="Arial" font-size="14.00" fill="#666666">[text]</text>
<polygon fill="none" stroke="black" points="1573.84,-104.8 1573.84,-135.6 1827.52,-135.6 1827.52,-104.8 1573.84,-104.8"/>
<text text-anchor="start" x="1580.84" y="-117" font-family="Arial" font-size="14.00">description </text>
<text text-anchor="start" x="1652.43" y="-117" font-family="Arial" font-size="14.00" fill="#666666">[text]</text>
<polygon fill="none" stroke="black" points="1573.84,-74 1573.84,-104.8 1827.52,-104.8 1827.52,-74 1573.84,-74"/>
<text text-anchor="start" x="1580.84" y="-86.2" font-family="Arial" font-size="14.00">created_at </text>
<text text-anchor="start" x="1650.89" y="-86.2" font-family="Arial" font-size="14.00" fill="#666666">[timestamp with time zone]</text>
<polygon fill="none" stroke="black" points="1573.84,-43.2 1573.84,-74 1827.52,-74 1827.52,-43.2 1573.84,-43.2"/>
<text text-anchor="start" x="1580.84" y="-55.4" font-family="Arial" font-size="14.00">updated_at </text>
<text text-anchor="start" x="1654.8" y="-55.4" font-family="Arial" font-size="14.00" fill="#666666">[timestamp with time zone]</text>
</g>
<!-- public.keys -->
<g id="node10" class="node">
<title>public.keys</title>
<polygon fill="#efefef" stroke="none" points="1770.84,-694 1770.84,-729.6 2024.52,-729.6 2024.52,-694 1770.84,-694"/>
<polygon fill="none" stroke="black" points="1770.84,-694 1770.84,-729.6 2024.52,-729.6 2024.52,-694 1770.84,-694"/>
<text text-anchor="start" x="1794.19" y="-707.4" font-family="Arial Bold" font-size="18.00">public.keys</text>
<text text-anchor="start" x="1876.68" y="-707.4" font-family="Arial" font-size="14.00">    </text>
<text text-anchor="start" x="1907.79" y="-707.4" font-family="Arial" font-size="14.00" fill="#666666">[BASE TABLE]</text>
<polygon fill="none" stroke="black" points="1770.84,-663.2 1770.84,-694 2024.52,-694 2024.52,-663.2 1770.84,-663.2"/>
<text text-anchor="start" x="1777.84" y="-675.4" font-family="Arial" font-size="14.00">id </text>
<text text-anchor="start" x="1792.62" y="-675.4" font-family="Arial" font-size="14.00" fill="#666666">[uuid]</text>
<polygon fill="none" stroke="black" points="1770.84,-632.4 1770.84,-663.2 2024.52,-663.2 2024.52,-632.4 1770.84,-632.4"/>
<text text-anchor="start" x="1777.84" y="-644.6" font-family="Arial" font-size="14.00">room_id </text>
<text text-anchor="start" x="1832.31" y="-644.6" font-family="Arial" font-size="14.00" fill="#666666">[uuid]</text>
<polygon fill="none" stroke="black" points="1770.84,-601.6 1770.84,-632.4 2024.52,-632.4 2024.52,-601.6 1770.84,-601.6"/>
<text text-anchor="start" x="1777.84" y="-613.8" font-family="Arial" font-size="14.00">organization_id </text>
<text text-anchor="start" x="1876.69" y="-613.8" font-family="Arial" font-size="14.00" fill="#666666">[uuid]</text>
<polygon fill="none" stroke="black" points="1770.84,-570.8 1770.84,-601.6 2024.52,-601.6 2024.52,-570.8 1770.84,-570.8"/>
<text text-anchor="start" x="1777.84" y="-583" font-family="Arial" font-size="14.00">key_number </text>
<text text-anchor="start" x="1858.77" y="-583" font-family="Arial" font-size="14.00" fill="#666666">[text]</text>
<polygon fill="none" stroke="black" points="1770.84,-540 1770.84,-570.8 2024.52,-570.8 2024.52,-540 1770.84,-540"/>
<text text-anchor="start" x="1777.84" y="-552.2" font-family="Arial" font-size="14.00">status </text>
<text text-anchor="start" x="1819.08" y="-552.2" font-family="Arial" font-size="14.00" fill="#666666">[text]</text>
<polygon fill="none" stroke="black" points="1770.84,-509.2 1770.84,-540 2024.52,-540 2024.52,-509.2 1770.84,-509.2"/>
<text text-anchor="start" x="1777.84" y="-521.4" font-family="Arial" font-size="14.00">created_at </text>
<text text-anchor="start" x="1847.89" y="-521.4" font-family="Arial" font-size="14.00" fill="#666666">[timestamp with time zone]</text>
<polygon fill="none" stroke="black" points="1770.84,-478.4 1770.84,-509.2 2024.52,-509.2 2024.52,-478.4 1770.84,-478.4"/>
<text text-anchor="start" x="1777.84" y="-490.6" font-family="Arial" font-size="14.00">updated_at </text>
<text text-anchor="start" x="1851.8" y="-490.6" font-family="Arial" font-size="14.00" fill="#666666">[timestamp with time zone]</text>
</g>
<!-- public.keys&#45;&gt;public.rooms -->
<g id="edge7" class="edge">
<title>public.keys:room_id&#45;&gt;public.rooms:id</title>
<path fill="none" stroke="black" d="M1760.06,-644.81C1726.55,-621.84 1749.77,-473.32 1770.84,-435.2 1785.27,-409.08 1813.01,-425.28 1827.52,-399.2 1847.88,-362.61 1870.39,-305 1828.52,-305"/>
<polygon fill="black" stroke="black" points="1759.96,-644.78 1768.2,-652.01 1765.06,-646.34 1769.2,-647.6 1769.2,-647.6 1769.2,-647.6 1765.06,-646.34 1770.83,-643.4 1759.96,-644.78"/>
<text text-anchor="start" x="1776.84" y="-657.8" font-family="Arial" font-size="10.00">FOREIGN KEY (room_id) REFERENCES rooms(id) ON DELETE CASCADE</text>
</g>
<!-- public.room_assignments -->
<g id="node11" class="node">
<title>public.room_assignments</title>
<polygon fill="#efefef" stroke="none" points="1343.19,-694 1343.19,-729.6 1666.16,-729.6 1666.16,-694 1343.19,-694"/>
<polygon fill="none" stroke="black" points="1343.19,-694 1343.19,-729.6 1666.16,-729.6 1666.16,-694 1343.19,-694"/>
<text text-anchor="start" x="1350.19" y="-707.4" font-family="Arial Bold" font-size="18.00">public.room_assignments</text>
<text text-anchor="start" x="1534.68" y="-707.4" font-family="Arial" font-size="14.00">    </text>
<text text-anchor="start" x="1565.79" y="-707.4" font-family="Arial" font-size="14.00" fill="#666666">[BASE TABLE]</text>
<polygon fill="none" stroke="black" points="1343.19,-663.2 1343.19,-694 1666.16,-694 1666.16,-663.2 1343.19,-663.2"/>
<text text-anchor="start" x="1350.19" y="-675.4" font-family="Arial" font-size="14.00">id </text>
<text text-anchor="start" x="1364.98" y="-675.4" font-family="Arial" font-size="14.00" fill="#666666">[uuid]</text>
<polygon fill="none" stroke="black" points="1343.19,-632.4 1343.19,-663.2 1666.16,-663.2 1666.16,-632.4 1343.19,-632.4"/>
<text text-anchor="start" x="1350.19" y="-644.6" font-family="Arial" font-size="14.00">tenant_id </text>
<text text-anchor="start" x="1411.69" y="-644.6" font-family="Arial" font-size="14.00" fill="#666666">[uuid]</text>
<polygon fill="none" stroke="black" points="1343.19,-601.6 1343.19,-632.4 1666.16,-632.4 1666.16,-601.6 1343.19,-601.6"/>
<text text-anchor="start" x="1350.19" y="-613.8" font-family="Arial" font-size="14.00">room_id </text>
<text text-anchor="start" x="1404.66" y="-613.8" font-family="Arial" font-size="14.00" fill="#666666">[uuid]</text>
<polygon fill="none" stroke="black" points="1343.19,-570.8 1343.19,-601.6 1666.16,-601.6 1666.16,-570.8 1343.19,-570.8"/>
<text text-anchor="start" x="1350.19" y="-583" font-family="Arial" font-size="14.00">assigned_at </text>
<text text-anchor="start" x="1429.59" y="-583" font-family="Arial" font-size="14.00" fill="#666666">[timestamp with time zone]</text>
<polygon fill="none" stroke="black" points="1343.19,-540 1343.19,-570.8 1666.16,-570.8 1666.16,-540 1343.19,-540"/>
<text text-anchor="start" x="1350.19" y="-552.2" font-family="Arial" font-size="14.00">expires_at </text>
<text text-anchor="start" x="1418.68" y="-552.2" font-family="Arial" font-size="14.00" fill="#666666">[timestamp with time zone]</text>
<polygon fill="none" stroke="black" points="1343.19,-509.2 1343.19,-540 1666.16,-540 1666.16,-509.2 1343.19,-509.2"/>
<text text-anchor="start" x="1350.19" y="-521.4" font-family="Arial" font-size="14.00">created_at </text>
<text text-anchor="start" x="1420.24" y="-521.4" font-family="Arial" font-size="14.00" fill="#666666">[timestamp with time zone]</text>
<polygon fill="none" stroke="black" points="1343.19,-478.4 1343.19,-509.2 1666.16,-509.2 1666.16,-478.4 1343.19,-478.4"/>
<text text-anchor="start" x="1350.19" y="-490.6" font-family="Arial" font-size="14.00">updated_at </text>
<text text-anchor="start" x="1424.15" y="-490.6" font-family="Arial" font-size="14.00" fill="#666666">[timestamp with time zone]</text>
</g>
<!-- public.room_assignments&#45;&gt;public.tenants -->
<g id="edge8" class="edge">
<title>public.room_assignments:tenant_id&#45;&gt;public.tenants:id</title>
<path fill="none" stroke="black" d="M1332.1,-647.31C1250.9,-638.82 1324.4,-522.8 1291.68,-435.2 1263.43,-359.56 1288.26,-274.2 1207.52,-274.2"/>
<polygon fill="black" stroke="black" points="1331.87,-647.29 1341.64,-652.28 1337.2,-647.56 1341.52,-647.77 1341.52,-647.77 1341.52,-647.77 1337.2,-647.56 1342.08,-643.29 1331.87,-647.29"/>
<text text-anchor="start" x="1349.19" y="-631.8" font-family="Arial" font-size="10.00">FOREIGN KEY (tenant_id) REFERENCES tenants(id) ON DELETE CASCADE</text>
</g>
<!-- public.room_assignments&#45;&gt;public.rooms -->
<g id="edge9" class="edge">
<title>public.room_assignments:room_id&#45;&gt;public.rooms:id</title>
<path fill="none" stroke="black" d="M1677.36,-616.32C1744.71,-606.75 1709.88,-498.79 1666.16,-435.2 1641.21,-398.91 1598.88,-435.43 1573.84,-399.2 1550.03,-364.76 1530.97,-305 1572.84,-305"/>
<polygon fill="black" stroke="black" points="1677.48,-616.31 1667.2,-612.49 1672.15,-616.67 1667.83,-616.96 1667.83,-616.96 1667.83,-616.96 1672.15,-616.67 1667.8,-621.47 1677.48,-616.31"/>
<text text-anchor="start" x="1496.85" y="-601" font-family="Arial" font-size="10.00">FOREIGN KEY (room_id) REFERENCES rooms(id) ON DELETE CASCADE</text>
</g>
</g>
</svg>
