<?xml version="1.0" encoding="UTF-8" standalone="no"?>
<!DOCTYPE svg PUBLIC "-//W3C//DTD SVG 1.1//EN"
 "http://www.w3.org/Graphics/SVG/1.1/DTD/svg11.dtd">
<!-- Generated by graphviz version 12.1.2 (20240928.0832)
 -->
<!-- Title: keyhub Pages: 1 -->
<svg width="1500pt" height="1093pt"
 viewBox="0.00 0.00 1500.37 1092.80" xmlns="http://www.w3.org/2000/svg" xmlns:xlink="http://www.w3.org/1999/xlink">
<g id="graph0" class="graph" transform="scale(1 1) rotate(0) translate(4 1088.8)">
<title>keyhub</title>
<polygon fill="white" stroke="none" points="-4,4 -4,-1088.8 1496.37,-1088.8 1496.37,4 -4,4"/>
<!-- public.users -->
<g id="node1" class="node">
<title>public.users</title>
<polygon fill="#efefef" stroke="none" points="271.11,-228 271.11,-263.6 544.25,-263.6 544.25,-228 271.11,-228"/>
<polygon fill="none" stroke="black" points="271.11,-228 271.11,-263.6 544.25,-263.6 544.25,-228 271.11,-228"/>
<text text-anchor="start" x="302.19" y="-241.4" font-family="Arial Bold" font-size="18.00">public.users</text>
<text text-anchor="start" x="388.68" y="-241.4" font-family="Arial" font-size="14.00">    </text>
<text text-anchor="start" x="419.79" y="-241.4" font-family="Arial" font-size="14.00" fill="#666666">[BASE TABLE]</text>
<polygon fill="none" stroke="black" points="271.11,-197.2 271.11,-228 544.25,-228 544.25,-197.2 271.11,-197.2"/>
<text text-anchor="start" x="278.11" y="-209.4" font-family="Arial" font-size="14.00">id </text>
<text text-anchor="start" x="292.89" y="-209.4" font-family="Arial" font-size="14.00" fill="#666666">[uuid]</text>
<polygon fill="none" stroke="black" points="271.11,-166.4 271.11,-197.2 544.25,-197.2 544.25,-166.4 271.11,-166.4"/>
<text text-anchor="start" x="278.11" y="-178.6" font-family="Arial" font-size="14.00">email </text>
<text text-anchor="start" x="315.45" y="-178.6" font-family="Arial" font-size="14.00" fill="#666666">[text]</text>
<polygon fill="none" stroke="black" points="271.11,-135.6 271.11,-166.4 544.25,-166.4 544.25,-135.6 271.11,-135.6"/>
<text text-anchor="start" x="278.11" y="-147.8" font-family="Arial" font-size="14.00">name </text>
<text text-anchor="start" x="317.02" y="-147.8" font-family="Arial" font-size="14.00" fill="#666666">[text]</text>
<polygon fill="none" stroke="black" points="271.11,-104.8 271.11,-135.6 544.25,-135.6 544.25,-104.8 271.11,-104.8"/>
<text text-anchor="start" x="278.11" y="-117" font-family="Arial" font-size="14.00">icon </text>
<text text-anchor="start" x="307.68" y="-117" font-family="Arial" font-size="14.00" fill="#666666">[text]</text>
<polygon fill="none" stroke="black" points="271.11,-74 271.11,-104.8 544.25,-104.8 544.25,-74 271.11,-74"/>
<text text-anchor="start" x="278.11" y="-86.2" font-family="Arial" font-size="14.00">created_at </text>
<text text-anchor="start" x="348.15" y="-86.2" font-family="Arial" font-size="14.00" fill="#666666">[timestamp without time zone]</text>
<polygon fill="none" stroke="black" points="271.11,-43.2 271.11,-74 544.25,-74 544.25,-43.2 271.11,-43.2"/>
<text text-anchor="start" x="278.11" y="-55.4" font-family="Arial" font-size="14.00">updated_at </text>
<text text-anchor="start" x="352.06" y="-55.4" font-family="Arial" font-size="14.00" fill="#666666">[timestamp without time zone]</text>
</g>
<!-- public.user_identities -->
<g id="node2" class="node">
<title>public.user_identities</title>
<polygon fill="#efefef" stroke="none" points="43.2,-601.6 43.2,-637.2 336.16,-637.2 336.16,-601.6 43.2,-601.6"/>
<polygon fill="none" stroke="black" points="43.2,-601.6 43.2,-637.2 336.16,-637.2 336.16,-601.6 43.2,-601.6"/>
<text text-anchor="start" x="50.2" y="-615" font-family="Arial Bold" font-size="18.00">public.user_identities</text>
<text text-anchor="start" x="204.67" y="-615" font-family="Arial" font-size="14.00">    </text>
<text text-anchor="start" x="235.78" y="-615" font-family="Arial" font-size="14.00" fill="#666666">[BASE TABLE]</text>
<polygon fill="none" stroke="black" points="43.2,-570.8 43.2,-601.6 336.16,-601.6 336.16,-570.8 43.2,-570.8"/>
<text text-anchor="start" x="50.2" y="-583" font-family="Arial" font-size="14.00">id </text>
<text text-anchor="start" x="64.99" y="-583" font-family="Arial" font-size="14.00" fill="#666666">[uuid]</text>
<polygon fill="none" stroke="black" points="43.2,-540 43.2,-570.8 336.16,-570.8 336.16,-540 43.2,-540"/>
<text text-anchor="start" x="50.2" y="-552.2" font-family="Arial" font-size="14.00">user_id </text>
<text text-anchor="start" x="100.01" y="-552.2" font-family="Arial" font-size="14.00" fill="#666666">[uuid]</text>
<polygon fill="none" stroke="black" points="43.2,-509.2 43.2,-540 336.16,-540 336.16,-509.2 43.2,-509.2"/>
<text text-anchor="start" x="50.2" y="-521.4" font-family="Arial" font-size="14.00">provider </text>
<text text-anchor="start" x="104.67" y="-521.4" font-family="Arial" font-size="14.00" fill="#666666">[text]</text>
<polygon fill="none" stroke="black" points="43.2,-478.4 43.2,-509.2 336.16,-509.2 336.16,-478.4 43.2,-478.4"/>
<text text-anchor="start" x="50.2" y="-490.6" font-family="Arial" font-size="14.00">provider_sub </text>
<text text-anchor="start" x="135.03" y="-490.6" font-family="Arial" font-size="14.00" fill="#666666">[text]</text>
<polygon fill="none" stroke="black" points="43.2,-447.6 43.2,-478.4 336.16,-478.4 336.16,-447.6 43.2,-447.6"/>
<text text-anchor="start" x="50.2" y="-459.8" font-family="Arial" font-size="14.00">created_at </text>
<text text-anchor="start" x="120.25" y="-459.8" font-family="Arial" font-size="14.00" fill="#666666">[timestamp with time zone]</text>
<polygon fill="none" stroke="black" points="43.2,-416.8 43.2,-447.6 336.16,-447.6 336.16,-416.8 43.2,-416.8"/>
<text text-anchor="start" x="50.2" y="-429" font-family="Arial" font-size="14.00">updated_at </text>
<text text-anchor="start" x="124.16" y="-429" font-family="Arial" font-size="14.00" fill="#666666">[timestamp with time zone]</text>
</g>
<!-- public.user_identities&#45;&gt;public.users -->
<g id="edge1" class="edge">
<title>public.user_identities:user_id&#45;&gt;public.users:id</title>
<path fill="none" stroke="black" d="M347.26,-554.76C413.4,-545.85 365.41,-445.01 336.16,-373.6 320.45,-335.25 286.91,-345.11 271.11,-306.8 255.14,-268.1 228.24,-212.6 270.11,-212.6"/>
<polygon fill="black" stroke="black" points="347.47,-554.75 337.21,-550.89 342.15,-555.09 337.82,-555.36 337.82,-555.36 337.82,-555.36 342.15,-555.09 337.77,-559.87 347.47,-554.75"/>
<text text-anchor="start" x="344.16" y="-565.4" font-family="Arial" font-size="10.00">FOREIGN KEY (user_id) REFERENCES users(id) ON DELETE CASCADE</text>
</g>
<!-- public.sessions -->
<g id="node3" class="node">
<title>public.sessions</title>
<polygon fill="#efefef" stroke="none" points="402.79,-1006 402.79,-1041.6 652.56,-1041.6 652.56,-1006 402.79,-1006"/>
<polygon fill="none" stroke="black" points="402.79,-1006 402.79,-1041.6 652.56,-1041.6 652.56,-1006 402.79,-1006"/>
<text text-anchor="start" x="411.18" y="-1019.4" font-family="Arial Bold" font-size="18.00">public.sessions</text>
<text text-anchor="start" x="519.68" y="-1019.4" font-family="Arial" font-size="14.00">    </text>
<text text-anchor="start" x="550.8" y="-1019.4" font-family="Arial" font-size="14.00" fill="#666666">[BASE TABLE]</text>
<polygon fill="none" stroke="black" points="402.79,-975.2 402.79,-1006 652.56,-1006 652.56,-975.2 402.79,-975.2"/>
<text text-anchor="start" x="409.79" y="-987.4" font-family="Arial" font-size="14.00">session_id </text>
<text text-anchor="start" x="479.83" y="-987.4" font-family="Arial" font-size="14.00" fill="#666666">[text]</text>
<polygon fill="none" stroke="black" points="402.79,-944.4 402.79,-975.2 652.56,-975.2 652.56,-944.4 402.79,-944.4"/>
<text text-anchor="start" x="409.79" y="-956.6" font-family="Arial" font-size="14.00">user_id </text>
<text text-anchor="start" x="459.6" y="-956.6" font-family="Arial" font-size="14.00" fill="#666666">[uuid]</text>
<polygon fill="none" stroke="black" points="402.79,-913.6 402.79,-944.4 652.56,-944.4 652.56,-913.6 402.79,-913.6"/>
<text text-anchor="start" x="409.79" y="-925.8" font-family="Arial" font-size="14.00">active_membership_id </text>
<text text-anchor="start" x="553.75" y="-925.8" font-family="Arial" font-size="14.00" fill="#666666">[uuid]</text>
<polygon fill="none" stroke="black" points="402.79,-882.8 402.79,-913.6 652.56,-913.6 652.56,-882.8 402.79,-882.8"/>
<text text-anchor="start" x="409.79" y="-895" font-family="Arial" font-size="14.00">created_at </text>
<text text-anchor="start" x="479.84" y="-895" font-family="Arial" font-size="14.00" fill="#666666">[timestamp with time zone]</text>
<polygon fill="none" stroke="black" points="402.79,-852 402.79,-882.8 652.56,-882.8 652.56,-852 402.79,-852"/>
<text text-anchor="start" x="409.79" y="-864.2" font-family="Arial" font-size="14.00">expires_at </text>
<text text-anchor="start" x="478.28" y="-864.2" font-family="Arial" font-size="14.00" fill="#666666">[timestamp with time zone]</text>
<polygon fill="none" stroke="black" points="402.79,-821.2 402.79,-852 652.56,-852 652.56,-821.2 402.79,-821.2"/>
<text text-anchor="start" x="409.79" y="-833.4" font-family="Arial" font-size="14.00">csrf_token </text>
<text text-anchor="start" x="478.27" y="-833.4" font-family="Arial" font-size="14.00" fill="#666666">[text]</text>
<polygon fill="none" stroke="black" points="402.79,-790.4 402.79,-821.2 652.56,-821.2 652.56,-790.4 402.79,-790.4"/>
<text text-anchor="start" x="409.79" y="-802.6" font-family="Arial" font-size="14.00">revoked </text>
<text text-anchor="start" x="463.49" y="-802.6" font-family="Arial" font-size="14.00" fill="#666666">[boolean]</text>
</g>
<!-- public.sessions&#45;&gt;public.users -->
<g id="edge2" class="edge">
<title>public.sessions:user_id&#45;&gt;public.users:id</title>
<path fill="none" stroke="black" d="M398.87,-950.11C389.13,-873.78 404.01,-371.63 426.68,-342.8 460.46,-299.84 511.52,-350.56 544.25,-306.8 569.33,-273.27 587.12,-212.6 545.25,-212.6"/>
<polygon fill="black" stroke="black" points="398.81,-949.91 397.39,-960.78 400.35,-955.01 401.6,-959.16 401.6,-959.16 401.6,-959.16 400.35,-955.01 406,-958.18 398.81,-949.91"/>
<text text-anchor="start" x="60.83" y="-969.8" font-family="Arial" font-size="10.00">FOREIGN KEY (user_id) REFERENCES users(id) ON DELETE CASCADE</text>
</g>
<!-- public.tenant_memberships -->
<g id="node7" class="node">
<title>public.tenant_memberships</title>
<polygon fill="#efefef" stroke="none" points="479.21,-632.4 479.21,-668 816.15,-668 816.15,-632.4 479.21,-632.4"/>
<polygon fill="none" stroke="black" points="479.21,-632.4 479.21,-668 816.15,-668 816.15,-632.4 479.21,-632.4"/>
<text text-anchor="start" x="486.21" y="-645.8" font-family="Arial Bold" font-size="18.00">public.tenant_memberships</text>
<text text-anchor="start" x="684.66" y="-645.8" font-family="Arial" font-size="14.00">    </text>
<text text-anchor="start" x="715.78" y="-645.8" font-family="Arial" font-size="14.00" fill="#666666">[BASE TABLE]</text>
<polygon fill="none" stroke="black" points="479.21,-601.6 479.21,-632.4 816.15,-632.4 816.15,-601.6 479.21,-601.6"/>
<text text-anchor="start" x="486.21" y="-613.8" font-family="Arial" font-size="14.00">id </text>
<text text-anchor="start" x="500.99" y="-613.8" font-family="Arial" font-size="14.00" fill="#666666">[uuid]</text>
<polygon fill="none" stroke="black" points="479.21,-570.8 479.21,-601.6 816.15,-601.6 816.15,-570.8 479.21,-570.8"/>
<text text-anchor="start" x="486.21" y="-583" font-family="Arial" font-size="14.00">tenant_id </text>
<text text-anchor="start" x="547.7" y="-583" font-family="Arial" font-size="14.00" fill="#666666">[uuid]</text>
<polygon fill="none" stroke="black" points="479.21,-540 479.21,-570.8 816.15,-570.8 816.15,-540 479.21,-540"/>
<text text-anchor="start" x="486.21" y="-552.2" font-family="Arial" font-size="14.00">user_id </text>
<text text-anchor="start" x="536.01" y="-552.2" font-family="Arial" font-size="14.00" fill="#666666">[uuid]</text>
<polygon fill="none" stroke="black" points="479.21,-509.2 479.21,-540 816.15,-540 816.15,-509.2 479.21,-509.2"/>
<text text-anchor="start" x="486.21" y="-521.4" font-family="Arial" font-size="14.00">role </text>
<text text-anchor="start" x="513.44" y="-521.4" font-family="Arial" font-size="14.00" fill="#666666">[text]</text>
<polygon fill="none" stroke="black" points="479.21,-478.4 479.21,-509.2 816.15,-509.2 816.15,-478.4 479.21,-478.4"/>
<text text-anchor="start" x="486.21" y="-490.6" font-family="Arial" font-size="14.00">status </text>
<text text-anchor="start" x="527.45" y="-490.6" font-family="Arial" font-size="14.00" fill="#666666">[text]</text>
<polygon fill="none" stroke="black" points="479.21,-447.6 479.21,-478.4 816.15,-478.4 816.15,-447.6 479.21,-447.6"/>
<text text-anchor="start" x="486.21" y="-459.8" font-family="Arial" font-size="14.00">joined_via </text>
<text text-anchor="start" x="553.14" y="-459.8" font-family="Arial" font-size="14.00" fill="#666666">[text]</text>
<polygon fill="none" stroke="black" points="479.21,-416.8 479.21,-447.6 816.15,-447.6 816.15,-416.8 479.21,-416.8"/>
<text text-anchor="start" x="486.21" y="-429" font-family="Arial" font-size="14.00">created_at </text>
<text text-anchor="start" x="556.25" y="-429" font-family="Arial" font-size="14.00" fill="#666666">[timestamp with time zone]</text>
<polygon fill="none" stroke="black" points="479.21,-386 479.21,-416.8 816.15,-416.8 816.15,-386 479.21,-386"/>
<text text-anchor="start" x="486.21" y="-398.2" font-family="Arial" font-size="14.00">left_at </text>
<text text-anchor="start" x="528.23" y="-398.2" font-family="Arial" font-size="14.00" fill="#666666">[timestamp with time zone]</text>
</g>
<!-- public.sessions&#45;&gt;public.tenant_memberships -->
<g id="edge3" class="edge">
<title>public.sessions:active_membership_id&#45;&gt;public.tenant_memberships:id</title>
<path fill="none" stroke="black" d="M663.79,-928.29C731.57,-918.4 701.43,-806.93 652.56,-747.2 602.73,-686.3 529.19,-771.97 479.21,-711.2 452.61,-678.86 436.34,-617 478.21,-617"/>
<polygon fill="black" stroke="black" points="663.87,-928.29 653.59,-924.49 658.55,-928.66 654.23,-928.95 654.23,-928.95 654.23,-928.95 658.55,-928.66 654.21,-933.47 663.87,-928.29"/>
<text text-anchor="start" x="287" y="-939" font-family="Arial" font-size="10.00">FOREIGN KEY (active_membership_id) REFERENCES tenant_memberships(id)</text>
</g>
<!-- public.oauth_states -->
<g id="node4" class="node">
<title>public.oauth_states</title>
<polygon fill="#efefef" stroke="none" points="757.2,-975.2 757.2,-1010.8 1034.16,-1010.8 1034.16,-975.2 757.2,-975.2"/>
<polygon fill="none" stroke="black" points="757.2,-975.2 757.2,-1010.8 1034.16,-1010.8 1034.16,-975.2 757.2,-975.2"/>
<text text-anchor="start" x="764.2" y="-988.6" font-family="Arial Bold" font-size="18.00">public.oauth_states</text>
<text text-anchor="start" x="902.67" y="-988.6" font-family="Arial" font-size="14.00">    </text>
<text text-anchor="start" x="933.79" y="-988.6" font-family="Arial" font-size="14.00" fill="#666666">[BASE TABLE]</text>
<polygon fill="none" stroke="black" points="757.2,-944.4 757.2,-975.2 1034.16,-975.2 1034.16,-944.4 757.2,-944.4"/>
<text text-anchor="start" x="764.2" y="-956.6" font-family="Arial" font-size="14.00">state </text>
<text text-anchor="start" x="798.44" y="-956.6" font-family="Arial" font-size="14.00" fill="#666666">[text]</text>
<polygon fill="none" stroke="black" points="757.2,-913.6 757.2,-944.4 1034.16,-944.4 1034.16,-913.6 757.2,-913.6"/>
<text text-anchor="start" x="764.2" y="-925.8" font-family="Arial" font-size="14.00">code_verifier </text>
<text text-anchor="start" x="848.24" y="-925.8" font-family="Arial" font-size="14.00" fill="#666666">[text]</text>
<polygon fill="none" stroke="black" points="757.2,-882.8 757.2,-913.6 1034.16,-913.6 1034.16,-882.8 757.2,-882.8"/>
<text text-anchor="start" x="764.2" y="-895" font-family="Arial" font-size="14.00">nonce </text>
<text text-anchor="start" x="806.23" y="-895" font-family="Arial" font-size="14.00" fill="#666666">[text]</text>
<polygon fill="none" stroke="black" points="757.2,-852 757.2,-882.8 1034.16,-882.8 1034.16,-852 757.2,-852"/>
<text text-anchor="start" x="764.2" y="-864.2" font-family="Arial" font-size="14.00">created_at </text>
<text text-anchor="start" x="834.25" y="-864.2" font-family="Arial" font-size="14.00" fill="#666666">[timestamp with time zone]</text>
<polygon fill="none" stroke="black" points="757.2,-821.2 757.2,-852 1034.16,-852 1034.16,-821.2 757.2,-821.2"/>
<text text-anchor="start" x="764.2" y="-833.4" font-family="Arial" font-size="14.00">consumed_at </text>
<text text-anchor="start" x="852.14" y="-833.4" font-family="Arial" font-size="14.00" fill="#666666">[timestamp with time zone]</text>
</g>
<!-- public.tenants -->
<g id="node5" class="node">
<title>public.tenants</title>
<polygon fill="#efefef" stroke="none" points="800.84,-228 800.84,-263.6 1054.52,-263.6 1054.52,-228 800.84,-228"/>
<polygon fill="none" stroke="black" points="800.84,-228 800.84,-263.6 1054.52,-263.6 1054.52,-228 800.84,-228"/>
<text text-anchor="start" x="815.2" y="-241.4" font-family="Arial Bold" font-size="18.00">public.tenants</text>
<text text-anchor="start" x="915.67" y="-241.4" font-family="Arial" font-size="14.00">    </text>
<text text-anchor="start" x="946.79" y="-241.4" font-family="Arial" font-size="14.00" fill="#666666">[BASE TABLE]</text>
<polygon fill="none" stroke="black" points="800.84,-197.2 800.84,-228 1054.52,-228 1054.52,-197.2 800.84,-197.2"/>
<text text-anchor="start" x="807.84" y="-209.4" font-family="Arial" font-size="14.00">id </text>
<text text-anchor="start" x="822.62" y="-209.4" font-family="Arial" font-size="14.00" fill="#666666">[uuid]</text>
<polygon fill="none" stroke="black" points="800.84,-166.4 800.84,-197.2 1054.52,-197.2 1054.52,-166.4 800.84,-166.4"/>
<text text-anchor="start" x="807.84" y="-178.6" font-family="Arial" font-size="14.00">name </text>
<text text-anchor="start" x="846.75" y="-178.6" font-family="Arial" font-size="14.00" fill="#666666">[text]</text>
<polygon fill="none" stroke="black" points="800.84,-135.6 800.84,-166.4 1054.52,-166.4 1054.52,-135.6 800.84,-135.6"/>
<text text-anchor="start" x="807.84" y="-147.8" font-family="Arial" font-size="14.00">description </text>
<text text-anchor="start" x="879.43" y="-147.8" font-family="Arial" font-size="14.00" fill="#666666">[text]</text>
<polygon fill="none" stroke="black" points="800.84,-104.8 800.84,-135.6 1054.52,-135.6 1054.52,-104.8 800.84,-104.8"/>
<text text-anchor="start" x="807.84" y="-117" font-family="Arial" font-size="14.00">tenant_type </text>
<text text-anchor="start" x="884.9" y="-117" font-family="Arial" font-size="14.00" fill="#666666">[text]</text>
<polygon fill="none" stroke="black" points="800.84,-74 800.84,-104.8 1054.52,-104.8 1054.52,-74 800.84,-74"/>
<text text-anchor="start" x="807.84" y="-86.2" font-family="Arial" font-size="14.00">created_at </text>
<text text-anchor="start" x="877.89" y="-86.2" font-family="Arial" font-size="14.00" fill="#666666">[timestamp with time zone]</text>
<polygon fill="none" stroke="black" points="800.84,-43.2 800.84,-74 1054.52,-74 1054.52,-43.2 800.84,-43.2"/>
<text text-anchor="start" x="807.84" y="-55.4" font-family="Arial" font-size="14.00">updated_at </text>
<text text-anchor="start" x="881.8" y="-55.4" font-family="Arial" font-size="14.00" fill="#666666">[timestamp with time zone]</text>
</g>
<!-- public.tenant_join_codes -->
<g id="node6" class="node">
<title>public.tenant_join_codes</title>
<polygon fill="#efefef" stroke="none" points="920.21,-617 920.21,-652.6 1239.15,-652.6 1239.15,-617 920.21,-617"/>
<polygon fill="none" stroke="black" points="920.21,-617 920.21,-652.6 1239.15,-652.6 1239.15,-617 920.21,-617"/>
<text text-anchor="start" x="927.21" y="-630.4" font-family="Arial Bold" font-size="18.00">public.tenant_join_codes</text>
<text text-anchor="start" x="1107.66" y="-630.4" font-family="Arial" font-size="14.00">    </text>
<text text-anchor="start" x="1138.78" y="-630.4" font-family="Arial" font-size="14.00" fill="#666666">[BASE TABLE]</text>
<polygon fill="none" stroke="black" points="920.21,-586.2 920.21,-617 1239.15,-617 1239.15,-586.2 920.21,-586.2"/>
<text text-anchor="start" x="927.21" y="-598.4" font-family="Arial" font-size="14.00">id </text>
<text text-anchor="start" x="941.99" y="-598.4" font-family="Arial" font-size="14.00" fill="#666666">[uuid]</text>
<polygon fill="none" stroke="black" points="920.21,-555.4 920.21,-586.2 1239.15,-586.2 1239.15,-555.4 920.21,-555.4"/>
<text text-anchor="start" x="927.21" y="-567.6" font-family="Arial" font-size="14.00">tenant_id </text>
<text text-anchor="start" x="988.7" y="-567.6" font-family="Arial" font-size="14.00" fill="#666666">[uuid]</text>
<polygon fill="none" stroke="black" points="920.21,-524.6 920.21,-555.4 1239.15,-555.4 1239.15,-524.6 920.21,-524.6"/>
<text text-anchor="start" x="927.21" y="-536.8" font-family="Arial" font-size="14.00">code </text>
<text text-anchor="start" x="961.45" y="-536.8" font-family="Arial" font-size="14.00" fill="#666666">[text]</text>
<polygon fill="none" stroke="black" points="920.21,-493.8 920.21,-524.6 1239.15,-524.6 1239.15,-493.8 920.21,-493.8"/>
<text text-anchor="start" x="927.21" y="-506" font-family="Arial" font-size="14.00">expires_at </text>
<text text-anchor="start" x="995.69" y="-506" font-family="Arial" font-size="14.00" fill="#666666">[timestamp with time zone]</text>
<polygon fill="none" stroke="black" points="920.21,-463 920.21,-493.8 1239.15,-493.8 1239.15,-463 920.21,-463"/>
<text text-anchor="start" x="927.21" y="-475.2" font-family="Arial" font-size="14.00">max_uses </text>
<text text-anchor="start" x="994.9" y="-475.2" font-family="Arial" font-size="14.00" fill="#666666">[integer]</text>
<polygon fill="none" stroke="black" points="920.21,-432.2 920.21,-463 1239.15,-463 1239.15,-432.2 920.21,-432.2"/>
<text text-anchor="start" x="927.21" y="-444.4" font-family="Arial" font-size="14.00">used_count </text>
<text text-anchor="start" x="1003.49" y="-444.4" font-family="Arial" font-size="14.00" fill="#666666">[integer]</text>
<polygon fill="none" stroke="black" points="920.21,-401.4 920.21,-432.2 1239.15,-432.2 1239.15,-401.4 920.21,-401.4"/>
<text text-anchor="start" x="927.21" y="-413.6" font-family="Arial" font-size="14.00">created_at </text>
<text text-anchor="start" x="997.25" y="-413.6" font-family="Arial" font-size="14.00" fill="#666666">[timestamp with time zone]</text>
</g>
<!-- public.tenant_join_codes&#45;&gt;public.tenants -->
<g id="edge4" class="edge">
<title>public.tenant_join_codes:tenant_id&#45;&gt;public.tenants:id</title>
<path fill="none" stroke="black" d="M909.36,-567.77C875.33,-544.48 895.43,-394.02 920.21,-358.2 956.56,-305.63 1018.01,-359.26 1054.52,-306.8 1078.43,-272.43 1097.39,-212.6 1055.52,-212.6"/>
<polygon fill="black" stroke="black" points="909.33,-567.76 917.56,-575 914.43,-569.33 918.57,-570.6 918.57,-570.6 918.57,-570.6 914.43,-569.33 920.21,-566.4 909.33,-567.76"/>
<text text-anchor="start" x="926.21" y="-580.8" font-family="Arial" font-size="10.00">FOREIGN KEY (tenant_id) REFERENCES tenants(id) ON DELETE CASCADE</text>
</g>
<!-- public.tenant_memberships&#45;&gt;public.users -->
<g id="edge5" class="edge">
<title>public.tenant_memberships:user_id&#45;&gt;public.users:id</title>
<path fill="none" stroke="black" d="M468.26,-554.87C387.23,-545.72 432.82,-421.07 479.21,-342.8 496.05,-314.38 527.32,-335.17 544.25,-306.8 565.7,-270.84 587.12,-212.6 545.25,-212.6"/>
<polygon fill="black" stroke="black" points="467.89,-554.85 477.63,-559.88 473.21,-555.13 477.54,-555.36 477.54,-555.36 477.54,-555.36 473.21,-555.13 478.11,-550.89 467.89,-554.85"/>
<text text-anchor="start" x="398.22" y="-539.4" font-family="Arial" font-size="10.00">FOREIGN KEY (user_id) REFERENCES users(id) ON DELETE CASCADE</text>
</g>
<!-- public.tenant_memberships&#45;&gt;public.tenants -->
<g id="edge6" class="edge">
<title>public.tenant_memberships:tenant_id&#45;&gt;public.tenants:id</title>
<path fill="none" stroke="black" d="M827.15,-583.49C865.19,-560.1 826.3,-392.05 816.15,-342.8 812.64,-325.77 804.4,-323.82 800.84,-306.8 792.26,-265.82 757.97,-212.6 799.84,-212.6"/>
<polygon fill="black" stroke="black" points="827.13,-583.5 816.3,-581.77 821.98,-584.89 817.8,-586.02 817.8,-586.02 817.8,-586.02 821.98,-584.89 818.65,-590.46 827.13,-583.5"/>
<text text-anchor="start" x="459.49" y="-596.2" font-family="Arial" font-size="10.00">FOREIGN KEY (tenant_id) REFERENCES tenants(id) ON DELETE CASCADE</text>
</g>
<!-- public.console_sessions -->
<g id="node8" class="node">
<title>public.console_sessions</title>
<polygon fill="#efefef" stroke="none" points="1138.19,-959.8 1138.19,-995.4 1449.17,-995.4 1449.17,-959.8 1138.19,-959.8"/>
<polygon fill="none" stroke="black" points="1138.19,-959.8 1138.19,-995.4 1449.17,-995.4 1449.17,-959.8 1138.19,-959.8"/>
<text text-anchor="start" x="1145.19" y="-973.2" font-family="Arial Bold" font-size="18.00">public.console_sessions</text>
<text text-anchor="start" x="1317.68" y="-973.2" font-family="Arial" font-size="14.00">    </text>
<text text-anchor="start" x="1348.79" y="-973.2" font-family="Arial" font-size="14.00" fill="#666666">[BASE TABLE]</text>
<polygon fill="none" stroke="black" points="1138.19,-929 1138.19,-959.8 1449.17,-959.8 1449.17,-929 1138.19,-929"/>
<text text-anchor="start" x="1145.19" y="-941.2" font-family="Arial" font-size="14.00">session_id </text>
<text text-anchor="start" x="1215.23" y="-941.2" font-family="Arial" font-size="14.00" fill="#666666">[text]</text>
<polygon fill="none" stroke="black" points="1138.19,-898.2 1138.19,-929 1449.17,-929 1449.17,-898.2 1138.19,-898.2"/>
<text text-anchor="start" x="1145.19" y="-910.4" font-family="Arial" font-size="14.00">organization_id </text>
<text text-anchor="start" x="1244.04" y="-910.4" font-family="Arial" font-size="14.00" fill="#666666">[uuid]</text>
<polygon fill="none" stroke="black" points="1138.19,-867.4 1138.19,-898.2 1449.17,-898.2 1449.17,-867.4 1138.19,-867.4"/>
<text text-anchor="start" x="1145.19" y="-879.6" font-family="Arial" font-size="14.00">created_at </text>
<text text-anchor="start" x="1215.24" y="-879.6" font-family="Arial" font-size="14.00" fill="#666666">[timestamp with time zone]</text>
<polygon fill="none" stroke="black" points="1138.19,-836.6 1138.19,-867.4 1449.17,-867.4 1449.17,-836.6 1138.19,-836.6"/>
<text text-anchor="start" x="1145.19" y="-848.8" font-family="Arial" font-size="14.00">expires_at </text>
<text text-anchor="start" x="1213.67" y="-848.8" font-family="Arial" font-size="14.00" fill="#666666">[timestamp with time zone]</text>
</g>
</g>
</svg>
