<?xml version="1.0" encoding="UTF-8" standalone="no"?>
<!DOCTYPE svg PUBLIC "-//W3C//DTD SVG 1.1//EN"
 "http://www.w3.org/Graphics/SVG/1.1/DTD/svg11.dtd">
<!-- Generated by graphviz version 12.1.2 (20240928.0832)
 -->
<!-- Title: keyhub Pages: 1 -->
<svg width="368pt" height="315pt"
 viewBox="0.00 0.00 367.54 314.80" xmlns="http://www.w3.org/2000/svg" xmlns:xlink="http://www.w3.org/1999/xlink">
<g id="graph0" class="graph" transform="scale(1 1) rotate(0) translate(4 310.8)">
<title>keyhub</title>
<polygon fill="white" stroke="none" points="-4,4 -4,-310.8 363.54,-310.8 363.54,4 -4,4"/>
<!-- public.users -->
<g id="node1" class="node">
<title>public.users</title>
<polygon fill="#efefef" stroke="none" points="43.2,-228 43.2,-263.6 316.34,-263.6 316.34,-228 43.2,-228"/>
<polygon fill="none" stroke="black" points="43.2,-228 43.2,-263.6 316.34,-263.6 316.34,-228 43.2,-228"/>
<text text-anchor="start" x="74.28" y="-241.4" font-family="Arial Bold" font-size="18.00">public.users</text>
<text text-anchor="start" x="160.77" y="-241.4" font-family="Arial" font-size="14.00">    </text>
<text text-anchor="start" x="191.89" y="-241.4" font-family="Arial" font-size="14.00" fill="#666666">[BASE TABLE]</text>
<polygon fill="none" stroke="black" points="43.2,-197.2 43.2,-228 316.34,-228 316.34,-197.2 43.2,-197.2"/>
<text text-anchor="start" x="50.2" y="-209.4" font-family="Arial" font-size="14.00">id </text>
<text text-anchor="start" x="64.99" y="-209.4" font-family="Arial" font-size="14.00" fill="#666666">[uuid]</text>
<polygon fill="none" stroke="black" points="43.2,-166.4 43.2,-197.2 316.34,-197.2 316.34,-166.4 43.2,-166.4"/>
<text text-anchor="start" x="50.2" y="-178.6" font-family="Arial" font-size="14.00">email </text>
<text text-anchor="start" x="87.54" y="-178.6" font-family="Arial" font-size="14.00" fill="#666666">[text]</text>
<polygon fill="none" stroke="black" points="43.2,-135.6 43.2,-166.4 316.34,-166.4 316.34,-135.6 43.2,-135.6"/>
<text text-anchor="start" x="50.2" y="-147.8" font-family="Arial" font-size="14.00">name </text>
<text text-anchor="start" x="89.11" y="-147.8" font-family="Arial" font-size="14.00" fill="#666666">[text]</text>
<polygon fill="none" stroke="black" points="43.2,-104.8 43.2,-135.6 316.34,-135.6 316.34,-104.8 43.2,-104.8"/>
<text text-anchor="start" x="50.2" y="-117" font-family="Arial" font-size="14.00">icon </text>
<text text-anchor="start" x="79.77" y="-117" font-family="Arial" font-size="14.00" fill="#666666">[text]</text>
<polygon fill="none" stroke="black" points="43.2,-74 43.2,-104.8 316.34,-104.8 316.34,-74 43.2,-74"/>
<text text-anchor="start" x="50.2" y="-86.2" font-family="Arial" font-size="14.00">created_at </text>
<text text-anchor="start" x="120.25" y="-86.2" font-family="Arial" font-size="14.00" fill="#666666">[timestamp without time zone]</text>
<polygon fill="none" stroke="black" points="43.2,-43.2 43.2,-74 316.34,-74 316.34,-43.2 43.2,-43.2"/>
<text text-anchor="start" x="50.2" y="-55.4" font-family="Arial" font-size="14.00">updated_at </text>
<text text-anchor="start" x="124.16" y="-55.4" font-family="Arial" font-size="14.00" fill="#666666">[timestamp without time zone]</text>
</g>
</g>
</svg>
