<?xml version="1.0" encoding="UTF-8" standalone="no"?>
<!DOCTYPE svg PUBLIC "-//W3C//DTD SVG 1.1//EN"
 "http://www.w3.org/Graphics/SVG/1.1/DTD/svg11.dtd">
<!-- Generated by graphviz version 12.1.2 (20240928.0832)
 -->
<!-- Title: keyhub Pages: 1 -->
<svg width="1500pt" height="1093pt"
 viewBox="0.00 0.00 1500.37 1092.80" xmlns="http://www.w3.org/2000/svg" xmlns:xlink="http://www.w3.org/1999/xlink">
<g id="graph0" class="graph" transform="scale(1 1) rotate(0) translate(4 1088.8)">
<title>keyhub</title>
<polygon fill="white" stroke="none" points="-4,4 -4,-1088.8 1496.37,-1088.8 1496.37,4 -4,4"/>
<!-- public.users -->
<g id="node1" class="node">
<title>public.users</title>
<polygon fill="#efefef" stroke="none" points="271.11,-243.4 271.11,-279 544.25,-279 544.25,-243.4 271.11,-243.4"/>
<polygon fill="none" stroke="black" points="271.11,-243.4 271.11,-279 544.25,-279 544.25,-243.4 271.11,-243.4"/>
<text text-anchor="start" x="302.19" y="-256.8" font-family="Arial Bold" font-size="18.00">public.users</text>
<text text-anchor="start" x="388.68" y="-256.8" font-family="Arial" font-size="14.00">    </text>
<text text-anchor="start" x="419.79" y="-256.8" font-family="Arial" font-size="14.00" fill="#666666">[BASE TABLE]</text>
<polygon fill="none" stroke="black" points="271.11,-212.6 271.11,-243.4 544.25,-243.4 544.25,-212.6 271.11,-212.6"/>
<text text-anchor="start" x="278.11" y="-224.8" font-family="Arial" font-size="14.00">id </text>
<text text-anchor="start" x="292.89" y="-224.8" font-family="Arial" font-size="14.00" fill="#666666">[uuid]</text>
<polygon fill="none" stroke="black" points="271.11,-181.8 271.11,-212.6 544.25,-212.6 544.25,-181.8 271.11,-181.8"/>
<text text-anchor="start" x="278.11" y="-194" font-family="Arial" font-size="14.00">email </text>
<text text-anchor="start" x="315.45" y="-194" font-family="Arial" font-size="14.00" fill="#666666">[text]</text>
<polygon fill="none" stroke="black" points="271.11,-151 271.11,-181.8 544.25,-181.8 544.25,-151 271.11,-151"/>
<text text-anchor="start" x="278.11" y="-163.2" font-family="Arial" font-size="14.00">name </text>
<text text-anchor="start" x="317.02" y="-163.2" font-family="Arial" font-size="14.00" fill="#666666">[text]</text>
<polygon fill="none" stroke="black" points="271.11,-120.2 271.11,-151 544.25,-151 544.25,-120.2 271.11,-120.2"/>
<text text-anchor="start" x="278.11" y="-132.4" font-family="Arial" font-size="14.00">icon </text>
<text text-anchor="start" x="307.68" y="-132.4" font-family="Arial" font-size="14.00" fill="#666666">[text]</text>
<polygon fill="none" stroke="black" points="271.11,-89.4 271.11,-120.2 544.25,-120.2 544.25,-89.4 271.11,-89.4"/>
<text text-anchor="start" x="278.11" y="-101.6" font-family="Arial" font-size="14.00">created_at </text>
<text text-anchor="start" x="348.15" y="-101.6" font-family="Arial" font-size="14.00" fill="#666666">[timestamp without time zone]</text>
<polygon fill="none" stroke="black" points="271.11,-58.6 271.11,-89.4 544.25,-89.4 544.25,-58.6 271.11,-58.6"/>
<text text-anchor="start" x="278.11" y="-70.8" font-family="Arial" font-size="14.00">updated_at </text>
<text text-anchor="start" x="352.06" y="-70.8" font-family="Arial" font-size="14.00" fill="#666666">[timestamp without time zone]</text>
</g>
<!-- public.user_identities -->
<g id="node2" class="node">
<title>public.user_identities</title>
<polygon fill="#efefef" stroke="none" points="43.2,-617 43.2,-652.6 336.16,-652.6 336.16,-617 43.2,-617"/>
<polygon fill="none" stroke="black" points="43.2,-617 43.2,-652.6 336.16,-652.6 336.16,-617 43.2,-617"/>
<text text-anchor="start" x="50.2" y="-630.4" font-family="Arial Bold" font-size="18.00">public.user_identities</text>
<text text-anchor="start" x="204.67" y="-630.4" font-family="Arial" font-size="14.00">    </text>
<text text-anchor="start" x="235.78" y="-630.4" font-family="Arial" font-size="14.00" fill="#666666">[BASE TABLE]</text>
<polygon fill="none" stroke="black" points="43.2,-586.2 43.2,-617 336.16,-617 336.16,-586.2 43.2,-586.2"/>
<text text-anchor="start" x="50.2" y="-598.4" font-family="Arial" font-size="14.00">id </text>
<text text-anchor="start" x="64.99" y="-598.4" font-family="Arial" font-size="14.00" fill="#666666">[uuid]</text>
<polygon fill="none" stroke="black" points="43.2,-555.4 43.2,-586.2 336.16,-586.2 336.16,-555.4 43.2,-555.4"/>
<text text-anchor="start" x="50.2" y="-567.6" font-family="Arial" font-size="14.00">user_id </text>
<text text-anchor="start" x="100.01" y="-567.6" font-family="Arial" font-size="14.00" fill="#666666">[uuid]</text>
<polygon fill="none" stroke="black" points="43.2,-524.6 43.2,-555.4 336.16,-555.4 336.16,-524.6 43.2,-524.6"/>
<text text-anchor="start" x="50.2" y="-536.8" font-family="Arial" font-size="14.00">provider </text>
<text text-anchor="start" x="104.67" y="-536.8" font-family="Arial" font-size="14.00" fill="#666666">[text]</text>
<polygon fill="none" stroke="black" points="43.2,-493.8 43.2,-524.6 336.16,-524.6 336.16,-493.8 43.2,-493.8"/>
<text text-anchor="start" x="50.2" y="-506" font-family="Arial" font-size="14.00">provider_sub </text>
<text text-anchor="start" x="135.03" y="-506" font-family="Arial" font-size="14.00" fill="#666666">[text]</text>
<polygon fill="none" stroke="black" points="43.2,-463 43.2,-493.8 336.16,-493.8 336.16,-463 43.2,-463"/>
<text text-anchor="start" x="50.2" y="-475.2" font-family="Arial" font-size="14.00">created_at </text>
<text text-anchor="start" x="120.25" y="-475.2" font-family="Arial" font-size="14.00" fill="#666666">[timestamp with time zone]</text>
<polygon fill="none" stroke="black" points="43.2,-432.2 43.2,-463 336.16,-463 336.16,-432.2 43.2,-432.2"/>
<text text-anchor="start" x="50.2" y="-444.4" font-family="Arial" font-size="14.00">updated_at </text>
<text text-anchor="start" x="124.16" y="-444.4" font-family="Arial" font-size="14.00" fill="#666666">[timestamp with time zone]</text>
</g>
<!-- public.user_identities&#45;&gt;public.users -->
<g id="edge1" class="edge">
<title>public.user_identities:user_id&#45;&gt;public.users:id</title>
<path fill="none" stroke="black" d="M347.26,-570.16C413.4,-561.25 365.41,-460.41 336.16,-389 320.45,-350.65 286.91,-360.51 271.11,-322.2 255.14,-283.5 228.24,-228 270.11,-228"/>
<polygon fill="black" stroke="black" points="347.47,-570.15 337.21,-566.29 342.15,-570.49 337.82,-570.76 337.82,-570.76 337.82,-570.76 342.15,-570.49 337.77,-575.27 347.47,-570.15"/>
<text text-anchor="start" x="344.16" y="-580.8" font-family="Arial" font-size="10.00">FOREIGN KEY (user_id) REFERENCES users(id) ON DELETE CASCADE</text>
</g>
<!-- public.sessions -->
<g id="node3" class="node">
<title>public.sessions</title>
<polygon fill="#efefef" stroke="none" points="402.79,-1006 402.79,-1041.6 652.56,-1041.6 652.56,-1006 402.79,-1006"/>
<polygon fill="none" stroke="black" points="402.79,-1006 402.79,-1041.6 652.56,-1041.6 652.56,-1006 402.79,-1006"/>
<text text-anchor="start" x="411.18" y="-1019.4" font-family="Arial Bold" font-size="18.00">public.sessions</text>
<text text-anchor="start" x="519.68" y="-1019.4" font-family="Arial" font-size="14.00">    </text>
<text text-anchor="start" x="550.8" y="-1019.4" font-family="Arial" font-size="14.00" fill="#666666">[BASE TABLE]</text>
<polygon fill="none" stroke="black" points="402.79,-975.2 402.79,-1006 652.56,-1006 652.56,-975.2 402.79,-975.2"/>
<text text-anchor="start" x="409.79" y="-987.4" font-family="Arial" font-size="14.00">session_id </text>
<text text-anchor="start" x="479.83" y="-987.4" font-family="Arial" font-size="14.00" fill="#666666">[text]</text>
<polygon fill="none" stroke="black" points="402.79,-944.4 402.79,-975.2 652.56,-975.2 652.56,-944.4 402.79,-944.4"/>
<text text-anchor="start" x="409.79" y="-956.6" font-family="Arial" font-size="14.00">user_id </text>
<text text-anchor="start" x="459.6" y="-956.6" font-family="Arial" font-size="14.00" fill="#666666">[uuid]</text>
<polygon fill="none" stroke="black" points="402.79,-913.6 402.79,-944.4 652.56,-944.4 652.56,-913.6 402.79,-913.6"/>
<text text-anchor="start" x="409.79" y="-925.8" font-family="Arial" font-size="14.00">active_membership_id </text>
<text text-anchor="start" x="553.75" y="-925.8" font-family="Arial" font-size="14.00" fill="#666666">[uuid]</text>
<polygon fill="none" stroke="black" points="402.79,-882.8 402.79,-913.6 652.56,-913.6 652.56,-882.8 402.79,-882.8"/>
<text text-anchor="start" x="409.79" y="-895" font-family="Arial" font-size="14.00">created_at </text>
<text text-anchor="start" x="479.84" y="-895" font-family="Arial" font-size="14.00" fill="#666666">[timestamp with time zone]</text>
<polygon fill="none" stroke="black" points="402.79,-852 402.79,-882.8 652.56,-882.8 652.56,-852 402.79,-852"/>
<text text-anchor="start" x="409.79" y="-864.2" font-family="Arial" font-size="14.00">expires_at </text>
<text text-anchor="start" x="478.28" y="-864.2" font-family="Arial" font-size="14.00" fill="#666666">[timestamp with time zone]</text>
<polygon fill="none" stroke="black" points="402.79,-821.2 402.79,-852 652.56,-852 652.56,-821.2 402.79,-821.2"/>
<text text-anchor="start" x="409.79" y="-833.4" font-family="Arial" font-size="14.00">csrf_token </text>
<text text-anchor="start" x="478.27" y="-833.4" font-family="Arial" font-size="14.00" fill="#666666">[text]</text>
<polygon fill="none" stroke="black" points="402.79,-790.4 402.79,-821.2 652.56,-821.2 652.56,-790.4 402.79,-790.4"/>
<text text-anchor="start" x="409.79" y="-802.6" font-family="Arial" font-size="14.00">revoked </text>
<text text-anchor="start" x="463.49" y="-802.6" font-family="Arial" font-size="14.00" fill="#666666">[boolean]</text>
</g>
<!-- public.sessions&#45;&gt;public.users -->
<g id="edge2" class="edge">
<title>public.sessions:user_id&#45;&gt;public.users:id</title>
<path fill="none" stroke="black" d="M396.82,-950.92C379.42,-880.92 394.36,-419.72 426.68,-373.6 459.41,-326.9 512.78,-369.76 544.25,-322.2 567.36,-287.28 587.12,-228 545.25,-228"/>
<polygon fill="black" stroke="black" points="396.75,-950.78 397.7,-961.71 399.35,-955.44 401.47,-959.22 401.47,-959.22 401.47,-959.22 399.35,-955.44 405.56,-957.31 396.75,-950.78"/>
<text text-anchor="start" x="60.83" y="-969.8" font-family="Arial" font-size="10.00">FOREIGN KEY (user_id) REFERENCES users(id) ON DELETE CASCADE</text>
</g>
<!-- public.tenant_memberships -->
<g id="node7" class="node">
<title>public.tenant_memberships</title>
<polygon fill="#efefef" stroke="none" points="479.21,-617 479.21,-652.6 816.15,-652.6 816.15,-617 479.21,-617"/>
<polygon fill="none" stroke="black" points="479.21,-617 479.21,-652.6 816.15,-652.6 816.15,-617 479.21,-617"/>
<text text-anchor="start" x="486.21" y="-630.4" font-family="Arial Bold" font-size="18.00">public.tenant_memberships</text>
<text text-anchor="start" x="684.66" y="-630.4" font-family="Arial" font-size="14.00">    </text>
<text text-anchor="start" x="715.78" y="-630.4" font-family="Arial" font-size="14.00" fill="#666666">[BASE TABLE]</text>
<polygon fill="none" stroke="black" points="479.21,-586.2 479.21,-617 816.15,-617 816.15,-586.2 479.21,-586.2"/>
<text text-anchor="start" x="486.21" y="-598.4" font-family="Arial" font-size="14.00">id </text>
<text text-anchor="start" x="500.99" y="-598.4" font-family="Arial" font-size="14.00" fill="#666666">[uuid]</text>
<polygon fill="none" stroke="black" points="479.21,-555.4 479.21,-586.2 816.15,-586.2 816.15,-555.4 479.21,-555.4"/>
<text text-anchor="start" x="486.21" y="-567.6" font-family="Arial" font-size="14.00">tenant_id </text>
<text text-anchor="start" x="547.7" y="-567.6" font-family="Arial" font-size="14.00" fill="#666666">[uuid]</text>
<polygon fill="none" stroke="black" points="479.21,-524.6 479.21,-555.4 816.15,-555.4 816.15,-524.6 479.21,-524.6"/>
<text text-anchor="start" x="486.21" y="-536.8" font-family="Arial" font-size="14.00">user_id </text>
<text text-anchor="start" x="536.01" y="-536.8" font-family="Arial" font-size="14.00" fill="#666666">[uuid]</text>
<polygon fill="none" stroke="black" points="479.21,-493.8 479.21,-524.6 816.15,-524.6 816.15,-493.8 479.21,-493.8"/>
<text text-anchor="start" x="486.21" y="-506" font-family="Arial" font-size="14.00">role </text>
<text text-anchor="start" x="513.44" y="-506" font-family="Arial" font-size="14.00" fill="#666666">[text]</text>
<polygon fill="none" stroke="black" points="479.21,-463 479.21,-493.8 816.15,-493.8 816.15,-463 479.21,-463"/>
<text text-anchor="start" x="486.21" y="-475.2" font-family="Arial" font-size="14.00">created_at </text>
<text text-anchor="start" x="556.25" y="-475.2" font-family="Arial" font-size="14.00" fill="#666666">[timestamp with time zone]</text>
<polygon fill="none" stroke="black" points="479.21,-432.2 479.21,-463 816.15,-463 816.15,-432.2 479.21,-432.2"/>
<text text-anchor="start" x="486.21" y="-444.4" font-family="Arial" font-size="14.00">left_at </text>
<text text-anchor="start" x="528.23" y="-444.4" font-family="Arial" font-size="14.00" fill="#666666">[timestamp with time zone]</text>
</g>
<!-- public.sessions&#45;&gt;public.tenant_memberships -->
<g id="edge3" class="edge">
<title>public.sessions:active_membership_id&#45;&gt;public.tenant_memberships:id</title>
<path fill="none" stroke="black" d="M663.77,-928.31C731.34,-918.58 698.9,-808.91 652.56,-747.2 604.31,-682.93 527.62,-759.94 479.21,-695.8 453.98,-662.38 436.34,-601.6 478.21,-601.6"/>
<polygon fill="black" stroke="black" points="663.87,-928.3 653.59,-924.49 658.55,-928.66 654.23,-928.95 654.23,-928.95 654.23,-928.95 658.55,-928.66 654.2,-933.47 663.87,-928.3"/>
<text text-anchor="start" x="287" y="-939" font-family="Arial" font-size="10.00">FOREIGN KEY (active_membership_id) REFERENCES tenant_memberships(id)</text>
</g>
<!-- public.oauth_states -->
<g id="node4" class="node">
<title>public.oauth_states</title>
<polygon fill="#efefef" stroke="none" points="757.2,-975.2 757.2,-1010.8 1034.16,-1010.8 1034.16,-975.2 757.2,-975.2"/>
<polygon fill="none" stroke="black" points="757.2,-975.2 757.2,-1010.8 1034.16,-1010.8 1034.16,-975.2 757.2,-975.2"/>
<text text-anchor="start" x="764.2" y="-988.6" font-family="Arial Bold" font-size="18.00">public.oauth_states</text>
<text text-anchor="start" x="902.67" y="-988.6" font-family="Arial" font-size="14.00">    </text>
<text text-anchor="start" x="933.79" y="-988.6" font-family="Arial" font-size="14.00" fill="#666666">[BASE TABLE]</text>
<polygon fill="none" stroke="black" points="757.2,-944.4 757.2,-975.2 1034.16,-975.2 1034.16,-944.4 757.2,-944.4"/>
<text text-anchor="start" x="764.2" y="-956.6" font-family="Arial" font-size="14.00">state </text>
<text text-anchor="start" x="798.44" y="-956.6" font-family="Arial" font-size="14.00" fill="#666666">[text]</text>
<polygon fill="none" stroke="black" points="757.2,-913.6 757.2,-944.4 1034.16,-944.4 1034.16,-913.6 757.2,-913.6"/>
<text text-anchor="start" x="764.2" y="-925.8" font-family="Arial" font-size="14.00">code_verifier </text>
<text text-anchor="start" x="848.24" y="-925.8" font-family="Arial" font-size="14.00" fill="#666666">[text]</text>
<polygon fill="none" stroke="black" points="757.2,-882.8 757.2,-913.6 1034.16,-913.6 1034.16,-882.8 757.2,-882.8"/>
<text text-anchor="start" x="764.2" y="-895" font-family="Arial" font-size="14.00">nonce </text>
<text text-anchor="start" x="806.23" y="-895" font-family="Arial" font-size="14.00" fill="#666666">[text]</text>
<polygon fill="none" stroke="black" points="757.2,-852 757.2,-882.8 1034.16,-882.8 1034.16,-852 757.2,-852"/>
<text text-anchor="start" x="764.2" y="-864.2" font-family="Arial" font-size="14.00">created_at </text>
<text text-anchor="start" x="834.25" y="-864.2" font-family="Arial" font-size="14.00" fill="#666666">[timestamp with time zone]</text>
<polygon fill="none" stroke="black" points="757.2,-821.2 757.2,-852 1034.16,-852 1034.16,-821.2 757.2,-821.2"/>
<text text-anchor="start" x="764.2" y="-833.4" font-family="Arial" font-size="14.00">consumed_at </text>
<text text-anchor="start" x="852.14" y="-833.4" font-family="Arial" font-size="14.00" fill="#666666">[timestamp with time zone]</text>
</g>
<!-- public.tenants -->
<g id="node5" class="node">
<title>public.tenants</title>
<polygon fill="#efefef" stroke="none" points="800.84,-258.8 800.84,-294.4 1054.52,-294.4 1054.52,-258.8 800.84,-258.8"/>
<polygon fill="none" stroke="black" points="800.84,-258.8 800.84,-294.4 1054.52,-294.4 1054.52,-258.8 800.84,-258.8"/>
<text text-anchor="start" x="815.2" y="-272.2" font-family="Arial Bold" font-size="18.00">public.tenants</text>
<text text-anchor="start" x="915.67" y="-272.2" font-family="Arial" font-size="14.00">    </text>
<text text-anchor="start" x="946.79" y="-272.2" font-family="Arial" font-size="14.00" fill="#666666">[BASE TABLE]</text>
<polygon fill="none" stroke="black" points="800.84,-228 800.84,-258.8 1054.52,-258.8 1054.52,-228 800.84,-228"/>
<text text-anchor="start" x="807.84" y="-240.2" font-family="Arial" font-size="14.00">id </text>
<text text-anchor="start" x="822.62" y="-240.2" font-family="Arial" font-size="14.00" fill="#666666">[uuid]</text>
<polygon fill="none" stroke="black" points="800.84,-197.2 800.84,-228 1054.52,-228 1054.52,-197.2 800.84,-197.2"/>
<text text-anchor="start" x="807.84" y="-209.4" font-family="Arial" font-size="14.00">organization_id </text>
<text text-anchor="start" x="906.69" y="-209.4" font-family="Arial" font-size="14.00" fill="#666666">[uuid]</text>
<polygon fill="none" stroke="black" points="800.84,-166.4 800.84,-197.2 1054.52,-197.2 1054.52,-166.4 800.84,-166.4"/>
<text text-anchor="start" x="807.84" y="-178.6" font-family="Arial" font-size="14.00">name </text>
<text text-anchor="start" x="846.75" y="-178.6" font-family="Arial" font-size="14.00" fill="#666666">[text]</text>
<polygon fill="none" stroke="black" points="800.84,-135.6 800.84,-166.4 1054.52,-166.4 1054.52,-135.6 800.84,-135.6"/>
<text text-anchor="start" x="807.84" y="-147.8" font-family="Arial" font-size="14.00">description </text>
<text text-anchor="start" x="879.43" y="-147.8" font-family="Arial" font-size="14.00" fill="#666666">[text]</text>
<polygon fill="none" stroke="black" points="800.84,-104.8 800.84,-135.6 1054.52,-135.6 1054.52,-104.8 800.84,-104.8"/>
<text text-anchor="start" x="807.84" y="-117" font-family="Arial" font-size="14.00">tenant_type </text>
<text text-anchor="start" x="884.9" y="-117" font-family="Arial" font-size="14.00" fill="#666666">[text]</text>
<polygon fill="none" stroke="black" points="800.84,-74 800.84,-104.8 1054.52,-104.8 1054.52,-74 800.84,-74"/>
<text text-anchor="start" x="807.84" y="-86.2" font-family="Arial" font-size="14.00">created_at </text>
<text text-anchor="start" x="877.89" y="-86.2" font-family="Arial" font-size="14.00" fill="#666666">[timestamp with time zone]</text>
<polygon fill="none" stroke="black" points="800.84,-43.2 800.84,-74 1054.52,-74 1054.52,-43.2 800.84,-43.2"/>
<text text-anchor="start" x="807.84" y="-55.4" font-family="Arial" font-size="14.00">updated_at </text>
<text text-anchor="start" x="881.8" y="-55.4" font-family="Arial" font-size="14.00" fill="#666666">[timestamp with time zone]</text>
</g>
<!-- public.tenant_join_codes -->
<g id="node6" class="node">
<title>public.tenant_join_codes</title>
<polygon fill="#efefef" stroke="none" points="920.21,-632.4 920.21,-668 1239.15,-668 1239.15,-632.4 920.21,-632.4"/>
<polygon fill="none" stroke="black" points="920.21,-632.4 920.21,-668 1239.15,-668 1239.15,-632.4 920.21,-632.4"/>
<text text-anchor="start" x="927.21" y="-645.8" font-family="Arial Bold" font-size="18.00">public.tenant_join_codes</text>
<text text-anchor="start" x="1107.66" y="-645.8" font-family="Arial" font-size="14.00">    </text>
<text text-anchor="start" x="1138.78" y="-645.8" font-family="Arial" font-size="14.00" fill="#666666">[BASE TABLE]</text>
<polygon fill="none" stroke="black" points="920.21,-601.6 920.21,-632.4 1239.15,-632.4 1239.15,-601.6 920.21,-601.6"/>
<text text-anchor="start" x="927.21" y="-613.8" font-family="Arial" font-size="14.00">id </text>
<text text-anchor="start" x="941.99" y="-613.8" font-family="Arial" font-size="14.00" fill="#666666">[uuid]</text>
<polygon fill="none" stroke="black" points="920.21,-570.8 920.21,-601.6 1239.15,-601.6 1239.15,-570.8 920.21,-570.8"/>
<text text-anchor="start" x="927.21" y="-583" font-family="Arial" font-size="14.00">tenant_id </text>
<text text-anchor="start" x="988.7" y="-583" font-family="Arial" font-size="14.00" fill="#666666">[uuid]</text>
<polygon fill="none" stroke="black" points="920.21,-540 920.21,-570.8 1239.15,-570.8 1239.15,-540 920.21,-540"/>
<text text-anchor="start" x="927.21" y="-552.2" font-family="Arial" font-size="14.00">code </text>
<text text-anchor="start" x="961.45" y="-552.2" font-family="Arial" font-size="14.00" fill="#666666">[text]</text>
<polygon fill="none" stroke="black" points="920.21,-509.2 920.21,-540 1239.15,-540 1239.15,-509.2 920.21,-509.2"/>
<text text-anchor="start" x="927.21" y="-521.4" font-family="Arial" font-size="14.00">expires_at </text>
<text text-anchor="start" x="995.69" y="-521.4" font-family="Arial" font-size="14.00" fill="#666666">[timestamp with time zone]</text>
<polygon fill="none" stroke="black" points="920.21,-478.4 920.21,-509.2 1239.15,-509.2 1239.15,-478.4 920.21,-478.4"/>
<text text-anchor="start" x="927.21" y="-490.6" font-family="Arial" font-size="14.00">max_uses </text>
<text text-anchor="start" x="994.9" y="-490.6" font-family="Arial" font-size="14.00" fill="#666666">[integer]</text>
<polygon fill="none" stroke="black" points="920.21,-447.6 920.21,-478.4 1239.15,-478.4 1239.15,-447.6 920.21,-447.6"/>
<text text-anchor="start" x="927.21" y="-459.8" font-family="Arial" font-size="14.00">used_count </text>
<text text-anchor="start" x="1003.49" y="-459.8" font-family="Arial" font-size="14.00" fill="#666666">[integer]</text>
<polygon fill="none" stroke="black" points="920.21,-416.8 920.21,-447.6 1239.15,-447.6 1239.15,-416.8 920.21,-416.8"/>
<text text-anchor="start" x="927.21" y="-429" font-family="Arial" font-size="14.00">created_at </text>
<text text-anchor="start" x="997.25" y="-429" font-family="Arial" font-size="14.00" fill="#666666">[timestamp with time zone]</text>
</g>
<!-- public.tenant_join_codes&#45;&gt;public.tenants -->
<g id="edge4" class="edge">
<title>public.tenant_join_codes:tenant_id&#45;&gt;public.tenants:id</title>
<path fill="none" stroke="black" d="M909.33,-583.14C875.05,-559.67 893.61,-408.09 920.21,-373.6 957.94,-324.66 1016.64,-386.43 1054.52,-337.6 1080.18,-304.52 1097.39,-243.4 1055.52,-243.4"/>
<polygon fill="black" stroke="black" points="909.33,-583.14 917.56,-590.4 914.43,-584.72 918.57,-586 918.57,-586 918.57,-586 914.43,-584.72 920.22,-581.8 909.33,-583.14"/>
<text text-anchor="start" x="926.21" y="-596.2" font-family="Arial" font-size="10.00">FOREIGN KEY (tenant_id) REFERENCES tenants(id) ON DELETE CASCADE</text>
</g>
<!-- public.tenant_memberships&#45;&gt;public.users -->
<g id="edge5" class="edge">
<title>public.tenant_memberships:user_id&#45;&gt;public.users:id</title>
<path fill="none" stroke="black" d="M467.83,-539.17C415.87,-530.01 455.17,-447.57 479.21,-389 494.94,-350.66 528.44,-360.51 544.25,-322.2 560.22,-283.5 587.12,-228 545.25,-228"/>
<polygon fill="black" stroke="black" points="467.9,-539.17 477.51,-544.46 473.22,-539.6 477.54,-539.95 477.54,-539.95 477.54,-539.95 473.22,-539.6 478.23,-535.49 467.9,-539.17"/>
<text text-anchor="start" x="398.22" y="-524" font-family="Arial" font-size="10.00">FOREIGN KEY (user_id) REFERENCES users(id) ON DELETE CASCADE</text>
</g>
<!-- public.tenant_memberships&#45;&gt;public.tenants -->
<g id="edge6" class="edge">
<title>public.tenant_memberships:tenant_id&#45;&gt;public.tenants:id</title>
<path fill="none" stroke="black" d="M827.54,-570.14C891.53,-561.3 827.47,-465.18 816.15,-389 812.65,-365.42 804.4,-361.17 800.84,-337.6 794.58,-296.2 757.97,-243.4 799.84,-243.4"/>
<polygon fill="black" stroke="black" points="827.47,-570.15 817.2,-566.29 822.14,-570.48 817.82,-570.76 817.82,-570.76 817.82,-570.76 822.14,-570.48 817.77,-575.27 827.47,-570.15"/>
<text text-anchor="start" x="459.49" y="-554.8" font-family="Arial" font-size="10.00">FOREIGN KEY (tenant_id) REFERENCES tenants(id) ON DELETE CASCADE</text>
</g>
<!-- public.console_sessions -->
<g id="node8" class="node">
<title>public.console_sessions</title>
<polygon fill="#efefef" stroke="none" points="1138.19,-959.8 1138.19,-995.4 1449.17,-995.4 1449.17,-959.8 1138.19,-959.8"/>
<polygon fill="none" stroke="black" points="1138.19,-959.8 1138.19,-995.4 1449.17,-995.4 1449.17,-959.8 1138.19,-959.8"/>
<text text-anchor="start" x="1145.19" y="-973.2" font-family="Arial Bold" font-size="18.00">public.console_sessions</text>
<text text-anchor="start" x="1317.68" y="-973.2" font-family="Arial" font-size="14.00">    </text>
<text text-anchor="start" x="1348.79" y="-973.2" font-family="Arial" font-size="14.00" fill="#666666">[BASE TABLE]</text>
<polygon fill="none" stroke="black" points="1138.19,-929 1138.19,-959.8 1449.17,-959.8 1449.17,-929 1138.19,-929"/>
<text text-anchor="start" x="1145.19" y="-941.2" font-family="Arial" font-size="14.00">session_id </text>
<text text-anchor="start" x="1215.23" y="-941.2" font-family="Arial" font-size="14.00" fill="#666666">[text]</text>
<polygon fill="none" stroke="black" points="1138.19,-898.2 1138.19,-929 1449.17,-929 1449.17,-898.2 1138.19,-898.2"/>
<text text-anchor="start" x="1145.19" y="-910.4" font-family="Arial" font-size="14.00">organization_id </text>
<text text-anchor="start" x="1244.04" y="-910.4" font-family="Arial" font-size="14.00" fill="#666666">[uuid]</text>
<polygon fill="none" stroke="black" points="1138.19,-867.4 1138.19,-898.2 1449.17,-898.2 1449.17,-867.4 1138.19,-867.4"/>
<text text-anchor="start" x="1145.19" y="-879.6" font-family="Arial" font-size="14.00">created_at </text>
<text text-anchor="start" x="1215.24" y="-879.6" font-family="Arial" font-size="14.00" fill="#666666">[timestamp with time zone]</text>
<polygon fill="none" stroke="black" points="1138.19,-836.6 1138.19,-867.4 1449.17,-867.4 1449.17,-836.6 1138.19,-836.6"/>
<text text-anchor="start" x="1145.19" y="-848.8" font-family="Arial" font-size="14.00">expires_at </text>
<text text-anchor="start" x="1213.67" y="-848.8" font-family="Arial" font-size="14.00" fill="#666666">[timestamp with time zone]</text>
</g>
</g>
</svg>
