<?xml version="1.0" encoding="UTF-8" standalone="no"?>
<!DOCTYPE svg PUBLIC "-//W3C//DTD SVG 1.1//EN"
 "http://www.w3.org/Graphics/SVG/1.1/DTD/svg11.dtd">
<!-- Generated by graphviz version 12.1.2 (20240928.0832)
 -->
<!-- Title: keyhub Pages: 1 -->
<svg width="1500pt" height="1124pt"
 viewBox="0.00 0.00 1500.37 1123.60" xmlns="http://www.w3.org/2000/svg" xmlns:xlink="http://www.w3.org/1999/xlink">
<g id="graph0" class="graph" transform="scale(1 1) rotate(0) translate(4 1119.6)">
<title>keyhub</title>
<polygon fill="white" stroke="none" points="-4,4 -4,-1119.6 1496.37,-1119.6 1496.37,4 -4,4"/>
<!-- public.users -->
<g id="node1" class="node">
<title>public.users</title>
<polygon fill="#efefef" stroke="none" points="271.11,-243.4 271.11,-279 544.25,-279 544.25,-243.4 271.11,-243.4"/>
<polygon fill="none" stroke="black" points="271.11,-243.4 271.11,-279 544.25,-279 544.25,-243.4 271.11,-243.4"/>
<text text-anchor="start" x="302.19" y="-256.8" font-family="Arial Bold" font-size="18.00">public.users</text>
<text text-anchor="start" x="388.68" y="-256.8" font-family="Arial" font-size="14.00">    </text>
<text text-anchor="start" x="419.79" y="-256.8" font-family="Arial" font-size="14.00" fill="#666666">[BASE TABLE]</text>
<polygon fill="none" stroke="black" points="271.11,-212.6 271.11,-243.4 544.25,-243.4 544.25,-212.6 271.11,-212.6"/>
<text text-anchor="start" x="278.11" y="-224.8" font-family="Arial" font-size="14.00">id </text>
<text text-anchor="start" x="292.89" y="-224.8" font-family="Arial" font-size="14.00" fill="#666666">[uuid]</text>
<polygon fill="none" stroke="black" points="271.11,-181.8 271.11,-212.6 544.25,-212.6 544.25,-181.8 271.11,-181.8"/>
<text text-anchor="start" x="278.11" y="-194" font-family="Arial" font-size="14.00">email </text>
<text text-anchor="start" x="315.45" y="-194" font-family="Arial" font-size="14.00" fill="#666666">[text]</text>
<polygon fill="none" stroke="black" points="271.11,-151 271.11,-181.8 544.25,-181.8 544.25,-151 271.11,-151"/>
<text text-anchor="start" x="278.11" y="-163.2" font-family="Arial" font-size="14.00">name </text>
<text text-anchor="start" x="317.02" y="-163.2" font-family="Arial" font-size="14.00" fill="#666666">[text]</text>
<polygon fill="none" stroke="black" points="271.11,-120.2 271.11,-151 544.25,-151 544.25,-120.2 271.11,-120.2"/>
<text text-anchor="start" x="278.11" y="-132.4" font-family="Arial" font-size="14.00">icon </text>
<text text-anchor="start" x="307.68" y="-132.4" font-family="Arial" font-size="14.00" fill="#666666">[text]</text>
<polygon fill="none" stroke="black" points="271.11,-89.4 271.11,-120.2 544.25,-120.2 544.25,-89.4 271.11,-89.4"/>
<text text-anchor="start" x="278.11" y="-101.6" font-family="Arial" font-size="14.00">created_at </text>
<text text-anchor="start" x="348.15" y="-101.6" font-family="Arial" font-size="14.00" fill="#666666">[timestamp without time zone]</text>
<polygon fill="none" stroke="black" points="271.11,-58.6 271.11,-89.4 544.25,-89.4 544.25,-58.6 271.11,-58.6"/>
<text text-anchor="start" x="278.11" y="-70.8" font-family="Arial" font-size="14.00">updated_at </text>
<text text-anchor="start" x="352.06" y="-70.8" font-family="Arial" font-size="14.00" fill="#666666">[timestamp without time zone]</text>
</g>
<!-- public.user_identities -->
<g id="node2" class="node">
<title>public.user_identities</title>
<polygon fill="#efefef" stroke="none" points="43.2,-632.4 43.2,-668 336.16,-668 336.16,-632.4 43.2,-632.4"/>
<polygon fill="none" stroke="black" points="43.2,-632.4 43.2,-668 336.16,-668 336.16,-632.4 43.2,-632.4"/>
<text text-anchor="start" x="50.2" y="-645.8" font-family="Arial Bold" font-size="18.00">public.user_identities</text>
<text text-anchor="start" x="204.67" y="-645.8" font-family="Arial" font-size="14.00">    </text>
<text text-anchor="start" x="235.78" y="-645.8" font-family="Arial" font-size="14.00" fill="#666666">[BASE TABLE]</text>
<polygon fill="none" stroke="black" points="43.2,-601.6 43.2,-632.4 336.16,-632.4 336.16,-601.6 43.2,-601.6"/>
<text text-anchor="start" x="50.2" y="-613.8" font-family="Arial" font-size="14.00">id </text>
<text text-anchor="start" x="64.99" y="-613.8" font-family="Arial" font-size="14.00" fill="#666666">[uuid]</text>
<polygon fill="none" stroke="black" points="43.2,-570.8 43.2,-601.6 336.16,-601.6 336.16,-570.8 43.2,-570.8"/>
<text text-anchor="start" x="50.2" y="-583" font-family="Arial" font-size="14.00">user_id </text>
<text text-anchor="start" x="100.01" y="-583" font-family="Arial" font-size="14.00" fill="#666666">[uuid]</text>
<polygon fill="none" stroke="black" points="43.2,-540 43.2,-570.8 336.16,-570.8 336.16,-540 43.2,-540"/>
<text text-anchor="start" x="50.2" y="-552.2" font-family="Arial" font-size="14.00">provider </text>
<text text-anchor="start" x="104.67" y="-552.2" font-family="Arial" font-size="14.00" fill="#666666">[text]</text>
<polygon fill="none" stroke="black" points="43.2,-509.2 43.2,-540 336.16,-540 336.16,-509.2 43.2,-509.2"/>
<text text-anchor="start" x="50.2" y="-521.4" font-family="Arial" font-size="14.00">provider_sub </text>
<text text-anchor="start" x="135.03" y="-521.4" font-family="Arial" font-size="14.00" fill="#666666">[text]</text>
<polygon fill="none" stroke="black" points="43.2,-478.4 43.2,-509.2 336.16,-509.2 336.16,-478.4 43.2,-478.4"/>
<text text-anchor="start" x="50.2" y="-490.6" font-family="Arial" font-size="14.00">created_at </text>
<text text-anchor="start" x="120.25" y="-490.6" font-family="Arial" font-size="14.00" fill="#666666">[timestamp with time zone]</text>
<polygon fill="none" stroke="black" points="43.2,-447.6 43.2,-478.4 336.16,-478.4 336.16,-447.6 43.2,-447.6"/>
<text text-anchor="start" x="50.2" y="-459.8" font-family="Arial" font-size="14.00">updated_at </text>
<text text-anchor="start" x="124.16" y="-459.8" font-family="Arial" font-size="14.00" fill="#666666">[timestamp with time zone]</text>
</g>
<!-- public.user_identities&#45;&gt;public.users -->
<g id="edge1" class="edge">
<title>public.user_identities:user_id&#45;&gt;public.users:id</title>
<path fill="none" stroke="black" d="M347.24,-585.57C413.07,-576.78 361.71,-477.22 336.16,-404.4 320.73,-360.44 286.65,-366.12 271.11,-322.2 257.14,-282.73 228.24,-228 270.11,-228"/>
<polygon fill="black" stroke="black" points="347.47,-585.56 337.21,-581.69 342.15,-585.89 337.82,-586.16 337.82,-586.16 337.82,-586.16 342.15,-585.89 337.77,-590.67 347.47,-585.56"/>
<text text-anchor="start" x="344.16" y="-596.2" font-family="Arial" font-size="10.00">FOREIGN KEY (user_id) REFERENCES users(id) ON DELETE CASCADE</text>
</g>
<!-- public.sessions -->
<g id="node3" class="node">
<title>public.sessions</title>
<polygon fill="#efefef" stroke="none" points="402.79,-1036.8 402.79,-1072.4 652.56,-1072.4 652.56,-1036.8 402.79,-1036.8"/>
<polygon fill="none" stroke="black" points="402.79,-1036.8 402.79,-1072.4 652.56,-1072.4 652.56,-1036.8 402.79,-1036.8"/>
<text text-anchor="start" x="411.18" y="-1050.2" font-family="Arial Bold" font-size="18.00">public.sessions</text>
<text text-anchor="start" x="519.68" y="-1050.2" font-family="Arial" font-size="14.00">    </text>
<text text-anchor="start" x="550.8" y="-1050.2" font-family="Arial" font-size="14.00" fill="#666666">[BASE TABLE]</text>
<polygon fill="none" stroke="black" points="402.79,-1006 402.79,-1036.8 652.56,-1036.8 652.56,-1006 402.79,-1006"/>
<text text-anchor="start" x="409.79" y="-1018.2" font-family="Arial" font-size="14.00">session_id </text>
<text text-anchor="start" x="479.83" y="-1018.2" font-family="Arial" font-size="14.00" fill="#666666">[text]</text>
<polygon fill="none" stroke="black" points="402.79,-975.2 402.79,-1006 652.56,-1006 652.56,-975.2 402.79,-975.2"/>
<text text-anchor="start" x="409.79" y="-987.4" font-family="Arial" font-size="14.00">user_id </text>
<text text-anchor="start" x="459.6" y="-987.4" font-family="Arial" font-size="14.00" fill="#666666">[uuid]</text>
<polygon fill="none" stroke="black" points="402.79,-944.4 402.79,-975.2 652.56,-975.2 652.56,-944.4 402.79,-944.4"/>
<text text-anchor="start" x="409.79" y="-956.6" font-family="Arial" font-size="14.00">active_membership_id </text>
<text text-anchor="start" x="553.75" y="-956.6" font-family="Arial" font-size="14.00" fill="#666666">[uuid]</text>
<polygon fill="none" stroke="black" points="402.79,-913.6 402.79,-944.4 652.56,-944.4 652.56,-913.6 402.79,-913.6"/>
<text text-anchor="start" x="409.79" y="-925.8" font-family="Arial" font-size="14.00">created_at </text>
<text text-anchor="start" x="479.84" y="-925.8" font-family="Arial" font-size="14.00" fill="#666666">[timestamp with time zone]</text>
<polygon fill="none" stroke="black" points="402.79,-882.8 402.79,-913.6 652.56,-913.6 652.56,-882.8 402.79,-882.8"/>
<text text-anchor="start" x="409.79" y="-895" font-family="Arial" font-size="14.00">expires_at </text>
<text text-anchor="start" x="478.28" y="-895" font-family="Arial" font-size="14.00" fill="#666666">[timestamp with time zone]</text>
<polygon fill="none" stroke="black" points="402.79,-852 402.79,-882.8 652.56,-882.8 652.56,-852 402.79,-852"/>
<text text-anchor="start" x="409.79" y="-864.2" font-family="Arial" font-size="14.00">csrf_token </text>
<text text-anchor="start" x="478.27" y="-864.2" font-family="Arial" font-size="14.00" fill="#666666">[text]</text>
<polygon fill="none" stroke="black" points="402.79,-821.2 402.79,-852 652.56,-852 652.56,-821.2 402.79,-821.2"/>
<text text-anchor="start" x="409.79" y="-833.4" font-family="Arial" font-size="14.00">revoked </text>
<text text-anchor="start" x="463.49" y="-833.4" font-family="Arial" font-size="14.00" fill="#666666">[boolean]</text>
</g>
<!-- public.sessions&#45;&gt;public.users -->
<g id="edge2" class="edge">
<title>public.sessions:user_id&#45;&gt;public.users:id</title>
<path fill="none" stroke="black" d="M399.2,-980.91C390.77,-904.58 406.58,-402.43 426.68,-373.6 459.29,-326.82 512.78,-369.76 544.25,-322.2 567.36,-287.28 587.12,-228 545.25,-228"/>
<polygon fill="black" stroke="black" points="399.12,-980.62 397.36,-991.44 400.5,-985.77 401.62,-989.95 401.62,-989.95 401.62,-989.95 400.5,-985.77 406.05,-989.11 399.12,-980.62"/>
<text text-anchor="start" x="60.83" y="-1000.6" font-family="Arial" font-size="10.00">FOREIGN KEY (user_id) REFERENCES users(id) ON DELETE CASCADE</text>
</g>
<!-- public.tenant_memberships -->
<g id="node7" class="node">
<title>public.tenant_memberships</title>
<polygon fill="#efefef" stroke="none" points="479.21,-663.2 479.21,-698.8 816.15,-698.8 816.15,-663.2 479.21,-663.2"/>
<polygon fill="none" stroke="black" points="479.21,-663.2 479.21,-698.8 816.15,-698.8 816.15,-663.2 479.21,-663.2"/>
<text text-anchor="start" x="486.21" y="-676.6" font-family="Arial Bold" font-size="18.00">public.tenant_memberships</text>
<text text-anchor="start" x="684.66" y="-676.6" font-family="Arial" font-size="14.00">    </text>
<text text-anchor="start" x="715.78" y="-676.6" font-family="Arial" font-size="14.00" fill="#666666">[BASE TABLE]</text>
<polygon fill="none" stroke="black" points="479.21,-632.4 479.21,-663.2 816.15,-663.2 816.15,-632.4 479.21,-632.4"/>
<text text-anchor="start" x="486.21" y="-644.6" font-family="Arial" font-size="14.00">id </text>
<text text-anchor="start" x="500.99" y="-644.6" font-family="Arial" font-size="14.00" fill="#666666">[uuid]</text>
<polygon fill="none" stroke="black" points="479.21,-601.6 479.21,-632.4 816.15,-632.4 816.15,-601.6 479.21,-601.6"/>
<text text-anchor="start" x="486.21" y="-613.8" font-family="Arial" font-size="14.00">tenant_id </text>
<text text-anchor="start" x="547.7" y="-613.8" font-family="Arial" font-size="14.00" fill="#666666">[uuid]</text>
<polygon fill="none" stroke="black" points="479.21,-570.8 479.21,-601.6 816.15,-601.6 816.15,-570.8 479.21,-570.8"/>
<text text-anchor="start" x="486.21" y="-583" font-family="Arial" font-size="14.00">user_id </text>
<text text-anchor="start" x="536.01" y="-583" font-family="Arial" font-size="14.00" fill="#666666">[uuid]</text>
<polygon fill="none" stroke="black" points="479.21,-540 479.21,-570.8 816.15,-570.8 816.15,-540 479.21,-540"/>
<text text-anchor="start" x="486.21" y="-552.2" font-family="Arial" font-size="14.00">role </text>
<text text-anchor="start" x="513.44" y="-552.2" font-family="Arial" font-size="14.00" fill="#666666">[text]</text>
<polygon fill="none" stroke="black" points="479.21,-509.2 479.21,-540 816.15,-540 816.15,-509.2 479.21,-509.2"/>
<text text-anchor="start" x="486.21" y="-521.4" font-family="Arial" font-size="14.00">status </text>
<text text-anchor="start" x="527.45" y="-521.4" font-family="Arial" font-size="14.00" fill="#666666">[text]</text>
<polygon fill="none" stroke="black" points="479.21,-478.4 479.21,-509.2 816.15,-509.2 816.15,-478.4 479.21,-478.4"/>
<text text-anchor="start" x="486.21" y="-490.6" font-family="Arial" font-size="14.00">joined_via </text>
<text text-anchor="start" x="553.14" y="-490.6" font-family="Arial" font-size="14.00" fill="#666666">[text]</text>
<polygon fill="none" stroke="black" points="479.21,-447.6 479.21,-478.4 816.15,-478.4 816.15,-447.6 479.21,-447.6"/>
<text text-anchor="start" x="486.21" y="-459.8" font-family="Arial" font-size="14.00">created_at </text>
<text text-anchor="start" x="556.25" y="-459.8" font-family="Arial" font-size="14.00" fill="#666666">[timestamp with time zone]</text>
<polygon fill="none" stroke="black" points="479.21,-416.8 479.21,-447.6 816.15,-447.6 816.15,-416.8 479.21,-416.8"/>
<text text-anchor="start" x="486.21" y="-429" font-family="Arial" font-size="14.00">left_at </text>
<text text-anchor="start" x="528.23" y="-429" font-family="Arial" font-size="14.00" fill="#666666">[timestamp with time zone]</text>
</g>
<!-- public.sessions&#45;&gt;public.tenant_memberships -->
<g id="edge3" class="edge">
<title>public.sessions:active_membership_id&#45;&gt;public.tenant_memberships:id</title>
<path fill="none" stroke="black" d="M663.79,-959.09C731.57,-949.2 701.43,-837.73 652.56,-778 602.73,-717.1 529.19,-802.77 479.21,-742 452.61,-709.66 436.34,-647.8 478.21,-647.8"/>
<polygon fill="black" stroke="black" points="663.87,-959.09 653.59,-955.29 658.55,-959.46 654.23,-959.75 654.23,-959.75 654.23,-959.75 658.55,-959.46 654.21,-964.27 663.87,-959.09"/>
<text text-anchor="start" x="287" y="-969.8" font-family="Arial" font-size="10.00">FOREIGN KEY (active_membership_id) REFERENCES tenant_memberships(id)</text>
</g>
<!-- public.oauth_states -->
<g id="node4" class="node">
<title>public.oauth_states</title>
<polygon fill="#efefef" stroke="none" points="757.2,-1006 757.2,-1041.6 1034.16,-1041.6 1034.16,-1006 757.2,-1006"/>
<polygon fill="none" stroke="black" points="757.2,-1006 757.2,-1041.6 1034.16,-1041.6 1034.16,-1006 757.2,-1006"/>
<text text-anchor="start" x="764.2" y="-1019.4" font-family="Arial Bold" font-size="18.00">public.oauth_states</text>
<text text-anchor="start" x="902.67" y="-1019.4" font-family="Arial" font-size="14.00">    </text>
<text text-anchor="start" x="933.79" y="-1019.4" font-family="Arial" font-size="14.00" fill="#666666">[BASE TABLE]</text>
<polygon fill="none" stroke="black" points="757.2,-975.2 757.2,-1006 1034.16,-1006 1034.16,-975.2 757.2,-975.2"/>
<text text-anchor="start" x="764.2" y="-987.4" font-family="Arial" font-size="14.00">state </text>
<text text-anchor="start" x="798.44" y="-987.4" font-family="Arial" font-size="14.00" fill="#666666">[text]</text>
<polygon fill="none" stroke="black" points="757.2,-944.4 757.2,-975.2 1034.16,-975.2 1034.16,-944.4 757.2,-944.4"/>
<text text-anchor="start" x="764.2" y="-956.6" font-family="Arial" font-size="14.00">code_verifier </text>
<text text-anchor="start" x="848.24" y="-956.6" font-family="Arial" font-size="14.00" fill="#666666">[text]</text>
<polygon fill="none" stroke="black" points="757.2,-913.6 757.2,-944.4 1034.16,-944.4 1034.16,-913.6 757.2,-913.6"/>
<text text-anchor="start" x="764.2" y="-925.8" font-family="Arial" font-size="14.00">nonce </text>
<text text-anchor="start" x="806.23" y="-925.8" font-family="Arial" font-size="14.00" fill="#666666">[text]</text>
<polygon fill="none" stroke="black" points="757.2,-882.8 757.2,-913.6 1034.16,-913.6 1034.16,-882.8 757.2,-882.8"/>
<text text-anchor="start" x="764.2" y="-895" font-family="Arial" font-size="14.00">created_at </text>
<text text-anchor="start" x="834.25" y="-895" font-family="Arial" font-size="14.00" fill="#666666">[timestamp with time zone]</text>
<polygon fill="none" stroke="black" points="757.2,-852 757.2,-882.8 1034.16,-882.8 1034.16,-852 757.2,-852"/>
<text text-anchor="start" x="764.2" y="-864.2" font-family="Arial" font-size="14.00">consumed_at </text>
<text text-anchor="start" x="852.14" y="-864.2" font-family="Arial" font-size="14.00" fill="#666666">[timestamp with time zone]</text>
</g>
<!-- public.tenants -->
<g id="node5" class="node">
<title>public.tenants</title>
<polygon fill="#efefef" stroke="none" points="800.84,-258.8 800.84,-294.4 1054.52,-294.4 1054.52,-258.8 800.84,-258.8"/>
<polygon fill="none" stroke="black" points="800.84,-258.8 800.84,-294.4 1054.52,-294.4 1054.52,-258.8 800.84,-258.8"/>
<text text-anchor="start" x="815.2" y="-272.2" font-family="Arial Bold" font-size="18.00">public.tenants</text>
<text text-anchor="start" x="915.67" y="-272.2" font-family="Arial" font-size="14.00">    </text>
<text text-anchor="start" x="946.79" y="-272.2" font-family="Arial" font-size="14.00" fill="#666666">[BASE TABLE]</text>
<polygon fill="none" stroke="black" points="800.84,-228 800.84,-258.8 1054.52,-258.8 1054.52,-228 800.84,-228"/>
<text text-anchor="start" x="807.84" y="-240.2" font-family="Arial" font-size="14.00">id </text>
<text text-anchor="start" x="822.62" y="-240.2" font-family="Arial" font-size="14.00" fill="#666666">[uuid]</text>
<polygon fill="none" stroke="black" points="800.84,-197.2 800.84,-228 1054.52,-228 1054.52,-197.2 800.84,-197.2"/>
<text text-anchor="start" x="807.84" y="-209.4" font-family="Arial" font-size="14.00">name </text>
<text text-anchor="start" x="846.75" y="-209.4" font-family="Arial" font-size="14.00" fill="#666666">[text]</text>
<polygon fill="none" stroke="black" points="800.84,-166.4 800.84,-197.2 1054.52,-197.2 1054.52,-166.4 800.84,-166.4"/>
<text text-anchor="start" x="807.84" y="-178.6" font-family="Arial" font-size="14.00">description </text>
<text text-anchor="start" x="879.43" y="-178.6" font-family="Arial" font-size="14.00" fill="#666666">[text]</text>
<polygon fill="none" stroke="black" points="800.84,-135.6 800.84,-166.4 1054.52,-166.4 1054.52,-135.6 800.84,-135.6"/>
<text text-anchor="start" x="807.84" y="-147.8" font-family="Arial" font-size="14.00">password_hash </text>
<text text-anchor="start" x="909.79" y="-147.8" font-family="Arial" font-size="14.00" fill="#666666">[text]</text>
<polygon fill="none" stroke="black" points="800.84,-104.8 800.84,-135.6 1054.52,-135.6 1054.52,-104.8 800.84,-104.8"/>
<text text-anchor="start" x="807.84" y="-117" font-family="Arial" font-size="14.00">tenant_type </text>
<text text-anchor="start" x="884.9" y="-117" font-family="Arial" font-size="14.00" fill="#666666">[text]</text>
<polygon fill="none" stroke="black" points="800.84,-74 800.84,-104.8 1054.52,-104.8 1054.52,-74 800.84,-74"/>
<text text-anchor="start" x="807.84" y="-86.2" font-family="Arial" font-size="14.00">created_at </text>
<text text-anchor="start" x="877.89" y="-86.2" font-family="Arial" font-size="14.00" fill="#666666">[timestamp with time zone]</text>
<polygon fill="none" stroke="black" points="800.84,-43.2 800.84,-74 1054.52,-74 1054.52,-43.2 800.84,-43.2"/>
<text text-anchor="start" x="807.84" y="-55.4" font-family="Arial" font-size="14.00">updated_at </text>
<text text-anchor="start" x="881.8" y="-55.4" font-family="Arial" font-size="14.00" fill="#666666">[timestamp with time zone]</text>
</g>
<!-- public.tenant_join_codes -->
<g id="node6" class="node">
<title>public.tenant_join_codes</title>
<polygon fill="#efefef" stroke="none" points="920.21,-647.8 920.21,-683.4 1239.15,-683.4 1239.15,-647.8 920.21,-647.8"/>
<polygon fill="none" stroke="black" points="920.21,-647.8 920.21,-683.4 1239.15,-683.4 1239.15,-647.8 920.21,-647.8"/>
<text text-anchor="start" x="927.21" y="-661.2" font-family="Arial Bold" font-size="18.00">public.tenant_join_codes</text>
<text text-anchor="start" x="1107.66" y="-661.2" font-family="Arial" font-size="14.00">    </text>
<text text-anchor="start" x="1138.78" y="-661.2" font-family="Arial" font-size="14.00" fill="#666666">[BASE TABLE]</text>
<polygon fill="none" stroke="black" points="920.21,-617 920.21,-647.8 1239.15,-647.8 1239.15,-617 920.21,-617"/>
<text text-anchor="start" x="927.21" y="-629.2" font-family="Arial" font-size="14.00">id </text>
<text text-anchor="start" x="941.99" y="-629.2" font-family="Arial" font-size="14.00" fill="#666666">[uuid]</text>
<polygon fill="none" stroke="black" points="920.21,-586.2 920.21,-617 1239.15,-617 1239.15,-586.2 920.21,-586.2"/>
<text text-anchor="start" x="927.21" y="-598.4" font-family="Arial" font-size="14.00">tenant_id </text>
<text text-anchor="start" x="988.7" y="-598.4" font-family="Arial" font-size="14.00" fill="#666666">[uuid]</text>
<polygon fill="none" stroke="black" points="920.21,-555.4 920.21,-586.2 1239.15,-586.2 1239.15,-555.4 920.21,-555.4"/>
<text text-anchor="start" x="927.21" y="-567.6" font-family="Arial" font-size="14.00">code </text>
<text text-anchor="start" x="961.45" y="-567.6" font-family="Arial" font-size="14.00" fill="#666666">[text]</text>
<polygon fill="none" stroke="black" points="920.21,-524.6 920.21,-555.4 1239.15,-555.4 1239.15,-524.6 920.21,-524.6"/>
<text text-anchor="start" x="927.21" y="-536.8" font-family="Arial" font-size="14.00">expires_at </text>
<text text-anchor="start" x="995.69" y="-536.8" font-family="Arial" font-size="14.00" fill="#666666">[timestamp with time zone]</text>
<polygon fill="none" stroke="black" points="920.21,-493.8 920.21,-524.6 1239.15,-524.6 1239.15,-493.8 920.21,-493.8"/>
<text text-anchor="start" x="927.21" y="-506" font-family="Arial" font-size="14.00">max_uses </text>
<text text-anchor="start" x="994.9" y="-506" font-family="Arial" font-size="14.00" fill="#666666">[integer]</text>
<polygon fill="none" stroke="black" points="920.21,-463 920.21,-493.8 1239.15,-493.8 1239.15,-463 920.21,-463"/>
<text text-anchor="start" x="927.21" y="-475.2" font-family="Arial" font-size="14.00">used_count </text>
<text text-anchor="start" x="1003.49" y="-475.2" font-family="Arial" font-size="14.00" fill="#666666">[integer]</text>
<polygon fill="none" stroke="black" points="920.21,-432.2 920.21,-463 1239.15,-463 1239.15,-432.2 920.21,-432.2"/>
<text text-anchor="start" x="927.21" y="-444.4" font-family="Arial" font-size="14.00">created_at </text>
<text text-anchor="start" x="997.25" y="-444.4" font-family="Arial" font-size="14.00" fill="#666666">[timestamp with time zone]</text>
</g>
<!-- public.tenant_join_codes&#45;&gt;public.tenants -->
<g id="edge4" class="edge">
<title>public.tenant_join_codes:tenant_id&#45;&gt;public.tenants:id</title>
<path fill="none" stroke="black" d="M909.36,-598.57C875.33,-575.28 895.43,-424.82 920.21,-389 956.56,-336.43 1018.01,-390.06 1054.52,-337.6 1078.43,-303.23 1097.39,-243.4 1055.52,-243.4"/>
<polygon fill="black" stroke="black" points="909.33,-598.56 917.56,-605.8 914.43,-600.13 918.57,-601.4 918.57,-601.4 918.57,-601.4 914.43,-600.13 920.21,-597.2 909.33,-598.56"/>
<text text-anchor="start" x="926.21" y="-611.6" font-family="Arial" font-size="10.00">FOREIGN KEY (tenant_id) REFERENCES tenants(id) ON DELETE CASCADE</text>
</g>
<!-- public.tenant_memberships&#45;&gt;public.users -->
<g id="edge5" class="edge">
<title>public.tenant_memberships:user_id&#45;&gt;public.users:id</title>
<path fill="none" stroke="black" d="M467.8,-585.63C387.92,-576.29 439.44,-455.23 479.21,-373.6 495.34,-340.48 528.01,-355.28 544.25,-322.2 562.7,-284.62 587.12,-228 545.25,-228"/>
<polygon fill="black" stroke="black" points="467.89,-585.63 477.62,-590.67 473.21,-585.92 477.54,-586.16 477.54,-586.16 477.54,-586.16 473.21,-585.92 478.12,-581.69 467.89,-585.63"/>
<text text-anchor="start" x="398.22" y="-570.2" font-family="Arial" font-size="10.00">FOREIGN KEY (user_id) REFERENCES users(id) ON DELETE CASCADE</text>
</g>
<!-- public.tenant_memberships&#45;&gt;public.tenants -->
<g id="edge6" class="edge">
<title>public.tenant_memberships:tenant_id&#45;&gt;public.tenants:id</title>
<path fill="none" stroke="black" d="M827.15,-614.29C865.19,-590.9 826.3,-422.85 816.15,-373.6 812.64,-356.57 804.4,-354.62 800.84,-337.6 792.26,-296.62 757.97,-243.4 799.84,-243.4"/>
<polygon fill="black" stroke="black" points="827.13,-614.3 816.3,-612.57 821.98,-615.69 817.8,-616.82 817.8,-616.82 817.8,-616.82 821.98,-615.69 818.65,-621.26 827.13,-614.3"/>
<text text-anchor="start" x="459.49" y="-627" font-family="Arial" font-size="10.00">FOREIGN KEY (tenant_id) REFERENCES tenants(id) ON DELETE CASCADE</text>
</g>
<!-- public.console_sessions -->
<g id="node8" class="node">
<title>public.console_sessions</title>
<polygon fill="#efefef" stroke="none" points="1138.19,-990.6 1138.19,-1026.2 1449.17,-1026.2 1449.17,-990.6 1138.19,-990.6"/>
<polygon fill="none" stroke="black" points="1138.19,-990.6 1138.19,-1026.2 1449.17,-1026.2 1449.17,-990.6 1138.19,-990.6"/>
<text text-anchor="start" x="1145.19" y="-1004" font-family="Arial Bold" font-size="18.00">public.console_sessions</text>
<text text-anchor="start" x="1317.68" y="-1004" font-family="Arial" font-size="14.00">    </text>
<text text-anchor="start" x="1348.79" y="-1004" font-family="Arial" font-size="14.00" fill="#666666">[BASE TABLE]</text>
<polygon fill="none" stroke="black" points="1138.19,-959.8 1138.19,-990.6 1449.17,-990.6 1449.17,-959.8 1138.19,-959.8"/>
<text text-anchor="start" x="1145.19" y="-972" font-family="Arial" font-size="14.00">session_id </text>
<text text-anchor="start" x="1215.23" y="-972" font-family="Arial" font-size="14.00" fill="#666666">[text]</text>
<polygon fill="none" stroke="black" points="1138.19,-929 1138.19,-959.8 1449.17,-959.8 1449.17,-929 1138.19,-929"/>
<text text-anchor="start" x="1145.19" y="-941.2" font-family="Arial" font-size="14.00">organization_id </text>
<text text-anchor="start" x="1244.04" y="-941.2" font-family="Arial" font-size="14.00" fill="#666666">[uuid]</text>
<polygon fill="none" stroke="black" points="1138.19,-898.2 1138.19,-929 1449.17,-929 1449.17,-898.2 1138.19,-898.2"/>
<text text-anchor="start" x="1145.19" y="-910.4" font-family="Arial" font-size="14.00">created_at </text>
<text text-anchor="start" x="1215.24" y="-910.4" font-family="Arial" font-size="14.00" fill="#666666">[timestamp with time zone]</text>
<polygon fill="none" stroke="black" points="1138.19,-867.4 1138.19,-898.2 1449.17,-898.2 1449.17,-867.4 1138.19,-867.4"/>
<text text-anchor="start" x="1145.19" y="-879.6" font-family="Arial" font-size="14.00">expires_at </text>
<text text-anchor="start" x="1213.67" y="-879.6" font-family="Arial" font-size="14.00" fill="#666666">[timestamp with time zone]</text>
</g>
</g>
</svg>
